%TF.GenerationSoftware,KiCad,Pcbnew,(6.0.1)*%
%TF.CreationDate,2022-02-28T23:17:01+05:30*%
%TF.ProjectId,ProIMU_V1,50726f49-4d55-45f5-9631-2e6b69636164,rev?*%
%TF.SameCoordinates,Original*%
%TF.FileFunction,Soldermask,Bot*%
%TF.FilePolarity,Negative*%
%FSLAX46Y46*%
G04 Gerber Fmt 4.6, Leading zero omitted, Abs format (unit mm)*
G04 Created by KiCad (PCBNEW (6.0.1)) date 2022-02-28 23:17:01*
%MOMM*%
%LPD*%
G01*
G04 APERTURE LIST*
G04 Aperture macros list*
%AMRoundRect*
0 Rectangle with rounded corners*
0 $1 Rounding radius*
0 $2 $3 $4 $5 $6 $7 $8 $9 X,Y pos of 4 corners*
0 Add a 4 corners polygon primitive as box body*
4,1,4,$2,$3,$4,$5,$6,$7,$8,$9,$2,$3,0*
0 Add four circle primitives for the rounded corners*
1,1,$1+$1,$2,$3*
1,1,$1+$1,$4,$5*
1,1,$1+$1,$6,$7*
1,1,$1+$1,$8,$9*
0 Add four rect primitives between the rounded corners*
20,1,$1+$1,$2,$3,$4,$5,0*
20,1,$1+$1,$4,$5,$6,$7,0*
20,1,$1+$1,$6,$7,$8,$9,0*
20,1,$1+$1,$8,$9,$2,$3,0*%
G04 Aperture macros list end*
%ADD10C,2.200000*%
%ADD11C,0.650000*%
%ADD12O,1.050000X2.100000*%
%ADD13O,1.000000X2.000000*%
%ADD14R,1.700000X1.700000*%
%ADD15O,1.700000X1.700000*%
%ADD16RoundRect,0.155000X0.212500X0.155000X-0.212500X0.155000X-0.212500X-0.155000X0.212500X-0.155000X0*%
%ADD17RoundRect,0.155000X0.155000X-0.212500X0.155000X0.212500X-0.155000X0.212500X-0.155000X-0.212500X0*%
%ADD18RoundRect,0.155000X-0.212500X-0.155000X0.212500X-0.155000X0.212500X0.155000X-0.212500X0.155000X0*%
%ADD19RoundRect,0.155000X-0.155000X0.212500X-0.155000X-0.212500X0.155000X-0.212500X0.155000X0.212500X0*%
%ADD20RoundRect,0.160000X-0.160000X0.197500X-0.160000X-0.197500X0.160000X-0.197500X0.160000X0.197500X0*%
%ADD21R,1.500000X0.800000*%
%ADD22R,1.500000X1.150000*%
%ADD23R,1.150000X1.500000*%
%ADD24R,1.700000X1.400000*%
%ADD25R,1.000000X3.150000*%
%ADD26RoundRect,0.160000X0.160000X-0.197500X0.160000X0.197500X-0.160000X0.197500X-0.160000X-0.197500X0*%
%ADD27RoundRect,0.160000X-0.197500X-0.160000X0.197500X-0.160000X0.197500X0.160000X-0.197500X0.160000X0*%
%ADD28RoundRect,0.075000X0.700000X0.075000X-0.700000X0.075000X-0.700000X-0.075000X0.700000X-0.075000X0*%
%ADD29RoundRect,0.075000X0.075000X0.700000X-0.075000X0.700000X-0.075000X-0.700000X0.075000X-0.700000X0*%
%ADD30RoundRect,0.162500X0.162500X-1.012500X0.162500X1.012500X-0.162500X1.012500X-0.162500X-1.012500X0*%
G04 APERTURE END LIST*
D10*
%TO.C,H3*%
X171000000Y-82500000D03*
%TD*%
D11*
%TO.C,USB1*%
X151390000Y-86430000D03*
X145610000Y-86430000D03*
D12*
X152820000Y-86930000D03*
D13*
X152820000Y-82750000D03*
X144180000Y-82750000D03*
D12*
X144180000Y-86930000D03*
%TD*%
D10*
%TO.C,H1*%
X126000000Y-82500000D03*
%TD*%
%TO.C,H2*%
X126000000Y-127500000D03*
%TD*%
%TO.C,H4*%
X171000000Y-127500000D03*
%TD*%
D14*
%TO.C,BAT1*%
X92600000Y-34000000D03*
D15*
X92600000Y-36540000D03*
%TD*%
D16*
%TO.C,C1*%
X154317500Y-97750000D03*
X153182500Y-97750000D03*
%TD*%
D17*
%TO.C,C20*%
X154500000Y-100067500D03*
X154500000Y-98932500D03*
%TD*%
D18*
%TO.C,C5*%
X164182500Y-98000000D03*
X165317500Y-98000000D03*
%TD*%
D19*
%TO.C,C17*%
X141000000Y-100182500D03*
X141000000Y-101317500D03*
%TD*%
%TO.C,C16*%
X145750000Y-113682500D03*
X145750000Y-114817500D03*
%TD*%
D20*
%TO.C,R2*%
X160250000Y-83402500D03*
X160250000Y-84597500D03*
%TD*%
%TO.C,R11*%
X150250000Y-95652500D03*
X150250000Y-96847500D03*
%TD*%
D18*
%TO.C,C19*%
X151432500Y-112500000D03*
X152567500Y-112500000D03*
%TD*%
D21*
%TO.C,J4*%
X129050000Y-114300000D03*
X129050000Y-115400000D03*
X129050000Y-116500000D03*
X129050000Y-117600000D03*
X129050000Y-118700000D03*
X129050000Y-119800000D03*
X129050000Y-120900000D03*
X129050000Y-122000000D03*
D22*
X135900000Y-123575000D03*
D23*
X140625000Y-116400000D03*
D24*
X126150000Y-110550000D03*
X126150000Y-123450000D03*
D23*
X140625000Y-114100000D03*
X140625000Y-123000000D03*
%TD*%
D25*
%TO.C,J1*%
X130540000Y-99025000D03*
X130540000Y-93975000D03*
X128000000Y-99025000D03*
X128000000Y-93975000D03*
X125460000Y-99025000D03*
X125460000Y-93975000D03*
%TD*%
D26*
%TO.C,R1*%
X162750000Y-84597500D03*
X162750000Y-83402500D03*
%TD*%
D20*
%TO.C,R4*%
X164000000Y-83402500D03*
X164000000Y-84597500D03*
%TD*%
%TO.C,R7*%
X159000000Y-83402500D03*
X159000000Y-84597500D03*
%TD*%
D27*
%TO.C,R3*%
X156402500Y-104250000D03*
X157597500Y-104250000D03*
%TD*%
D17*
%TO.C,C3*%
X161500000Y-84567500D03*
X161500000Y-83432500D03*
%TD*%
D28*
%TO.C,U10*%
X154175000Y-101250000D03*
X154175000Y-101750000D03*
X154175000Y-102250000D03*
X154175000Y-102750000D03*
X154175000Y-103250000D03*
X154175000Y-103750000D03*
X154175000Y-104250000D03*
X154175000Y-104750000D03*
X154175000Y-105250000D03*
X154175000Y-105750000D03*
X154175000Y-106250000D03*
X154175000Y-106750000D03*
X154175000Y-107250000D03*
X154175000Y-107750000D03*
X154175000Y-108250000D03*
X154175000Y-108750000D03*
D29*
X152250000Y-110675000D03*
X151750000Y-110675000D03*
X151250000Y-110675000D03*
X150750000Y-110675000D03*
X150250000Y-110675000D03*
X149750000Y-110675000D03*
X149250000Y-110675000D03*
X148750000Y-110675000D03*
X148250000Y-110675000D03*
X147750000Y-110675000D03*
X147250000Y-110675000D03*
X146750000Y-110675000D03*
X146250000Y-110675000D03*
X145750000Y-110675000D03*
X145250000Y-110675000D03*
X144750000Y-110675000D03*
D28*
X142825000Y-108750000D03*
X142825000Y-108250000D03*
X142825000Y-107750000D03*
X142825000Y-107250000D03*
X142825000Y-106750000D03*
X142825000Y-106250000D03*
X142825000Y-105750000D03*
X142825000Y-105250000D03*
X142825000Y-104750000D03*
X142825000Y-104250000D03*
X142825000Y-103750000D03*
X142825000Y-103250000D03*
X142825000Y-102750000D03*
X142825000Y-102250000D03*
X142825000Y-101750000D03*
X142825000Y-101250000D03*
D29*
X144750000Y-99325000D03*
X145250000Y-99325000D03*
X145750000Y-99325000D03*
X146250000Y-99325000D03*
X146750000Y-99325000D03*
X147250000Y-99325000D03*
X147750000Y-99325000D03*
X148250000Y-99325000D03*
X148750000Y-99325000D03*
X149250000Y-99325000D03*
X149750000Y-99325000D03*
X150250000Y-99325000D03*
X150750000Y-99325000D03*
X151250000Y-99325000D03*
X151750000Y-99325000D03*
X152250000Y-99325000D03*
%TD*%
D18*
%TO.C,C18*%
X143682500Y-112500000D03*
X144817500Y-112500000D03*
%TD*%
D30*
%TO.C,U2*%
X165310000Y-95775000D03*
X162770000Y-95775000D03*
X160230000Y-95775000D03*
X157690000Y-95775000D03*
X157690000Y-86725000D03*
X160230000Y-86725000D03*
X162770000Y-86725000D03*
X165310000Y-86725000D03*
%TD*%
M02*
