%TF.GenerationSoftware,KiCad,Pcbnew,(6.0.1)*%
%TF.CreationDate,2022-02-28T23:17:01+05:30*%
%TF.ProjectId,ProIMU_V1,50726f49-4d55-45f5-9631-2e6b69636164,rev?*%
%TF.SameCoordinates,Original*%
%TF.FileFunction,Copper,L2,Bot*%
%TF.FilePolarity,Positive*%
%FSLAX46Y46*%
G04 Gerber Fmt 4.6, Leading zero omitted, Abs format (unit mm)*
G04 Created by KiCad (PCBNEW (6.0.1)) date 2022-02-28 23:17:01*
%MOMM*%
%LPD*%
G01*
G04 APERTURE LIST*
G04 Aperture macros list*
%AMRoundRect*
0 Rectangle with rounded corners*
0 $1 Rounding radius*
0 $2 $3 $4 $5 $6 $7 $8 $9 X,Y pos of 4 corners*
0 Add a 4 corners polygon primitive as box body*
4,1,4,$2,$3,$4,$5,$6,$7,$8,$9,$2,$3,0*
0 Add four circle primitives for the rounded corners*
1,1,$1+$1,$2,$3*
1,1,$1+$1,$4,$5*
1,1,$1+$1,$6,$7*
1,1,$1+$1,$8,$9*
0 Add four rect primitives between the rounded corners*
20,1,$1+$1,$2,$3,$4,$5,0*
20,1,$1+$1,$4,$5,$6,$7,0*
20,1,$1+$1,$6,$7,$8,$9,0*
20,1,$1+$1,$8,$9,$2,$3,0*%
G04 Aperture macros list end*
%TA.AperFunction,ComponentPad*%
%ADD10O,1.050000X2.100000*%
%TD*%
%TA.AperFunction,ComponentPad*%
%ADD11O,1.000000X2.000000*%
%TD*%
%TA.AperFunction,ComponentPad*%
%ADD12R,1.700000X1.700000*%
%TD*%
%TA.AperFunction,ComponentPad*%
%ADD13O,1.700000X1.700000*%
%TD*%
%TA.AperFunction,SMDPad,CuDef*%
%ADD14RoundRect,0.155000X0.212500X0.155000X-0.212500X0.155000X-0.212500X-0.155000X0.212500X-0.155000X0*%
%TD*%
%TA.AperFunction,SMDPad,CuDef*%
%ADD15RoundRect,0.155000X0.155000X-0.212500X0.155000X0.212500X-0.155000X0.212500X-0.155000X-0.212500X0*%
%TD*%
%TA.AperFunction,SMDPad,CuDef*%
%ADD16RoundRect,0.155000X-0.212500X-0.155000X0.212500X-0.155000X0.212500X0.155000X-0.212500X0.155000X0*%
%TD*%
%TA.AperFunction,SMDPad,CuDef*%
%ADD17RoundRect,0.155000X-0.155000X0.212500X-0.155000X-0.212500X0.155000X-0.212500X0.155000X0.212500X0*%
%TD*%
%TA.AperFunction,SMDPad,CuDef*%
%ADD18RoundRect,0.160000X-0.160000X0.197500X-0.160000X-0.197500X0.160000X-0.197500X0.160000X0.197500X0*%
%TD*%
%TA.AperFunction,SMDPad,CuDef*%
%ADD19R,1.500000X0.800000*%
%TD*%
%TA.AperFunction,SMDPad,CuDef*%
%ADD20R,1.500000X1.150000*%
%TD*%
%TA.AperFunction,SMDPad,CuDef*%
%ADD21R,1.150000X1.500000*%
%TD*%
%TA.AperFunction,SMDPad,CuDef*%
%ADD22R,1.700000X1.400000*%
%TD*%
%TA.AperFunction,SMDPad,CuDef*%
%ADD23R,1.000000X3.150000*%
%TD*%
%TA.AperFunction,SMDPad,CuDef*%
%ADD24RoundRect,0.160000X0.160000X-0.197500X0.160000X0.197500X-0.160000X0.197500X-0.160000X-0.197500X0*%
%TD*%
%TA.AperFunction,SMDPad,CuDef*%
%ADD25RoundRect,0.160000X-0.197500X-0.160000X0.197500X-0.160000X0.197500X0.160000X-0.197500X0.160000X0*%
%TD*%
%TA.AperFunction,SMDPad,CuDef*%
%ADD26RoundRect,0.075000X0.700000X0.075000X-0.700000X0.075000X-0.700000X-0.075000X0.700000X-0.075000X0*%
%TD*%
%TA.AperFunction,SMDPad,CuDef*%
%ADD27RoundRect,0.075000X0.075000X0.700000X-0.075000X0.700000X-0.075000X-0.700000X0.075000X-0.700000X0*%
%TD*%
%TA.AperFunction,SMDPad,CuDef*%
%ADD28RoundRect,0.162500X0.162500X-1.012500X0.162500X1.012500X-0.162500X1.012500X-0.162500X-1.012500X0*%
%TD*%
%TA.AperFunction,ViaPad*%
%ADD29C,0.800000*%
%TD*%
%TA.AperFunction,Conductor*%
%ADD30C,0.250000*%
%TD*%
G04 APERTURE END LIST*
D10*
%TO.P,USB1,S1,SHELL_GND*%
%TO.N,unconnected-(USB1-PadS1)*%
X152820000Y-86930000D03*
D11*
%TO.P,USB1,S2,SHELL_GND*%
%TO.N,unconnected-(USB1-PadS2)*%
X152820000Y-82750000D03*
%TO.P,USB1,S3,SHELL_GND*%
%TO.N,unconnected-(USB1-PadS3)*%
X144180000Y-82750000D03*
D10*
%TO.P,USB1,S4,SHELL_GND*%
%TO.N,unconnected-(USB1-PadS4)*%
X144180000Y-86930000D03*
%TD*%
D12*
%TO.P,BAT1,1,Pin_1*%
%TO.N,unconnected-(BAT1-Pad1)*%
X92600000Y-34000000D03*
D13*
%TO.P,BAT1,2,Pin_2*%
%TO.N,unconnected-(BAT1-Pad2)*%
X92600000Y-36540000D03*
%TD*%
D14*
%TO.P,C1,1*%
%TO.N,+3V3*%
X154317500Y-97750000D03*
%TO.P,C1,2*%
%TO.N,GND*%
X153182500Y-97750000D03*
%TD*%
D15*
%TO.P,C20,1*%
%TO.N,+3V3*%
X154500000Y-100067500D03*
%TO.P,C20,2*%
%TO.N,GND*%
X154500000Y-98932500D03*
%TD*%
D16*
%TO.P,C5,1*%
%TO.N,GND*%
X164182500Y-98000000D03*
%TO.P,C5,2*%
%TO.N,+3V3*%
X165317500Y-98000000D03*
%TD*%
D17*
%TO.P,C17,1*%
%TO.N,+3V3*%
X141000000Y-100182500D03*
%TO.P,C17,2*%
%TO.N,GND*%
X141000000Y-101317500D03*
%TD*%
%TO.P,C16,1*%
%TO.N,Net-(C16-Pad1)*%
X145750000Y-113682500D03*
%TO.P,C16,2*%
%TO.N,GND*%
X145750000Y-114817500D03*
%TD*%
D18*
%TO.P,R2,1*%
%TO.N,Net-(R1-Pad2)*%
X160250000Y-83402500D03*
%TO.P,R2,2*%
%TO.N,Net-(R2-Pad2)*%
X160250000Y-84597500D03*
%TD*%
%TO.P,R11,1*%
%TO.N,+3V3*%
X150250000Y-95652500D03*
%TO.P,R11,2*%
%TO.N,Net-(R11-Pad2)*%
X150250000Y-96847500D03*
%TD*%
D16*
%TO.P,C19,1*%
%TO.N,+3V3*%
X151432500Y-112500000D03*
%TO.P,C19,2*%
%TO.N,GND*%
X152567500Y-112500000D03*
%TD*%
D19*
%TO.P,J4,1,DAT2*%
%TO.N,/MCU/SDCARD_SDIO_D2*%
X129050000Y-114300000D03*
%TO.P,J4,2,CD/DAT3*%
%TO.N,/MCU/SDCARD_SDIO_D3*%
X129050000Y-115400000D03*
%TO.P,J4,3,CMD*%
%TO.N,/MCU/SDCARD_SDIO_CLK*%
X129050000Y-116500000D03*
%TO.P,J4,4,VDD*%
%TO.N,+3V3*%
X129050000Y-117600000D03*
%TO.P,J4,5,CLK*%
%TO.N,/MCU/SDCARD_SDIO_CMD*%
X129050000Y-118700000D03*
%TO.P,J4,6,VSS*%
%TO.N,GND*%
X129050000Y-119800000D03*
%TO.P,J4,7,DAT0*%
%TO.N,/MCU/SDCARD_SDIO_D0*%
X129050000Y-120900000D03*
%TO.P,J4,8,DAT1*%
%TO.N,/MCU/SDCARD_SDIO_D1*%
X129050000Y-122000000D03*
D20*
%TO.P,J4,DL,DET_LEVEL*%
%TO.N,/MCU/SDCARD_DET_LEVEL*%
X135900000Y-123575000D03*
D21*
%TO.P,J4,DS,DET_SWT*%
%TO.N,/MCU/SDCARD_DET_SWT*%
X140625000Y-116400000D03*
D22*
%TO.P,J4,SM1*%
%TO.N,N/C*%
X126150000Y-110550000D03*
%TO.P,J4,SM2*%
X126150000Y-123450000D03*
D21*
%TO.P,J4,SM3*%
X140625000Y-114100000D03*
%TO.P,J4,SM4*%
X140625000Y-123000000D03*
%TD*%
D23*
%TO.P,J1,1,Pin_1*%
%TO.N,/MCU/DEBUG_UART1_RX*%
X130540000Y-99025000D03*
%TO.P,J1,2,Pin_2*%
%TO.N,/MCU/DEBUG_UART1_TX*%
X130540000Y-93975000D03*
%TO.P,J1,3,Pin_3*%
%TO.N,/MCU/NRST*%
X128000000Y-99025000D03*
%TO.P,J1,4,Pin_4*%
%TO.N,GND*%
X128000000Y-93975000D03*
%TO.P,J1,5,Pin_5*%
%TO.N,/MCU/DEBUG_SWDIO*%
X125460000Y-99025000D03*
%TO.P,J1,6,Pin_6*%
%TO.N,/MCU/DEBUG_SWCLK*%
X125460000Y-93975000D03*
%TD*%
D24*
%TO.P,R1,1*%
%TO.N,Net-(R1-Pad1)*%
X162750000Y-84597500D03*
%TO.P,R1,2*%
%TO.N,Net-(R1-Pad2)*%
X162750000Y-83402500D03*
%TD*%
D18*
%TO.P,R4,1*%
%TO.N,Net-(CAN1-Pad2)*%
X164000000Y-83402500D03*
%TO.P,R4,2*%
%TO.N,Net-(R1-Pad1)*%
X164000000Y-84597500D03*
%TD*%
%TO.P,R7,1*%
%TO.N,Net-(CAN1-Pad3)*%
X159000000Y-83402500D03*
%TO.P,R7,2*%
%TO.N,Net-(R2-Pad2)*%
X159000000Y-84597500D03*
%TD*%
D25*
%TO.P,R3,1*%
%TO.N,/MCU/NRST*%
X156402500Y-104250000D03*
%TO.P,R3,2*%
%TO.N,+3V3*%
X157597500Y-104250000D03*
%TD*%
D15*
%TO.P,C3,1*%
%TO.N,GND1*%
X161500000Y-84567500D03*
%TO.P,C3,2*%
%TO.N,Net-(R1-Pad2)*%
X161500000Y-83432500D03*
%TD*%
D26*
%TO.P,U10,1,VBAT*%
%TO.N,+3V3*%
X154175000Y-101250000D03*
%TO.P,U10,2,PC13*%
%TO.N,unconnected-(U10-Pad2)*%
X154175000Y-101750000D03*
%TO.P,U10,3,PC14*%
%TO.N,unconnected-(U10-Pad3)*%
X154175000Y-102250000D03*
%TO.P,U10,4,PC15*%
%TO.N,unconnected-(U10-Pad4)*%
X154175000Y-102750000D03*
%TO.P,U10,5,PH0*%
%TO.N,unconnected-(U10-Pad5)*%
X154175000Y-103250000D03*
%TO.P,U10,6,PH1*%
%TO.N,unconnected-(U10-Pad6)*%
X154175000Y-103750000D03*
%TO.P,U10,7,NRST*%
%TO.N,/MCU/NRST*%
X154175000Y-104250000D03*
%TO.P,U10,8,PC0*%
%TO.N,/MCU/CHARGER_OTG*%
X154175000Y-104750000D03*
%TO.P,U10,9,PC1*%
%TO.N,/MCU/CHARGER_nCE*%
X154175000Y-105250000D03*
%TO.P,U10,10,PC2*%
%TO.N,unconnected-(U10-Pad10)*%
X154175000Y-105750000D03*
%TO.P,U10,11,PC3*%
%TO.N,unconnected-(U10-Pad11)*%
X154175000Y-106250000D03*
%TO.P,U10,12,VSSA*%
%TO.N,GND*%
X154175000Y-106750000D03*
%TO.P,U10,13,VDDA*%
%TO.N,+3V3*%
X154175000Y-107250000D03*
%TO.P,U10,14,PA0*%
%TO.N,unconnected-(U10-Pad14)*%
X154175000Y-107750000D03*
%TO.P,U10,15,PA1*%
%TO.N,/MCU/WIFI_RESET*%
X154175000Y-108250000D03*
%TO.P,U10,16,PA2*%
%TO.N,/MCU/WIFI_UART2_TX*%
X154175000Y-108750000D03*
D27*
%TO.P,U10,17,PA3*%
%TO.N,/MCU/WIFI_UART2_RX*%
X152250000Y-110675000D03*
%TO.P,U10,18,VSS*%
%TO.N,GND*%
X151750000Y-110675000D03*
%TO.P,U10,19,VDD*%
%TO.N,+3V3*%
X151250000Y-110675000D03*
%TO.P,U10,20,PA4*%
%TO.N,/MCU/MPU9250_SPI1_nCSS*%
X150750000Y-110675000D03*
%TO.P,U10,21,PA5*%
%TO.N,/MCU/MPU9250_SPI1_SCK*%
X150250000Y-110675000D03*
%TO.P,U10,22,PA6*%
%TO.N,/MCU/MPU9250_SPI1_MISO*%
X149750000Y-110675000D03*
%TO.P,U10,23,PA7*%
%TO.N,/MCU/MPU9250_SPI1_MOSI*%
X149250000Y-110675000D03*
%TO.P,U10,24,PC4*%
%TO.N,/MCU/MPU9250_INT_EXTI4*%
X148750000Y-110675000D03*
%TO.P,U10,25,PC5*%
%TO.N,/MCU/RS232_UART3_RX*%
X148250000Y-110675000D03*
%TO.P,U10,26,PB0*%
%TO.N,/MCU/SDCARD_DET_LEVEL*%
X147750000Y-110675000D03*
%TO.P,U10,27,PB1*%
%TO.N,/MCU/SDCARD_DET_SWT*%
X147250000Y-110675000D03*
%TO.P,U10,28,PB2*%
%TO.N,/MCU/GPS_RESET*%
X146750000Y-110675000D03*
%TO.P,U10,29,PB10*%
%TO.N,unconnected-(U10-Pad29)*%
X146250000Y-110675000D03*
%TO.P,U10,30,VCAP_1*%
%TO.N,Net-(C16-Pad1)*%
X145750000Y-110675000D03*
%TO.P,U10,31,VSS*%
%TO.N,GND*%
X145250000Y-110675000D03*
%TO.P,U10,32,VDD*%
%TO.N,+3V3*%
X144750000Y-110675000D03*
D26*
%TO.P,U10,33,PB12*%
%TO.N,unconnected-(U10-Pad33)*%
X142825000Y-108750000D03*
%TO.P,U10,34,PB13*%
%TO.N,unconnected-(U10-Pad34)*%
X142825000Y-108250000D03*
%TO.P,U10,35,PB14*%
%TO.N,unconnected-(U10-Pad35)*%
X142825000Y-107750000D03*
%TO.P,U10,36,PB15*%
%TO.N,/MCU/SDCARD_SDIO_CLK*%
X142825000Y-107250000D03*
%TO.P,U10,37,PC6*%
%TO.N,/MCU/GPS_UART6_TX*%
X142825000Y-106750000D03*
%TO.P,U10,38,PC7*%
%TO.N,/MCU/GPS_UART6_RX*%
X142825000Y-106250000D03*
%TO.P,U10,39,PC8*%
%TO.N,/MCU/SDCARD_SDIO_D0*%
X142825000Y-105750000D03*
%TO.P,U10,40,PC9*%
%TO.N,/MCU/SDCARD_SDIO_D1*%
X142825000Y-105250000D03*
%TO.P,U10,41,PA8*%
%TO.N,/MCU/FUEL_GAUGE_SCL*%
X142825000Y-104750000D03*
%TO.P,U10,42,PA9*%
%TO.N,/MCU/SDCARD_SDIO_D2*%
X142825000Y-104250000D03*
%TO.P,U10,43,PA10*%
%TO.N,/MCU/DEBUG_UART1_RX*%
X142825000Y-103750000D03*
%TO.P,U10,44,PA11*%
%TO.N,/MCU/USB-*%
X142825000Y-103250000D03*
%TO.P,U10,45,PA12*%
%TO.N,/MCU/USB+*%
X142825000Y-102750000D03*
%TO.P,U10,46,PA13*%
%TO.N,/MCU/DEBUG_SWDIO*%
X142825000Y-102250000D03*
%TO.P,U10,47,VSS*%
%TO.N,GND*%
X142825000Y-101750000D03*
%TO.P,U10,48,VDD*%
%TO.N,+3V3*%
X142825000Y-101250000D03*
D27*
%TO.P,U10,49,PA14*%
%TO.N,/MCU/DEBUG_SWCLK*%
X144750000Y-99325000D03*
%TO.P,U10,50,PA15*%
%TO.N,/MCU/DEBUG_UART1_TX*%
X145250000Y-99325000D03*
%TO.P,U10,51,PC10*%
%TO.N,/MCU/RS232_UART3_TX*%
X145750000Y-99325000D03*
%TO.P,U10,52,PC11*%
%TO.N,/MCU/SDCARD_SDIO_D3*%
X146250000Y-99325000D03*
%TO.P,U10,53,PC12*%
%TO.N,unconnected-(U10-Pad53)*%
X146750000Y-99325000D03*
%TO.P,U10,54,PD2*%
%TO.N,/MCU/SDCARD_SDIO_CMD*%
X147250000Y-99325000D03*
%TO.P,U10,55,PB3*%
%TO.N,/MCU/FUEL_GAUGE_I2C2_SDA*%
X147750000Y-99325000D03*
%TO.P,U10,56,PB4*%
%TO.N,/MCU/CHARGER_I2C2_SDA*%
X148250000Y-99325000D03*
%TO.P,U10,57,PB5*%
%TO.N,unconnected-(U10-Pad57)*%
X148750000Y-99325000D03*
%TO.P,U10,58,PB6*%
%TO.N,/MCU/BMP280_I2C1_SCL*%
X149250000Y-99325000D03*
%TO.P,U10,59,PB7*%
%TO.N,/MCU/BMP280_I2C1_SDA*%
X149750000Y-99325000D03*
%TO.P,U10,60,BOOT0*%
%TO.N,Net-(R11-Pad2)*%
X150250000Y-99325000D03*
%TO.P,U10,61,PB8*%
%TO.N,/MCU/CAN1_TX*%
X150750000Y-99325000D03*
%TO.P,U10,62,PB9*%
%TO.N,/MCU/CAN1_RX*%
X151250000Y-99325000D03*
%TO.P,U10,63,VSS*%
%TO.N,GND*%
X151750000Y-99325000D03*
%TO.P,U10,64,VDD*%
%TO.N,+3V3*%
X152250000Y-99325000D03*
%TD*%
D16*
%TO.P,C18,1*%
%TO.N,+3V3*%
X143682500Y-112500000D03*
%TO.P,C18,2*%
%TO.N,GND*%
X144817500Y-112500000D03*
%TD*%
D28*
%TO.P,U2,1,VCC1*%
%TO.N,+3V3*%
X165310000Y-95775000D03*
%TO.P,U2,2,RXD*%
%TO.N,/MCU/CAN1_RX*%
X162770000Y-95775000D03*
%TO.P,U2,3,TXD*%
%TO.N,/MCU/CAN1_TX*%
X160230000Y-95775000D03*
%TO.P,U2,4,GND1*%
%TO.N,GND*%
X157690000Y-95775000D03*
%TO.P,U2,5,GND2*%
%TO.N,GND1*%
X157690000Y-86725000D03*
%TO.P,U2,6,CANL*%
%TO.N,Net-(R2-Pad2)*%
X160230000Y-86725000D03*
%TO.P,U2,7,CANH*%
%TO.N,Net-(R1-Pad1)*%
X162770000Y-86725000D03*
%TO.P,U2,8,VCC2*%
%TO.N,VDD*%
X165310000Y-86725000D03*
%TD*%
D29*
%TO.N,+3V3*%
X129104841Y-117549679D03*
X150250000Y-95500000D03*
%TO.N,/MCU/SDCARD_DET_SWT*%
X147474500Y-117000000D03*
X140873540Y-116400000D03*
%TO.N,GND*%
X144934753Y-112522345D03*
X141000000Y-101317500D03*
X145750000Y-115000000D03*
X152567500Y-112500000D03*
X164250000Y-98000000D03*
X129000000Y-119750000D03*
X153250000Y-97750000D03*
X154500000Y-99000000D03*
X157750000Y-95750000D03*
%TO.N,/MCU/SDCARD_SDIO_D0*%
X137301000Y-113000000D03*
X133000000Y-120750000D03*
%TO.N,/MCU/SDCARD_SDIO_D1*%
X136576500Y-112194509D03*
X133750000Y-121500000D03*
%TO.N,/MCU/DEBUG_UART1_RX*%
X130750000Y-102974500D03*
X130540000Y-99025000D03*
%TO.N,/MCU/CAN1_TX*%
X160230000Y-95775000D03*
X160250000Y-92775500D03*
%TO.N,/MCU/GPS_UART6_TX*%
X138500451Y-114974951D03*
%TO.N,/MCU/GPS_UART6_RX*%
X138025500Y-114000000D03*
%TO.N,/MCU/GPS_RESET*%
X146000000Y-120980000D03*
%TD*%
D30*
%TO.N,+3V3*%
X150250000Y-95652500D02*
X150250000Y-95500000D01*
X152250000Y-99325000D02*
X152742500Y-99325000D01*
X154175000Y-100392500D02*
X154500000Y-100067500D01*
X165317500Y-95782500D02*
X165310000Y-95775000D01*
X142825000Y-101250000D02*
X142067500Y-101250000D01*
X144750000Y-110675000D02*
X144750000Y-111682500D01*
X142067500Y-101250000D02*
X141000000Y-100182500D01*
X129054520Y-117600000D02*
X129104841Y-117549679D01*
X129050000Y-117600000D02*
X129054520Y-117600000D01*
X152742500Y-99325000D02*
X154317500Y-97750000D01*
X165317500Y-98000000D02*
X165317500Y-95782500D01*
X154175000Y-101250000D02*
X154175000Y-100392500D01*
X151250000Y-112317500D02*
X151432500Y-112500000D01*
X151250000Y-110675000D02*
X151250000Y-112317500D01*
X144750000Y-111682500D02*
X143932500Y-112500000D01*
%TO.N,Net-(C16-Pad1)*%
X145750000Y-110675000D02*
X145750000Y-113682500D01*
%TO.N,/MCU/SDCARD_DET_LEVEL*%
X148250000Y-123750000D02*
X147000000Y-125000000D01*
X147000000Y-125000000D02*
X137000000Y-125000000D01*
X137000000Y-125000000D02*
X135900000Y-123900000D01*
X135900000Y-123900000D02*
X135900000Y-123575000D01*
X147750000Y-116250886D02*
X148250000Y-116750886D01*
X147750000Y-110675000D02*
X147750000Y-116250886D01*
X148250000Y-116750886D02*
X148250000Y-123750000D01*
%TO.N,/MCU/SDCARD_DET_SWT*%
X147250000Y-116775500D02*
X147474500Y-117000000D01*
X147250000Y-110675000D02*
X147250000Y-116775500D01*
%TO.N,GND*%
X152484994Y-97750000D02*
X151750000Y-98484994D01*
X151750000Y-110675000D02*
X151750000Y-111682500D01*
X145750000Y-115000000D02*
X145750000Y-114817500D01*
X151750000Y-111682500D02*
X152567500Y-112500000D01*
X151750000Y-98484994D02*
X151750000Y-99325000D01*
X157690000Y-95775000D02*
X157725000Y-95775000D01*
X141432500Y-101750000D02*
X141000000Y-101317500D01*
X144934753Y-112522345D02*
X145250000Y-112207098D01*
X154500000Y-98932500D02*
X154500000Y-99000000D01*
X157725000Y-95775000D02*
X157750000Y-95750000D01*
X153250000Y-97750000D02*
X152484994Y-97750000D01*
X145250000Y-112207098D02*
X145250000Y-110675000D01*
X129050000Y-119800000D02*
X129000000Y-119750000D01*
X142825000Y-101750000D02*
X141432500Y-101750000D01*
X164182500Y-98000000D02*
X164250000Y-98000000D01*
%TO.N,Net-(R1-Pad2)*%
X160280000Y-83432500D02*
X160250000Y-83402500D01*
X162750000Y-83402500D02*
X161530000Y-83402500D01*
X161500000Y-83432500D02*
X160280000Y-83432500D01*
X161530000Y-83402500D02*
X161500000Y-83432500D01*
%TO.N,Net-(R1-Pad1)*%
X162770000Y-84617500D02*
X162750000Y-84597500D01*
X162770000Y-86725000D02*
X162770000Y-84617500D01*
X164000000Y-84597500D02*
X162750000Y-84597500D01*
%TO.N,Net-(R2-Pad2)*%
X160230000Y-86725000D02*
X160230000Y-84617500D01*
X160250000Y-84597500D02*
X159000000Y-84597500D01*
X160230000Y-84617500D02*
X160250000Y-84597500D01*
%TO.N,/MCU/NRST*%
X154175000Y-104250000D02*
X156402500Y-104250000D01*
%TO.N,/MCU/SDCARD_SDIO_D0*%
X137301000Y-109541846D02*
X137301000Y-113000000D01*
X133000000Y-120750000D02*
X132850000Y-120900000D01*
X142825000Y-105750000D02*
X141092846Y-105750000D01*
X141092846Y-105750000D02*
X140421423Y-106421423D01*
X140421423Y-106421423D02*
X137301000Y-109541846D01*
X132850000Y-120900000D02*
X129050000Y-120900000D01*
%TO.N,/MCU/SDCARD_SDIO_D1*%
X133250000Y-122000000D02*
X129050000Y-122000000D01*
X133750000Y-121500000D02*
X133250000Y-122000000D01*
X140957128Y-105250000D02*
X140478564Y-105728564D01*
X142825000Y-105250000D02*
X140957128Y-105250000D01*
X136576500Y-109630628D02*
X136576500Y-112194509D01*
X140478564Y-105728564D02*
X136576500Y-109630628D01*
%TO.N,/MCU/SDCARD_SDIO_D2*%
X142825000Y-104250000D02*
X141250000Y-104250000D01*
X141250000Y-104250000D02*
X131200000Y-114300000D01*
X131200000Y-114300000D02*
X129050000Y-114300000D01*
%TO.N,/MCU/DEBUG_UART1_RX*%
X131525500Y-103750000D02*
X130750000Y-102974500D01*
X142825000Y-103750000D02*
X131525500Y-103750000D01*
%TO.N,/MCU/DEBUG_SWDIO*%
X125460000Y-100460000D02*
X127250000Y-102250000D01*
X127250000Y-102250000D02*
X142825000Y-102250000D01*
X125460000Y-99025000D02*
X125460000Y-100460000D01*
%TO.N,/MCU/CAN1_TX*%
X159975020Y-93050480D02*
X160250000Y-92775500D01*
X155813803Y-93050480D02*
X158250000Y-93050480D01*
X158250000Y-93050480D02*
X159975020Y-93050480D01*
X150750000Y-99325000D02*
X150750000Y-98114282D01*
X150750000Y-98114282D02*
X151682141Y-97182141D01*
X151682141Y-97182141D02*
X155813803Y-93050480D01*
%TO.N,/MCU/CAN1_RX*%
X151250000Y-99325000D02*
X151250000Y-98250000D01*
X151250000Y-98250000D02*
X156000000Y-93500000D01*
X162770000Y-94270000D02*
X162770000Y-95775000D01*
X156000000Y-93500000D02*
X162000000Y-93500000D01*
X162000000Y-93500000D02*
X162770000Y-94270000D01*
%TO.N,/MCU/SDCARD_SDIO_CLK*%
X141500000Y-107250000D02*
X139250000Y-109500000D01*
X142825000Y-107250000D02*
X141500000Y-107250000D01*
X139250000Y-115250000D02*
X138000000Y-116500000D01*
X139250000Y-109500000D02*
X139250000Y-115250000D01*
X138000000Y-116500000D02*
X129050000Y-116500000D01*
%TO.N,/MCU/GPS_UART6_TX*%
X138750000Y-114725402D02*
X138500451Y-114974951D01*
X142825000Y-106750000D02*
X141364282Y-106750000D01*
X138750000Y-109364282D02*
X138750000Y-114725402D01*
X141364282Y-106750000D02*
X138750000Y-109364282D01*
%TO.N,/MCU/GPS_UART6_RX*%
X140614282Y-106864282D02*
X138025500Y-109453064D01*
X141228564Y-106250000D02*
X140614282Y-106864282D01*
X138025500Y-109453064D02*
X138025500Y-114000000D01*
X142825000Y-106250000D02*
X141228564Y-106250000D01*
%TO.N,/MCU/GPS_RESET*%
X146750000Y-120230000D02*
X146000000Y-120980000D01*
X146750000Y-110675000D02*
X146750000Y-120230000D01*
%TO.N,GND1*%
X157690000Y-86725000D02*
X157690000Y-88440000D01*
X158500000Y-89250000D02*
X161000000Y-89250000D01*
X161000000Y-89250000D02*
X161500000Y-88750000D01*
X157690000Y-88440000D02*
X158500000Y-89250000D01*
X161500000Y-88750000D02*
X161500000Y-84567500D01*
%TO.N,Net-(R11-Pad2)*%
X150250000Y-99325000D02*
X150250000Y-96847500D01*
%TD*%
%TA.AperFunction,Conductor*%
%TO.N,+3V3*%
G36*
X168442121Y-80095002D02*
G01*
X168488614Y-80148658D01*
X168500000Y-80201000D01*
X168500000Y-85000000D01*
X173299000Y-85000000D01*
X173367121Y-85020002D01*
X173413614Y-85073658D01*
X173425000Y-85126000D01*
X173425000Y-124874000D01*
X173404998Y-124942121D01*
X173351342Y-124988614D01*
X173299000Y-125000000D01*
X168500000Y-125000000D01*
X168500000Y-129799000D01*
X168479998Y-129867121D01*
X168426342Y-129913614D01*
X168374000Y-129925000D01*
X128626000Y-129925000D01*
X128557879Y-129904998D01*
X128511386Y-129851342D01*
X128500000Y-129799000D01*
X128500000Y-125000000D01*
X123701000Y-125000000D01*
X123632879Y-124979998D01*
X123586386Y-124926342D01*
X123575000Y-124874000D01*
X123575000Y-124169748D01*
X125099500Y-124169748D01*
X125111133Y-124228231D01*
X125155448Y-124294552D01*
X125221769Y-124338867D01*
X125233938Y-124341288D01*
X125233939Y-124341288D01*
X125274184Y-124349293D01*
X125280252Y-124350500D01*
X127019748Y-124350500D01*
X127025816Y-124349293D01*
X127066061Y-124341288D01*
X127066062Y-124341288D01*
X127078231Y-124338867D01*
X127144552Y-124294552D01*
X127188867Y-124228231D01*
X127200500Y-124169748D01*
X134949500Y-124169748D01*
X134961133Y-124228231D01*
X135005448Y-124294552D01*
X135071769Y-124338867D01*
X135083938Y-124341288D01*
X135083939Y-124341288D01*
X135124184Y-124349293D01*
X135130252Y-124350500D01*
X135837984Y-124350500D01*
X135906105Y-124370502D01*
X135927079Y-124387405D01*
X136755889Y-125216215D01*
X136763315Y-125224318D01*
X136787545Y-125253194D01*
X136797094Y-125258707D01*
X136820185Y-125272039D01*
X136829456Y-125277945D01*
X136860316Y-125299554D01*
X136870966Y-125302408D01*
X136874134Y-125303885D01*
X136877410Y-125305077D01*
X136886955Y-125310588D01*
X136920699Y-125316538D01*
X136924058Y-125317130D01*
X136934785Y-125319508D01*
X136971193Y-125329264D01*
X136982178Y-125328303D01*
X136982180Y-125328303D01*
X137008728Y-125325980D01*
X137019710Y-125325500D01*
X146980290Y-125325500D01*
X146991272Y-125325980D01*
X147017820Y-125328303D01*
X147017822Y-125328303D01*
X147028807Y-125329264D01*
X147065215Y-125319508D01*
X147075942Y-125317130D01*
X147079301Y-125316538D01*
X147113045Y-125310588D01*
X147122590Y-125305077D01*
X147125866Y-125303885D01*
X147129034Y-125302408D01*
X147139684Y-125299554D01*
X147170544Y-125277945D01*
X147179815Y-125272039D01*
X147202906Y-125258707D01*
X147212455Y-125253194D01*
X147236685Y-125224317D01*
X147244111Y-125216215D01*
X148466215Y-123994111D01*
X148474319Y-123986684D01*
X148494749Y-123969541D01*
X148503194Y-123962455D01*
X148515415Y-123941288D01*
X148522039Y-123929815D01*
X148527945Y-123920544D01*
X148543230Y-123898715D01*
X148549554Y-123889684D01*
X148552408Y-123879034D01*
X148553885Y-123875866D01*
X148555077Y-123872590D01*
X148560588Y-123863045D01*
X148567130Y-123825942D01*
X148569509Y-123815210D01*
X148576410Y-123789456D01*
X148579264Y-123778807D01*
X148575980Y-123741272D01*
X148575500Y-123730290D01*
X148575500Y-116770596D01*
X148575980Y-116759614D01*
X148578303Y-116733066D01*
X148578303Y-116733064D01*
X148579264Y-116722079D01*
X148569508Y-116685671D01*
X148567130Y-116674944D01*
X148566538Y-116671585D01*
X148560588Y-116637841D01*
X148555077Y-116628296D01*
X148553885Y-116625020D01*
X148552408Y-116621852D01*
X148549554Y-116611202D01*
X148527945Y-116580342D01*
X148522039Y-116571071D01*
X148508707Y-116547980D01*
X148503194Y-116538431D01*
X148474317Y-116514201D01*
X148466215Y-116506775D01*
X148112405Y-116152965D01*
X148078379Y-116090653D01*
X148075500Y-116063870D01*
X148075500Y-112770302D01*
X150562752Y-112770302D01*
X150565313Y-112783088D01*
X150609029Y-112922589D01*
X150615235Y-112936334D01*
X150690496Y-113060604D01*
X150699803Y-113072473D01*
X150802527Y-113175197D01*
X150814396Y-113184504D01*
X150938666Y-113259765D01*
X150952411Y-113265971D01*
X151091904Y-113309685D01*
X151104954Y-113312298D01*
X151161962Y-113317537D01*
X151175624Y-113313525D01*
X151176829Y-113312135D01*
X151178500Y-113304452D01*
X151178500Y-112772115D01*
X151174025Y-112756876D01*
X151172635Y-112755671D01*
X151164952Y-112754000D01*
X150579342Y-112754000D01*
X150564797Y-112758271D01*
X150562752Y-112770302D01*
X148075500Y-112770302D01*
X148075500Y-111776500D01*
X148095502Y-111708379D01*
X148149158Y-111661886D01*
X148201499Y-111650500D01*
X148331002Y-111650499D01*
X148352132Y-111650499D01*
X148358199Y-111649292D01*
X148358202Y-111649292D01*
X148406803Y-111639625D01*
X148432495Y-111634515D01*
X148442815Y-111627619D01*
X148451782Y-111623905D01*
X148522372Y-111616316D01*
X148548219Y-111623905D01*
X148557184Y-111627618D01*
X148567505Y-111634515D01*
X148579679Y-111636937D01*
X148579680Y-111636937D01*
X148641794Y-111649292D01*
X148647867Y-111650500D01*
X148749991Y-111650500D01*
X148852132Y-111650499D01*
X148858199Y-111649292D01*
X148858202Y-111649292D01*
X148906803Y-111639625D01*
X148932495Y-111634515D01*
X148942815Y-111627619D01*
X148951782Y-111623905D01*
X149022372Y-111616316D01*
X149048219Y-111623905D01*
X149057184Y-111627618D01*
X149067505Y-111634515D01*
X149079679Y-111636937D01*
X149079680Y-111636937D01*
X149141794Y-111649292D01*
X149147867Y-111650500D01*
X149249991Y-111650500D01*
X149352132Y-111650499D01*
X149358199Y-111649292D01*
X149358202Y-111649292D01*
X149406803Y-111639625D01*
X149432495Y-111634515D01*
X149442815Y-111627619D01*
X149451782Y-111623905D01*
X149522372Y-111616316D01*
X149548219Y-111623905D01*
X149557184Y-111627618D01*
X149567505Y-111634515D01*
X149579679Y-111636937D01*
X149579680Y-111636937D01*
X149641794Y-111649292D01*
X149647867Y-111650500D01*
X149749991Y-111650500D01*
X149852132Y-111650499D01*
X149858199Y-111649292D01*
X149858202Y-111649292D01*
X149906803Y-111639625D01*
X149932495Y-111634515D01*
X149942815Y-111627619D01*
X149951782Y-111623905D01*
X150022372Y-111616316D01*
X150048219Y-111623905D01*
X150057184Y-111627618D01*
X150067505Y-111634515D01*
X150079679Y-111636937D01*
X150079680Y-111636937D01*
X150141794Y-111649292D01*
X150147867Y-111650500D01*
X150249991Y-111650500D01*
X150352132Y-111650499D01*
X150358199Y-111649292D01*
X150358202Y-111649292D01*
X150406803Y-111639625D01*
X150432495Y-111634515D01*
X150442815Y-111627619D01*
X150451782Y-111623905D01*
X150522372Y-111616316D01*
X150548219Y-111623905D01*
X150557184Y-111627618D01*
X150567505Y-111634515D01*
X150579679Y-111636937D01*
X150579680Y-111636937D01*
X150605693Y-111642111D01*
X150668603Y-111675018D01*
X150681075Y-111688987D01*
X150725507Y-111746893D01*
X150751107Y-111813114D01*
X150736842Y-111882662D01*
X150714639Y-111912691D01*
X150699803Y-111927527D01*
X150690496Y-111939396D01*
X150615235Y-112063666D01*
X150609029Y-112077411D01*
X150565313Y-112216912D01*
X150562991Y-112228503D01*
X150565806Y-112242835D01*
X150577702Y-112246000D01*
X151560500Y-112246000D01*
X151628621Y-112266002D01*
X151675114Y-112319658D01*
X151686500Y-112372000D01*
X151686500Y-113299885D01*
X151690975Y-113315124D01*
X151692365Y-113316329D01*
X151699186Y-113317813D01*
X151700888Y-113317734D01*
X151760046Y-113312298D01*
X151773096Y-113309685D01*
X151912589Y-113265971D01*
X151926334Y-113259765D01*
X152050604Y-113184504D01*
X152062473Y-113175197D01*
X152168693Y-113068977D01*
X152231005Y-113034951D01*
X152306006Y-113041663D01*
X152403108Y-113081884D01*
X152403111Y-113081885D01*
X152410738Y-113085044D01*
X152567500Y-113105682D01*
X152575688Y-113104604D01*
X152578537Y-113104229D01*
X152724262Y-113085044D01*
X152870341Y-113024536D01*
X152878256Y-113018463D01*
X152912986Y-112991813D01*
X152924916Y-112982659D01*
X152946080Y-112969523D01*
X152989806Y-112948055D01*
X153073420Y-112864295D01*
X153125395Y-112757967D01*
X153131160Y-112718448D01*
X153139430Y-112688423D01*
X153152544Y-112656762D01*
X153173182Y-112500000D01*
X153152544Y-112343238D01*
X153139370Y-112311433D01*
X153131121Y-112281559D01*
X153126641Y-112251120D01*
X153125215Y-112241431D01*
X153113177Y-112216912D01*
X153077645Y-112144542D01*
X153077644Y-112144540D01*
X153073055Y-112135194D01*
X152989295Y-112051580D01*
X152946205Y-112030517D01*
X152924844Y-112017286D01*
X152870341Y-111975464D01*
X152724262Y-111914956D01*
X152567500Y-111894318D01*
X152500657Y-111903118D01*
X152430510Y-111892179D01*
X152395117Y-111867291D01*
X152372955Y-111845129D01*
X152338929Y-111782817D01*
X152343994Y-111712002D01*
X152386541Y-111655166D01*
X152413831Y-111639625D01*
X152420322Y-111636936D01*
X152432495Y-111634515D01*
X152523624Y-111573624D01*
X152584515Y-111482495D01*
X152600500Y-111402133D01*
X152600499Y-109947868D01*
X152599292Y-109941802D01*
X152599292Y-109941797D01*
X152586936Y-109879676D01*
X152586936Y-109879675D01*
X152584515Y-109867505D01*
X152523624Y-109776376D01*
X152432495Y-109715485D01*
X152352133Y-109699500D01*
X152250009Y-109699500D01*
X152147868Y-109699501D01*
X152141801Y-109700708D01*
X152141798Y-109700708D01*
X152105690Y-109707890D01*
X152067505Y-109715485D01*
X152057185Y-109722381D01*
X152048218Y-109726095D01*
X151977628Y-109733684D01*
X151951781Y-109726095D01*
X151942816Y-109722382D01*
X151932495Y-109715485D01*
X151920321Y-109713063D01*
X151920320Y-109713063D01*
X151894307Y-109707889D01*
X151831397Y-109674982D01*
X151818925Y-109661014D01*
X151745825Y-109565748D01*
X151734250Y-109554172D01*
X151625566Y-109470777D01*
X151611385Y-109462590D01*
X151484825Y-109410167D01*
X151469005Y-109405928D01*
X151417960Y-109399208D01*
X151403778Y-109401419D01*
X151400000Y-109414576D01*
X151400000Y-109942789D01*
X151399833Y-109946193D01*
X151399500Y-109947867D01*
X151399501Y-111402132D01*
X151399833Y-111403802D01*
X151400000Y-111407200D01*
X151400000Y-111872000D01*
X151379998Y-111940121D01*
X151326342Y-111986614D01*
X151274000Y-111998000D01*
X151226000Y-111998000D01*
X151157879Y-111977998D01*
X151111386Y-111924342D01*
X151100000Y-111872000D01*
X151100000Y-111407211D01*
X151100167Y-111403807D01*
X151100500Y-111402133D01*
X151100499Y-109947868D01*
X151100167Y-109946198D01*
X151100000Y-109942800D01*
X151100000Y-109414958D01*
X151095956Y-109401187D01*
X151082417Y-109399158D01*
X151030995Y-109405928D01*
X151015175Y-109410167D01*
X150888614Y-109462590D01*
X150874431Y-109470779D01*
X150765752Y-109554171D01*
X150754172Y-109565750D01*
X150681073Y-109661015D01*
X150623735Y-109702882D01*
X150605689Y-109707890D01*
X150567505Y-109715485D01*
X150557184Y-109722381D01*
X150548218Y-109726095D01*
X150477628Y-109733684D01*
X150451781Y-109726095D01*
X150442816Y-109722382D01*
X150432495Y-109715485D01*
X150420321Y-109713063D01*
X150420320Y-109713063D01*
X150358201Y-109700707D01*
X150352133Y-109699500D01*
X150250009Y-109699500D01*
X150147868Y-109699501D01*
X150141801Y-109700708D01*
X150141798Y-109700708D01*
X150105690Y-109707890D01*
X150067505Y-109715485D01*
X150057185Y-109722381D01*
X150048218Y-109726095D01*
X149977628Y-109733684D01*
X149951781Y-109726095D01*
X149942816Y-109722382D01*
X149932495Y-109715485D01*
X149920321Y-109713063D01*
X149920320Y-109713063D01*
X149858201Y-109700707D01*
X149852133Y-109699500D01*
X149750009Y-109699500D01*
X149647868Y-109699501D01*
X149641801Y-109700708D01*
X149641798Y-109700708D01*
X149605690Y-109707890D01*
X149567505Y-109715485D01*
X149557185Y-109722381D01*
X149548218Y-109726095D01*
X149477628Y-109733684D01*
X149451781Y-109726095D01*
X149442816Y-109722382D01*
X149432495Y-109715485D01*
X149420321Y-109713063D01*
X149420320Y-109713063D01*
X149358201Y-109700707D01*
X149352133Y-109699500D01*
X149250009Y-109699500D01*
X149147868Y-109699501D01*
X149141801Y-109700708D01*
X149141798Y-109700708D01*
X149105690Y-109707890D01*
X149067505Y-109715485D01*
X149057185Y-109722381D01*
X149048218Y-109726095D01*
X148977628Y-109733684D01*
X148951781Y-109726095D01*
X148942816Y-109722382D01*
X148932495Y-109715485D01*
X148920321Y-109713063D01*
X148920320Y-109713063D01*
X148858201Y-109700707D01*
X148852133Y-109699500D01*
X148750009Y-109699500D01*
X148647868Y-109699501D01*
X148641801Y-109700708D01*
X148641798Y-109700708D01*
X148605690Y-109707890D01*
X148567505Y-109715485D01*
X148557185Y-109722381D01*
X148548218Y-109726095D01*
X148477628Y-109733684D01*
X148451781Y-109726095D01*
X148442816Y-109722382D01*
X148432495Y-109715485D01*
X148420321Y-109713063D01*
X148420320Y-109713063D01*
X148358201Y-109700707D01*
X148352133Y-109699500D01*
X148250009Y-109699500D01*
X148147868Y-109699501D01*
X148141801Y-109700708D01*
X148141798Y-109700708D01*
X148105690Y-109707890D01*
X148067505Y-109715485D01*
X148057185Y-109722381D01*
X148048218Y-109726095D01*
X147977628Y-109733684D01*
X147951781Y-109726095D01*
X147942816Y-109722382D01*
X147932495Y-109715485D01*
X147920321Y-109713063D01*
X147920320Y-109713063D01*
X147858201Y-109700707D01*
X147852133Y-109699500D01*
X147750009Y-109699500D01*
X147647868Y-109699501D01*
X147641801Y-109700708D01*
X147641798Y-109700708D01*
X147605690Y-109707890D01*
X147567505Y-109715485D01*
X147557185Y-109722381D01*
X147548218Y-109726095D01*
X147477628Y-109733684D01*
X147451781Y-109726095D01*
X147442816Y-109722382D01*
X147432495Y-109715485D01*
X147420321Y-109713063D01*
X147420320Y-109713063D01*
X147358201Y-109700707D01*
X147352133Y-109699500D01*
X147250009Y-109699500D01*
X147147868Y-109699501D01*
X147141801Y-109700708D01*
X147141798Y-109700708D01*
X147105690Y-109707890D01*
X147067505Y-109715485D01*
X147057185Y-109722381D01*
X147048218Y-109726095D01*
X146977628Y-109733684D01*
X146951781Y-109726095D01*
X146942816Y-109722382D01*
X146932495Y-109715485D01*
X146920321Y-109713063D01*
X146920320Y-109713063D01*
X146858201Y-109700707D01*
X146852133Y-109699500D01*
X146750009Y-109699500D01*
X146647868Y-109699501D01*
X146641801Y-109700708D01*
X146641798Y-109700708D01*
X146605690Y-109707890D01*
X146567505Y-109715485D01*
X146557185Y-109722381D01*
X146548218Y-109726095D01*
X146477628Y-109733684D01*
X146451781Y-109726095D01*
X146442816Y-109722382D01*
X146432495Y-109715485D01*
X146420321Y-109713063D01*
X146420320Y-109713063D01*
X146358201Y-109700707D01*
X146352133Y-109699500D01*
X146250009Y-109699500D01*
X146147868Y-109699501D01*
X146141801Y-109700708D01*
X146141798Y-109700708D01*
X146105690Y-109707890D01*
X146067505Y-109715485D01*
X146057185Y-109722381D01*
X146048218Y-109726095D01*
X145977628Y-109733684D01*
X145951781Y-109726095D01*
X145942816Y-109722382D01*
X145932495Y-109715485D01*
X145920321Y-109713063D01*
X145920320Y-109713063D01*
X145858201Y-109700707D01*
X145852133Y-109699500D01*
X145750009Y-109699500D01*
X145647868Y-109699501D01*
X145641801Y-109700708D01*
X145641798Y-109700708D01*
X145605690Y-109707890D01*
X145567505Y-109715485D01*
X145557185Y-109722381D01*
X145548218Y-109726095D01*
X145477628Y-109733684D01*
X145451781Y-109726095D01*
X145442816Y-109722382D01*
X145432495Y-109715485D01*
X145420321Y-109713063D01*
X145420320Y-109713063D01*
X145394307Y-109707889D01*
X145331397Y-109674982D01*
X145318925Y-109661014D01*
X145245825Y-109565748D01*
X145234250Y-109554172D01*
X145125566Y-109470777D01*
X145111385Y-109462590D01*
X144984825Y-109410167D01*
X144969005Y-109405928D01*
X144917960Y-109399208D01*
X144903778Y-109401419D01*
X144900000Y-109414576D01*
X144900000Y-109942789D01*
X144899833Y-109946193D01*
X144899500Y-109947867D01*
X144899501Y-110525000D01*
X144899501Y-110699000D01*
X144879499Y-110767121D01*
X144825843Y-110813614D01*
X144773501Y-110825000D01*
X144110115Y-110825000D01*
X144094876Y-110829475D01*
X144093671Y-110830865D01*
X144092000Y-110838548D01*
X144092000Y-111409092D01*
X144092538Y-111417300D01*
X144105928Y-111519008D01*
X144107900Y-111526366D01*
X144106212Y-111597343D01*
X144066418Y-111656139D01*
X144001154Y-111684088D01*
X143974666Y-111684451D01*
X143953036Y-111682464D01*
X143939376Y-111686475D01*
X143938171Y-111687865D01*
X143936500Y-111695548D01*
X143936500Y-113299885D01*
X143940975Y-113315124D01*
X143942365Y-113316329D01*
X143949186Y-113317813D01*
X143950888Y-113317734D01*
X144010046Y-113312298D01*
X144023096Y-113309685D01*
X144162589Y-113265971D01*
X144176334Y-113259765D01*
X144300604Y-113184504D01*
X144312473Y-113175197D01*
X144415197Y-113072473D01*
X144429195Y-113054622D01*
X144431708Y-113056592D01*
X144473398Y-113018463D01*
X144546981Y-113006952D01*
X144555120Y-113008139D01*
X144613637Y-113032858D01*
X144625360Y-113041854D01*
X144625363Y-113041855D01*
X144631912Y-113046881D01*
X144777991Y-113107389D01*
X144934753Y-113128027D01*
X144942941Y-113126949D01*
X145083327Y-113108467D01*
X145091515Y-113107389D01*
X145099142Y-113104230D01*
X145099145Y-113104229D01*
X145141907Y-113086516D01*
X145212497Y-113078927D01*
X145275984Y-113110706D01*
X145312211Y-113171764D01*
X145309677Y-113242716D01*
X145300738Y-113260293D01*
X145301580Y-113260705D01*
X145249605Y-113367033D01*
X145248194Y-113376708D01*
X145248193Y-113376710D01*
X145240670Y-113428282D01*
X145239500Y-113436301D01*
X145239501Y-113928698D01*
X145249785Y-113998569D01*
X145254102Y-114007361D01*
X145277157Y-114054318D01*
X145301945Y-114104806D01*
X145309315Y-114112163D01*
X145358038Y-114160802D01*
X145392117Y-114223085D01*
X145387114Y-114293905D01*
X145358193Y-114338993D01*
X145357989Y-114339198D01*
X145301580Y-114395705D01*
X145249605Y-114502033D01*
X145248194Y-114511708D01*
X145248193Y-114511710D01*
X145247056Y-114519509D01*
X145239500Y-114571301D01*
X145239500Y-114641242D01*
X145224612Y-114696806D01*
X145225464Y-114697159D01*
X145222305Y-114704785D01*
X145222304Y-114704787D01*
X145196924Y-114766061D01*
X145164956Y-114843238D01*
X145163878Y-114851426D01*
X145162280Y-114863561D01*
X145144318Y-115000000D01*
X145164956Y-115156762D01*
X145225464Y-115302841D01*
X145266098Y-115355796D01*
X145299031Y-115398715D01*
X145321718Y-115428282D01*
X145447159Y-115524536D01*
X145593238Y-115585044D01*
X145750000Y-115605682D01*
X145758188Y-115604604D01*
X145898574Y-115586122D01*
X145906762Y-115585044D01*
X146052841Y-115524536D01*
X146178282Y-115428282D01*
X146198537Y-115401885D01*
X146255875Y-115360018D01*
X146326746Y-115355796D01*
X146388649Y-115390560D01*
X146421930Y-115453272D01*
X146424500Y-115478589D01*
X146424500Y-120042983D01*
X146404498Y-120111104D01*
X146387595Y-120132078D01*
X146172382Y-120347291D01*
X146110070Y-120381317D01*
X146066842Y-120383118D01*
X146000000Y-120374318D01*
X145843238Y-120394956D01*
X145697159Y-120455464D01*
X145571718Y-120551718D01*
X145475464Y-120677159D01*
X145414956Y-120823238D01*
X145394318Y-120980000D01*
X145414956Y-121136762D01*
X145475464Y-121282841D01*
X145571718Y-121408282D01*
X145697159Y-121504536D01*
X145843238Y-121565044D01*
X146000000Y-121585682D01*
X146008188Y-121584604D01*
X146148574Y-121566122D01*
X146156762Y-121565044D01*
X146302841Y-121504536D01*
X146428282Y-121408282D01*
X146524536Y-121282841D01*
X146585044Y-121136762D01*
X146605682Y-120980000D01*
X146596882Y-120913159D01*
X146607821Y-120843011D01*
X146632709Y-120807618D01*
X146966222Y-120474105D01*
X146974326Y-120466678D01*
X146994750Y-120449540D01*
X147003194Y-120442455D01*
X147008704Y-120432912D01*
X147008707Y-120432908D01*
X147022036Y-120409821D01*
X147027941Y-120400551D01*
X147043232Y-120378713D01*
X147049554Y-120369684D01*
X147052407Y-120359036D01*
X147053886Y-120355865D01*
X147055078Y-120352589D01*
X147060588Y-120343045D01*
X147067134Y-120305924D01*
X147069508Y-120295217D01*
X147079263Y-120258807D01*
X147075979Y-120221269D01*
X147075500Y-120210288D01*
X147075500Y-117673278D01*
X147095502Y-117605157D01*
X147149158Y-117558664D01*
X147219432Y-117548560D01*
X147249717Y-117556869D01*
X147317738Y-117585044D01*
X147474500Y-117605682D01*
X147482688Y-117604604D01*
X147623074Y-117586122D01*
X147631262Y-117585044D01*
X147750283Y-117535744D01*
X147820871Y-117528155D01*
X147884358Y-117559934D01*
X147920586Y-117620992D01*
X147924500Y-117652153D01*
X147924500Y-123562984D01*
X147904498Y-123631105D01*
X147887595Y-123652079D01*
X146902079Y-124637595D01*
X146839767Y-124671621D01*
X146812984Y-124674500D01*
X137187016Y-124674500D01*
X137118895Y-124654498D01*
X137097921Y-124637595D01*
X136851780Y-124391454D01*
X136817754Y-124329142D01*
X136822819Y-124258327D01*
X136827861Y-124248478D01*
X136831975Y-124238545D01*
X136838867Y-124228231D01*
X136850500Y-124169748D01*
X136850500Y-123769748D01*
X139849500Y-123769748D01*
X139861133Y-123828231D01*
X139905448Y-123894552D01*
X139971769Y-123938867D01*
X139983938Y-123941288D01*
X139983939Y-123941288D01*
X140024184Y-123949293D01*
X140030252Y-123950500D01*
X141219748Y-123950500D01*
X141225816Y-123949293D01*
X141266061Y-123941288D01*
X141266062Y-123941288D01*
X141278231Y-123938867D01*
X141344552Y-123894552D01*
X141388867Y-123828231D01*
X141400500Y-123769748D01*
X141400500Y-122230252D01*
X141388867Y-122171769D01*
X141344552Y-122105448D01*
X141278231Y-122061133D01*
X141266062Y-122058712D01*
X141266061Y-122058712D01*
X141225816Y-122050707D01*
X141219748Y-122049500D01*
X140030252Y-122049500D01*
X140024184Y-122050707D01*
X139983939Y-122058712D01*
X139983938Y-122058712D01*
X139971769Y-122061133D01*
X139905448Y-122105448D01*
X139861133Y-122171769D01*
X139849500Y-122230252D01*
X139849500Y-123769748D01*
X136850500Y-123769748D01*
X136850500Y-122980252D01*
X136838867Y-122921769D01*
X136794552Y-122855448D01*
X136728231Y-122811133D01*
X136716062Y-122808712D01*
X136716061Y-122808712D01*
X136675816Y-122800707D01*
X136669748Y-122799500D01*
X135130252Y-122799500D01*
X135124184Y-122800707D01*
X135083939Y-122808712D01*
X135083938Y-122808712D01*
X135071769Y-122811133D01*
X135005448Y-122855448D01*
X134961133Y-122921769D01*
X134949500Y-122980252D01*
X134949500Y-124169748D01*
X127200500Y-124169748D01*
X127200500Y-122730252D01*
X127188867Y-122671769D01*
X127144552Y-122605448D01*
X127078231Y-122561133D01*
X127066062Y-122558712D01*
X127066061Y-122558712D01*
X127025816Y-122550707D01*
X127019748Y-122549500D01*
X125280252Y-122549500D01*
X125274184Y-122550707D01*
X125233939Y-122558712D01*
X125233938Y-122558712D01*
X125221769Y-122561133D01*
X125155448Y-122605448D01*
X125111133Y-122671769D01*
X125099500Y-122730252D01*
X125099500Y-124169748D01*
X123575000Y-124169748D01*
X123575000Y-118044669D01*
X127792001Y-118044669D01*
X127792371Y-118051490D01*
X127797895Y-118102352D01*
X127801521Y-118117604D01*
X127846676Y-118238054D01*
X127855214Y-118253649D01*
X127931715Y-118355724D01*
X127944276Y-118368285D01*
X128049065Y-118446820D01*
X128091580Y-118503679D01*
X128099500Y-118547646D01*
X128099500Y-119119748D01*
X128111133Y-119178231D01*
X128118026Y-119188547D01*
X128122777Y-119200017D01*
X128119063Y-119201555D01*
X128133528Y-119247751D01*
X128118688Y-119298289D01*
X128122777Y-119299983D01*
X128118026Y-119311453D01*
X128111133Y-119321769D01*
X128099500Y-119380252D01*
X128099500Y-120219748D01*
X128111133Y-120278231D01*
X128118026Y-120288547D01*
X128122777Y-120300017D01*
X128119063Y-120301555D01*
X128133528Y-120347751D01*
X128118688Y-120398289D01*
X128122777Y-120399983D01*
X128118026Y-120411453D01*
X128111133Y-120421769D01*
X128108712Y-120433938D01*
X128108712Y-120433939D01*
X128105609Y-120449540D01*
X128099500Y-120480252D01*
X128099500Y-121319748D01*
X128111133Y-121378231D01*
X128118026Y-121388547D01*
X128122777Y-121400017D01*
X128119063Y-121401555D01*
X128133528Y-121447751D01*
X128118688Y-121498289D01*
X128122777Y-121499983D01*
X128118026Y-121511453D01*
X128111133Y-121521769D01*
X128099500Y-121580252D01*
X128099500Y-122419748D01*
X128111133Y-122478231D01*
X128155448Y-122544552D01*
X128221769Y-122588867D01*
X128233938Y-122591288D01*
X128233939Y-122591288D01*
X128270484Y-122598557D01*
X128280252Y-122600500D01*
X129819748Y-122600500D01*
X129829516Y-122598557D01*
X129866061Y-122591288D01*
X129866062Y-122591288D01*
X129878231Y-122588867D01*
X129944552Y-122544552D01*
X129988867Y-122478231D01*
X129999074Y-122426918D01*
X130031982Y-122364008D01*
X130093677Y-122328877D01*
X130122653Y-122325500D01*
X133230290Y-122325500D01*
X133241272Y-122325980D01*
X133267820Y-122328303D01*
X133267822Y-122328303D01*
X133278807Y-122329264D01*
X133315215Y-122319508D01*
X133325942Y-122317130D01*
X133329301Y-122316538D01*
X133363045Y-122310588D01*
X133372590Y-122305077D01*
X133375866Y-122303885D01*
X133379034Y-122302408D01*
X133389684Y-122299554D01*
X133420544Y-122277945D01*
X133429815Y-122272039D01*
X133452906Y-122258707D01*
X133462455Y-122253194D01*
X133486685Y-122224317D01*
X133494111Y-122216215D01*
X133577617Y-122132709D01*
X133639929Y-122098683D01*
X133683157Y-122096882D01*
X133750000Y-122105682D01*
X133758188Y-122104604D01*
X133898574Y-122086122D01*
X133906762Y-122085044D01*
X134052841Y-122024536D01*
X134178282Y-121928282D01*
X134274536Y-121802841D01*
X134335044Y-121656762D01*
X134355682Y-121500000D01*
X134335044Y-121343238D01*
X134274536Y-121197159D01*
X134178282Y-121071718D01*
X134052841Y-120975464D01*
X133906762Y-120914956D01*
X133750000Y-120894318D01*
X133741812Y-120895396D01*
X133733554Y-120895396D01*
X133733554Y-120892731D01*
X133676447Y-120883822D01*
X133623352Y-120836691D01*
X133604166Y-120768335D01*
X133604604Y-120762212D01*
X133604604Y-120758188D01*
X133605682Y-120750000D01*
X133585044Y-120593238D01*
X133524536Y-120447159D01*
X133451709Y-120352249D01*
X133433305Y-120328264D01*
X133428282Y-120321718D01*
X133302841Y-120225464D01*
X133156762Y-120164956D01*
X133000000Y-120144318D01*
X132843238Y-120164956D01*
X132697159Y-120225464D01*
X132571718Y-120321718D01*
X132566695Y-120328264D01*
X132548291Y-120352249D01*
X132475464Y-120447159D01*
X132464303Y-120474105D01*
X132454936Y-120496718D01*
X132410388Y-120551999D01*
X132338527Y-120574500D01*
X130122653Y-120574500D01*
X130054532Y-120554498D01*
X130008039Y-120500842D01*
X129999074Y-120473082D01*
X129991288Y-120433939D01*
X129991288Y-120433938D01*
X129988867Y-120421769D01*
X129981974Y-120411453D01*
X129977223Y-120399983D01*
X129980937Y-120398445D01*
X129966472Y-120352249D01*
X129981312Y-120301711D01*
X129977223Y-120300017D01*
X129981974Y-120288547D01*
X129988867Y-120278231D01*
X130000500Y-120219748D01*
X130000500Y-119380252D01*
X129988867Y-119321769D01*
X129981974Y-119311453D01*
X129977223Y-119299983D01*
X129980937Y-119298445D01*
X129966472Y-119252249D01*
X129981312Y-119201711D01*
X129977223Y-119200017D01*
X129981974Y-119188547D01*
X129988867Y-119178231D01*
X130000500Y-119119748D01*
X130000500Y-118547646D01*
X130020502Y-118479525D01*
X130050935Y-118446820D01*
X130155724Y-118368285D01*
X130168285Y-118355724D01*
X130244786Y-118253649D01*
X130253324Y-118238054D01*
X130298478Y-118117606D01*
X130302105Y-118102351D01*
X130307631Y-118051486D01*
X130308000Y-118044672D01*
X130308000Y-117872115D01*
X130303525Y-117856876D01*
X130302135Y-117855671D01*
X130294452Y-117854000D01*
X127810116Y-117854000D01*
X127794877Y-117858475D01*
X127793672Y-117859865D01*
X127792001Y-117867548D01*
X127792001Y-118044669D01*
X123575000Y-118044669D01*
X123575000Y-111269748D01*
X125099500Y-111269748D01*
X125111133Y-111328231D01*
X125155448Y-111394552D01*
X125221769Y-111438867D01*
X125233938Y-111441288D01*
X125233939Y-111441288D01*
X125274184Y-111449293D01*
X125280252Y-111450500D01*
X127019748Y-111450500D01*
X127025816Y-111449293D01*
X127066061Y-111441288D01*
X127066062Y-111441288D01*
X127078231Y-111438867D01*
X127144552Y-111394552D01*
X127188867Y-111328231D01*
X127200500Y-111269748D01*
X127200500Y-109830252D01*
X127197501Y-109815175D01*
X127191288Y-109783939D01*
X127191288Y-109783938D01*
X127188867Y-109771769D01*
X127144552Y-109705448D01*
X127078231Y-109661133D01*
X127066062Y-109658712D01*
X127066061Y-109658712D01*
X127025816Y-109650707D01*
X127019748Y-109649500D01*
X125280252Y-109649500D01*
X125274184Y-109650707D01*
X125233939Y-109658712D01*
X125233938Y-109658712D01*
X125221769Y-109661133D01*
X125155448Y-109705448D01*
X125111133Y-109771769D01*
X125108712Y-109783938D01*
X125108712Y-109783939D01*
X125102499Y-109815175D01*
X125099500Y-109830252D01*
X125099500Y-111269748D01*
X123575000Y-111269748D01*
X123575000Y-100619748D01*
X124759500Y-100619748D01*
X124760707Y-100625816D01*
X124768022Y-100662589D01*
X124771133Y-100678231D01*
X124815448Y-100744552D01*
X124881769Y-100788867D01*
X124893938Y-100791288D01*
X124893939Y-100791288D01*
X124934184Y-100799293D01*
X124940252Y-100800500D01*
X125287984Y-100800500D01*
X125356105Y-100820502D01*
X125377079Y-100837405D01*
X126214586Y-101674913D01*
X127005895Y-102466222D01*
X127013321Y-102474325D01*
X127037545Y-102503194D01*
X127047088Y-102508704D01*
X127047092Y-102508707D01*
X127070179Y-102522036D01*
X127079448Y-102527940D01*
X127110316Y-102549554D01*
X127120964Y-102552407D01*
X127124135Y-102553886D01*
X127127411Y-102555078D01*
X127136955Y-102560588D01*
X127174076Y-102567134D01*
X127184783Y-102569508D01*
X127221193Y-102579263D01*
X127232168Y-102578303D01*
X127232170Y-102578303D01*
X127258731Y-102575979D01*
X127269712Y-102575500D01*
X130076722Y-102575500D01*
X130144843Y-102595502D01*
X130191336Y-102649158D01*
X130201440Y-102719432D01*
X130193131Y-102749717D01*
X130164956Y-102817738D01*
X130144318Y-102974500D01*
X130164956Y-103131262D01*
X130225464Y-103277341D01*
X130321718Y-103402782D01*
X130328264Y-103407805D01*
X130351790Y-103425857D01*
X130447159Y-103499036D01*
X130593238Y-103559544D01*
X130750000Y-103580182D01*
X130816843Y-103571382D01*
X130886990Y-103582321D01*
X130922383Y-103607209D01*
X131281389Y-103966215D01*
X131288816Y-103974319D01*
X131313045Y-104003194D01*
X131322594Y-104008707D01*
X131345685Y-104022039D01*
X131354956Y-104027945D01*
X131385816Y-104049554D01*
X131396466Y-104052408D01*
X131399634Y-104053885D01*
X131402910Y-104055077D01*
X131412455Y-104060588D01*
X131446199Y-104066538D01*
X131449558Y-104067130D01*
X131460285Y-104069508D01*
X131496693Y-104079264D01*
X131507669Y-104078304D01*
X131507672Y-104078304D01*
X131534243Y-104075979D01*
X131545224Y-104075500D01*
X140659983Y-104075500D01*
X140728104Y-104095502D01*
X140774597Y-104149158D01*
X140784701Y-104219432D01*
X140755207Y-104284012D01*
X140749078Y-104290595D01*
X131102079Y-113937595D01*
X131039767Y-113971621D01*
X131012984Y-113974500D01*
X130122653Y-113974500D01*
X130054532Y-113954498D01*
X130008039Y-113900842D01*
X129999074Y-113873082D01*
X129991288Y-113833939D01*
X129991288Y-113833938D01*
X129988867Y-113821769D01*
X129944552Y-113755448D01*
X129878231Y-113711133D01*
X129866062Y-113708712D01*
X129866061Y-113708712D01*
X129825816Y-113700707D01*
X129819748Y-113699500D01*
X128280252Y-113699500D01*
X128274184Y-113700707D01*
X128233939Y-113708712D01*
X128233938Y-113708712D01*
X128221769Y-113711133D01*
X128155448Y-113755448D01*
X128111133Y-113821769D01*
X128108712Y-113833938D01*
X128108712Y-113833939D01*
X128105234Y-113851426D01*
X128099500Y-113880252D01*
X128099500Y-114719748D01*
X128111133Y-114778231D01*
X128118026Y-114788547D01*
X128122777Y-114800017D01*
X128119063Y-114801555D01*
X128133528Y-114847751D01*
X128118688Y-114898289D01*
X128122777Y-114899983D01*
X128118026Y-114911453D01*
X128111133Y-114921769D01*
X128108712Y-114933938D01*
X128108712Y-114933939D01*
X128102183Y-114966763D01*
X128099500Y-114980252D01*
X128099500Y-115819748D01*
X128111133Y-115878231D01*
X128118026Y-115888547D01*
X128122777Y-115900017D01*
X128119063Y-115901555D01*
X128133528Y-115947751D01*
X128118688Y-115998289D01*
X128122777Y-115999983D01*
X128118026Y-116011453D01*
X128111133Y-116021769D01*
X128099500Y-116080252D01*
X128099500Y-116652354D01*
X128079498Y-116720475D01*
X128049065Y-116753180D01*
X127944276Y-116831715D01*
X127931715Y-116844276D01*
X127855214Y-116946351D01*
X127846676Y-116961946D01*
X127801522Y-117082394D01*
X127797895Y-117097649D01*
X127792369Y-117148514D01*
X127792000Y-117155328D01*
X127792000Y-117327885D01*
X127796475Y-117343124D01*
X127797865Y-117344329D01*
X127805548Y-117346000D01*
X130289884Y-117346000D01*
X130305123Y-117341525D01*
X130306328Y-117340135D01*
X130307999Y-117332452D01*
X130307999Y-117169748D01*
X139849500Y-117169748D01*
X139861133Y-117228231D01*
X139905448Y-117294552D01*
X139915761Y-117301443D01*
X139955334Y-117327885D01*
X139971769Y-117338867D01*
X139983938Y-117341288D01*
X139983939Y-117341288D01*
X140024184Y-117349293D01*
X140030252Y-117350500D01*
X141219748Y-117350500D01*
X141225816Y-117349293D01*
X141266061Y-117341288D01*
X141266062Y-117341288D01*
X141278231Y-117338867D01*
X141294667Y-117327885D01*
X141334239Y-117301443D01*
X141344552Y-117294552D01*
X141388867Y-117228231D01*
X141400500Y-117169748D01*
X141400500Y-116722052D01*
X141410091Y-116673834D01*
X141455424Y-116564391D01*
X141458584Y-116556762D01*
X141479222Y-116400000D01*
X141458584Y-116243238D01*
X141410091Y-116126165D01*
X141400500Y-116077948D01*
X141400500Y-115630252D01*
X141388867Y-115571769D01*
X141344552Y-115505448D01*
X141278231Y-115461133D01*
X141266062Y-115458712D01*
X141266061Y-115458712D01*
X141225816Y-115450707D01*
X141219748Y-115449500D01*
X140030252Y-115449500D01*
X140024184Y-115450707D01*
X139983939Y-115458712D01*
X139983938Y-115458712D01*
X139971769Y-115461133D01*
X139905448Y-115505448D01*
X139861133Y-115571769D01*
X139849500Y-115630252D01*
X139849500Y-117169748D01*
X130307999Y-117169748D01*
X130307999Y-117155331D01*
X130307629Y-117148510D01*
X130302105Y-117097648D01*
X130298479Y-117082397D01*
X130265989Y-116995730D01*
X130260806Y-116924923D01*
X130294727Y-116862554D01*
X130356982Y-116828424D01*
X130383971Y-116825500D01*
X137980290Y-116825500D01*
X137991272Y-116825980D01*
X138017820Y-116828303D01*
X138017822Y-116828303D01*
X138028807Y-116829264D01*
X138065215Y-116819508D01*
X138075942Y-116817130D01*
X138079301Y-116816538D01*
X138113045Y-116810588D01*
X138122590Y-116805077D01*
X138125866Y-116803885D01*
X138129034Y-116802408D01*
X138139684Y-116799554D01*
X138170544Y-116777945D01*
X138179815Y-116772039D01*
X138202906Y-116758707D01*
X138212455Y-116753194D01*
X138236685Y-116724317D01*
X138244111Y-116716215D01*
X139466215Y-115494111D01*
X139474319Y-115486684D01*
X139494749Y-115469541D01*
X139503194Y-115462455D01*
X139509977Y-115450707D01*
X139522039Y-115429815D01*
X139527945Y-115420544D01*
X139536549Y-115408256D01*
X139549554Y-115389684D01*
X139552408Y-115379034D01*
X139553885Y-115375866D01*
X139555077Y-115372590D01*
X139560588Y-115363045D01*
X139567130Y-115325942D01*
X139569509Y-115315210D01*
X139571068Y-115309392D01*
X139579264Y-115278807D01*
X139575980Y-115241272D01*
X139575500Y-115230290D01*
X139575500Y-114869748D01*
X139849500Y-114869748D01*
X139861133Y-114928231D01*
X139905448Y-114994552D01*
X139971769Y-115038867D01*
X139983938Y-115041288D01*
X139983939Y-115041288D01*
X140024184Y-115049293D01*
X140030252Y-115050500D01*
X141219748Y-115050500D01*
X141225816Y-115049293D01*
X141266061Y-115041288D01*
X141266062Y-115041288D01*
X141278231Y-115038867D01*
X141344552Y-114994552D01*
X141388867Y-114928231D01*
X141400500Y-114869748D01*
X141400500Y-113330252D01*
X141388867Y-113271769D01*
X141376216Y-113252835D01*
X141351443Y-113215761D01*
X141344552Y-113205448D01*
X141278231Y-113161133D01*
X141266062Y-113158712D01*
X141266061Y-113158712D01*
X141225816Y-113150707D01*
X141219748Y-113149500D01*
X140030252Y-113149500D01*
X140024184Y-113150707D01*
X139983939Y-113158712D01*
X139983938Y-113158712D01*
X139971769Y-113161133D01*
X139905448Y-113205448D01*
X139898557Y-113215761D01*
X139873785Y-113252835D01*
X139861133Y-113271769D01*
X139849500Y-113330252D01*
X139849500Y-114869748D01*
X139575500Y-114869748D01*
X139575500Y-112770302D01*
X142812752Y-112770302D01*
X142815313Y-112783088D01*
X142859029Y-112922589D01*
X142865235Y-112936334D01*
X142940496Y-113060604D01*
X142949803Y-113072473D01*
X143052527Y-113175197D01*
X143064396Y-113184504D01*
X143188666Y-113259765D01*
X143202411Y-113265971D01*
X143341904Y-113309685D01*
X143354954Y-113312298D01*
X143411962Y-113317537D01*
X143425624Y-113313525D01*
X143426829Y-113312135D01*
X143428500Y-113304452D01*
X143428500Y-112772115D01*
X143424025Y-112756876D01*
X143422635Y-112755671D01*
X143414952Y-112754000D01*
X142829342Y-112754000D01*
X142814797Y-112758271D01*
X142812752Y-112770302D01*
X139575500Y-112770302D01*
X139575500Y-112228503D01*
X142812991Y-112228503D01*
X142815806Y-112242835D01*
X142827702Y-112246000D01*
X143410385Y-112246000D01*
X143425624Y-112241525D01*
X143426829Y-112240135D01*
X143428500Y-112232452D01*
X143428500Y-111700115D01*
X143424025Y-111684876D01*
X143422635Y-111683671D01*
X143415814Y-111682187D01*
X143414112Y-111682266D01*
X143354954Y-111687702D01*
X143341904Y-111690315D01*
X143202411Y-111734029D01*
X143188666Y-111740235D01*
X143064396Y-111815496D01*
X143052527Y-111824803D01*
X142949803Y-111927527D01*
X142940496Y-111939396D01*
X142865235Y-112063666D01*
X142859029Y-112077411D01*
X142815313Y-112216912D01*
X142812991Y-112228503D01*
X139575500Y-112228503D01*
X139575500Y-110506885D01*
X144092000Y-110506885D01*
X144096475Y-110522124D01*
X144097865Y-110523329D01*
X144105548Y-110525000D01*
X144581885Y-110525000D01*
X144597124Y-110520525D01*
X144598329Y-110519135D01*
X144600000Y-110511452D01*
X144600000Y-109414958D01*
X144595956Y-109401187D01*
X144582417Y-109399158D01*
X144530995Y-109405928D01*
X144515175Y-109410167D01*
X144388614Y-109462590D01*
X144374431Y-109470779D01*
X144265752Y-109554171D01*
X144254172Y-109565750D01*
X144170777Y-109674434D01*
X144162590Y-109688615D01*
X144110167Y-109815175D01*
X144105928Y-109830995D01*
X144092538Y-109932700D01*
X144092000Y-109940908D01*
X144092000Y-110506885D01*
X139575500Y-110506885D01*
X139575500Y-109687016D01*
X139595502Y-109618895D01*
X139612405Y-109597921D01*
X141597921Y-107612405D01*
X141660233Y-107578379D01*
X141687016Y-107575500D01*
X141723500Y-107575500D01*
X141791621Y-107595502D01*
X141838114Y-107649158D01*
X141849500Y-107701499D01*
X141849501Y-107852132D01*
X141850708Y-107858199D01*
X141850708Y-107858202D01*
X141857890Y-107894310D01*
X141865485Y-107932495D01*
X141872381Y-107942815D01*
X141876095Y-107951782D01*
X141883684Y-108022372D01*
X141876095Y-108048219D01*
X141872382Y-108057184D01*
X141865485Y-108067505D01*
X141849500Y-108147867D01*
X141849501Y-108352132D01*
X141865485Y-108432495D01*
X141872381Y-108442815D01*
X141876095Y-108451782D01*
X141883684Y-108522372D01*
X141876095Y-108548219D01*
X141872382Y-108557184D01*
X141865485Y-108567505D01*
X141849500Y-108647867D01*
X141849501Y-108852132D01*
X141865485Y-108932495D01*
X141926376Y-109023624D01*
X142017505Y-109084515D01*
X142097867Y-109100500D01*
X142824941Y-109100500D01*
X143552132Y-109100499D01*
X143558198Y-109099292D01*
X143558203Y-109099292D01*
X143620324Y-109086936D01*
X143620325Y-109086936D01*
X143632495Y-109084515D01*
X143723624Y-109023624D01*
X143784515Y-108932495D01*
X143800500Y-108852133D01*
X143800499Y-108647868D01*
X143784515Y-108567505D01*
X143777619Y-108557185D01*
X143773905Y-108548218D01*
X143766316Y-108477628D01*
X143773905Y-108451781D01*
X143777618Y-108442816D01*
X143784515Y-108432495D01*
X143800500Y-108352133D01*
X143800499Y-108147868D01*
X143784515Y-108067505D01*
X143777619Y-108057185D01*
X143773905Y-108048218D01*
X143766316Y-107977628D01*
X143773905Y-107951781D01*
X143777618Y-107942816D01*
X143784515Y-107932495D01*
X143792111Y-107894310D01*
X143799293Y-107858201D01*
X143800500Y-107852133D01*
X143800499Y-107647868D01*
X143793446Y-107612405D01*
X143791484Y-107602542D01*
X143784515Y-107567505D01*
X143777619Y-107557185D01*
X143773905Y-107548218D01*
X143766316Y-107477628D01*
X143773905Y-107451781D01*
X143777618Y-107442816D01*
X143784515Y-107432495D01*
X143787481Y-107417583D01*
X152899158Y-107417583D01*
X152905928Y-107469005D01*
X152910167Y-107484825D01*
X152962590Y-107611386D01*
X152970779Y-107625569D01*
X153054171Y-107734248D01*
X153065750Y-107745828D01*
X153161015Y-107818927D01*
X153202882Y-107876265D01*
X153207890Y-107894310D01*
X153215485Y-107932495D01*
X153222381Y-107942816D01*
X153226095Y-107951782D01*
X153233684Y-108022372D01*
X153226095Y-108048219D01*
X153222382Y-108057184D01*
X153215485Y-108067505D01*
X153199500Y-108147867D01*
X153199501Y-108352132D01*
X153215485Y-108432495D01*
X153222381Y-108442815D01*
X153226095Y-108451782D01*
X153233684Y-108522372D01*
X153226095Y-108548219D01*
X153222382Y-108557184D01*
X153215485Y-108567505D01*
X153199500Y-108647867D01*
X153199501Y-108852132D01*
X153215485Y-108932495D01*
X153276376Y-109023624D01*
X153367505Y-109084515D01*
X153447867Y-109100500D01*
X154174941Y-109100500D01*
X154902132Y-109100499D01*
X154908198Y-109099292D01*
X154908203Y-109099292D01*
X154970324Y-109086936D01*
X154970325Y-109086936D01*
X154982495Y-109084515D01*
X155073624Y-109023624D01*
X155134515Y-108932495D01*
X155150500Y-108852133D01*
X155150499Y-108647868D01*
X155134515Y-108567505D01*
X155127619Y-108557185D01*
X155123905Y-108548218D01*
X155116316Y-108477628D01*
X155123905Y-108451781D01*
X155127618Y-108442816D01*
X155134515Y-108432495D01*
X155150500Y-108352133D01*
X155150499Y-108147868D01*
X155134515Y-108067505D01*
X155127619Y-108057185D01*
X155123905Y-108048218D01*
X155116316Y-107977628D01*
X155123905Y-107951781D01*
X155127618Y-107942816D01*
X155134515Y-107932495D01*
X155142111Y-107894307D01*
X155175018Y-107831397D01*
X155188986Y-107818925D01*
X155284252Y-107745825D01*
X155295828Y-107734250D01*
X155379223Y-107625566D01*
X155387410Y-107611385D01*
X155439833Y-107484825D01*
X155444072Y-107469005D01*
X155450792Y-107417960D01*
X155448581Y-107403778D01*
X155435424Y-107400000D01*
X154907211Y-107400000D01*
X154903807Y-107399833D01*
X154902133Y-107399500D01*
X154897024Y-107399500D01*
X154174217Y-107399501D01*
X153447868Y-107399501D01*
X153446198Y-107399833D01*
X153442800Y-107400000D01*
X152914958Y-107400000D01*
X152901187Y-107404044D01*
X152899158Y-107417583D01*
X143787481Y-107417583D01*
X143800500Y-107352133D01*
X143800499Y-107147868D01*
X143784515Y-107067505D01*
X143777619Y-107057185D01*
X143773905Y-107048218D01*
X143766316Y-106977628D01*
X143773905Y-106951781D01*
X143777618Y-106942816D01*
X143784515Y-106932495D01*
X143793244Y-106888614D01*
X143799293Y-106858201D01*
X143800500Y-106852133D01*
X143800499Y-106647868D01*
X143792111Y-106605693D01*
X143791484Y-106602542D01*
X143784515Y-106567505D01*
X143777619Y-106557185D01*
X143773905Y-106548218D01*
X143766316Y-106477628D01*
X143773905Y-106451781D01*
X143777618Y-106442816D01*
X143784515Y-106432495D01*
X143800500Y-106352133D01*
X143800499Y-106147868D01*
X143784515Y-106067505D01*
X143777619Y-106057185D01*
X143773905Y-106048218D01*
X143766316Y-105977628D01*
X143773905Y-105951781D01*
X143777618Y-105942816D01*
X143784515Y-105932495D01*
X143800500Y-105852133D01*
X143800499Y-105647868D01*
X143784515Y-105567505D01*
X143777619Y-105557185D01*
X143773905Y-105548218D01*
X143766316Y-105477628D01*
X143773905Y-105451781D01*
X143777618Y-105442816D01*
X143784515Y-105432495D01*
X143800500Y-105352133D01*
X143800499Y-105147868D01*
X143784515Y-105067505D01*
X143777619Y-105057185D01*
X143773905Y-105048218D01*
X143766316Y-104977628D01*
X143773905Y-104951781D01*
X143777618Y-104942816D01*
X143784515Y-104932495D01*
X143788371Y-104913113D01*
X143799293Y-104858201D01*
X143800500Y-104852133D01*
X143800499Y-104647868D01*
X143797618Y-104633380D01*
X143791484Y-104602542D01*
X143784515Y-104567505D01*
X143777619Y-104557185D01*
X143773905Y-104548218D01*
X143766316Y-104477628D01*
X143773905Y-104451781D01*
X143777618Y-104442816D01*
X143784515Y-104432495D01*
X143800500Y-104352133D01*
X143800499Y-104147868D01*
X143784515Y-104067505D01*
X143777619Y-104057185D01*
X143773905Y-104048218D01*
X143766316Y-103977628D01*
X143773905Y-103951781D01*
X143777618Y-103942816D01*
X143784515Y-103932495D01*
X143796352Y-103872989D01*
X143799293Y-103858201D01*
X143800500Y-103852133D01*
X143800499Y-103647868D01*
X143784515Y-103567505D01*
X143777619Y-103557185D01*
X143773905Y-103548218D01*
X143766316Y-103477628D01*
X143773905Y-103451781D01*
X143777618Y-103442816D01*
X143784515Y-103432495D01*
X143788371Y-103413113D01*
X143799293Y-103358201D01*
X143800500Y-103352133D01*
X143800499Y-103147868D01*
X143798714Y-103138891D01*
X143787909Y-103084571D01*
X143784515Y-103067505D01*
X143777619Y-103057185D01*
X143773905Y-103048218D01*
X143766316Y-102977628D01*
X143773905Y-102951781D01*
X143777618Y-102942816D01*
X143784515Y-102932495D01*
X143800500Y-102852133D01*
X143800499Y-102647868D01*
X143784515Y-102567505D01*
X143777619Y-102557185D01*
X143773905Y-102548218D01*
X143766316Y-102477628D01*
X143773905Y-102451781D01*
X143777618Y-102442816D01*
X143784515Y-102432495D01*
X143800500Y-102352133D01*
X143800499Y-102147868D01*
X143784515Y-102067505D01*
X143777619Y-102057185D01*
X143773905Y-102048218D01*
X143766316Y-101977628D01*
X143773905Y-101951781D01*
X143777618Y-101942816D01*
X143784515Y-101932495D01*
X143792111Y-101894307D01*
X143825018Y-101831397D01*
X143838986Y-101818925D01*
X143934252Y-101745825D01*
X143945828Y-101734250D01*
X144029223Y-101625566D01*
X144037410Y-101611385D01*
X144089833Y-101484825D01*
X144094072Y-101469005D01*
X144100792Y-101417960D01*
X144100733Y-101417583D01*
X152899158Y-101417583D01*
X152905928Y-101469005D01*
X152910167Y-101484825D01*
X152962590Y-101611386D01*
X152970779Y-101625569D01*
X153054171Y-101734248D01*
X153065750Y-101745828D01*
X153161015Y-101818927D01*
X153202882Y-101876265D01*
X153207890Y-101894310D01*
X153215485Y-101932495D01*
X153222381Y-101942816D01*
X153226095Y-101951782D01*
X153233684Y-102022372D01*
X153226095Y-102048219D01*
X153222382Y-102057184D01*
X153215485Y-102067505D01*
X153199500Y-102147867D01*
X153199501Y-102352132D01*
X153215485Y-102432495D01*
X153222381Y-102442815D01*
X153226095Y-102451782D01*
X153233684Y-102522372D01*
X153226095Y-102548219D01*
X153222382Y-102557184D01*
X153215485Y-102567505D01*
X153199500Y-102647867D01*
X153199501Y-102852132D01*
X153215485Y-102932495D01*
X153222381Y-102942815D01*
X153226095Y-102951782D01*
X153233684Y-103022372D01*
X153226095Y-103048219D01*
X153222382Y-103057184D01*
X153215485Y-103067505D01*
X153199500Y-103147867D01*
X153199501Y-103352132D01*
X153200708Y-103358199D01*
X153200708Y-103358202D01*
X153208273Y-103396236D01*
X153215485Y-103432495D01*
X153222381Y-103442815D01*
X153226095Y-103451782D01*
X153233684Y-103522372D01*
X153226095Y-103548219D01*
X153222382Y-103557184D01*
X153215485Y-103567505D01*
X153199500Y-103647867D01*
X153199501Y-103852132D01*
X153200708Y-103858199D01*
X153200708Y-103858202D01*
X153204599Y-103877762D01*
X153215485Y-103932495D01*
X153222381Y-103942815D01*
X153226095Y-103951782D01*
X153233684Y-104022372D01*
X153226095Y-104048219D01*
X153222382Y-104057184D01*
X153215485Y-104067505D01*
X153199500Y-104147867D01*
X153199501Y-104352132D01*
X153215485Y-104432495D01*
X153222381Y-104442815D01*
X153226095Y-104451782D01*
X153233684Y-104522372D01*
X153226095Y-104548219D01*
X153222382Y-104557184D01*
X153215485Y-104567505D01*
X153213064Y-104579678D01*
X153213063Y-104579680D01*
X153209916Y-104595502D01*
X153199500Y-104647867D01*
X153199501Y-104852132D01*
X153200708Y-104858199D01*
X153200708Y-104858202D01*
X153208516Y-104897458D01*
X153215485Y-104932495D01*
X153222381Y-104942815D01*
X153226095Y-104951782D01*
X153233684Y-105022372D01*
X153226095Y-105048219D01*
X153222382Y-105057184D01*
X153215485Y-105067505D01*
X153199500Y-105147867D01*
X153199501Y-105352132D01*
X153215485Y-105432495D01*
X153222381Y-105442815D01*
X153226095Y-105451782D01*
X153233684Y-105522372D01*
X153226095Y-105548219D01*
X153222382Y-105557184D01*
X153215485Y-105567505D01*
X153199500Y-105647867D01*
X153199501Y-105852132D01*
X153215485Y-105932495D01*
X153222381Y-105942815D01*
X153226095Y-105951782D01*
X153233684Y-106022372D01*
X153226095Y-106048219D01*
X153222382Y-106057184D01*
X153215485Y-106067505D01*
X153199500Y-106147867D01*
X153199501Y-106352132D01*
X153215485Y-106432495D01*
X153222381Y-106442815D01*
X153226095Y-106451782D01*
X153233684Y-106522372D01*
X153226095Y-106548219D01*
X153222382Y-106557184D01*
X153215485Y-106567505D01*
X153213064Y-106579678D01*
X153213063Y-106579680D01*
X153207889Y-106605693D01*
X153174982Y-106668603D01*
X153161014Y-106681075D01*
X153065748Y-106754175D01*
X153054172Y-106765750D01*
X152970777Y-106874434D01*
X152962590Y-106888615D01*
X152910167Y-107015175D01*
X152905928Y-107030995D01*
X152899208Y-107082040D01*
X152901419Y-107096222D01*
X152914576Y-107100000D01*
X153442789Y-107100000D01*
X153446193Y-107100167D01*
X153447867Y-107100500D01*
X153452976Y-107100500D01*
X154175783Y-107100499D01*
X154902132Y-107100499D01*
X154903802Y-107100167D01*
X154907200Y-107100000D01*
X155435042Y-107100000D01*
X155448813Y-107095956D01*
X155450842Y-107082417D01*
X155444072Y-107030995D01*
X155439833Y-107015175D01*
X155387410Y-106888614D01*
X155379221Y-106874431D01*
X155295829Y-106765752D01*
X155284250Y-106754172D01*
X155188985Y-106681073D01*
X155147118Y-106623735D01*
X155142110Y-106605690D01*
X155141038Y-106600300D01*
X155134515Y-106567505D01*
X155127619Y-106557184D01*
X155123905Y-106548218D01*
X155116316Y-106477628D01*
X155123905Y-106451781D01*
X155127618Y-106442816D01*
X155134515Y-106432495D01*
X155150500Y-106352133D01*
X155150499Y-106147868D01*
X155134515Y-106067505D01*
X155127619Y-106057185D01*
X155123905Y-106048218D01*
X155116316Y-105977628D01*
X155123905Y-105951781D01*
X155127618Y-105942816D01*
X155134515Y-105932495D01*
X155150500Y-105852133D01*
X155150499Y-105647868D01*
X155134515Y-105567505D01*
X155127619Y-105557185D01*
X155123905Y-105548218D01*
X155116316Y-105477628D01*
X155123905Y-105451781D01*
X155127618Y-105442816D01*
X155134515Y-105432495D01*
X155150500Y-105352133D01*
X155150499Y-105147868D01*
X155134515Y-105067505D01*
X155127619Y-105057185D01*
X155123905Y-105048218D01*
X155116316Y-104977628D01*
X155123905Y-104951781D01*
X155127618Y-104942816D01*
X155134515Y-104932495D01*
X155138371Y-104913113D01*
X155149293Y-104858201D01*
X155150500Y-104852133D01*
X155150499Y-104701500D01*
X155170501Y-104633380D01*
X155224156Y-104586887D01*
X155276499Y-104575500D01*
X155811339Y-104575500D01*
X155879460Y-104595502D01*
X155907568Y-104622235D01*
X155907824Y-104622757D01*
X155992762Y-104707547D01*
X156054167Y-104737563D01*
X156091802Y-104755960D01*
X156091804Y-104755961D01*
X156100585Y-104760253D01*
X156110258Y-104761664D01*
X156110261Y-104761665D01*
X156142250Y-104766331D01*
X156170828Y-104770500D01*
X156634172Y-104770500D01*
X156638720Y-104769831D01*
X156638727Y-104769830D01*
X156695341Y-104761496D01*
X156695343Y-104761495D01*
X156705026Y-104760070D01*
X156713814Y-104755755D01*
X156716141Y-104755032D01*
X156787129Y-104753918D01*
X156847450Y-104791360D01*
X156861307Y-104810084D01*
X156866528Y-104818705D01*
X156875840Y-104830580D01*
X156979420Y-104934160D01*
X156991289Y-104943467D01*
X157116594Y-105019355D01*
X157130339Y-105025561D01*
X157270989Y-105069637D01*
X157284036Y-105072250D01*
X157325459Y-105076056D01*
X157340336Y-105073134D01*
X157343500Y-105061240D01*
X157343500Y-105059598D01*
X157851500Y-105059598D01*
X157855771Y-105074143D01*
X157867904Y-105076206D01*
X157910973Y-105072249D01*
X157924006Y-105069639D01*
X158064661Y-105025561D01*
X158078406Y-105019355D01*
X158203711Y-104943467D01*
X158215580Y-104934160D01*
X158319160Y-104830580D01*
X158328467Y-104818711D01*
X158404355Y-104693406D01*
X158410561Y-104679661D01*
X158454639Y-104539006D01*
X158457249Y-104525973D01*
X158457611Y-104522039D01*
X158454688Y-104507165D01*
X158442793Y-104504000D01*
X157869615Y-104504000D01*
X157854376Y-104508475D01*
X157853171Y-104509865D01*
X157851500Y-104517548D01*
X157851500Y-105059598D01*
X157343500Y-105059598D01*
X157343500Y-103977885D01*
X157851500Y-103977885D01*
X157855975Y-103993124D01*
X157857365Y-103994329D01*
X157865048Y-103996000D01*
X158441153Y-103996000D01*
X158455698Y-103991729D01*
X158457761Y-103979596D01*
X158457249Y-103974027D01*
X158454639Y-103960994D01*
X158410561Y-103820339D01*
X158404355Y-103806594D01*
X158328467Y-103681289D01*
X158319160Y-103669420D01*
X158215580Y-103565840D01*
X158203711Y-103556533D01*
X158078406Y-103480645D01*
X158064661Y-103474439D01*
X157924011Y-103430363D01*
X157910964Y-103427750D01*
X157869541Y-103423944D01*
X157854664Y-103426866D01*
X157851500Y-103438760D01*
X157851500Y-103977885D01*
X157343500Y-103977885D01*
X157343500Y-103440402D01*
X157339229Y-103425857D01*
X157327096Y-103423794D01*
X157284027Y-103427751D01*
X157270994Y-103430361D01*
X157130339Y-103474439D01*
X157116594Y-103480645D01*
X156991289Y-103556533D01*
X156979420Y-103565840D01*
X156875840Y-103669420D01*
X156866531Y-103681292D01*
X156861316Y-103689902D01*
X156808918Y-103737808D01*
X156738938Y-103749780D01*
X156716335Y-103745010D01*
X156713199Y-103744041D01*
X156704415Y-103739747D01*
X156634172Y-103729500D01*
X156170828Y-103729500D01*
X156166280Y-103730169D01*
X156166273Y-103730170D01*
X156109659Y-103738504D01*
X156109657Y-103738505D01*
X156099974Y-103739930D01*
X155992243Y-103792824D01*
X155912220Y-103872987D01*
X155912217Y-103872989D01*
X155907453Y-103877762D01*
X155906874Y-103877184D01*
X155858057Y-103915512D01*
X155811321Y-103924500D01*
X155276500Y-103924500D01*
X155208379Y-103904498D01*
X155161886Y-103850842D01*
X155150500Y-103798501D01*
X155150499Y-103654056D01*
X155150499Y-103647868D01*
X155134515Y-103567505D01*
X155127619Y-103557185D01*
X155123905Y-103548218D01*
X155116316Y-103477628D01*
X155123905Y-103451781D01*
X155127618Y-103442816D01*
X155134515Y-103432495D01*
X155138371Y-103413113D01*
X155149293Y-103358201D01*
X155150500Y-103352133D01*
X155150499Y-103147868D01*
X155148714Y-103138891D01*
X155137909Y-103084571D01*
X155134515Y-103067505D01*
X155127619Y-103057185D01*
X155123905Y-103048218D01*
X155116316Y-102977628D01*
X155123905Y-102951781D01*
X155127618Y-102942816D01*
X155134515Y-102932495D01*
X155150500Y-102852133D01*
X155150499Y-102647868D01*
X155134515Y-102567505D01*
X155127619Y-102557185D01*
X155123905Y-102548218D01*
X155116316Y-102477628D01*
X155123905Y-102451781D01*
X155127618Y-102442816D01*
X155134515Y-102432495D01*
X155150500Y-102352133D01*
X155150499Y-102147868D01*
X155134515Y-102067505D01*
X155127619Y-102057185D01*
X155123905Y-102048218D01*
X155116316Y-101977628D01*
X155123905Y-101951781D01*
X155127618Y-101942816D01*
X155134515Y-101932495D01*
X155142111Y-101894307D01*
X155175018Y-101831397D01*
X155188986Y-101818925D01*
X155284252Y-101745825D01*
X155295828Y-101734250D01*
X155379223Y-101625566D01*
X155387410Y-101611385D01*
X155439833Y-101484825D01*
X155444072Y-101469005D01*
X155450792Y-101417960D01*
X155448581Y-101403778D01*
X155435424Y-101400000D01*
X154907211Y-101400000D01*
X154903807Y-101399833D01*
X154902133Y-101399500D01*
X154897024Y-101399500D01*
X154174217Y-101399501D01*
X153447868Y-101399501D01*
X153446198Y-101399833D01*
X153442800Y-101400000D01*
X152914958Y-101400000D01*
X152901187Y-101404044D01*
X152899158Y-101417583D01*
X144100733Y-101417583D01*
X144098581Y-101403778D01*
X144085424Y-101400000D01*
X143557211Y-101400000D01*
X143553807Y-101399833D01*
X143552133Y-101399500D01*
X143541642Y-101399500D01*
X142800998Y-101399501D01*
X142732879Y-101379499D01*
X142686386Y-101325843D01*
X142675000Y-101273501D01*
X142675000Y-101081885D01*
X142975000Y-101081885D01*
X142979475Y-101097124D01*
X142980865Y-101098329D01*
X142988548Y-101100000D01*
X144085042Y-101100000D01*
X144098813Y-101095956D01*
X144100842Y-101082417D01*
X144100792Y-101082040D01*
X152899208Y-101082040D01*
X152901419Y-101096222D01*
X152914576Y-101100000D01*
X155435042Y-101100000D01*
X155448813Y-101095956D01*
X155450842Y-101082417D01*
X155444072Y-101030995D01*
X155439833Y-101015175D01*
X155387410Y-100888614D01*
X155379221Y-100874431D01*
X155295829Y-100765752D01*
X155284247Y-100754169D01*
X155277332Y-100748863D01*
X155235466Y-100691524D01*
X155231245Y-100620653D01*
X155246262Y-100583631D01*
X155259763Y-100561338D01*
X155265971Y-100547589D01*
X155309685Y-100408094D01*
X155312298Y-100395046D01*
X155317537Y-100338038D01*
X155313525Y-100324376D01*
X155312135Y-100323171D01*
X155304452Y-100321500D01*
X153700115Y-100321500D01*
X153684876Y-100325975D01*
X153683671Y-100327365D01*
X153682187Y-100334186D01*
X153682266Y-100335888D01*
X153687702Y-100395046D01*
X153690314Y-100408090D01*
X153696654Y-100428322D01*
X153697937Y-100499307D01*
X153660639Y-100559718D01*
X153596602Y-100590373D01*
X153576419Y-100592000D01*
X153440908Y-100592000D01*
X153432700Y-100592538D01*
X153330995Y-100605928D01*
X153315175Y-100610167D01*
X153188614Y-100662590D01*
X153174431Y-100670779D01*
X153065752Y-100754171D01*
X153054172Y-100765750D01*
X152970777Y-100874434D01*
X152962590Y-100888615D01*
X152910167Y-101015175D01*
X152905928Y-101030995D01*
X152899208Y-101082040D01*
X144100792Y-101082040D01*
X144094072Y-101030995D01*
X144089833Y-101015175D01*
X144037410Y-100888614D01*
X144029221Y-100874431D01*
X143945829Y-100765752D01*
X143934250Y-100754172D01*
X143825566Y-100670777D01*
X143811385Y-100662590D01*
X143684825Y-100610167D01*
X143669005Y-100605928D01*
X143567300Y-100592538D01*
X143559092Y-100592000D01*
X142993115Y-100592000D01*
X142977876Y-100596475D01*
X142976671Y-100597865D01*
X142975000Y-100605548D01*
X142975000Y-101081885D01*
X142675000Y-101081885D01*
X142675000Y-100610115D01*
X142670525Y-100594876D01*
X142669135Y-100593671D01*
X142661452Y-100592000D01*
X142090908Y-100592000D01*
X142082700Y-100592538D01*
X141980992Y-100605928D01*
X141973634Y-100607900D01*
X141902657Y-100606212D01*
X141843861Y-100566418D01*
X141815912Y-100501154D01*
X141815549Y-100474666D01*
X141817536Y-100453036D01*
X141813525Y-100439376D01*
X141812135Y-100438171D01*
X141804452Y-100436500D01*
X140200115Y-100436500D01*
X140184876Y-100440975D01*
X140183671Y-100442365D01*
X140182187Y-100449186D01*
X140182266Y-100450888D01*
X140187702Y-100510046D01*
X140190315Y-100523096D01*
X140234029Y-100662589D01*
X140240235Y-100676334D01*
X140315496Y-100800604D01*
X140324803Y-100812473D01*
X140431023Y-100918693D01*
X140465049Y-100981005D01*
X140458337Y-101056006D01*
X140418116Y-101153108D01*
X140414956Y-101160738D01*
X140394318Y-101317500D01*
X140414956Y-101474262D01*
X140475464Y-101620341D01*
X140480491Y-101626892D01*
X140480492Y-101626894D01*
X140517339Y-101674913D01*
X140530477Y-101696080D01*
X140551945Y-101739806D01*
X140551946Y-101739807D01*
X140549151Y-101741179D01*
X140566948Y-101792198D01*
X140550378Y-101861234D01*
X140499115Y-101910352D01*
X140441106Y-101924500D01*
X127437017Y-101924500D01*
X127368896Y-101904498D01*
X127347922Y-101887595D01*
X126777827Y-101317500D01*
X126194779Y-100734453D01*
X126160754Y-100672141D01*
X126160402Y-100632148D01*
X126158686Y-100631979D01*
X126159293Y-100625816D01*
X126160500Y-100619748D01*
X127299500Y-100619748D01*
X127300707Y-100625816D01*
X127308022Y-100662589D01*
X127311133Y-100678231D01*
X127355448Y-100744552D01*
X127421769Y-100788867D01*
X127433938Y-100791288D01*
X127433939Y-100791288D01*
X127474184Y-100799293D01*
X127480252Y-100800500D01*
X128519748Y-100800500D01*
X128525816Y-100799293D01*
X128566061Y-100791288D01*
X128566062Y-100791288D01*
X128578231Y-100788867D01*
X128644552Y-100744552D01*
X128688867Y-100678231D01*
X128691979Y-100662589D01*
X128699293Y-100625816D01*
X128700500Y-100619748D01*
X129839500Y-100619748D01*
X129840707Y-100625816D01*
X129848022Y-100662589D01*
X129851133Y-100678231D01*
X129895448Y-100744552D01*
X129961769Y-100788867D01*
X129973938Y-100791288D01*
X129973939Y-100791288D01*
X130014184Y-100799293D01*
X130020252Y-100800500D01*
X131059748Y-100800500D01*
X131065816Y-100799293D01*
X131106061Y-100791288D01*
X131106062Y-100791288D01*
X131118231Y-100788867D01*
X131184552Y-100744552D01*
X131228867Y-100678231D01*
X131231979Y-100662589D01*
X131239293Y-100625816D01*
X131240500Y-100619748D01*
X131240500Y-99911962D01*
X140182463Y-99911962D01*
X140186475Y-99925624D01*
X140187865Y-99926829D01*
X140195548Y-99928500D01*
X140727885Y-99928500D01*
X140743124Y-99924025D01*
X140744329Y-99922635D01*
X140746000Y-99914952D01*
X140746000Y-99910385D01*
X141254000Y-99910385D01*
X141258475Y-99925624D01*
X141259865Y-99926829D01*
X141267548Y-99928500D01*
X141799885Y-99928500D01*
X141815124Y-99924025D01*
X141816329Y-99922635D01*
X141817813Y-99915814D01*
X141817734Y-99914112D01*
X141812298Y-99854954D01*
X141809685Y-99841904D01*
X141765971Y-99702411D01*
X141759765Y-99688666D01*
X141684504Y-99564396D01*
X141675197Y-99552527D01*
X141572473Y-99449803D01*
X141560604Y-99440496D01*
X141436334Y-99365235D01*
X141422589Y-99359029D01*
X141283088Y-99315313D01*
X141271497Y-99312991D01*
X141257165Y-99315806D01*
X141254000Y-99327702D01*
X141254000Y-99910385D01*
X140746000Y-99910385D01*
X140746000Y-99329342D01*
X140741729Y-99314797D01*
X140729698Y-99312752D01*
X140716912Y-99315313D01*
X140577411Y-99359029D01*
X140563666Y-99365235D01*
X140439396Y-99440496D01*
X140427527Y-99449803D01*
X140324803Y-99552527D01*
X140315496Y-99564396D01*
X140240235Y-99688666D01*
X140234029Y-99702411D01*
X140190315Y-99841904D01*
X140187702Y-99854954D01*
X140182463Y-99911962D01*
X131240500Y-99911962D01*
X131240500Y-98597867D01*
X144399500Y-98597867D01*
X144399501Y-100052132D01*
X144400708Y-100058198D01*
X144400708Y-100058203D01*
X144413064Y-100120324D01*
X144415485Y-100132495D01*
X144476376Y-100223624D01*
X144567505Y-100284515D01*
X144647867Y-100300500D01*
X144749991Y-100300500D01*
X144852132Y-100300499D01*
X144858199Y-100299292D01*
X144858202Y-100299292D01*
X144897458Y-100291484D01*
X144932495Y-100284515D01*
X144942815Y-100277619D01*
X144951782Y-100273905D01*
X145022372Y-100266316D01*
X145048219Y-100273905D01*
X145057184Y-100277618D01*
X145067505Y-100284515D01*
X145079679Y-100286937D01*
X145079680Y-100286937D01*
X145141794Y-100299292D01*
X145147867Y-100300500D01*
X145249991Y-100300500D01*
X145352132Y-100300499D01*
X145358199Y-100299292D01*
X145358202Y-100299292D01*
X145397458Y-100291484D01*
X145432495Y-100284515D01*
X145442815Y-100277619D01*
X145451782Y-100273905D01*
X145522372Y-100266316D01*
X145548219Y-100273905D01*
X145557184Y-100277618D01*
X145567505Y-100284515D01*
X145579679Y-100286937D01*
X145579680Y-100286937D01*
X145641794Y-100299292D01*
X145647867Y-100300500D01*
X145749991Y-100300500D01*
X145852132Y-100300499D01*
X145858199Y-100299292D01*
X145858202Y-100299292D01*
X145897458Y-100291484D01*
X145932495Y-100284515D01*
X145942815Y-100277619D01*
X145951782Y-100273905D01*
X146022372Y-100266316D01*
X146048219Y-100273905D01*
X146057184Y-100277618D01*
X146067505Y-100284515D01*
X146079679Y-100286937D01*
X146079680Y-100286937D01*
X146141794Y-100299292D01*
X146147867Y-100300500D01*
X146249991Y-100300500D01*
X146352132Y-100300499D01*
X146358199Y-100299292D01*
X146358202Y-100299292D01*
X146397458Y-100291484D01*
X146432495Y-100284515D01*
X146442815Y-100277619D01*
X146451782Y-100273905D01*
X146522372Y-100266316D01*
X146548219Y-100273905D01*
X146557184Y-100277618D01*
X146567505Y-100284515D01*
X146579679Y-100286937D01*
X146579680Y-100286937D01*
X146641794Y-100299292D01*
X146647867Y-100300500D01*
X146749991Y-100300500D01*
X146852132Y-100300499D01*
X146858199Y-100299292D01*
X146858202Y-100299292D01*
X146897458Y-100291484D01*
X146932495Y-100284515D01*
X146942815Y-100277619D01*
X146951782Y-100273905D01*
X147022372Y-100266316D01*
X147048219Y-100273905D01*
X147057184Y-100277618D01*
X147067505Y-100284515D01*
X147079679Y-100286937D01*
X147079680Y-100286937D01*
X147141794Y-100299292D01*
X147147867Y-100300500D01*
X147249991Y-100300500D01*
X147352132Y-100300499D01*
X147358199Y-100299292D01*
X147358202Y-100299292D01*
X147397458Y-100291484D01*
X147432495Y-100284515D01*
X147442815Y-100277619D01*
X147451782Y-100273905D01*
X147522372Y-100266316D01*
X147548219Y-100273905D01*
X147557184Y-100277618D01*
X147567505Y-100284515D01*
X147579679Y-100286937D01*
X147579680Y-100286937D01*
X147641794Y-100299292D01*
X147647867Y-100300500D01*
X147749991Y-100300500D01*
X147852132Y-100300499D01*
X147858199Y-100299292D01*
X147858202Y-100299292D01*
X147897458Y-100291484D01*
X147932495Y-100284515D01*
X147942815Y-100277619D01*
X147951782Y-100273905D01*
X148022372Y-100266316D01*
X148048219Y-100273905D01*
X148057184Y-100277618D01*
X148067505Y-100284515D01*
X148079679Y-100286937D01*
X148079680Y-100286937D01*
X148141794Y-100299292D01*
X148147867Y-100300500D01*
X148249991Y-100300500D01*
X148352132Y-100300499D01*
X148358199Y-100299292D01*
X148358202Y-100299292D01*
X148397458Y-100291484D01*
X148432495Y-100284515D01*
X148442815Y-100277619D01*
X148451782Y-100273905D01*
X148522372Y-100266316D01*
X148548219Y-100273905D01*
X148557184Y-100277618D01*
X148567505Y-100284515D01*
X148579679Y-100286937D01*
X148579680Y-100286937D01*
X148641794Y-100299292D01*
X148647867Y-100300500D01*
X148749991Y-100300500D01*
X148852132Y-100300499D01*
X148858199Y-100299292D01*
X148858202Y-100299292D01*
X148897458Y-100291484D01*
X148932495Y-100284515D01*
X148942815Y-100277619D01*
X148951782Y-100273905D01*
X149022372Y-100266316D01*
X149048219Y-100273905D01*
X149057184Y-100277618D01*
X149067505Y-100284515D01*
X149079679Y-100286937D01*
X149079680Y-100286937D01*
X149141794Y-100299292D01*
X149147867Y-100300500D01*
X149249991Y-100300500D01*
X149352132Y-100300499D01*
X149358199Y-100299292D01*
X149358202Y-100299292D01*
X149397458Y-100291484D01*
X149432495Y-100284515D01*
X149442815Y-100277619D01*
X149451782Y-100273905D01*
X149522372Y-100266316D01*
X149548219Y-100273905D01*
X149557184Y-100277618D01*
X149567505Y-100284515D01*
X149579679Y-100286937D01*
X149579680Y-100286937D01*
X149641794Y-100299292D01*
X149647867Y-100300500D01*
X149749991Y-100300500D01*
X149852132Y-100300499D01*
X149858199Y-100299292D01*
X149858202Y-100299292D01*
X149897458Y-100291484D01*
X149932495Y-100284515D01*
X149942815Y-100277619D01*
X149951782Y-100273905D01*
X150022372Y-100266316D01*
X150048219Y-100273905D01*
X150057184Y-100277618D01*
X150067505Y-100284515D01*
X150079679Y-100286937D01*
X150079680Y-100286937D01*
X150141794Y-100299292D01*
X150147867Y-100300500D01*
X150249991Y-100300500D01*
X150352132Y-100300499D01*
X150358199Y-100299292D01*
X150358202Y-100299292D01*
X150397458Y-100291484D01*
X150432495Y-100284515D01*
X150442815Y-100277619D01*
X150451782Y-100273905D01*
X150522372Y-100266316D01*
X150548219Y-100273905D01*
X150557184Y-100277618D01*
X150567505Y-100284515D01*
X150579679Y-100286937D01*
X150579680Y-100286937D01*
X150641794Y-100299292D01*
X150647867Y-100300500D01*
X150749991Y-100300500D01*
X150852132Y-100300499D01*
X150858199Y-100299292D01*
X150858202Y-100299292D01*
X150897458Y-100291484D01*
X150932495Y-100284515D01*
X150942815Y-100277619D01*
X150951782Y-100273905D01*
X151022372Y-100266316D01*
X151048219Y-100273905D01*
X151057184Y-100277618D01*
X151067505Y-100284515D01*
X151079679Y-100286937D01*
X151079680Y-100286937D01*
X151141794Y-100299292D01*
X151147867Y-100300500D01*
X151249991Y-100300500D01*
X151352132Y-100300499D01*
X151358199Y-100299292D01*
X151358202Y-100299292D01*
X151397458Y-100291484D01*
X151432495Y-100284515D01*
X151442815Y-100277619D01*
X151451782Y-100273905D01*
X151522372Y-100266316D01*
X151548219Y-100273905D01*
X151557184Y-100277618D01*
X151567505Y-100284515D01*
X151579679Y-100286937D01*
X151579680Y-100286937D01*
X151605693Y-100292111D01*
X151668603Y-100325018D01*
X151681075Y-100338986D01*
X151754175Y-100434252D01*
X151765750Y-100445828D01*
X151874434Y-100529223D01*
X151888615Y-100537410D01*
X152015175Y-100589833D01*
X152030995Y-100594072D01*
X152082040Y-100600792D01*
X152096222Y-100598581D01*
X152100000Y-100585424D01*
X152100000Y-100585042D01*
X152400000Y-100585042D01*
X152404044Y-100598813D01*
X152417583Y-100600842D01*
X152469005Y-100594072D01*
X152484825Y-100589833D01*
X152611386Y-100537410D01*
X152625569Y-100529221D01*
X152734248Y-100445829D01*
X152745828Y-100434250D01*
X152829223Y-100325566D01*
X152837410Y-100311385D01*
X152889833Y-100184825D01*
X152894072Y-100169005D01*
X152907462Y-100067300D01*
X152908000Y-100059092D01*
X152908000Y-99493115D01*
X152903525Y-99477876D01*
X152902135Y-99476671D01*
X152894452Y-99475000D01*
X152418115Y-99475000D01*
X152402876Y-99479475D01*
X152401671Y-99480865D01*
X152400000Y-99488548D01*
X152400000Y-100585042D01*
X152100000Y-100585042D01*
X152100000Y-100057211D01*
X152100167Y-100053807D01*
X152100500Y-100052133D01*
X152100499Y-99300998D01*
X152120501Y-99232879D01*
X152174157Y-99186386D01*
X152226499Y-99175000D01*
X152889885Y-99175000D01*
X152905124Y-99170525D01*
X152906329Y-99169135D01*
X152908000Y-99161452D01*
X152908000Y-98590908D01*
X152907462Y-98582700D01*
X152894071Y-98480988D01*
X152891347Y-98470820D01*
X152893038Y-98399844D01*
X152932833Y-98341049D01*
X152998098Y-98313103D01*
X153061271Y-98321803D01*
X153093238Y-98335044D01*
X153250000Y-98355682D01*
X153258188Y-98354604D01*
X153296950Y-98349501D01*
X153406762Y-98335044D01*
X153463764Y-98311433D01*
X153534354Y-98303844D01*
X153601077Y-98338747D01*
X153687527Y-98425197D01*
X153699396Y-98434504D01*
X153823666Y-98509765D01*
X153837411Y-98515971D01*
X153894588Y-98533889D01*
X153953610Y-98573347D01*
X153981930Y-98638450D01*
X153973318Y-98702339D01*
X153914956Y-98843238D01*
X153894318Y-99000000D01*
X153914956Y-99156762D01*
X153918116Y-99164391D01*
X153938567Y-99213764D01*
X153946156Y-99284354D01*
X153911253Y-99351077D01*
X153824803Y-99437527D01*
X153815496Y-99449396D01*
X153740235Y-99573666D01*
X153734029Y-99587411D01*
X153690315Y-99726904D01*
X153687702Y-99739954D01*
X153682463Y-99796962D01*
X153686475Y-99810624D01*
X153687865Y-99811829D01*
X153695548Y-99813500D01*
X155299885Y-99813500D01*
X155315124Y-99809025D01*
X155316329Y-99807635D01*
X155317813Y-99800814D01*
X155317734Y-99799112D01*
X155312298Y-99739954D01*
X155309685Y-99726904D01*
X155265971Y-99587411D01*
X155259765Y-99573666D01*
X155184504Y-99449396D01*
X155175197Y-99437527D01*
X155088747Y-99351077D01*
X155054721Y-99288765D01*
X155061433Y-99213764D01*
X155081884Y-99164391D01*
X155085044Y-99156762D01*
X155105682Y-99000000D01*
X155085044Y-98843238D01*
X155073399Y-98815124D01*
X155027695Y-98704785D01*
X155027694Y-98704784D01*
X155024536Y-98697159D01*
X155020085Y-98691358D01*
X155004762Y-98647325D01*
X155001641Y-98626121D01*
X155000215Y-98616431D01*
X154959592Y-98533693D01*
X154947525Y-98463732D01*
X154975198Y-98398351D01*
X154983601Y-98389069D01*
X155050197Y-98322473D01*
X155059504Y-98310604D01*
X155134765Y-98186334D01*
X155140971Y-98172589D01*
X155184687Y-98033088D01*
X155187009Y-98021497D01*
X155184194Y-98007165D01*
X155172298Y-98004000D01*
X154189500Y-98004000D01*
X154121379Y-97983998D01*
X154074886Y-97930342D01*
X154063500Y-97878000D01*
X154063500Y-97811301D01*
X163614500Y-97811301D01*
X163614501Y-98188698D01*
X163624785Y-98258569D01*
X163636823Y-98283088D01*
X163670023Y-98350707D01*
X163676945Y-98364806D01*
X163688254Y-98376095D01*
X163748957Y-98436692D01*
X163760705Y-98448420D01*
X163867033Y-98500395D01*
X163876708Y-98501806D01*
X163876710Y-98501807D01*
X163897289Y-98504809D01*
X163941424Y-98520135D01*
X163947159Y-98524536D01*
X164093238Y-98585044D01*
X164101426Y-98586122D01*
X164171346Y-98595327D01*
X164250000Y-98605682D01*
X164258188Y-98604604D01*
X164309354Y-98597868D01*
X164328654Y-98595327D01*
X164398574Y-98586122D01*
X164406762Y-98585044D01*
X164463764Y-98561433D01*
X164534354Y-98553844D01*
X164601077Y-98588747D01*
X164687527Y-98675197D01*
X164699396Y-98684504D01*
X164823666Y-98759765D01*
X164837411Y-98765971D01*
X164976904Y-98809685D01*
X164989954Y-98812298D01*
X165046962Y-98817537D01*
X165060624Y-98813525D01*
X165061829Y-98812135D01*
X165063500Y-98804452D01*
X165063500Y-98799885D01*
X165571500Y-98799885D01*
X165575975Y-98815124D01*
X165577365Y-98816329D01*
X165584186Y-98817813D01*
X165585888Y-98817734D01*
X165645046Y-98812298D01*
X165658096Y-98809685D01*
X165797589Y-98765971D01*
X165811334Y-98759765D01*
X165935604Y-98684504D01*
X165947473Y-98675197D01*
X166050197Y-98572473D01*
X166059504Y-98560604D01*
X166134765Y-98436334D01*
X166140971Y-98422589D01*
X166184687Y-98283088D01*
X166187009Y-98271497D01*
X166184194Y-98257165D01*
X166172298Y-98254000D01*
X165589615Y-98254000D01*
X165574376Y-98258475D01*
X165573171Y-98259865D01*
X165571500Y-98267548D01*
X165571500Y-98799885D01*
X165063500Y-98799885D01*
X165063500Y-97516115D01*
X165061104Y-97507955D01*
X165056000Y-97472457D01*
X165056000Y-97123885D01*
X165564000Y-97123885D01*
X165566396Y-97132045D01*
X165571500Y-97167543D01*
X165571500Y-97727885D01*
X165575975Y-97743124D01*
X165577365Y-97744329D01*
X165585048Y-97746000D01*
X166170658Y-97746000D01*
X166185203Y-97741729D01*
X166187248Y-97729698D01*
X166184687Y-97716912D01*
X166140971Y-97577411D01*
X166134765Y-97563666D01*
X166059504Y-97439396D01*
X166050197Y-97427527D01*
X166004502Y-97381832D01*
X165970476Y-97319520D01*
X165975541Y-97248705D01*
X165994445Y-97214989D01*
X166007948Y-97197769D01*
X166084151Y-97071943D01*
X166090357Y-97058198D01*
X166134614Y-96916970D01*
X166137227Y-96903923D01*
X166142734Y-96843989D01*
X166143000Y-96838200D01*
X166143000Y-96047115D01*
X166138525Y-96031876D01*
X166137135Y-96030671D01*
X166129452Y-96029000D01*
X165582115Y-96029000D01*
X165566876Y-96033475D01*
X165565671Y-96034865D01*
X165564000Y-96042548D01*
X165564000Y-97123885D01*
X165056000Y-97123885D01*
X165056000Y-96047115D01*
X165051525Y-96031876D01*
X165050135Y-96030671D01*
X165042452Y-96029000D01*
X164495115Y-96029000D01*
X164479876Y-96033475D01*
X164478671Y-96034865D01*
X164477000Y-96042548D01*
X164477000Y-96838200D01*
X164477266Y-96843989D01*
X164482773Y-96903923D01*
X164485386Y-96916970D01*
X164529643Y-97058198D01*
X164535849Y-97071943D01*
X164612050Y-97197765D01*
X164621357Y-97209634D01*
X164622932Y-97211209D01*
X164623712Y-97212637D01*
X164626040Y-97215606D01*
X164625545Y-97215994D01*
X164656958Y-97273521D01*
X164651893Y-97344336D01*
X164622930Y-97389401D01*
X164601075Y-97411255D01*
X164538762Y-97445279D01*
X164463764Y-97438567D01*
X164414391Y-97418116D01*
X164406762Y-97414956D01*
X164250000Y-97394318D01*
X164093238Y-97414956D01*
X164085609Y-97418116D01*
X164034235Y-97439396D01*
X163947159Y-97475464D01*
X163941358Y-97479915D01*
X163897326Y-97495238D01*
X163866431Y-97499785D01*
X163849791Y-97507955D01*
X163769542Y-97547355D01*
X163769540Y-97547356D01*
X163760194Y-97551945D01*
X163676580Y-97635705D01*
X163624605Y-97742033D01*
X163614500Y-97811301D01*
X154063500Y-97811301D01*
X154063500Y-97477885D01*
X154571500Y-97477885D01*
X154575975Y-97493124D01*
X154577365Y-97494329D01*
X154585048Y-97496000D01*
X155170658Y-97496000D01*
X155185203Y-97491729D01*
X155187248Y-97479698D01*
X155184687Y-97466912D01*
X155140971Y-97327411D01*
X155134765Y-97313666D01*
X155059504Y-97189396D01*
X155050197Y-97177527D01*
X154947473Y-97074803D01*
X154935604Y-97065496D01*
X154811334Y-96990235D01*
X154797589Y-96984029D01*
X154658096Y-96940315D01*
X154645046Y-96937702D01*
X154588038Y-96932463D01*
X154574376Y-96936475D01*
X154573171Y-96937865D01*
X154571500Y-96945548D01*
X154571500Y-97477885D01*
X154063500Y-97477885D01*
X154063500Y-96950115D01*
X154059025Y-96934876D01*
X154057635Y-96933671D01*
X154050814Y-96932187D01*
X154049112Y-96932266D01*
X153989954Y-96937702D01*
X153976904Y-96940315D01*
X153837411Y-96984029D01*
X153823666Y-96990235D01*
X153699396Y-97065496D01*
X153687527Y-97074803D01*
X153601077Y-97161253D01*
X153538765Y-97195279D01*
X153463764Y-97188567D01*
X153414391Y-97168116D01*
X153406762Y-97164956D01*
X153250000Y-97144318D01*
X153118216Y-97161668D01*
X153048069Y-97150729D01*
X152994970Y-97103601D01*
X152975780Y-97035247D01*
X152996591Y-96967369D01*
X153012676Y-96947651D01*
X154210327Y-95750000D01*
X157144318Y-95750000D01*
X157145396Y-95758188D01*
X157163422Y-95895110D01*
X157164500Y-95911556D01*
X157164500Y-96821904D01*
X157165169Y-96826452D01*
X157165170Y-96826459D01*
X157167751Y-96843989D01*
X157175003Y-96893254D01*
X157179318Y-96902042D01*
X157179318Y-96902043D01*
X157211392Y-96967369D01*
X157228263Y-97001732D01*
X157270836Y-97044231D01*
X157301462Y-97074803D01*
X157313790Y-97087110D01*
X157347527Y-97103601D01*
X157405717Y-97132045D01*
X157422361Y-97140181D01*
X157432036Y-97141592D01*
X157432038Y-97141593D01*
X157488569Y-97149840D01*
X157488575Y-97149840D01*
X157493096Y-97150500D01*
X157886904Y-97150500D01*
X157891452Y-97149831D01*
X157891459Y-97149830D01*
X157948569Y-97141423D01*
X157948571Y-97141422D01*
X157958254Y-97139997D01*
X157967043Y-97135682D01*
X158057384Y-97091327D01*
X158057386Y-97091326D01*
X158066732Y-97086737D01*
X158152110Y-97001210D01*
X158185124Y-96933671D01*
X158200887Y-96901424D01*
X158200887Y-96901423D01*
X158205181Y-96892639D01*
X158206593Y-96882962D01*
X158214840Y-96826431D01*
X158214840Y-96826425D01*
X158215500Y-96821904D01*
X158215500Y-96172549D01*
X158235502Y-96104428D01*
X158241528Y-96095857D01*
X158274536Y-96052841D01*
X158335044Y-95906762D01*
X158352391Y-95775000D01*
X159624318Y-95775000D01*
X159644956Y-95931762D01*
X159685926Y-96030671D01*
X159694909Y-96052359D01*
X159704500Y-96100577D01*
X159704500Y-96821904D01*
X159705169Y-96826452D01*
X159705170Y-96826459D01*
X159707751Y-96843989D01*
X159715003Y-96893254D01*
X159719318Y-96902042D01*
X159719318Y-96902043D01*
X159751392Y-96967369D01*
X159768263Y-97001732D01*
X159810836Y-97044231D01*
X159841462Y-97074803D01*
X159853790Y-97087110D01*
X159887527Y-97103601D01*
X159945717Y-97132045D01*
X159962361Y-97140181D01*
X159972036Y-97141592D01*
X159972038Y-97141593D01*
X160028569Y-97149840D01*
X160028575Y-97149840D01*
X160033096Y-97150500D01*
X160426904Y-97150500D01*
X160431452Y-97149831D01*
X160431459Y-97149830D01*
X160488569Y-97141423D01*
X160488571Y-97141422D01*
X160498254Y-97139997D01*
X160507043Y-97135682D01*
X160597384Y-97091327D01*
X160597386Y-97091326D01*
X160606732Y-97086737D01*
X160692110Y-97001210D01*
X160725124Y-96933671D01*
X160740887Y-96901424D01*
X160740887Y-96901423D01*
X160745181Y-96892639D01*
X160746593Y-96882962D01*
X160754840Y-96826431D01*
X160754840Y-96826425D01*
X160755500Y-96821904D01*
X160755500Y-96100577D01*
X160765091Y-96052359D01*
X160774075Y-96030671D01*
X160815044Y-95931762D01*
X160835682Y-95775000D01*
X160815044Y-95618238D01*
X160765091Y-95497640D01*
X160755500Y-95449423D01*
X160755500Y-94728096D01*
X160754831Y-94723548D01*
X160754830Y-94723541D01*
X160746423Y-94666431D01*
X160746422Y-94666429D01*
X160744997Y-94656746D01*
X160691737Y-94548268D01*
X160640857Y-94497477D01*
X160613579Y-94470246D01*
X160613578Y-94470246D01*
X160606210Y-94462890D01*
X160497639Y-94409819D01*
X160487964Y-94408408D01*
X160487962Y-94408407D01*
X160431431Y-94400160D01*
X160431425Y-94400160D01*
X160426904Y-94399500D01*
X160033096Y-94399500D01*
X160028548Y-94400169D01*
X160028541Y-94400170D01*
X159971431Y-94408577D01*
X159971429Y-94408578D01*
X159961746Y-94410003D01*
X159952958Y-94414318D01*
X159952957Y-94414318D01*
X159862616Y-94458673D01*
X159862614Y-94458674D01*
X159853268Y-94463263D01*
X159767890Y-94548790D01*
X159714819Y-94657361D01*
X159713408Y-94667036D01*
X159713407Y-94667038D01*
X159707722Y-94706011D01*
X159704500Y-94728096D01*
X159704500Y-95449423D01*
X159694909Y-95497640D01*
X159644956Y-95618238D01*
X159624318Y-95775000D01*
X158352391Y-95775000D01*
X158355682Y-95750000D01*
X158335044Y-95593238D01*
X158274536Y-95447159D01*
X158241536Y-95404153D01*
X158215937Y-95337934D01*
X158215500Y-95327451D01*
X158215500Y-94728096D01*
X158214831Y-94723548D01*
X158214830Y-94723541D01*
X158206423Y-94666431D01*
X158206422Y-94666429D01*
X158204997Y-94656746D01*
X158151737Y-94548268D01*
X158100857Y-94497477D01*
X158073579Y-94470246D01*
X158073578Y-94470246D01*
X158066210Y-94462890D01*
X157957639Y-94409819D01*
X157947964Y-94408408D01*
X157947962Y-94408407D01*
X157891431Y-94400160D01*
X157891425Y-94400160D01*
X157886904Y-94399500D01*
X157493096Y-94399500D01*
X157488548Y-94400169D01*
X157488541Y-94400170D01*
X157431431Y-94408577D01*
X157431429Y-94408578D01*
X157421746Y-94410003D01*
X157412958Y-94414318D01*
X157412957Y-94414318D01*
X157322616Y-94458673D01*
X157322614Y-94458674D01*
X157313268Y-94463263D01*
X157227890Y-94548790D01*
X157174819Y-94657361D01*
X157173408Y-94667036D01*
X157173407Y-94667038D01*
X157167722Y-94706011D01*
X157164500Y-94728096D01*
X157164500Y-95588444D01*
X157163422Y-95604890D01*
X157144318Y-95750000D01*
X154210327Y-95750000D01*
X156097922Y-93862405D01*
X156160234Y-93828379D01*
X156187017Y-93825500D01*
X161812983Y-93825500D01*
X161881104Y-93845502D01*
X161902079Y-93862405D01*
X162359037Y-94319364D01*
X162393062Y-94381676D01*
X162387997Y-94452492D01*
X162359115Y-94497476D01*
X162307890Y-94548790D01*
X162254819Y-94657361D01*
X162253408Y-94667036D01*
X162253407Y-94667038D01*
X162247722Y-94706011D01*
X162244500Y-94728096D01*
X162244500Y-96821904D01*
X162245169Y-96826452D01*
X162245170Y-96826459D01*
X162247751Y-96843989D01*
X162255003Y-96893254D01*
X162259318Y-96902042D01*
X162259318Y-96902043D01*
X162291392Y-96967369D01*
X162308263Y-97001732D01*
X162350836Y-97044231D01*
X162381462Y-97074803D01*
X162393790Y-97087110D01*
X162427527Y-97103601D01*
X162485717Y-97132045D01*
X162502361Y-97140181D01*
X162512036Y-97141592D01*
X162512038Y-97141593D01*
X162568569Y-97149840D01*
X162568575Y-97149840D01*
X162573096Y-97150500D01*
X162966904Y-97150500D01*
X162971452Y-97149831D01*
X162971459Y-97149830D01*
X163028569Y-97141423D01*
X163028571Y-97141422D01*
X163038254Y-97139997D01*
X163047043Y-97135682D01*
X163137384Y-97091327D01*
X163137386Y-97091326D01*
X163146732Y-97086737D01*
X163232110Y-97001210D01*
X163265124Y-96933671D01*
X163280887Y-96901424D01*
X163280887Y-96901423D01*
X163285181Y-96892639D01*
X163286593Y-96882962D01*
X163294840Y-96826431D01*
X163294840Y-96826425D01*
X163295500Y-96821904D01*
X163295500Y-95502885D01*
X164477000Y-95502885D01*
X164481475Y-95518124D01*
X164482865Y-95519329D01*
X164490548Y-95521000D01*
X165037885Y-95521000D01*
X165053124Y-95516525D01*
X165054329Y-95515135D01*
X165056000Y-95507452D01*
X165056000Y-95502885D01*
X165564000Y-95502885D01*
X165568475Y-95518124D01*
X165569865Y-95519329D01*
X165577548Y-95521000D01*
X166124885Y-95521000D01*
X166140124Y-95516525D01*
X166141329Y-95515135D01*
X166143000Y-95507452D01*
X166143000Y-94711800D01*
X166142734Y-94706011D01*
X166137227Y-94646077D01*
X166134614Y-94633030D01*
X166090357Y-94491802D01*
X166084151Y-94478057D01*
X166007950Y-94352235D01*
X165998643Y-94340366D01*
X165894634Y-94236357D01*
X165882765Y-94227050D01*
X165756943Y-94150849D01*
X165743198Y-94144643D01*
X165601967Y-94100385D01*
X165588931Y-94097774D01*
X165582040Y-94097140D01*
X165567164Y-94100063D01*
X165564000Y-94111957D01*
X165564000Y-95502885D01*
X165056000Y-95502885D01*
X165056000Y-94113598D01*
X165051729Y-94099053D01*
X165039597Y-94096990D01*
X165031069Y-94097774D01*
X165018033Y-94100385D01*
X164876802Y-94144643D01*
X164863057Y-94150849D01*
X164737235Y-94227050D01*
X164725366Y-94236357D01*
X164621357Y-94340366D01*
X164612050Y-94352235D01*
X164535849Y-94478057D01*
X164529643Y-94491802D01*
X164485386Y-94633030D01*
X164482773Y-94646077D01*
X164477266Y-94706011D01*
X164477000Y-94711800D01*
X164477000Y-95502885D01*
X163295500Y-95502885D01*
X163295500Y-94728096D01*
X163294831Y-94723548D01*
X163294830Y-94723541D01*
X163286423Y-94666431D01*
X163286422Y-94666429D01*
X163284997Y-94656746D01*
X163231737Y-94548268D01*
X163180857Y-94497477D01*
X163153581Y-94470248D01*
X163153580Y-94470248D01*
X163146210Y-94462890D01*
X163145049Y-94462322D01*
X163104489Y-94410662D01*
X163095500Y-94363925D01*
X163095500Y-94289698D01*
X163095980Y-94278716D01*
X163098302Y-94252180D01*
X163098302Y-94252178D01*
X163099263Y-94241193D01*
X163089512Y-94204803D01*
X163087132Y-94194069D01*
X163082502Y-94167812D01*
X163080588Y-94156955D01*
X163075076Y-94147407D01*
X163073883Y-94144130D01*
X163072406Y-94140962D01*
X163069553Y-94130316D01*
X163047942Y-94099452D01*
X163042038Y-94090184D01*
X163028704Y-94067089D01*
X163023194Y-94057545D01*
X162994330Y-94033325D01*
X162986227Y-94025900D01*
X162244104Y-93283778D01*
X162236677Y-93275673D01*
X162219541Y-93255251D01*
X162212455Y-93246806D01*
X162202906Y-93241293D01*
X162179815Y-93227961D01*
X162170544Y-93222055D01*
X162148715Y-93206770D01*
X162139684Y-93200446D01*
X162129034Y-93197592D01*
X162125866Y-93196115D01*
X162122590Y-93194923D01*
X162113045Y-93189412D01*
X162079301Y-93183462D01*
X162075942Y-93182870D01*
X162065215Y-93180492D01*
X162028807Y-93170736D01*
X162017822Y-93171697D01*
X162017820Y-93171697D01*
X161991272Y-93174020D01*
X161980290Y-93174500D01*
X160923278Y-93174500D01*
X160855157Y-93154498D01*
X160808664Y-93100842D01*
X160798560Y-93030568D01*
X160806869Y-93000282D01*
X160831884Y-92939891D01*
X160835044Y-92932262D01*
X160855682Y-92775500D01*
X160835044Y-92618738D01*
X160774536Y-92472659D01*
X160678282Y-92347218D01*
X160552841Y-92250964D01*
X160406762Y-92190456D01*
X160250000Y-92169818D01*
X160093238Y-92190456D01*
X159947159Y-92250964D01*
X159821718Y-92347218D01*
X159725464Y-92472659D01*
X159664956Y-92618738D01*
X159663879Y-92626921D01*
X159662627Y-92631592D01*
X159625676Y-92692214D01*
X159561815Y-92723236D01*
X159540921Y-92724980D01*
X155833513Y-92724980D01*
X155822531Y-92724500D01*
X155795983Y-92722177D01*
X155795981Y-92722177D01*
X155784996Y-92721216D01*
X155748588Y-92730972D01*
X155737861Y-92733350D01*
X155734502Y-92733942D01*
X155700758Y-92739892D01*
X155691213Y-92745403D01*
X155687937Y-92746595D01*
X155684769Y-92748072D01*
X155674119Y-92750926D01*
X155665088Y-92757250D01*
X155643259Y-92772535D01*
X155633988Y-92778441D01*
X155610897Y-92791773D01*
X155601348Y-92797286D01*
X155594262Y-92805731D01*
X155577118Y-92826162D01*
X155569692Y-92834265D01*
X151472122Y-96931834D01*
X151472112Y-96931843D01*
X151032187Y-97371769D01*
X150790596Y-97613360D01*
X150728283Y-97647385D01*
X150657468Y-97642321D01*
X150600632Y-97599774D01*
X150575821Y-97533254D01*
X150575500Y-97524265D01*
X150575500Y-97438661D01*
X150595502Y-97370540D01*
X150622235Y-97342432D01*
X150622757Y-97342176D01*
X150707547Y-97257238D01*
X150751392Y-97167543D01*
X150755960Y-97158198D01*
X150755961Y-97158196D01*
X150760253Y-97149415D01*
X150762227Y-97135887D01*
X150769396Y-97086737D01*
X150770500Y-97079172D01*
X150770500Y-96615828D01*
X150769831Y-96611280D01*
X150769830Y-96611273D01*
X150761496Y-96554659D01*
X150761495Y-96554657D01*
X150760070Y-96544974D01*
X150755755Y-96536186D01*
X150755032Y-96533859D01*
X150753918Y-96462871D01*
X150791360Y-96402550D01*
X150810084Y-96388693D01*
X150818705Y-96383472D01*
X150830580Y-96374160D01*
X150934160Y-96270580D01*
X150943467Y-96258711D01*
X151019355Y-96133406D01*
X151025561Y-96119661D01*
X151069637Y-95979011D01*
X151072250Y-95965964D01*
X151076056Y-95924541D01*
X151073134Y-95909664D01*
X151061240Y-95906500D01*
X149440402Y-95906500D01*
X149425857Y-95910771D01*
X149423794Y-95922904D01*
X149427751Y-95965973D01*
X149430361Y-95979006D01*
X149474439Y-96119661D01*
X149480645Y-96133406D01*
X149556533Y-96258711D01*
X149565840Y-96270580D01*
X149669420Y-96374160D01*
X149681292Y-96383469D01*
X149689902Y-96388684D01*
X149737808Y-96441082D01*
X149749780Y-96511062D01*
X149745010Y-96533665D01*
X149744041Y-96536801D01*
X149739747Y-96545585D01*
X149729500Y-96615828D01*
X149729500Y-97079172D01*
X149730169Y-97083720D01*
X149730170Y-97083727D01*
X149738504Y-97140341D01*
X149739930Y-97150026D01*
X149744245Y-97158814D01*
X149744245Y-97158815D01*
X149758853Y-97188567D01*
X149792824Y-97257757D01*
X149800194Y-97265114D01*
X149862600Y-97327411D01*
X149872987Y-97337780D01*
X149872989Y-97337783D01*
X149877762Y-97342547D01*
X149877184Y-97343126D01*
X149915512Y-97391943D01*
X149924500Y-97438679D01*
X149924500Y-98223500D01*
X149904498Y-98291621D01*
X149850842Y-98338114D01*
X149798501Y-98349500D01*
X149668998Y-98349501D01*
X149647868Y-98349501D01*
X149641801Y-98350708D01*
X149641798Y-98350708D01*
X149602542Y-98358516D01*
X149567505Y-98365485D01*
X149557185Y-98372381D01*
X149548218Y-98376095D01*
X149477628Y-98383684D01*
X149451781Y-98376095D01*
X149442816Y-98372382D01*
X149432495Y-98365485D01*
X149420321Y-98363063D01*
X149420320Y-98363063D01*
X149358201Y-98350707D01*
X149352133Y-98349500D01*
X149250009Y-98349500D01*
X149147868Y-98349501D01*
X149141801Y-98350708D01*
X149141798Y-98350708D01*
X149102542Y-98358516D01*
X149067505Y-98365485D01*
X149057185Y-98372381D01*
X149048218Y-98376095D01*
X148977628Y-98383684D01*
X148951781Y-98376095D01*
X148942816Y-98372382D01*
X148932495Y-98365485D01*
X148920321Y-98363063D01*
X148920320Y-98363063D01*
X148858201Y-98350707D01*
X148852133Y-98349500D01*
X148750009Y-98349500D01*
X148647868Y-98349501D01*
X148641801Y-98350708D01*
X148641798Y-98350708D01*
X148602542Y-98358516D01*
X148567505Y-98365485D01*
X148557185Y-98372381D01*
X148548218Y-98376095D01*
X148477628Y-98383684D01*
X148451781Y-98376095D01*
X148442816Y-98372382D01*
X148432495Y-98365485D01*
X148420321Y-98363063D01*
X148420320Y-98363063D01*
X148358201Y-98350707D01*
X148352133Y-98349500D01*
X148250009Y-98349500D01*
X148147868Y-98349501D01*
X148141801Y-98350708D01*
X148141798Y-98350708D01*
X148102542Y-98358516D01*
X148067505Y-98365485D01*
X148057185Y-98372381D01*
X148048218Y-98376095D01*
X147977628Y-98383684D01*
X147951781Y-98376095D01*
X147942816Y-98372382D01*
X147932495Y-98365485D01*
X147920321Y-98363063D01*
X147920320Y-98363063D01*
X147858201Y-98350707D01*
X147852133Y-98349500D01*
X147750009Y-98349500D01*
X147647868Y-98349501D01*
X147641801Y-98350708D01*
X147641798Y-98350708D01*
X147602542Y-98358516D01*
X147567505Y-98365485D01*
X147557185Y-98372381D01*
X147548218Y-98376095D01*
X147477628Y-98383684D01*
X147451781Y-98376095D01*
X147442816Y-98372382D01*
X147432495Y-98365485D01*
X147420321Y-98363063D01*
X147420320Y-98363063D01*
X147358201Y-98350707D01*
X147352133Y-98349500D01*
X147250009Y-98349500D01*
X147147868Y-98349501D01*
X147141801Y-98350708D01*
X147141798Y-98350708D01*
X147102542Y-98358516D01*
X147067505Y-98365485D01*
X147057185Y-98372381D01*
X147048218Y-98376095D01*
X146977628Y-98383684D01*
X146951781Y-98376095D01*
X146942816Y-98372382D01*
X146932495Y-98365485D01*
X146920321Y-98363063D01*
X146920320Y-98363063D01*
X146858201Y-98350707D01*
X146852133Y-98349500D01*
X146750009Y-98349500D01*
X146647868Y-98349501D01*
X146641801Y-98350708D01*
X146641798Y-98350708D01*
X146602542Y-98358516D01*
X146567505Y-98365485D01*
X146557185Y-98372381D01*
X146548218Y-98376095D01*
X146477628Y-98383684D01*
X146451781Y-98376095D01*
X146442816Y-98372382D01*
X146432495Y-98365485D01*
X146420321Y-98363063D01*
X146420320Y-98363063D01*
X146358201Y-98350707D01*
X146352133Y-98349500D01*
X146250009Y-98349500D01*
X146147868Y-98349501D01*
X146141801Y-98350708D01*
X146141798Y-98350708D01*
X146102542Y-98358516D01*
X146067505Y-98365485D01*
X146057185Y-98372381D01*
X146048218Y-98376095D01*
X145977628Y-98383684D01*
X145951781Y-98376095D01*
X145942816Y-98372382D01*
X145932495Y-98365485D01*
X145920321Y-98363063D01*
X145920320Y-98363063D01*
X145858201Y-98350707D01*
X145852133Y-98349500D01*
X145750009Y-98349500D01*
X145647868Y-98349501D01*
X145641801Y-98350708D01*
X145641798Y-98350708D01*
X145602542Y-98358516D01*
X145567505Y-98365485D01*
X145557185Y-98372381D01*
X145548218Y-98376095D01*
X145477628Y-98383684D01*
X145451781Y-98376095D01*
X145442816Y-98372382D01*
X145432495Y-98365485D01*
X145420321Y-98363063D01*
X145420320Y-98363063D01*
X145358201Y-98350707D01*
X145352133Y-98349500D01*
X145250009Y-98349500D01*
X145147868Y-98349501D01*
X145141801Y-98350708D01*
X145141798Y-98350708D01*
X145102542Y-98358516D01*
X145067505Y-98365485D01*
X145057185Y-98372381D01*
X145048218Y-98376095D01*
X144977628Y-98383684D01*
X144951781Y-98376095D01*
X144942816Y-98372382D01*
X144932495Y-98365485D01*
X144920321Y-98363063D01*
X144920320Y-98363063D01*
X144858201Y-98350707D01*
X144852133Y-98349500D01*
X144750009Y-98349500D01*
X144647868Y-98349501D01*
X144641801Y-98350708D01*
X144641798Y-98350708D01*
X144579676Y-98363064D01*
X144579675Y-98363064D01*
X144567505Y-98365485D01*
X144557188Y-98372378D01*
X144557187Y-98372379D01*
X144500000Y-98410591D01*
X144476376Y-98426376D01*
X144415485Y-98517505D01*
X144399500Y-98597867D01*
X131240500Y-98597867D01*
X131240500Y-97430252D01*
X131228867Y-97371769D01*
X131184552Y-97305448D01*
X131118231Y-97261133D01*
X131106062Y-97258712D01*
X131106061Y-97258712D01*
X131065816Y-97250707D01*
X131059748Y-97249500D01*
X130020252Y-97249500D01*
X130014184Y-97250707D01*
X129973939Y-97258712D01*
X129973938Y-97258712D01*
X129961769Y-97261133D01*
X129895448Y-97305448D01*
X129851133Y-97371769D01*
X129839500Y-97430252D01*
X129839500Y-100619748D01*
X128700500Y-100619748D01*
X128700500Y-97430252D01*
X128688867Y-97371769D01*
X128644552Y-97305448D01*
X128578231Y-97261133D01*
X128566062Y-97258712D01*
X128566061Y-97258712D01*
X128525816Y-97250707D01*
X128519748Y-97249500D01*
X127480252Y-97249500D01*
X127474184Y-97250707D01*
X127433939Y-97258712D01*
X127433938Y-97258712D01*
X127421769Y-97261133D01*
X127355448Y-97305448D01*
X127311133Y-97371769D01*
X127299500Y-97430252D01*
X127299500Y-100619748D01*
X126160500Y-100619748D01*
X126160500Y-97430252D01*
X126148867Y-97371769D01*
X126104552Y-97305448D01*
X126038231Y-97261133D01*
X126026062Y-97258712D01*
X126026061Y-97258712D01*
X125985816Y-97250707D01*
X125979748Y-97249500D01*
X124940252Y-97249500D01*
X124934184Y-97250707D01*
X124893939Y-97258712D01*
X124893938Y-97258712D01*
X124881769Y-97261133D01*
X124815448Y-97305448D01*
X124771133Y-97371769D01*
X124759500Y-97430252D01*
X124759500Y-100619748D01*
X123575000Y-100619748D01*
X123575000Y-95569748D01*
X124759500Y-95569748D01*
X124771133Y-95628231D01*
X124815448Y-95694552D01*
X124881769Y-95738867D01*
X124893938Y-95741288D01*
X124893939Y-95741288D01*
X124934184Y-95749293D01*
X124940252Y-95750500D01*
X125979748Y-95750500D01*
X125985816Y-95749293D01*
X126026061Y-95741288D01*
X126026062Y-95741288D01*
X126038231Y-95738867D01*
X126104552Y-95694552D01*
X126148867Y-95628231D01*
X126160500Y-95569748D01*
X127299500Y-95569748D01*
X127311133Y-95628231D01*
X127355448Y-95694552D01*
X127421769Y-95738867D01*
X127433938Y-95741288D01*
X127433939Y-95741288D01*
X127474184Y-95749293D01*
X127480252Y-95750500D01*
X128519748Y-95750500D01*
X128525816Y-95749293D01*
X128566061Y-95741288D01*
X128566062Y-95741288D01*
X128578231Y-95738867D01*
X128644552Y-95694552D01*
X128688867Y-95628231D01*
X128700500Y-95569748D01*
X129839500Y-95569748D01*
X129851133Y-95628231D01*
X129895448Y-95694552D01*
X129961769Y-95738867D01*
X129973938Y-95741288D01*
X129973939Y-95741288D01*
X130014184Y-95749293D01*
X130020252Y-95750500D01*
X131059748Y-95750500D01*
X131065816Y-95749293D01*
X131106061Y-95741288D01*
X131106062Y-95741288D01*
X131118231Y-95738867D01*
X131184552Y-95694552D01*
X131228867Y-95628231D01*
X131240500Y-95569748D01*
X131240500Y-95380459D01*
X149423944Y-95380459D01*
X149426866Y-95395336D01*
X149438760Y-95398500D01*
X149977885Y-95398500D01*
X149993124Y-95394025D01*
X149994329Y-95392635D01*
X149996000Y-95384952D01*
X149996000Y-95380385D01*
X150504000Y-95380385D01*
X150508475Y-95395624D01*
X150509865Y-95396829D01*
X150517548Y-95398500D01*
X151059598Y-95398500D01*
X151074143Y-95394229D01*
X151076206Y-95382096D01*
X151072249Y-95339027D01*
X151069639Y-95325994D01*
X151025561Y-95185339D01*
X151019355Y-95171594D01*
X150943467Y-95046289D01*
X150934160Y-95034420D01*
X150830580Y-94930840D01*
X150818711Y-94921533D01*
X150693406Y-94845645D01*
X150679661Y-94839439D01*
X150539006Y-94795361D01*
X150525973Y-94792751D01*
X150522039Y-94792389D01*
X150507165Y-94795312D01*
X150504000Y-94807207D01*
X150504000Y-95380385D01*
X149996000Y-95380385D01*
X149996000Y-94808847D01*
X149991729Y-94794302D01*
X149979596Y-94792239D01*
X149974027Y-94792751D01*
X149960994Y-94795361D01*
X149820339Y-94839439D01*
X149806594Y-94845645D01*
X149681289Y-94921533D01*
X149669420Y-94930840D01*
X149565840Y-95034420D01*
X149556533Y-95046289D01*
X149480645Y-95171594D01*
X149474439Y-95185339D01*
X149430363Y-95325989D01*
X149427750Y-95339036D01*
X149423944Y-95380459D01*
X131240500Y-95380459D01*
X131240500Y-92380252D01*
X131228867Y-92321769D01*
X131184552Y-92255448D01*
X131118231Y-92211133D01*
X131106062Y-92208712D01*
X131106061Y-92208712D01*
X131065816Y-92200707D01*
X131059748Y-92199500D01*
X130020252Y-92199500D01*
X130014184Y-92200707D01*
X129973939Y-92208712D01*
X129973938Y-92208712D01*
X129961769Y-92211133D01*
X129895448Y-92255448D01*
X129851133Y-92321769D01*
X129839500Y-92380252D01*
X129839500Y-95569748D01*
X128700500Y-95569748D01*
X128700500Y-92380252D01*
X128688867Y-92321769D01*
X128644552Y-92255448D01*
X128578231Y-92211133D01*
X128566062Y-92208712D01*
X128566061Y-92208712D01*
X128525816Y-92200707D01*
X128519748Y-92199500D01*
X127480252Y-92199500D01*
X127474184Y-92200707D01*
X127433939Y-92208712D01*
X127433938Y-92208712D01*
X127421769Y-92211133D01*
X127355448Y-92255448D01*
X127311133Y-92321769D01*
X127299500Y-92380252D01*
X127299500Y-95569748D01*
X126160500Y-95569748D01*
X126160500Y-92380252D01*
X126148867Y-92321769D01*
X126104552Y-92255448D01*
X126038231Y-92211133D01*
X126026062Y-92208712D01*
X126026061Y-92208712D01*
X125985816Y-92200707D01*
X125979748Y-92199500D01*
X124940252Y-92199500D01*
X124934184Y-92200707D01*
X124893939Y-92208712D01*
X124893938Y-92208712D01*
X124881769Y-92211133D01*
X124815448Y-92255448D01*
X124771133Y-92321769D01*
X124759500Y-92380252D01*
X124759500Y-95569748D01*
X123575000Y-95569748D01*
X123575000Y-87497363D01*
X143454500Y-87497363D01*
X143469152Y-87623037D01*
X143526875Y-87782061D01*
X143619633Y-87923540D01*
X143742450Y-88039885D01*
X143888738Y-88124856D01*
X143895740Y-88126977D01*
X143895743Y-88126978D01*
X143954879Y-88144888D01*
X144050650Y-88173895D01*
X144057959Y-88174348D01*
X144057962Y-88174349D01*
X144129338Y-88178777D01*
X144219501Y-88184370D01*
X144226717Y-88183130D01*
X144226719Y-88183130D01*
X144379017Y-88156960D01*
X144386233Y-88155720D01*
X144541902Y-88089482D01*
X144588277Y-88055354D01*
X144672264Y-87993547D01*
X144672267Y-87993545D01*
X144678158Y-87989209D01*
X144787692Y-87860280D01*
X144864627Y-87709611D01*
X144904838Y-87545283D01*
X144905500Y-87534612D01*
X144905500Y-86828423D01*
X144925502Y-86760302D01*
X144979158Y-86713809D01*
X145049432Y-86703705D01*
X145114012Y-86733199D01*
X145131462Y-86751719D01*
X145199549Y-86840451D01*
X145319767Y-86932698D01*
X145459764Y-86990687D01*
X145572280Y-87005500D01*
X145647720Y-87005500D01*
X145760236Y-86990687D01*
X145900233Y-86932698D01*
X146020451Y-86840451D01*
X146112698Y-86720233D01*
X146170687Y-86580236D01*
X146190466Y-86430000D01*
X150809534Y-86430000D01*
X150829313Y-86580236D01*
X150887302Y-86720233D01*
X150979549Y-86840451D01*
X151099767Y-86932698D01*
X151239764Y-86990687D01*
X151352280Y-87005500D01*
X151427720Y-87005500D01*
X151540236Y-86990687D01*
X151680233Y-86932698D01*
X151800451Y-86840451D01*
X151868538Y-86751719D01*
X151925876Y-86709852D01*
X151996747Y-86705630D01*
X152058650Y-86740394D01*
X152091931Y-86803107D01*
X152094500Y-86828423D01*
X152094500Y-87497363D01*
X152109152Y-87623037D01*
X152166875Y-87782061D01*
X152259633Y-87923540D01*
X152382450Y-88039885D01*
X152528738Y-88124856D01*
X152535740Y-88126977D01*
X152535743Y-88126978D01*
X152594879Y-88144888D01*
X152690650Y-88173895D01*
X152697959Y-88174348D01*
X152697962Y-88174349D01*
X152769338Y-88178777D01*
X152859501Y-88184370D01*
X152866717Y-88183130D01*
X152866719Y-88183130D01*
X153019017Y-88156960D01*
X153026233Y-88155720D01*
X153181902Y-88089482D01*
X153228277Y-88055354D01*
X153312264Y-87993547D01*
X153312267Y-87993545D01*
X153318158Y-87989209D01*
X153427692Y-87860280D01*
X153472819Y-87771904D01*
X157164500Y-87771904D01*
X157165169Y-87776452D01*
X157165170Y-87776459D01*
X157165995Y-87782061D01*
X157175003Y-87843254D01*
X157179318Y-87852042D01*
X157179318Y-87852043D01*
X157211417Y-87917420D01*
X157228263Y-87951732D01*
X157313790Y-88037110D01*
X157314951Y-88037678D01*
X157355511Y-88089338D01*
X157364500Y-88136075D01*
X157364500Y-88420290D01*
X157364020Y-88431272D01*
X157360736Y-88468807D01*
X157363590Y-88479456D01*
X157370491Y-88505210D01*
X157372870Y-88515942D01*
X157379412Y-88553045D01*
X157384923Y-88562590D01*
X157386115Y-88565866D01*
X157387592Y-88569034D01*
X157390446Y-88579684D01*
X157396770Y-88588715D01*
X157412055Y-88610544D01*
X157417961Y-88619815D01*
X157431293Y-88642906D01*
X157436806Y-88652455D01*
X157445251Y-88659541D01*
X157465682Y-88676685D01*
X157473785Y-88684111D01*
X158255889Y-89466215D01*
X158263315Y-89474318D01*
X158287545Y-89503194D01*
X158297094Y-89508707D01*
X158320185Y-89522039D01*
X158329456Y-89527945D01*
X158360316Y-89549554D01*
X158370966Y-89552408D01*
X158374134Y-89553885D01*
X158377410Y-89555077D01*
X158386955Y-89560588D01*
X158420699Y-89566538D01*
X158424058Y-89567130D01*
X158434785Y-89569508D01*
X158471193Y-89579264D01*
X158482178Y-89578303D01*
X158482180Y-89578303D01*
X158508728Y-89575980D01*
X158519710Y-89575500D01*
X160980290Y-89575500D01*
X160991272Y-89575980D01*
X161017820Y-89578303D01*
X161017822Y-89578303D01*
X161028807Y-89579264D01*
X161065215Y-89569508D01*
X161075942Y-89567130D01*
X161079301Y-89566538D01*
X161113045Y-89560588D01*
X161122590Y-89555077D01*
X161125866Y-89553885D01*
X161129034Y-89552408D01*
X161139684Y-89549554D01*
X161170544Y-89527945D01*
X161179815Y-89522039D01*
X161202906Y-89508707D01*
X161212455Y-89503194D01*
X161236685Y-89474317D01*
X161244111Y-89466215D01*
X161716215Y-88994111D01*
X161724319Y-88986684D01*
X161744749Y-88969541D01*
X161753194Y-88962455D01*
X161758707Y-88952906D01*
X161772039Y-88929815D01*
X161777945Y-88920544D01*
X161793230Y-88898715D01*
X161799554Y-88889684D01*
X161802408Y-88879034D01*
X161803885Y-88875866D01*
X161805077Y-88872590D01*
X161810588Y-88863045D01*
X161817130Y-88825942D01*
X161819509Y-88815210D01*
X161829264Y-88778807D01*
X161825979Y-88741257D01*
X161825500Y-88730276D01*
X161825500Y-85163848D01*
X161845502Y-85095727D01*
X161865964Y-85074211D01*
X161864806Y-85073055D01*
X161941064Y-84996664D01*
X161941064Y-84996663D01*
X161948420Y-84989295D01*
X162000395Y-84882967D01*
X162000654Y-84883094D01*
X162036361Y-84829222D01*
X162101352Y-84800645D01*
X162171477Y-84811742D01*
X162224469Y-84858989D01*
X162237843Y-84888213D01*
X162238504Y-84890341D01*
X162239930Y-84900026D01*
X162292824Y-85007757D01*
X162335683Y-85050541D01*
X162367787Y-85082589D01*
X162377762Y-85092547D01*
X162387123Y-85097123D01*
X162391667Y-85100364D01*
X162435511Y-85156205D01*
X162444500Y-85202944D01*
X162444500Y-85313932D01*
X162424498Y-85382053D01*
X162396171Y-85411838D01*
X162393268Y-85413263D01*
X162307890Y-85498790D01*
X162254819Y-85607361D01*
X162244500Y-85678096D01*
X162244500Y-87771904D01*
X162245169Y-87776452D01*
X162245170Y-87776459D01*
X162245995Y-87782061D01*
X162255003Y-87843254D01*
X162259318Y-87852042D01*
X162259318Y-87852043D01*
X162291417Y-87917420D01*
X162308263Y-87951732D01*
X162393790Y-88037110D01*
X162444486Y-88061891D01*
X162492059Y-88085145D01*
X162502361Y-88090181D01*
X162512036Y-88091592D01*
X162512038Y-88091593D01*
X162568569Y-88099840D01*
X162568575Y-88099840D01*
X162573096Y-88100500D01*
X162966904Y-88100500D01*
X162971452Y-88099831D01*
X162971459Y-88099830D01*
X163028569Y-88091423D01*
X163028571Y-88091422D01*
X163038254Y-88089997D01*
X163047043Y-88085682D01*
X163137384Y-88041327D01*
X163137386Y-88041326D01*
X163146732Y-88036737D01*
X163194177Y-87989209D01*
X163224754Y-87958579D01*
X163224754Y-87958578D01*
X163232110Y-87951210D01*
X163285181Y-87842639D01*
X163286593Y-87832962D01*
X163294840Y-87776431D01*
X163294840Y-87776425D01*
X163295500Y-87771904D01*
X164784500Y-87771904D01*
X164785169Y-87776452D01*
X164785170Y-87776459D01*
X164785995Y-87782061D01*
X164795003Y-87843254D01*
X164799318Y-87852042D01*
X164799318Y-87852043D01*
X164831417Y-87917420D01*
X164848263Y-87951732D01*
X164933790Y-88037110D01*
X164984486Y-88061891D01*
X165032059Y-88085145D01*
X165042361Y-88090181D01*
X165052036Y-88091592D01*
X165052038Y-88091593D01*
X165108569Y-88099840D01*
X165108575Y-88099840D01*
X165113096Y-88100500D01*
X165506904Y-88100500D01*
X165511452Y-88099831D01*
X165511459Y-88099830D01*
X165568569Y-88091423D01*
X165568571Y-88091422D01*
X165578254Y-88089997D01*
X165587043Y-88085682D01*
X165677384Y-88041327D01*
X165677386Y-88041326D01*
X165686732Y-88036737D01*
X165734177Y-87989209D01*
X165764754Y-87958579D01*
X165764754Y-87958578D01*
X165772110Y-87951210D01*
X165825181Y-87842639D01*
X165826593Y-87832962D01*
X165834840Y-87776431D01*
X165834840Y-87776425D01*
X165835500Y-87771904D01*
X165835500Y-85678096D01*
X165834831Y-85673548D01*
X165834830Y-85673541D01*
X165826423Y-85616431D01*
X165826422Y-85616429D01*
X165824997Y-85606746D01*
X165771737Y-85498268D01*
X165686210Y-85412890D01*
X165577639Y-85359819D01*
X165567964Y-85358408D01*
X165567962Y-85358407D01*
X165511431Y-85350160D01*
X165511425Y-85350160D01*
X165506904Y-85349500D01*
X165113096Y-85349500D01*
X165108548Y-85350169D01*
X165108541Y-85350170D01*
X165051431Y-85358577D01*
X165051429Y-85358578D01*
X165041746Y-85360003D01*
X165032958Y-85364318D01*
X165032957Y-85364318D01*
X164942616Y-85408673D01*
X164942614Y-85408674D01*
X164933268Y-85413263D01*
X164847890Y-85498790D01*
X164794819Y-85607361D01*
X164784500Y-85678096D01*
X164784500Y-87771904D01*
X163295500Y-87771904D01*
X163295500Y-85678096D01*
X163294831Y-85673548D01*
X163294830Y-85673541D01*
X163286423Y-85616431D01*
X163286422Y-85616429D01*
X163284997Y-85606746D01*
X163231737Y-85498268D01*
X163146210Y-85412890D01*
X163145049Y-85412322D01*
X163104489Y-85360662D01*
X163095500Y-85313925D01*
X163095500Y-85171607D01*
X163115502Y-85103486D01*
X163132327Y-85082589D01*
X163138946Y-85075959D01*
X163207547Y-85007238D01*
X163212118Y-84997886D01*
X163212122Y-84997881D01*
X163214181Y-84993668D01*
X163262066Y-84941251D01*
X163327381Y-84923000D01*
X163422706Y-84923000D01*
X163490827Y-84943002D01*
X163535809Y-84993469D01*
X163537977Y-84997884D01*
X163542824Y-85007757D01*
X163585101Y-85049961D01*
X163617787Y-85082589D01*
X163627762Y-85092547D01*
X163654500Y-85105617D01*
X163726802Y-85140960D01*
X163726804Y-85140961D01*
X163735585Y-85145253D01*
X163745258Y-85146664D01*
X163745261Y-85146665D01*
X163777250Y-85151331D01*
X163805828Y-85155500D01*
X164194172Y-85155500D01*
X164198720Y-85154831D01*
X164198727Y-85154830D01*
X164255341Y-85146496D01*
X164255343Y-85146495D01*
X164265026Y-85145070D01*
X164285826Y-85134858D01*
X164345499Y-85105559D01*
X164372757Y-85092176D01*
X164457547Y-85007238D01*
X164510253Y-84899415D01*
X164511867Y-84888356D01*
X164516331Y-84857750D01*
X164520500Y-84829172D01*
X164520500Y-84365828D01*
X164519831Y-84361280D01*
X164519830Y-84361273D01*
X164511496Y-84304659D01*
X164511495Y-84304657D01*
X164510070Y-84294974D01*
X164457176Y-84187243D01*
X164372238Y-84102453D01*
X164367588Y-84100180D01*
X164325631Y-84046741D01*
X164318938Y-83976060D01*
X164351520Y-83912981D01*
X164365784Y-83900599D01*
X164372757Y-83897176D01*
X164380110Y-83889810D01*
X164380113Y-83889808D01*
X164450191Y-83819607D01*
X164450191Y-83819606D01*
X164457547Y-83812238D01*
X164498724Y-83728000D01*
X164505960Y-83713198D01*
X164505961Y-83713196D01*
X164510253Y-83704415D01*
X164520500Y-83634172D01*
X164520500Y-83170828D01*
X164519831Y-83166280D01*
X164519830Y-83166273D01*
X164511496Y-83109659D01*
X164511495Y-83109657D01*
X164510070Y-83099974D01*
X164457176Y-82992243D01*
X164387166Y-82922355D01*
X164379607Y-82914809D01*
X164379606Y-82914809D01*
X164372238Y-82907453D01*
X164305039Y-82874605D01*
X164273198Y-82859040D01*
X164273196Y-82859039D01*
X164264415Y-82854747D01*
X164254742Y-82853336D01*
X164254739Y-82853335D01*
X164222750Y-82848669D01*
X164194172Y-82844500D01*
X163805828Y-82844500D01*
X163801280Y-82845169D01*
X163801273Y-82845170D01*
X163744659Y-82853504D01*
X163744657Y-82853505D01*
X163734974Y-82854930D01*
X163726186Y-82859245D01*
X163726185Y-82859245D01*
X163685742Y-82879102D01*
X163627243Y-82907824D01*
X163542453Y-82992762D01*
X163489747Y-83100585D01*
X163487441Y-83099458D01*
X163456153Y-83146667D01*
X163391163Y-83175248D01*
X163321039Y-83164155D01*
X163268043Y-83116911D01*
X163260251Y-83099885D01*
X163260070Y-83099974D01*
X163239829Y-83058749D01*
X163207176Y-82992243D01*
X163137166Y-82922355D01*
X163129607Y-82914809D01*
X163129606Y-82914809D01*
X163122238Y-82907453D01*
X163055039Y-82874605D01*
X163023198Y-82859040D01*
X163023196Y-82859039D01*
X163014415Y-82854747D01*
X163004742Y-82853336D01*
X163004739Y-82853335D01*
X162972750Y-82848669D01*
X162944172Y-82844500D01*
X162555828Y-82844500D01*
X162551280Y-82845169D01*
X162551273Y-82845170D01*
X162494659Y-82853504D01*
X162494657Y-82853505D01*
X162484974Y-82854930D01*
X162476186Y-82859245D01*
X162476185Y-82859245D01*
X162435742Y-82879102D01*
X162377243Y-82907824D01*
X162292453Y-82992762D01*
X162287882Y-83002114D01*
X162287878Y-83002119D01*
X162285819Y-83006332D01*
X162237934Y-83058749D01*
X162172619Y-83077000D01*
X162058536Y-83077000D01*
X161990415Y-83056998D01*
X161956086Y-83024348D01*
X161952643Y-83019540D01*
X161948055Y-83010194D01*
X161864295Y-82926580D01*
X161757967Y-82874605D01*
X161748292Y-82873194D01*
X161748290Y-82873193D01*
X161693226Y-82865160D01*
X161693220Y-82865160D01*
X161688699Y-82864500D01*
X161500720Y-82864500D01*
X161311302Y-82864501D01*
X161241431Y-82874785D01*
X161189677Y-82900195D01*
X161144542Y-82922355D01*
X161144540Y-82922356D01*
X161135194Y-82926945D01*
X161051580Y-83010705D01*
X161047007Y-83020060D01*
X161039052Y-83036334D01*
X160991166Y-83088750D01*
X160925853Y-83107000D01*
X160842024Y-83107000D01*
X160773903Y-83086998D01*
X160728922Y-83036532D01*
X160711768Y-83001594D01*
X160711765Y-83001590D01*
X160707176Y-82992243D01*
X160637166Y-82922355D01*
X160629607Y-82914809D01*
X160629606Y-82914809D01*
X160622238Y-82907453D01*
X160555039Y-82874605D01*
X160523198Y-82859040D01*
X160523196Y-82859039D01*
X160514415Y-82854747D01*
X160504742Y-82853336D01*
X160504739Y-82853335D01*
X160472750Y-82848669D01*
X160444172Y-82844500D01*
X160055828Y-82844500D01*
X160051280Y-82845169D01*
X160051273Y-82845170D01*
X159994659Y-82853504D01*
X159994657Y-82853505D01*
X159984974Y-82854930D01*
X159976186Y-82859245D01*
X159976185Y-82859245D01*
X159935742Y-82879102D01*
X159877243Y-82907824D01*
X159792453Y-82992762D01*
X159739747Y-83100585D01*
X159737441Y-83099458D01*
X159706153Y-83146667D01*
X159641163Y-83175248D01*
X159571039Y-83164155D01*
X159518043Y-83116911D01*
X159510251Y-83099885D01*
X159510070Y-83099974D01*
X159489829Y-83058749D01*
X159457176Y-82992243D01*
X159387166Y-82922355D01*
X159379607Y-82914809D01*
X159379606Y-82914809D01*
X159372238Y-82907453D01*
X159305039Y-82874605D01*
X159273198Y-82859040D01*
X159273196Y-82859039D01*
X159264415Y-82854747D01*
X159254742Y-82853336D01*
X159254739Y-82853335D01*
X159222750Y-82848669D01*
X159194172Y-82844500D01*
X158805828Y-82844500D01*
X158801280Y-82845169D01*
X158801273Y-82845170D01*
X158744659Y-82853504D01*
X158744657Y-82853505D01*
X158734974Y-82854930D01*
X158726186Y-82859245D01*
X158726185Y-82859245D01*
X158685742Y-82879102D01*
X158627243Y-82907824D01*
X158542453Y-82992762D01*
X158512437Y-83054167D01*
X158496389Y-83086998D01*
X158489747Y-83100585D01*
X158479500Y-83170828D01*
X158479500Y-83634172D01*
X158480169Y-83638720D01*
X158480170Y-83638727D01*
X158488504Y-83695341D01*
X158489930Y-83705026D01*
X158494245Y-83713814D01*
X158494245Y-83713815D01*
X158498347Y-83722169D01*
X158542824Y-83812757D01*
X158627762Y-83897547D01*
X158632412Y-83899820D01*
X158674369Y-83953259D01*
X158681062Y-84023940D01*
X158648480Y-84087019D01*
X158634216Y-84099401D01*
X158627243Y-84102824D01*
X158619890Y-84110190D01*
X158619887Y-84110192D01*
X158575615Y-84154542D01*
X158542453Y-84187762D01*
X158489747Y-84295585D01*
X158488336Y-84305258D01*
X158488335Y-84305261D01*
X158485995Y-84321302D01*
X158479500Y-84365828D01*
X158479500Y-84829172D01*
X158480169Y-84833720D01*
X158480170Y-84833727D01*
X158488504Y-84890341D01*
X158489930Y-84900026D01*
X158542824Y-85007757D01*
X158585101Y-85049961D01*
X158617787Y-85082589D01*
X158627762Y-85092547D01*
X158654500Y-85105617D01*
X158726802Y-85140960D01*
X158726804Y-85140961D01*
X158735585Y-85145253D01*
X158745258Y-85146664D01*
X158745261Y-85146665D01*
X158777250Y-85151331D01*
X158805828Y-85155500D01*
X159194172Y-85155500D01*
X159198720Y-85154831D01*
X159198727Y-85154830D01*
X159255341Y-85146496D01*
X159255343Y-85146495D01*
X159265026Y-85145070D01*
X159285826Y-85134858D01*
X159345499Y-85105559D01*
X159372757Y-85092176D01*
X159457547Y-85007238D01*
X159462118Y-84997886D01*
X159462122Y-84997881D01*
X159464181Y-84993668D01*
X159512066Y-84941251D01*
X159577381Y-84923000D01*
X159672706Y-84923000D01*
X159740827Y-84943002D01*
X159785809Y-84993469D01*
X159787977Y-84997884D01*
X159792824Y-85007757D01*
X159834706Y-85049566D01*
X159867518Y-85082321D01*
X159901597Y-85144604D01*
X159904500Y-85171494D01*
X159904500Y-85313932D01*
X159884498Y-85382053D01*
X159856171Y-85411838D01*
X159853268Y-85413263D01*
X159767890Y-85498790D01*
X159714819Y-85607361D01*
X159704500Y-85678096D01*
X159704500Y-87771904D01*
X159705169Y-87776452D01*
X159705170Y-87776459D01*
X159705995Y-87782061D01*
X159715003Y-87843254D01*
X159719318Y-87852042D01*
X159719318Y-87852043D01*
X159751417Y-87917420D01*
X159768263Y-87951732D01*
X159853790Y-88037110D01*
X159904486Y-88061891D01*
X159952059Y-88085145D01*
X159962361Y-88090181D01*
X159972036Y-88091592D01*
X159972038Y-88091593D01*
X160028569Y-88099840D01*
X160028575Y-88099840D01*
X160033096Y-88100500D01*
X160426904Y-88100500D01*
X160431452Y-88099831D01*
X160431459Y-88099830D01*
X160488569Y-88091423D01*
X160488571Y-88091422D01*
X160498254Y-88089997D01*
X160507043Y-88085682D01*
X160597384Y-88041327D01*
X160597386Y-88041326D01*
X160606732Y-88036737D01*
X160654177Y-87989209D01*
X160684754Y-87958579D01*
X160684754Y-87958578D01*
X160692110Y-87951210D01*
X160745181Y-87842639D01*
X160746593Y-87832962D01*
X160754840Y-87776431D01*
X160754840Y-87776425D01*
X160755500Y-87771904D01*
X160755500Y-85678096D01*
X160754831Y-85673548D01*
X160754830Y-85673541D01*
X160746423Y-85616431D01*
X160746422Y-85616429D01*
X160744997Y-85606746D01*
X160691737Y-85498268D01*
X160606210Y-85412890D01*
X160605049Y-85412322D01*
X160564489Y-85360662D01*
X160555500Y-85313925D01*
X160555500Y-85202979D01*
X160575502Y-85134858D01*
X160608154Y-85100527D01*
X160613408Y-85096766D01*
X160622757Y-85092176D01*
X160630113Y-85084807D01*
X160630116Y-85084805D01*
X160700191Y-85014607D01*
X160700191Y-85014606D01*
X160707547Y-85007238D01*
X160760253Y-84899415D01*
X160761664Y-84889739D01*
X160762092Y-84888356D01*
X160801316Y-84829178D01*
X160866307Y-84800601D01*
X160936431Y-84811697D01*
X160989424Y-84858943D01*
X160999354Y-84880642D01*
X160999785Y-84883569D01*
X161004101Y-84892359D01*
X161047102Y-84979941D01*
X161051945Y-84989806D01*
X161069927Y-85007757D01*
X161135705Y-85073420D01*
X161133170Y-85075959D01*
X161165508Y-85117141D01*
X161174500Y-85163886D01*
X161174500Y-88562984D01*
X161154498Y-88631105D01*
X161137595Y-88652079D01*
X160902079Y-88887595D01*
X160839767Y-88921621D01*
X160812984Y-88924500D01*
X158687016Y-88924500D01*
X158618895Y-88904498D01*
X158597921Y-88887595D01*
X158052405Y-88342079D01*
X158018379Y-88279767D01*
X158015500Y-88252984D01*
X158015500Y-88136068D01*
X158035502Y-88067947D01*
X158063829Y-88038162D01*
X158066732Y-88036737D01*
X158114177Y-87989209D01*
X158144754Y-87958579D01*
X158144754Y-87958578D01*
X158152110Y-87951210D01*
X158205181Y-87842639D01*
X158206593Y-87832962D01*
X158214840Y-87776431D01*
X158214840Y-87776425D01*
X158215500Y-87771904D01*
X158215500Y-85678096D01*
X158214831Y-85673548D01*
X158214830Y-85673541D01*
X158206423Y-85616431D01*
X158206422Y-85616429D01*
X158204997Y-85606746D01*
X158151737Y-85498268D01*
X158066210Y-85412890D01*
X157957639Y-85359819D01*
X157947964Y-85358408D01*
X157947962Y-85358407D01*
X157891431Y-85350160D01*
X157891425Y-85350160D01*
X157886904Y-85349500D01*
X157493096Y-85349500D01*
X157488548Y-85350169D01*
X157488541Y-85350170D01*
X157431431Y-85358577D01*
X157431429Y-85358578D01*
X157421746Y-85360003D01*
X157412958Y-85364318D01*
X157412957Y-85364318D01*
X157322616Y-85408673D01*
X157322614Y-85408674D01*
X157313268Y-85413263D01*
X157227890Y-85498790D01*
X157174819Y-85607361D01*
X157164500Y-85678096D01*
X157164500Y-87771904D01*
X153472819Y-87771904D01*
X153504627Y-87709611D01*
X153544838Y-87545283D01*
X153545500Y-87534612D01*
X153545500Y-86362637D01*
X153530848Y-86236963D01*
X153521405Y-86210946D01*
X153475622Y-86084818D01*
X153473125Y-86077939D01*
X153380367Y-85936460D01*
X153257550Y-85820115D01*
X153111262Y-85735144D01*
X153104260Y-85733023D01*
X153104257Y-85733022D01*
X153009358Y-85704280D01*
X152949350Y-85686105D01*
X152942041Y-85685652D01*
X152942038Y-85685651D01*
X152870662Y-85681223D01*
X152780499Y-85675630D01*
X152773283Y-85676870D01*
X152773281Y-85676870D01*
X152620983Y-85703040D01*
X152613767Y-85704280D01*
X152458098Y-85770518D01*
X152452205Y-85774855D01*
X152327736Y-85866453D01*
X152327733Y-85866455D01*
X152321842Y-85870791D01*
X152317105Y-85876367D01*
X152269560Y-85932331D01*
X152212308Y-85999720D01*
X152135373Y-86150389D01*
X152134260Y-86154937D01*
X152092416Y-86210946D01*
X152025919Y-86235819D01*
X151956531Y-86220794D01*
X151906281Y-86170639D01*
X151900405Y-86158374D01*
X151892698Y-86139767D01*
X151800451Y-86019549D01*
X151680233Y-85927302D01*
X151540236Y-85869313D01*
X151427720Y-85854500D01*
X151352280Y-85854500D01*
X151239764Y-85869313D01*
X151099767Y-85927302D01*
X150979549Y-86019549D01*
X150887302Y-86139767D01*
X150829313Y-86279764D01*
X150809534Y-86430000D01*
X146190466Y-86430000D01*
X146170687Y-86279764D01*
X146112698Y-86139767D01*
X146020451Y-86019549D01*
X145900233Y-85927302D01*
X145760236Y-85869313D01*
X145647720Y-85854500D01*
X145572280Y-85854500D01*
X145459764Y-85869313D01*
X145319767Y-85927302D01*
X145199549Y-86019549D01*
X145107302Y-86139767D01*
X145099456Y-86158709D01*
X145097291Y-86163936D01*
X145052743Y-86219217D01*
X144985380Y-86241638D01*
X144916588Y-86224080D01*
X144868210Y-86172118D01*
X144862443Y-86158709D01*
X144855568Y-86139767D01*
X144833125Y-86077939D01*
X144740367Y-85936460D01*
X144617550Y-85820115D01*
X144471262Y-85735144D01*
X144464260Y-85733023D01*
X144464257Y-85733022D01*
X144369358Y-85704280D01*
X144309350Y-85686105D01*
X144302041Y-85685652D01*
X144302038Y-85685651D01*
X144230662Y-85681223D01*
X144140499Y-85675630D01*
X144133283Y-85676870D01*
X144133281Y-85676870D01*
X143980983Y-85703040D01*
X143973767Y-85704280D01*
X143818098Y-85770518D01*
X143812205Y-85774855D01*
X143687736Y-85866453D01*
X143687733Y-85866455D01*
X143681842Y-85870791D01*
X143677105Y-85876367D01*
X143629560Y-85932331D01*
X143572308Y-85999720D01*
X143495373Y-86150389D01*
X143493633Y-86157498D01*
X143493632Y-86157502D01*
X143478531Y-86219217D01*
X143455162Y-86314717D01*
X143454500Y-86325388D01*
X143454500Y-87497363D01*
X123575000Y-87497363D01*
X123575000Y-85126000D01*
X123595002Y-85057879D01*
X123648658Y-85011386D01*
X123701000Y-85000000D01*
X128500000Y-85000000D01*
X128500000Y-83292516D01*
X143479500Y-83292516D01*
X143494724Y-83418320D01*
X143554655Y-83576923D01*
X143558956Y-83583181D01*
X143590964Y-83629752D01*
X143650688Y-83716651D01*
X143656358Y-83721703D01*
X143656359Y-83721704D01*
X143771608Y-83824388D01*
X143771612Y-83824390D01*
X143777279Y-83829440D01*
X143783988Y-83832992D01*
X143783989Y-83832993D01*
X143807530Y-83845457D01*
X143927119Y-83908776D01*
X144091559Y-83950081D01*
X144099157Y-83950121D01*
X144099159Y-83950121D01*
X144176332Y-83950525D01*
X144261105Y-83950969D01*
X144268492Y-83949195D01*
X144268496Y-83949195D01*
X144418583Y-83913161D01*
X144425968Y-83911388D01*
X144432712Y-83907907D01*
X144432715Y-83907906D01*
X144569883Y-83837108D01*
X144569884Y-83837108D01*
X144576631Y-83833625D01*
X144582542Y-83828469D01*
X144698671Y-83727163D01*
X144704396Y-83722169D01*
X144801887Y-83583453D01*
X144863476Y-83425487D01*
X144880500Y-83296174D01*
X144880500Y-83292516D01*
X152119500Y-83292516D01*
X152134724Y-83418320D01*
X152194655Y-83576923D01*
X152198956Y-83583181D01*
X152230964Y-83629752D01*
X152290688Y-83716651D01*
X152296358Y-83721703D01*
X152296359Y-83721704D01*
X152411608Y-83824388D01*
X152411612Y-83824390D01*
X152417279Y-83829440D01*
X152423988Y-83832992D01*
X152423989Y-83832993D01*
X152447530Y-83845457D01*
X152567119Y-83908776D01*
X152731559Y-83950081D01*
X152739157Y-83950121D01*
X152739159Y-83950121D01*
X152816332Y-83950525D01*
X152901105Y-83950969D01*
X152908492Y-83949195D01*
X152908496Y-83949195D01*
X153058583Y-83913161D01*
X153065968Y-83911388D01*
X153072712Y-83907907D01*
X153072715Y-83907906D01*
X153209883Y-83837108D01*
X153209884Y-83837108D01*
X153216631Y-83833625D01*
X153222542Y-83828469D01*
X153338671Y-83727163D01*
X153344396Y-83722169D01*
X153441887Y-83583453D01*
X153503476Y-83425487D01*
X153520500Y-83296174D01*
X153520500Y-82207484D01*
X153505276Y-82081680D01*
X153445345Y-81923077D01*
X153349312Y-81783349D01*
X153337514Y-81772837D01*
X153228392Y-81675612D01*
X153228388Y-81675610D01*
X153222721Y-81670560D01*
X153072881Y-81591224D01*
X152908441Y-81549919D01*
X152900843Y-81549879D01*
X152900841Y-81549879D01*
X152823668Y-81549475D01*
X152738895Y-81549031D01*
X152731508Y-81550805D01*
X152731504Y-81550805D01*
X152588162Y-81585220D01*
X152574032Y-81588612D01*
X152567288Y-81592093D01*
X152567285Y-81592094D01*
X152562089Y-81594776D01*
X152423369Y-81666375D01*
X152295604Y-81777831D01*
X152198113Y-81916547D01*
X152136524Y-82074513D01*
X152119500Y-82203826D01*
X152119500Y-83292516D01*
X144880500Y-83292516D01*
X144880500Y-82207484D01*
X144865276Y-82081680D01*
X144805345Y-81923077D01*
X144709312Y-81783349D01*
X144697514Y-81772837D01*
X144588392Y-81675612D01*
X144588388Y-81675610D01*
X144582721Y-81670560D01*
X144432881Y-81591224D01*
X144268441Y-81549919D01*
X144260843Y-81549879D01*
X144260841Y-81549879D01*
X144183668Y-81549475D01*
X144098895Y-81549031D01*
X144091508Y-81550805D01*
X144091504Y-81550805D01*
X143948162Y-81585220D01*
X143934032Y-81588612D01*
X143927288Y-81592093D01*
X143927285Y-81592094D01*
X143922089Y-81594776D01*
X143783369Y-81666375D01*
X143655604Y-81777831D01*
X143558113Y-81916547D01*
X143496524Y-82074513D01*
X143479500Y-82203826D01*
X143479500Y-83292516D01*
X128500000Y-83292516D01*
X128500000Y-80201000D01*
X128520002Y-80132879D01*
X128573658Y-80086386D01*
X128626000Y-80075000D01*
X168374000Y-80075000D01*
X168442121Y-80095002D01*
G37*
%TD.AperFunction*%
%TD*%
M02*
