%TF.GenerationSoftware,KiCad,Pcbnew,(6.0.1)*%
%TF.CreationDate,2022-02-28T23:17:01+05:30*%
%TF.ProjectId,ProIMU_V1,50726f49-4d55-45f5-9631-2e6b69636164,rev?*%
%TF.SameCoordinates,Original*%
%TF.FileFunction,Copper,L1,Top*%
%TF.FilePolarity,Positive*%
%FSLAX46Y46*%
G04 Gerber Fmt 4.6, Leading zero omitted, Abs format (unit mm)*
G04 Created by KiCad (PCBNEW (6.0.1)) date 2022-02-28 23:17:01*
%MOMM*%
%LPD*%
G01*
G04 APERTURE LIST*
G04 Aperture macros list*
%AMRoundRect*
0 Rectangle with rounded corners*
0 $1 Rounding radius*
0 $2 $3 $4 $5 $6 $7 $8 $9 X,Y pos of 4 corners*
0 Add a 4 corners polygon primitive as box body*
4,1,4,$2,$3,$4,$5,$6,$7,$8,$9,$2,$3,0*
0 Add four circle primitives for the rounded corners*
1,1,$1+$1,$2,$3*
1,1,$1+$1,$4,$5*
1,1,$1+$1,$6,$7*
1,1,$1+$1,$8,$9*
0 Add four rect primitives between the rounded corners*
20,1,$1+$1,$2,$3,$4,$5,0*
20,1,$1+$1,$4,$5,$6,$7,0*
20,1,$1+$1,$6,$7,$8,$9,0*
20,1,$1+$1,$8,$9,$2,$3,0*%
G04 Aperture macros list end*
%TA.AperFunction,SMDPad,CuDef*%
%ADD10RoundRect,0.155000X-0.212500X-0.155000X0.212500X-0.155000X0.212500X0.155000X-0.212500X0.155000X0*%
%TD*%
%TA.AperFunction,SMDPad,CuDef*%
%ADD11RoundRect,0.006600X-0.313400X-0.103400X0.313400X-0.103400X0.313400X0.103400X-0.313400X0.103400X0*%
%TD*%
%TA.AperFunction,SMDPad,CuDef*%
%ADD12RoundRect,0.006600X0.103400X-0.313400X0.103400X0.313400X-0.103400X0.313400X-0.103400X-0.313400X0*%
%TD*%
%TA.AperFunction,SMDPad,CuDef*%
%ADD13RoundRect,0.006600X0.313400X0.103400X-0.313400X0.103400X-0.313400X-0.103400X0.313400X-0.103400X0*%
%TD*%
%TA.AperFunction,SMDPad,CuDef*%
%ADD14RoundRect,0.006600X-0.103400X0.313400X-0.103400X-0.313400X0.103400X-0.313400X0.103400X0.313400X0*%
%TD*%
%TA.AperFunction,SMDPad,CuDef*%
%ADD15R,0.600000X1.150000*%
%TD*%
%TA.AperFunction,SMDPad,CuDef*%
%ADD16R,0.300000X1.150000*%
%TD*%
%TA.AperFunction,ComponentPad*%
%ADD17O,1.050000X2.100000*%
%TD*%
%TA.AperFunction,ComponentPad*%
%ADD18O,1.000000X2.000000*%
%TD*%
%TA.AperFunction,SMDPad,CuDef*%
%ADD19R,2.000000X1.500000*%
%TD*%
%TA.AperFunction,SMDPad,CuDef*%
%ADD20R,2.000000X3.800000*%
%TD*%
%TA.AperFunction,SMDPad,CuDef*%
%ADD21RoundRect,0.160000X-0.197500X-0.160000X0.197500X-0.160000X0.197500X0.160000X-0.197500X0.160000X0*%
%TD*%
%TA.AperFunction,SMDPad,CuDef*%
%ADD22RoundRect,0.250000X-0.337500X-0.475000X0.337500X-0.475000X0.337500X0.475000X-0.337500X0.475000X0*%
%TD*%
%TA.AperFunction,SMDPad,CuDef*%
%ADD23RoundRect,0.250000X0.250000X1.500000X-0.250000X1.500000X-0.250000X-1.500000X0.250000X-1.500000X0*%
%TD*%
%TA.AperFunction,SMDPad,CuDef*%
%ADD24RoundRect,0.250001X0.499999X1.449999X-0.499999X1.449999X-0.499999X-1.449999X0.499999X-1.449999X0*%
%TD*%
%TA.AperFunction,SMDPad,CuDef*%
%ADD25RoundRect,0.250000X-0.250000X0.650000X-0.250000X-0.650000X0.250000X-0.650000X0.250000X0.650000X0*%
%TD*%
%TA.AperFunction,SMDPad,CuDef*%
%ADD26O,2.500000X1.000000*%
%TD*%
%TA.AperFunction,SMDPad,CuDef*%
%ADD27RoundRect,0.130000X-0.920000X-0.370000X0.920000X-0.370000X0.920000X0.370000X-0.920000X0.370000X0*%
%TD*%
%TA.AperFunction,SMDPad,CuDef*%
%ADD28R,1.400000X0.300000*%
%TD*%
%TA.AperFunction,ComponentPad*%
%ADD29R,1.700000X1.700000*%
%TD*%
%TA.AperFunction,ComponentPad*%
%ADD30O,1.700000X1.700000*%
%TD*%
%TA.AperFunction,SMDPad,CuDef*%
%ADD31R,0.355600X0.355600*%
%TD*%
%TA.AperFunction,SMDPad,CuDef*%
%ADD32RoundRect,0.150000X-0.587500X-0.150000X0.587500X-0.150000X0.587500X0.150000X-0.587500X0.150000X0*%
%TD*%
%TA.AperFunction,ViaPad*%
%ADD33C,0.800000*%
%TD*%
%TA.AperFunction,Conductor*%
%ADD34C,0.250000*%
%TD*%
G04 APERTURE END LIST*
D10*
%TO.P,C10,1*%
%TO.N,+3V3*%
X52912500Y-48780000D03*
%TO.P,C10,2*%
%TO.N,GND*%
X54047500Y-48780000D03*
%TD*%
%TO.P,C6,1*%
%TO.N,GND*%
X63242500Y-35110000D03*
%TO.P,C6,2*%
%TO.N,+3V3*%
X64377500Y-35110000D03*
%TD*%
D11*
%TO.P,U6,1,RESV_1*%
%TO.N,+3V3*%
X43550000Y-49440000D03*
%TO.P,U6,2*%
%TO.N,N/C*%
X43550000Y-49840000D03*
%TO.P,U6,3*%
X43550000Y-50240000D03*
%TO.P,U6,4*%
X43550000Y-50640000D03*
%TO.P,U6,5*%
X43550000Y-51040000D03*
%TO.P,U6,6*%
X43550000Y-51440000D03*
D12*
%TO.P,U6,7,AUX_CL*%
%TO.N,unconnected-(U6-Pad7)*%
X44095000Y-51985000D03*
%TO.P,U6,8,VDDIO*%
%TO.N,+3V3*%
X44495000Y-51985000D03*
%TO.P,U6,9,AD0/SDO*%
%TO.N,/MCU/MPU9250_SPI1_MOSI*%
X44895000Y-51985000D03*
%TO.P,U6,10,REGOUT*%
%TO.N,Net-(C8-Pad1)*%
X45295000Y-51985000D03*
%TO.P,U6,11,FSYNC*%
%TO.N,unconnected-(U6-Pad11)*%
X45695000Y-51985000D03*
%TO.P,U6,12,INT*%
%TO.N,/MCU/MPU9250_INT_EXTI4*%
X46095000Y-51985000D03*
D13*
%TO.P,U6,13,VDD*%
%TO.N,+5V*%
X46640000Y-51440000D03*
%TO.P,U6,14*%
%TO.N,N/C*%
X46640000Y-51040000D03*
%TO.P,U6,15*%
X46640000Y-50640000D03*
%TO.P,U6,16*%
X46640000Y-50240000D03*
%TO.P,U6,17*%
X46640000Y-49840000D03*
%TO.P,U6,18,GND*%
%TO.N,GND*%
X46640000Y-49440000D03*
D14*
%TO.P,U6,19,RESV_19*%
%TO.N,unconnected-(U6-Pad19)*%
X46095000Y-48895000D03*
%TO.P,U6,20,RESV_20*%
%TO.N,GND*%
X45695000Y-48895000D03*
%TO.P,U6,21,AUX_DA*%
%TO.N,unconnected-(U6-Pad21)*%
X45295000Y-48895000D03*
%TO.P,U6,22,~{CS}*%
%TO.N,/MCU/MPU9250_SPI1_nCSS*%
X44895000Y-48895000D03*
%TO.P,U6,23,SCL/SCLK*%
%TO.N,/MCU/MPU9250_SPI1_SCK*%
X44495000Y-48895000D03*
%TO.P,U6,24,SDA/SDI*%
%TO.N,/MCU/MPU9250_SPI1_MISO*%
X44095000Y-48895000D03*
%TD*%
D15*
%TO.P,USB1,A1_B12,GND*%
%TO.N,GND*%
X151700000Y-87505000D03*
%TO.P,USB1,A4_B9,VBUS*%
%TO.N,VDD*%
X150900000Y-87505000D03*
D16*
%TO.P,USB1,A5,CC1*%
%TO.N,unconnected-(USB1-PadA5)*%
X149750000Y-87505000D03*
%TO.P,USB1,A6,DP1*%
%TO.N,Net-(R12-Pad1)*%
X148750000Y-87505000D03*
%TO.P,USB1,A7,DN1*%
%TO.N,Net-(R13-Pad2)*%
X148250000Y-87505000D03*
%TO.P,USB1,A8,SBU1*%
%TO.N,unconnected-(USB1-PadA8)*%
X147250000Y-87505000D03*
D15*
%TO.P,USB1,B1_A12,GND*%
%TO.N,GND*%
X145300000Y-87505000D03*
%TO.P,USB1,B4_A9,VBUS*%
%TO.N,VDD*%
X146100000Y-87505000D03*
D16*
%TO.P,USB1,B5,CC2*%
%TO.N,unconnected-(USB1-PadB5)*%
X146750000Y-87505000D03*
%TO.P,USB1,B6,DP2*%
%TO.N,Net-(R12-Pad1)*%
X147750000Y-87505000D03*
%TO.P,USB1,B7,DN2*%
%TO.N,Net-(R13-Pad2)*%
X149250000Y-87505000D03*
%TO.P,USB1,B8,SBU2*%
%TO.N,unconnected-(USB1-PadB8)*%
X150250000Y-87505000D03*
D17*
%TO.P,USB1,S1,SHELL_GND*%
%TO.N,unconnected-(USB1-PadS1)*%
X152820000Y-86930000D03*
D18*
%TO.P,USB1,S2,SHELL_GND*%
%TO.N,unconnected-(USB1-PadS2)*%
X152820000Y-82750000D03*
%TO.P,USB1,S3,SHELL_GND*%
%TO.N,unconnected-(USB1-PadS3)*%
X144180000Y-82750000D03*
D17*
%TO.P,USB1,S4,SHELL_GND*%
%TO.N,unconnected-(USB1-PadS4)*%
X144180000Y-86930000D03*
%TD*%
D19*
%TO.P,U7,1,VI*%
%TO.N,+5V*%
X106800000Y-18750000D03*
D20*
%TO.P,U7,2,GND*%
%TO.N,GND*%
X113100000Y-21050000D03*
D19*
X106800000Y-21050000D03*
%TO.P,U7,3,VO*%
%TO.N,+3V3*%
X106800000Y-23350000D03*
%TD*%
D10*
%TO.P,C2,1*%
%TO.N,GND*%
X43032500Y-56060000D03*
%TO.P,C2,2*%
%TO.N,VDD*%
X44167500Y-56060000D03*
%TD*%
%TO.P,C21,1*%
%TO.N,GND2*%
X60862500Y-39050000D03*
%TO.P,C21,2*%
%TO.N,Net-(C21-Pad2)*%
X61997500Y-39050000D03*
%TD*%
D21*
%TO.P,R6,1*%
%TO.N,/MCU/BMP280_I2C1_SCL*%
X43022500Y-54080000D03*
%TO.P,R6,2*%
%TO.N,+3V3*%
X44217500Y-54080000D03*
%TD*%
%TO.P,R5,1*%
%TO.N,/MCU/BMP280_I2C1_SDA*%
X56772500Y-35120000D03*
%TO.P,R5,2*%
%TO.N,+3V3*%
X57967500Y-35120000D03*
%TD*%
D22*
%TO.P,C15,1*%
%TO.N,+3V3*%
X96292500Y-33180000D03*
%TO.P,C15,2*%
%TO.N,GND*%
X98367500Y-33180000D03*
%TD*%
D23*
%TO.P,CAN1,1,Pin_1*%
%TO.N,VDD*%
X164500000Y-87850000D03*
%TO.P,CAN1,2,Pin_2*%
%TO.N,Net-(CAN1-Pad2)*%
X162500000Y-87850000D03*
%TO.P,CAN1,3,Pin_3*%
%TO.N,Net-(CAN1-Pad3)*%
X160500000Y-87850000D03*
%TO.P,CAN1,4,Pin_4*%
%TO.N,GND1*%
X158500000Y-87850000D03*
D24*
%TO.P,CAN1,MP*%
%TO.N,N/C*%
X156150000Y-82100000D03*
X166850000Y-82100000D03*
%TD*%
D21*
%TO.P,R12,1*%
%TO.N,Net-(R12-Pad1)*%
X18852500Y-55350000D03*
%TO.P,R12,2*%
%TO.N,/MCU/USB+*%
X20047500Y-55350000D03*
%TD*%
D10*
%TO.P,C9,1*%
%TO.N,+5V*%
X83832500Y-17910000D03*
%TO.P,C9,2*%
%TO.N,GND*%
X84967500Y-17910000D03*
%TD*%
D25*
%TO.P,U4,1,GND*%
%TO.N,GND*%
X172250000Y-113250000D03*
%TO.P,U4,2,ANT*%
%TO.N,/ANT*%
X170250000Y-113250000D03*
%TO.P,U4,3,GND*%
%TO.N,GND*%
X168250000Y-113250000D03*
%TO.P,U4,4,VCC*%
%TO.N,+3V3*%
X166250000Y-113250000D03*
%TO.P,U4,5,TX0*%
%TO.N,/MCU/WIFI_UART2_RX*%
X164250000Y-113250000D03*
%TO.P,U4,6,RX0*%
%TO.N,/MCU/WIFI_UART2_TX*%
X162250000Y-113250000D03*
%TO.P,U4,7,PB8*%
%TO.N,unconnected-(U4-Pad7)*%
X162250000Y-123250000D03*
%TO.P,U4,8,CTS*%
%TO.N,unconnected-(U4-Pad8)*%
X164250000Y-123250000D03*
%TO.P,U4,9,RTS*%
%TO.N,unconnected-(U4-Pad9)*%
X166250000Y-123250000D03*
%TO.P,U4,10,RX1*%
%TO.N,unconnected-(U4-Pad10)*%
X168250000Y-123250000D03*
%TO.P,U4,11,TX1*%
%TO.N,unconnected-(U4-Pad11)*%
X170250000Y-123250000D03*
%TO.P,U4,12,RES*%
%TO.N,/MCU/WIFI_RESET*%
X172250000Y-123250000D03*
%TD*%
D10*
%TO.P,C11,1*%
%TO.N,+3V3*%
X60862500Y-37080000D03*
%TO.P,C11,2*%
%TO.N,GND*%
X61997500Y-37080000D03*
%TD*%
D26*
%TO.P,U9,1,RXD1*%
%TO.N,/MCU/GPS_UART6_TX*%
X130500000Y-115900000D03*
%TO.P,U9,2,TXD1*%
%TO.N,/MCU/GPS_UART6_RX*%
X130500000Y-118440000D03*
%TO.P,U9,3,GND*%
%TO.N,GND*%
X130500000Y-120980000D03*
%TO.P,U9,4,VCC*%
%TO.N,+3V3*%
X130500000Y-123520000D03*
%TO.P,U9,5,V_BCKP*%
X130500000Y-126060000D03*
%TO.P,U9,6,1PPS*%
%TO.N,unconnected-(U9-Pad6)*%
X130500000Y-128600000D03*
%TO.P,U9,7,TIMER*%
%TO.N,unconnected-(U9-Pad7)*%
X146000000Y-128600000D03*
%TO.P,U9,8,AADET_N*%
%TO.N,unconnected-(U9-Pad8)*%
X146000000Y-126060000D03*
%TO.P,U9,9*%
%TO.N,N/C*%
X146000000Y-123520000D03*
%TO.P,U9,10,RESET*%
%TO.N,/MCU/GPS_RESET*%
X146000000Y-120980000D03*
%TO.P,U9,11,EX_ANT*%
%TO.N,unconnected-(U9-Pad11)*%
X146000000Y-118440000D03*
%TO.P,U9,12,GND*%
%TO.N,GND*%
X146000000Y-115900000D03*
%TD*%
D10*
%TO.P,C22,1*%
%TO.N,GND2*%
X54912500Y-43480000D03*
%TO.P,C22,2*%
%TO.N,Net-(C22-Pad2)*%
X56047500Y-43480000D03*
%TD*%
%TO.P,C7,1*%
%TO.N,+5V*%
X60032500Y-35110000D03*
%TO.P,C7,2*%
%TO.N,GND*%
X61167500Y-35110000D03*
%TD*%
D23*
%TO.P,RS232,1,Pin_1*%
%TO.N,Net-(C21-Pad2)*%
X138500000Y-88100000D03*
%TO.P,RS232,2,Pin_2*%
%TO.N,GND2*%
X136500000Y-88100000D03*
%TO.P,RS232,3,Pin_3*%
%TO.N,Net-(RS232-Pad3)*%
X134500000Y-88100000D03*
%TO.P,RS232,4,Pin_4*%
%TO.N,Net-(RS232-Pad4)*%
X132500000Y-88100000D03*
D24*
%TO.P,RS232,MP*%
%TO.N,N/C*%
X130150000Y-82350000D03*
X140850000Y-82350000D03*
%TD*%
D21*
%TO.P,R13,1*%
%TO.N,/MCU/USB-*%
X25352500Y-56550000D03*
%TO.P,R13,2*%
%TO.N,Net-(R13-Pad2)*%
X26547500Y-56550000D03*
%TD*%
D22*
%TO.P,C13,1*%
%TO.N,+5V*%
X106392500Y-26680000D03*
%TO.P,C13,2*%
%TO.N,GND*%
X108467500Y-26680000D03*
%TD*%
D10*
%TO.P,C4,1*%
%TO.N,Net-(C4-Pad1)*%
X54912500Y-45450000D03*
%TO.P,C4,2*%
%TO.N,Net-(C4-Pad2)*%
X56047500Y-45450000D03*
%TD*%
D27*
%TO.P,PS1,1,GND*%
%TO.N,GND1*%
X93100000Y-20490000D03*
%TO.P,PS1,2,VIN*%
%TO.N,VDD*%
X93100000Y-23030000D03*
%TO.P,PS1,3*%
%TO.N,N/C*%
X93100000Y-25570000D03*
%TO.P,PS1,4,0V*%
%TO.N,GND*%
X93100000Y-28110000D03*
%TO.P,PS1,5,+VO*%
%TO.N,+5V*%
X103200000Y-28110000D03*
%TO.P,PS1,6*%
%TO.N,N/C*%
X103200000Y-25570000D03*
%TO.P,PS1,7*%
X103200000Y-23030000D03*
%TO.P,PS1,8*%
X103200000Y-20490000D03*
%TD*%
D28*
%TO.P,U1,1,GND*%
%TO.N,GND2*%
X130550000Y-71500000D03*
%TO.P,U1,2,C1-*%
%TO.N,Net-(C4-Pad1)*%
X130550000Y-72000000D03*
%TO.P,U1,3,VS-*%
%TO.N,Net-(C22-Pad2)*%
X130550000Y-72500000D03*
%TO.P,U1,4,T1IN*%
%TO.N,/MCU/RS232_UART3_TX*%
X130550000Y-73000000D03*
%TO.P,U1,5,R1OUT*%
%TO.N,Net-(RS232-Pad4)*%
X130550000Y-73500000D03*
%TO.P,U1,6,R1IN*%
%TO.N,/MCU/RS232_UART3_RX*%
X134950000Y-73500000D03*
%TO.P,U1,7,T1OUT*%
%TO.N,Net-(RS232-Pad3)*%
X134950000Y-73000000D03*
%TO.P,U1,8,SD*%
%TO.N,unconnected-(U1-Pad8)*%
X134950000Y-72500000D03*
%TO.P,U1,9,C1+*%
%TO.N,Net-(C4-Pad2)*%
X134950000Y-72000000D03*
%TO.P,U1,10,VCC*%
%TO.N,Net-(C21-Pad2)*%
X134950000Y-71500000D03*
%TD*%
D29*
%TO.P,BAT1,1,Pin_1*%
%TO.N,unconnected-(BAT1-Pad1)*%
X92600000Y-34000000D03*
D30*
%TO.P,BAT1,2,Pin_2*%
%TO.N,unconnected-(BAT1-Pad2)*%
X92600000Y-36540000D03*
%TD*%
D22*
%TO.P,C12,1*%
%TO.N,VDD*%
X96292500Y-36190000D03*
%TO.P,C12,2*%
%TO.N,GND1*%
X98367500Y-36190000D03*
%TD*%
D31*
%TO.P,U5,1,GND*%
%TO.N,GND*%
X48837200Y-48903100D03*
%TO.P,U5,2,CSB*%
%TO.N,+3V3*%
X49484399Y-48905899D03*
%TO.P,U5,3,SDI*%
%TO.N,/MCU/BMP280_I2C1_SDA*%
X50134401Y-48905899D03*
%TO.P,U5,4,SCK*%
%TO.N,/MCU/BMP280_I2C1_SCL*%
X50781600Y-48903100D03*
%TO.P,U5,5,SDO*%
%TO.N,GND*%
X50781600Y-50353100D03*
%TO.P,U5,6,VDDIO*%
%TO.N,+3V3*%
X50134401Y-50350301D03*
%TO.P,U5,7,GND*%
%TO.N,GND*%
X49484399Y-50350301D03*
%TO.P,U5,8,VDD*%
%TO.N,+5V*%
X48837200Y-50353100D03*
%TD*%
D22*
%TO.P,C14,1*%
%TO.N,+5V*%
X101102500Y-33180000D03*
%TO.P,C14,2*%
%TO.N,GND*%
X103177500Y-33180000D03*
%TD*%
D32*
%TO.P,D1,1,K*%
%TO.N,/MCU/USB-*%
X69152500Y-31500000D03*
%TO.P,D1,2,K*%
%TO.N,/MCU/USB+*%
X69152500Y-33400000D03*
%TO.P,D1,3,A*%
%TO.N,GND*%
X71027500Y-32450000D03*
%TD*%
D10*
%TO.P,C8,1*%
%TO.N,Net-(C8-Pad1)*%
X46282500Y-54070000D03*
%TO.P,C8,2*%
%TO.N,GND*%
X47417500Y-54070000D03*
%TD*%
D33*
%TO.N,+3V3*%
X129104841Y-117549679D03*
X150250000Y-95500000D03*
%TO.N,/MCU/SDCARD_DET_SWT*%
X147474500Y-117000000D03*
X140873540Y-116400000D03*
%TO.N,GND*%
X144934753Y-112522345D03*
X141000000Y-101317500D03*
X145750000Y-115000000D03*
X152567500Y-112500000D03*
X164250000Y-98000000D03*
X129000000Y-119750000D03*
X153250000Y-97750000D03*
X154500000Y-99000000D03*
X157750000Y-95750000D03*
%TO.N,/MCU/SDCARD_SDIO_D0*%
X137301000Y-113000000D03*
X133000000Y-120750000D03*
%TO.N,/MCU/SDCARD_SDIO_D1*%
X136576500Y-112194509D03*
X133750000Y-121500000D03*
%TO.N,/MCU/DEBUG_UART1_RX*%
X130750000Y-102974500D03*
X130540000Y-99025000D03*
%TO.N,/MCU/CAN1_TX*%
X160230000Y-95775000D03*
X160250000Y-92775500D03*
%TO.N,/MCU/GPS_UART6_TX*%
X138500451Y-114974951D03*
%TO.N,/MCU/GPS_UART6_RX*%
X138025500Y-114000000D03*
%TO.N,/MCU/GPS_RESET*%
X146000000Y-120980000D03*
%TD*%
D34*
%TO.N,/MCU/SDCARD_DET_SWT*%
X141473540Y-117000000D02*
X140873540Y-116400000D01*
X147474500Y-117000000D02*
X141473540Y-117000000D01*
%TO.N,/MCU/SDCARD_SDIO_D0*%
X137301000Y-113000000D02*
X138410775Y-113000000D01*
X138135718Y-119000000D02*
X138000000Y-119000000D01*
X138410775Y-113000000D02*
X139699520Y-114288745D01*
X135000000Y-119000000D02*
X134750000Y-119000000D01*
X138000000Y-119000000D02*
X135000000Y-119000000D01*
X139699520Y-114288745D02*
X139699520Y-117436198D01*
X139699520Y-117436198D02*
X138135718Y-119000000D01*
X134750000Y-119000000D02*
X133000000Y-120750000D01*
%TO.N,/MCU/SDCARD_SDIO_D1*%
X134000000Y-120750000D02*
X133750000Y-121000000D01*
X136000000Y-119449520D02*
X135300480Y-119449520D01*
X138241001Y-112194509D02*
X140149040Y-114102548D01*
X135300480Y-119449520D02*
X134000000Y-120750000D01*
X140149040Y-117622396D02*
X139010718Y-118760718D01*
X140149040Y-114102548D02*
X140149040Y-117622396D01*
X133750000Y-121000000D02*
X133750000Y-121500000D01*
X138321915Y-119449520D02*
X136000000Y-119449520D01*
X136576500Y-112194509D02*
X138241001Y-112194509D01*
X139010718Y-118760718D02*
X138321915Y-119449520D01*
%TO.N,/MCU/DEBUG_UART1_RX*%
X130750000Y-102974500D02*
X130750000Y-99235000D01*
X130750000Y-99235000D02*
X130540000Y-99025000D01*
%TO.N,/MCU/CAN1_TX*%
X160250000Y-92775500D02*
X160250000Y-95755000D01*
X160250000Y-95755000D02*
X160230000Y-95775000D01*
%TO.N,/MCU/GPS_UART6_TX*%
X138500451Y-114974951D02*
X137575402Y-115900000D01*
X137575402Y-115900000D02*
X130500000Y-115900000D01*
%TO.N,/MCU/GPS_UART6_RX*%
X139250000Y-117250000D02*
X138060000Y-118440000D01*
X138025500Y-114000000D02*
X138775057Y-114000000D01*
X138060000Y-118440000D02*
X130500000Y-118440000D01*
X139250000Y-114474943D02*
X139250000Y-117250000D01*
X138775057Y-114000000D02*
X139250000Y-114474943D01*
%TD*%
%TA.AperFunction,Conductor*%
%TO.N,GND*%
G36*
X155355635Y-80095002D02*
G01*
X155402128Y-80148658D01*
X155412232Y-80218932D01*
X155382738Y-80283512D01*
X155362373Y-80302351D01*
X155327850Y-80327850D01*
X155247366Y-80436817D01*
X155244245Y-80445704D01*
X155244244Y-80445706D01*
X155227199Y-80494244D01*
X155202481Y-80564632D01*
X155201759Y-80572275D01*
X155201758Y-80572279D01*
X155201194Y-80578249D01*
X155199500Y-80596167D01*
X155199501Y-83603832D01*
X155202481Y-83635368D01*
X155205024Y-83642609D01*
X155205024Y-83642610D01*
X155234717Y-83727163D01*
X155247366Y-83763183D01*
X155327850Y-83872150D01*
X155436817Y-83952634D01*
X155445704Y-83955755D01*
X155445706Y-83955756D01*
X155544000Y-83990274D01*
X155564632Y-83997519D01*
X155572278Y-83998242D01*
X155572279Y-83998242D01*
X155578249Y-83998806D01*
X155596167Y-84000500D01*
X156149719Y-84000500D01*
X156703832Y-84000499D01*
X156706782Y-84000220D01*
X156706787Y-84000220D01*
X156717406Y-83999216D01*
X156735368Y-83997519D01*
X156742609Y-83994976D01*
X156742610Y-83994976D01*
X156854294Y-83955756D01*
X156854296Y-83955755D01*
X156863183Y-83952634D01*
X156972150Y-83872150D01*
X157052634Y-83763183D01*
X157065284Y-83727163D01*
X157094974Y-83642615D01*
X157097519Y-83635368D01*
X157100500Y-83603833D01*
X157100499Y-80596168D01*
X157097519Y-80564632D01*
X157094974Y-80557385D01*
X157055756Y-80445706D01*
X157055755Y-80445704D01*
X157052634Y-80436817D01*
X156972150Y-80327850D01*
X156937627Y-80302351D01*
X156894716Y-80245790D01*
X156889196Y-80175009D01*
X156922820Y-80112479D01*
X156984912Y-80078054D01*
X157012486Y-80075000D01*
X165987514Y-80075000D01*
X166055635Y-80095002D01*
X166102128Y-80148658D01*
X166112232Y-80218932D01*
X166082738Y-80283512D01*
X166062373Y-80302351D01*
X166027850Y-80327850D01*
X165947366Y-80436817D01*
X165944245Y-80445704D01*
X165944244Y-80445706D01*
X165927199Y-80494244D01*
X165902481Y-80564632D01*
X165901759Y-80572275D01*
X165901758Y-80572279D01*
X165901194Y-80578249D01*
X165899500Y-80596167D01*
X165899501Y-83603832D01*
X165902481Y-83635368D01*
X165905024Y-83642609D01*
X165905024Y-83642610D01*
X165934717Y-83727163D01*
X165947366Y-83763183D01*
X166027850Y-83872150D01*
X166136817Y-83952634D01*
X166145704Y-83955755D01*
X166145706Y-83955756D01*
X166244000Y-83990274D01*
X166264632Y-83997519D01*
X166272278Y-83998242D01*
X166272279Y-83998242D01*
X166278249Y-83998806D01*
X166296167Y-84000500D01*
X166849719Y-84000500D01*
X167403832Y-84000499D01*
X167406782Y-84000220D01*
X167406787Y-84000220D01*
X167417406Y-83999216D01*
X167435368Y-83997519D01*
X167442609Y-83994976D01*
X167442610Y-83994976D01*
X167554294Y-83955756D01*
X167554296Y-83955755D01*
X167563183Y-83952634D01*
X167672150Y-83872150D01*
X167752634Y-83763183D01*
X167765284Y-83727163D01*
X167794974Y-83642615D01*
X167797519Y-83635368D01*
X167800500Y-83603833D01*
X167800499Y-80596168D01*
X167797519Y-80564632D01*
X167794974Y-80557385D01*
X167755756Y-80445706D01*
X167755755Y-80445704D01*
X167752634Y-80436817D01*
X167672150Y-80327850D01*
X167637627Y-80302351D01*
X167594716Y-80245790D01*
X167589196Y-80175009D01*
X167622820Y-80112479D01*
X167684912Y-80078054D01*
X167712486Y-80075000D01*
X168374000Y-80075000D01*
X168442121Y-80095002D01*
X168488614Y-80148658D01*
X168500000Y-80201000D01*
X168500000Y-85000000D01*
X173299000Y-85000000D01*
X173367121Y-85020002D01*
X173413614Y-85073658D01*
X173425000Y-85126000D01*
X173425000Y-112211592D01*
X173404998Y-112279713D01*
X173351342Y-112326206D01*
X173281068Y-112336310D01*
X173216488Y-112306816D01*
X173192658Y-112275300D01*
X173191094Y-112276268D01*
X173101937Y-112132193D01*
X173092901Y-112120792D01*
X172978171Y-112006261D01*
X172966760Y-111997249D01*
X172828757Y-111912184D01*
X172815576Y-111906037D01*
X172661290Y-111854862D01*
X172647914Y-111851995D01*
X172553562Y-111842328D01*
X172547145Y-111842000D01*
X172522115Y-111842000D01*
X172506876Y-111846475D01*
X172505671Y-111847865D01*
X172504000Y-111855548D01*
X172504000Y-114639884D01*
X172508475Y-114655123D01*
X172509865Y-114656328D01*
X172517548Y-114657999D01*
X172547095Y-114657999D01*
X172553614Y-114657662D01*
X172649206Y-114647743D01*
X172662600Y-114644851D01*
X172816784Y-114593412D01*
X172829962Y-114587239D01*
X172967807Y-114501937D01*
X172979208Y-114492901D01*
X173093739Y-114378171D01*
X173102751Y-114366760D01*
X173191658Y-114222525D01*
X173194464Y-114224255D01*
X173231687Y-114181952D01*
X173299958Y-114162469D01*
X173367925Y-114182988D01*
X173414008Y-114236996D01*
X173425000Y-114288465D01*
X173425000Y-124874000D01*
X173404998Y-124942121D01*
X173351342Y-124988614D01*
X173299000Y-125000000D01*
X168500000Y-125000000D01*
X168500000Y-129799000D01*
X168479998Y-129867121D01*
X168426342Y-129913614D01*
X168374000Y-129925000D01*
X128626000Y-129925000D01*
X128557879Y-129904998D01*
X128511386Y-129851342D01*
X128500000Y-129799000D01*
X128500000Y-128681105D01*
X129049031Y-128681105D01*
X129088612Y-128845968D01*
X129166375Y-128996631D01*
X129171367Y-129002353D01*
X129171368Y-129002355D01*
X129233808Y-129073931D01*
X129277831Y-129124396D01*
X129284045Y-129128763D01*
X129410330Y-129217518D01*
X129410332Y-129217519D01*
X129416547Y-129221887D01*
X129574513Y-129283476D01*
X129582046Y-129284468D01*
X129582047Y-129284468D01*
X129699739Y-129299962D01*
X129703826Y-129300500D01*
X131292516Y-129300500D01*
X131418320Y-129285276D01*
X131576923Y-129225345D01*
X131716651Y-129129312D01*
X131726132Y-129118671D01*
X131824388Y-129008392D01*
X131824390Y-129008388D01*
X131829440Y-129002721D01*
X131836238Y-128989883D01*
X131905224Y-128859589D01*
X131908776Y-128852881D01*
X131950081Y-128688441D01*
X131950119Y-128681105D01*
X144549031Y-128681105D01*
X144588612Y-128845968D01*
X144666375Y-128996631D01*
X144671367Y-129002353D01*
X144671368Y-129002355D01*
X144733808Y-129073931D01*
X144777831Y-129124396D01*
X144784045Y-129128763D01*
X144910330Y-129217518D01*
X144910332Y-129217519D01*
X144916547Y-129221887D01*
X145074513Y-129283476D01*
X145082046Y-129284468D01*
X145082047Y-129284468D01*
X145199739Y-129299962D01*
X145203826Y-129300500D01*
X146792516Y-129300500D01*
X146918320Y-129285276D01*
X147076923Y-129225345D01*
X147216651Y-129129312D01*
X147226132Y-129118671D01*
X147324388Y-129008392D01*
X147324390Y-129008388D01*
X147329440Y-129002721D01*
X147336238Y-128989883D01*
X147405224Y-128859589D01*
X147408776Y-128852881D01*
X147450081Y-128688441D01*
X147450969Y-128518895D01*
X147411388Y-128354032D01*
X147333625Y-128203369D01*
X147328313Y-128197279D01*
X147227163Y-128081329D01*
X147222169Y-128075604D01*
X147163649Y-128034475D01*
X147089670Y-127982482D01*
X147089668Y-127982481D01*
X147083453Y-127978113D01*
X146925487Y-127916524D01*
X146917954Y-127915532D01*
X146917953Y-127915532D01*
X146800261Y-127900038D01*
X146800260Y-127900038D01*
X146796174Y-127899500D01*
X145207484Y-127899500D01*
X145081680Y-127914724D01*
X144923077Y-127974655D01*
X144783349Y-128070688D01*
X144778297Y-128076358D01*
X144778296Y-128076359D01*
X144675612Y-128191608D01*
X144675610Y-128191612D01*
X144670560Y-128197279D01*
X144667008Y-128203988D01*
X144667007Y-128203989D01*
X144634746Y-128264920D01*
X144591224Y-128347119D01*
X144549919Y-128511559D01*
X144549031Y-128681105D01*
X131950119Y-128681105D01*
X131950969Y-128518895D01*
X131911388Y-128354032D01*
X131833625Y-128203369D01*
X131828313Y-128197279D01*
X131727163Y-128081329D01*
X131722169Y-128075604D01*
X131663649Y-128034475D01*
X131589670Y-127982482D01*
X131589668Y-127982481D01*
X131583453Y-127978113D01*
X131425487Y-127916524D01*
X131417954Y-127915532D01*
X131417953Y-127915532D01*
X131300261Y-127900038D01*
X131300260Y-127900038D01*
X131296174Y-127899500D01*
X129707484Y-127899500D01*
X129581680Y-127914724D01*
X129423077Y-127974655D01*
X129283349Y-128070688D01*
X129278297Y-128076358D01*
X129278296Y-128076359D01*
X129175612Y-128191608D01*
X129175610Y-128191612D01*
X129170560Y-128197279D01*
X129167008Y-128203988D01*
X129167007Y-128203989D01*
X129134746Y-128264920D01*
X129091224Y-128347119D01*
X129049919Y-128511559D01*
X129049031Y-128681105D01*
X128500000Y-128681105D01*
X128500000Y-126141105D01*
X129049031Y-126141105D01*
X129088612Y-126305968D01*
X129166375Y-126456631D01*
X129171367Y-126462353D01*
X129171368Y-126462355D01*
X129233808Y-126533931D01*
X129277831Y-126584396D01*
X129284045Y-126588763D01*
X129410330Y-126677518D01*
X129410332Y-126677519D01*
X129416547Y-126681887D01*
X129574513Y-126743476D01*
X129582046Y-126744468D01*
X129582047Y-126744468D01*
X129699739Y-126759962D01*
X129703826Y-126760500D01*
X131292516Y-126760500D01*
X131418320Y-126745276D01*
X131576923Y-126685345D01*
X131716651Y-126589312D01*
X131726132Y-126578671D01*
X131824388Y-126468392D01*
X131824390Y-126468388D01*
X131829440Y-126462721D01*
X131836238Y-126449883D01*
X131905224Y-126319589D01*
X131908776Y-126312881D01*
X131950081Y-126148441D01*
X131950119Y-126141105D01*
X144549031Y-126141105D01*
X144588612Y-126305968D01*
X144666375Y-126456631D01*
X144671367Y-126462353D01*
X144671368Y-126462355D01*
X144733808Y-126533931D01*
X144777831Y-126584396D01*
X144784045Y-126588763D01*
X144910330Y-126677518D01*
X144910332Y-126677519D01*
X144916547Y-126681887D01*
X145074513Y-126743476D01*
X145082046Y-126744468D01*
X145082047Y-126744468D01*
X145199739Y-126759962D01*
X145203826Y-126760500D01*
X146792516Y-126760500D01*
X146918320Y-126745276D01*
X147076923Y-126685345D01*
X147216651Y-126589312D01*
X147226132Y-126578671D01*
X147324388Y-126468392D01*
X147324390Y-126468388D01*
X147329440Y-126462721D01*
X147336238Y-126449883D01*
X147405224Y-126319589D01*
X147408776Y-126312881D01*
X147450081Y-126148441D01*
X147450969Y-125978895D01*
X147411388Y-125814032D01*
X147333625Y-125663369D01*
X147328313Y-125657279D01*
X147227163Y-125541329D01*
X147222169Y-125535604D01*
X147163649Y-125494475D01*
X147089670Y-125442482D01*
X147089668Y-125442481D01*
X147083453Y-125438113D01*
X146925487Y-125376524D01*
X146917954Y-125375532D01*
X146917953Y-125375532D01*
X146800261Y-125360038D01*
X146800260Y-125360038D01*
X146796174Y-125359500D01*
X145207484Y-125359500D01*
X145081680Y-125374724D01*
X144923077Y-125434655D01*
X144783349Y-125530688D01*
X144778297Y-125536358D01*
X144778296Y-125536359D01*
X144675612Y-125651608D01*
X144675610Y-125651612D01*
X144670560Y-125657279D01*
X144667008Y-125663988D01*
X144667007Y-125663989D01*
X144634746Y-125724920D01*
X144591224Y-125807119D01*
X144549919Y-125971559D01*
X144549031Y-126141105D01*
X131950119Y-126141105D01*
X131950969Y-125978895D01*
X131911388Y-125814032D01*
X131833625Y-125663369D01*
X131828313Y-125657279D01*
X131727163Y-125541329D01*
X131722169Y-125535604D01*
X131663649Y-125494475D01*
X131589670Y-125442482D01*
X131589668Y-125442481D01*
X131583453Y-125438113D01*
X131425487Y-125376524D01*
X131417954Y-125375532D01*
X131417953Y-125375532D01*
X131300261Y-125360038D01*
X131300260Y-125360038D01*
X131296174Y-125359500D01*
X129707484Y-125359500D01*
X129581680Y-125374724D01*
X129423077Y-125434655D01*
X129283349Y-125530688D01*
X129278297Y-125536358D01*
X129278296Y-125536359D01*
X129175612Y-125651608D01*
X129175610Y-125651612D01*
X129170560Y-125657279D01*
X129167008Y-125663988D01*
X129167007Y-125663989D01*
X129134746Y-125724920D01*
X129091224Y-125807119D01*
X129049919Y-125971559D01*
X129049031Y-126141105D01*
X128500000Y-126141105D01*
X128500000Y-125000000D01*
X123701000Y-125000000D01*
X123632879Y-124979998D01*
X123586386Y-124926342D01*
X123575000Y-124874000D01*
X123575000Y-123601105D01*
X129049031Y-123601105D01*
X129088612Y-123765968D01*
X129166375Y-123916631D01*
X129171367Y-123922353D01*
X129171368Y-123922355D01*
X129196244Y-123950871D01*
X129277831Y-124044396D01*
X129284045Y-124048763D01*
X129410330Y-124137518D01*
X129410332Y-124137519D01*
X129416547Y-124141887D01*
X129574513Y-124203476D01*
X129582046Y-124204468D01*
X129582047Y-124204468D01*
X129699739Y-124219962D01*
X129703826Y-124220500D01*
X131292516Y-124220500D01*
X131418320Y-124205276D01*
X131576923Y-124145345D01*
X131716651Y-124049312D01*
X131767166Y-123992616D01*
X131824388Y-123928392D01*
X131824390Y-123928388D01*
X131829440Y-123922721D01*
X131836238Y-123909883D01*
X131905224Y-123779589D01*
X131908776Y-123772881D01*
X131950081Y-123608441D01*
X131950119Y-123601105D01*
X144549031Y-123601105D01*
X144588612Y-123765968D01*
X144666375Y-123916631D01*
X144671367Y-123922353D01*
X144671368Y-123922355D01*
X144696244Y-123950871D01*
X144777831Y-124044396D01*
X144784045Y-124048763D01*
X144910330Y-124137518D01*
X144910332Y-124137519D01*
X144916547Y-124141887D01*
X145074513Y-124203476D01*
X145082046Y-124204468D01*
X145082047Y-124204468D01*
X145199739Y-124219962D01*
X145203826Y-124220500D01*
X146792516Y-124220500D01*
X146918320Y-124205276D01*
X147076923Y-124145345D01*
X147216651Y-124049312D01*
X147267166Y-123992616D01*
X147301720Y-123953834D01*
X161549500Y-123953834D01*
X161552481Y-123985369D01*
X161597366Y-124113184D01*
X161602958Y-124120754D01*
X161602959Y-124120757D01*
X161663404Y-124202592D01*
X161677850Y-124222150D01*
X161685421Y-124227742D01*
X161779243Y-124297041D01*
X161779246Y-124297042D01*
X161786816Y-124302634D01*
X161914631Y-124347519D01*
X161922277Y-124348242D01*
X161922278Y-124348242D01*
X161928248Y-124348806D01*
X161946166Y-124350500D01*
X162553834Y-124350500D01*
X162571752Y-124348806D01*
X162577722Y-124348242D01*
X162577723Y-124348242D01*
X162585369Y-124347519D01*
X162713184Y-124302634D01*
X162720754Y-124297042D01*
X162720757Y-124297041D01*
X162814579Y-124227742D01*
X162822150Y-124222150D01*
X162836596Y-124202592D01*
X162897041Y-124120757D01*
X162897042Y-124120754D01*
X162902634Y-124113184D01*
X162947519Y-123985369D01*
X162950500Y-123953834D01*
X163549500Y-123953834D01*
X163552481Y-123985369D01*
X163597366Y-124113184D01*
X163602958Y-124120754D01*
X163602959Y-124120757D01*
X163663404Y-124202592D01*
X163677850Y-124222150D01*
X163685421Y-124227742D01*
X163779243Y-124297041D01*
X163779246Y-124297042D01*
X163786816Y-124302634D01*
X163914631Y-124347519D01*
X163922277Y-124348242D01*
X163922278Y-124348242D01*
X163928248Y-124348806D01*
X163946166Y-124350500D01*
X164553834Y-124350500D01*
X164571752Y-124348806D01*
X164577722Y-124348242D01*
X164577723Y-124348242D01*
X164585369Y-124347519D01*
X164713184Y-124302634D01*
X164720754Y-124297042D01*
X164720757Y-124297041D01*
X164814579Y-124227742D01*
X164822150Y-124222150D01*
X164836596Y-124202592D01*
X164897041Y-124120757D01*
X164897042Y-124120754D01*
X164902634Y-124113184D01*
X164947519Y-123985369D01*
X164950500Y-123953834D01*
X165549500Y-123953834D01*
X165552481Y-123985369D01*
X165597366Y-124113184D01*
X165602958Y-124120754D01*
X165602959Y-124120757D01*
X165663404Y-124202592D01*
X165677850Y-124222150D01*
X165685421Y-124227742D01*
X165779243Y-124297041D01*
X165779246Y-124297042D01*
X165786816Y-124302634D01*
X165914631Y-124347519D01*
X165922277Y-124348242D01*
X165922278Y-124348242D01*
X165928248Y-124348806D01*
X165946166Y-124350500D01*
X166553834Y-124350500D01*
X166571752Y-124348806D01*
X166577722Y-124348242D01*
X166577723Y-124348242D01*
X166585369Y-124347519D01*
X166713184Y-124302634D01*
X166720754Y-124297042D01*
X166720757Y-124297041D01*
X166814579Y-124227742D01*
X166822150Y-124222150D01*
X166836596Y-124202592D01*
X166897041Y-124120757D01*
X166897042Y-124120754D01*
X166902634Y-124113184D01*
X166947519Y-123985369D01*
X166950500Y-123953834D01*
X167549500Y-123953834D01*
X167552481Y-123985369D01*
X167597366Y-124113184D01*
X167602958Y-124120754D01*
X167602959Y-124120757D01*
X167663404Y-124202592D01*
X167677850Y-124222150D01*
X167685421Y-124227742D01*
X167779243Y-124297041D01*
X167779246Y-124297042D01*
X167786816Y-124302634D01*
X167914631Y-124347519D01*
X167922277Y-124348242D01*
X167922278Y-124348242D01*
X167928248Y-124348806D01*
X167946166Y-124350500D01*
X168553834Y-124350500D01*
X168571752Y-124348806D01*
X168577722Y-124348242D01*
X168577723Y-124348242D01*
X168585369Y-124347519D01*
X168713184Y-124302634D01*
X168720754Y-124297042D01*
X168720757Y-124297041D01*
X168814579Y-124227742D01*
X168822150Y-124222150D01*
X168836596Y-124202592D01*
X168897041Y-124120757D01*
X168897042Y-124120754D01*
X168902634Y-124113184D01*
X168947519Y-123985369D01*
X168950500Y-123953834D01*
X169549500Y-123953834D01*
X169552481Y-123985369D01*
X169597366Y-124113184D01*
X169602958Y-124120754D01*
X169602959Y-124120757D01*
X169663404Y-124202592D01*
X169677850Y-124222150D01*
X169685421Y-124227742D01*
X169779243Y-124297041D01*
X169779246Y-124297042D01*
X169786816Y-124302634D01*
X169914631Y-124347519D01*
X169922277Y-124348242D01*
X169922278Y-124348242D01*
X169928248Y-124348806D01*
X169946166Y-124350500D01*
X170553834Y-124350500D01*
X170571752Y-124348806D01*
X170577722Y-124348242D01*
X170577723Y-124348242D01*
X170585369Y-124347519D01*
X170713184Y-124302634D01*
X170720754Y-124297042D01*
X170720757Y-124297041D01*
X170814579Y-124227742D01*
X170822150Y-124222150D01*
X170836596Y-124202592D01*
X170897041Y-124120757D01*
X170897042Y-124120754D01*
X170902634Y-124113184D01*
X170947519Y-123985369D01*
X170950500Y-123953834D01*
X171549500Y-123953834D01*
X171552481Y-123985369D01*
X171597366Y-124113184D01*
X171602958Y-124120754D01*
X171602959Y-124120757D01*
X171663404Y-124202592D01*
X171677850Y-124222150D01*
X171685421Y-124227742D01*
X171779243Y-124297041D01*
X171779246Y-124297042D01*
X171786816Y-124302634D01*
X171914631Y-124347519D01*
X171922277Y-124348242D01*
X171922278Y-124348242D01*
X171928248Y-124348806D01*
X171946166Y-124350500D01*
X172553834Y-124350500D01*
X172571752Y-124348806D01*
X172577722Y-124348242D01*
X172577723Y-124348242D01*
X172585369Y-124347519D01*
X172713184Y-124302634D01*
X172720754Y-124297042D01*
X172720757Y-124297041D01*
X172814579Y-124227742D01*
X172822150Y-124222150D01*
X172836596Y-124202592D01*
X172897041Y-124120757D01*
X172897042Y-124120754D01*
X172902634Y-124113184D01*
X172947519Y-123985369D01*
X172950500Y-123953834D01*
X172950500Y-122546166D01*
X172947519Y-122514631D01*
X172902634Y-122386816D01*
X172897042Y-122379246D01*
X172897041Y-122379243D01*
X172827742Y-122285421D01*
X172822150Y-122277850D01*
X172805206Y-122265335D01*
X172720757Y-122202959D01*
X172720754Y-122202958D01*
X172713184Y-122197366D01*
X172585369Y-122152481D01*
X172577723Y-122151758D01*
X172577722Y-122151758D01*
X172571752Y-122151194D01*
X172553834Y-122149500D01*
X171946166Y-122149500D01*
X171928248Y-122151194D01*
X171922278Y-122151758D01*
X171922277Y-122151758D01*
X171914631Y-122152481D01*
X171786816Y-122197366D01*
X171779246Y-122202958D01*
X171779243Y-122202959D01*
X171694794Y-122265335D01*
X171677850Y-122277850D01*
X171672258Y-122285421D01*
X171602959Y-122379243D01*
X171602958Y-122379246D01*
X171597366Y-122386816D01*
X171552481Y-122514631D01*
X171549500Y-122546166D01*
X171549500Y-123953834D01*
X170950500Y-123953834D01*
X170950500Y-122546166D01*
X170947519Y-122514631D01*
X170902634Y-122386816D01*
X170897042Y-122379246D01*
X170897041Y-122379243D01*
X170827742Y-122285421D01*
X170822150Y-122277850D01*
X170805206Y-122265335D01*
X170720757Y-122202959D01*
X170720754Y-122202958D01*
X170713184Y-122197366D01*
X170585369Y-122152481D01*
X170577723Y-122151758D01*
X170577722Y-122151758D01*
X170571752Y-122151194D01*
X170553834Y-122149500D01*
X169946166Y-122149500D01*
X169928248Y-122151194D01*
X169922278Y-122151758D01*
X169922277Y-122151758D01*
X169914631Y-122152481D01*
X169786816Y-122197366D01*
X169779246Y-122202958D01*
X169779243Y-122202959D01*
X169694794Y-122265335D01*
X169677850Y-122277850D01*
X169672258Y-122285421D01*
X169602959Y-122379243D01*
X169602958Y-122379246D01*
X169597366Y-122386816D01*
X169552481Y-122514631D01*
X169549500Y-122546166D01*
X169549500Y-123953834D01*
X168950500Y-123953834D01*
X168950500Y-122546166D01*
X168947519Y-122514631D01*
X168902634Y-122386816D01*
X168897042Y-122379246D01*
X168897041Y-122379243D01*
X168827742Y-122285421D01*
X168822150Y-122277850D01*
X168805206Y-122265335D01*
X168720757Y-122202959D01*
X168720754Y-122202958D01*
X168713184Y-122197366D01*
X168585369Y-122152481D01*
X168577723Y-122151758D01*
X168577722Y-122151758D01*
X168571752Y-122151194D01*
X168553834Y-122149500D01*
X167946166Y-122149500D01*
X167928248Y-122151194D01*
X167922278Y-122151758D01*
X167922277Y-122151758D01*
X167914631Y-122152481D01*
X167786816Y-122197366D01*
X167779246Y-122202958D01*
X167779243Y-122202959D01*
X167694794Y-122265335D01*
X167677850Y-122277850D01*
X167672258Y-122285421D01*
X167602959Y-122379243D01*
X167602958Y-122379246D01*
X167597366Y-122386816D01*
X167552481Y-122514631D01*
X167549500Y-122546166D01*
X167549500Y-123953834D01*
X166950500Y-123953834D01*
X166950500Y-122546166D01*
X166947519Y-122514631D01*
X166902634Y-122386816D01*
X166897042Y-122379246D01*
X166897041Y-122379243D01*
X166827742Y-122285421D01*
X166822150Y-122277850D01*
X166805206Y-122265335D01*
X166720757Y-122202959D01*
X166720754Y-122202958D01*
X166713184Y-122197366D01*
X166585369Y-122152481D01*
X166577723Y-122151758D01*
X166577722Y-122151758D01*
X166571752Y-122151194D01*
X166553834Y-122149500D01*
X165946166Y-122149500D01*
X165928248Y-122151194D01*
X165922278Y-122151758D01*
X165922277Y-122151758D01*
X165914631Y-122152481D01*
X165786816Y-122197366D01*
X165779246Y-122202958D01*
X165779243Y-122202959D01*
X165694794Y-122265335D01*
X165677850Y-122277850D01*
X165672258Y-122285421D01*
X165602959Y-122379243D01*
X165602958Y-122379246D01*
X165597366Y-122386816D01*
X165552481Y-122514631D01*
X165549500Y-122546166D01*
X165549500Y-123953834D01*
X164950500Y-123953834D01*
X164950500Y-122546166D01*
X164947519Y-122514631D01*
X164902634Y-122386816D01*
X164897042Y-122379246D01*
X164897041Y-122379243D01*
X164827742Y-122285421D01*
X164822150Y-122277850D01*
X164805206Y-122265335D01*
X164720757Y-122202959D01*
X164720754Y-122202958D01*
X164713184Y-122197366D01*
X164585369Y-122152481D01*
X164577723Y-122151758D01*
X164577722Y-122151758D01*
X164571752Y-122151194D01*
X164553834Y-122149500D01*
X163946166Y-122149500D01*
X163928248Y-122151194D01*
X163922278Y-122151758D01*
X163922277Y-122151758D01*
X163914631Y-122152481D01*
X163786816Y-122197366D01*
X163779246Y-122202958D01*
X163779243Y-122202959D01*
X163694794Y-122265335D01*
X163677850Y-122277850D01*
X163672258Y-122285421D01*
X163602959Y-122379243D01*
X163602958Y-122379246D01*
X163597366Y-122386816D01*
X163552481Y-122514631D01*
X163549500Y-122546166D01*
X163549500Y-123953834D01*
X162950500Y-123953834D01*
X162950500Y-122546166D01*
X162947519Y-122514631D01*
X162902634Y-122386816D01*
X162897042Y-122379246D01*
X162897041Y-122379243D01*
X162827742Y-122285421D01*
X162822150Y-122277850D01*
X162805206Y-122265335D01*
X162720757Y-122202959D01*
X162720754Y-122202958D01*
X162713184Y-122197366D01*
X162585369Y-122152481D01*
X162577723Y-122151758D01*
X162577722Y-122151758D01*
X162571752Y-122151194D01*
X162553834Y-122149500D01*
X161946166Y-122149500D01*
X161928248Y-122151194D01*
X161922278Y-122151758D01*
X161922277Y-122151758D01*
X161914631Y-122152481D01*
X161786816Y-122197366D01*
X161779246Y-122202958D01*
X161779243Y-122202959D01*
X161694794Y-122265335D01*
X161677850Y-122277850D01*
X161672258Y-122285421D01*
X161602959Y-122379243D01*
X161602958Y-122379246D01*
X161597366Y-122386816D01*
X161552481Y-122514631D01*
X161549500Y-122546166D01*
X161549500Y-123953834D01*
X147301720Y-123953834D01*
X147324388Y-123928392D01*
X147324390Y-123928388D01*
X147329440Y-123922721D01*
X147336238Y-123909883D01*
X147405224Y-123779589D01*
X147408776Y-123772881D01*
X147450081Y-123608441D01*
X147450969Y-123438895D01*
X147411388Y-123274032D01*
X147333625Y-123123369D01*
X147328313Y-123117279D01*
X147227163Y-123001329D01*
X147222169Y-122995604D01*
X147163649Y-122954475D01*
X147089670Y-122902482D01*
X147089668Y-122902481D01*
X147083453Y-122898113D01*
X146925487Y-122836524D01*
X146917954Y-122835532D01*
X146917953Y-122835532D01*
X146800261Y-122820038D01*
X146800260Y-122820038D01*
X146796174Y-122819500D01*
X145207484Y-122819500D01*
X145081680Y-122834724D01*
X144923077Y-122894655D01*
X144783349Y-122990688D01*
X144778297Y-122996358D01*
X144778296Y-122996359D01*
X144675612Y-123111608D01*
X144675610Y-123111612D01*
X144670560Y-123117279D01*
X144667008Y-123123988D01*
X144667007Y-123123989D01*
X144634746Y-123184920D01*
X144591224Y-123267119D01*
X144549919Y-123431559D01*
X144549031Y-123601105D01*
X131950119Y-123601105D01*
X131950969Y-123438895D01*
X131911388Y-123274032D01*
X131833625Y-123123369D01*
X131828313Y-123117279D01*
X131727163Y-123001329D01*
X131722169Y-122995604D01*
X131663649Y-122954475D01*
X131589670Y-122902482D01*
X131589668Y-122902481D01*
X131583453Y-122898113D01*
X131425487Y-122836524D01*
X131417954Y-122835532D01*
X131417953Y-122835532D01*
X131300261Y-122820038D01*
X131300260Y-122820038D01*
X131296174Y-122819500D01*
X129707484Y-122819500D01*
X129581680Y-122834724D01*
X129423077Y-122894655D01*
X129283349Y-122990688D01*
X129278297Y-122996358D01*
X129278296Y-122996359D01*
X129175612Y-123111608D01*
X129175610Y-123111612D01*
X129170560Y-123117279D01*
X129167008Y-123123988D01*
X129167007Y-123123989D01*
X129134746Y-123184920D01*
X129091224Y-123267119D01*
X129049919Y-123431559D01*
X129049031Y-123601105D01*
X123575000Y-123601105D01*
X123575000Y-121245768D01*
X128777425Y-121245768D01*
X128809138Y-121353521D01*
X128813731Y-121364889D01*
X128899607Y-121529154D01*
X128906321Y-121539415D01*
X129022468Y-121683873D01*
X129031046Y-121692632D01*
X129173039Y-121811778D01*
X129183159Y-121818708D01*
X129345585Y-121908002D01*
X129356858Y-121912834D01*
X129533538Y-121968880D01*
X129545532Y-121971430D01*
X129689761Y-121987607D01*
X129696785Y-121988000D01*
X130227885Y-121988000D01*
X130243124Y-121983525D01*
X130244329Y-121982135D01*
X130246000Y-121974452D01*
X130246000Y-121252115D01*
X130241525Y-121236876D01*
X130240135Y-121235671D01*
X130232452Y-121234000D01*
X128792076Y-121234000D01*
X128778545Y-121237973D01*
X128777425Y-121245768D01*
X123575000Y-121245768D01*
X123575000Y-120722795D01*
X128778544Y-120722795D01*
X128785299Y-120726000D01*
X130227885Y-120726000D01*
X130243124Y-120721525D01*
X130244329Y-120720135D01*
X130246000Y-120712452D01*
X130246000Y-119990115D01*
X130241525Y-119974876D01*
X130240135Y-119973671D01*
X130232452Y-119972000D01*
X129703343Y-119972000D01*
X129697195Y-119972301D01*
X129559397Y-119985812D01*
X129547362Y-119988195D01*
X129369924Y-120041767D01*
X129358584Y-120046441D01*
X129194923Y-120133460D01*
X129184706Y-120140249D01*
X129041067Y-120257397D01*
X129032363Y-120266041D01*
X128914216Y-120408856D01*
X128907356Y-120419027D01*
X128819196Y-120582076D01*
X128814444Y-120593381D01*
X128778750Y-120708692D01*
X128778544Y-120722795D01*
X123575000Y-120722795D01*
X123575000Y-117549679D01*
X128499159Y-117549679D01*
X128500237Y-117557867D01*
X128513927Y-117661850D01*
X128519797Y-117706441D01*
X128580305Y-117852520D01*
X128676559Y-117977961D01*
X128802000Y-118074215D01*
X128948079Y-118134723D01*
X128958207Y-118136056D01*
X128959168Y-118136183D01*
X128961434Y-118137185D01*
X128964243Y-118137938D01*
X128964126Y-118138376D01*
X129024096Y-118164903D01*
X129063189Y-118224167D01*
X129064929Y-118291800D01*
X129051770Y-118344188D01*
X129049919Y-118351559D01*
X129049031Y-118521105D01*
X129088612Y-118685968D01*
X129092093Y-118692712D01*
X129092094Y-118692715D01*
X129162892Y-118829883D01*
X129166375Y-118836631D01*
X129171367Y-118842353D01*
X129171368Y-118842355D01*
X129229883Y-118909432D01*
X129277831Y-118964396D01*
X129300880Y-118980595D01*
X129410330Y-119057518D01*
X129410332Y-119057519D01*
X129416547Y-119061887D01*
X129574513Y-119123476D01*
X129582046Y-119124468D01*
X129582047Y-119124468D01*
X129699739Y-119139962D01*
X129703826Y-119140500D01*
X131292516Y-119140500D01*
X131418320Y-119125276D01*
X131576923Y-119065345D01*
X131588311Y-119057518D01*
X131710392Y-118973614D01*
X131710393Y-118973613D01*
X131716651Y-118969312D01*
X131726132Y-118958671D01*
X131824388Y-118848392D01*
X131824390Y-118848388D01*
X131829440Y-118842721D01*
X131834830Y-118832541D01*
X131836833Y-118830486D01*
X131837332Y-118829768D01*
X131837452Y-118829851D01*
X131884383Y-118781698D01*
X131946185Y-118765500D01*
X134219984Y-118765500D01*
X134288105Y-118785502D01*
X134334598Y-118839158D01*
X134344702Y-118909432D01*
X134315208Y-118974012D01*
X134309079Y-118980595D01*
X133172383Y-120117291D01*
X133110071Y-120151317D01*
X133066843Y-120153118D01*
X133000000Y-120144318D01*
X132843238Y-120164956D01*
X132697159Y-120225464D01*
X132571718Y-120321718D01*
X132475464Y-120447159D01*
X132469595Y-120461329D01*
X132416598Y-120589273D01*
X132372049Y-120644554D01*
X132304686Y-120666975D01*
X132235895Y-120649417D01*
X132188527Y-120599430D01*
X132100393Y-120430846D01*
X132093679Y-120420585D01*
X131977532Y-120276127D01*
X131968954Y-120267368D01*
X131826961Y-120148222D01*
X131816841Y-120141292D01*
X131654415Y-120051998D01*
X131643142Y-120047166D01*
X131466462Y-119991120D01*
X131454468Y-119988570D01*
X131310239Y-119972393D01*
X131303215Y-119972000D01*
X130772115Y-119972000D01*
X130756876Y-119976475D01*
X130755671Y-119977865D01*
X130754000Y-119985548D01*
X130754000Y-121969885D01*
X130758475Y-121985124D01*
X130759865Y-121986329D01*
X130767548Y-121988000D01*
X131296657Y-121988000D01*
X131302805Y-121987699D01*
X131440603Y-121974188D01*
X131452638Y-121971805D01*
X131630076Y-121918233D01*
X131641416Y-121913559D01*
X131805077Y-121826540D01*
X131815294Y-121819751D01*
X131958933Y-121702603D01*
X131967637Y-121693959D01*
X132085784Y-121551144D01*
X132092644Y-121540973D01*
X132180804Y-121377924D01*
X132185556Y-121366619D01*
X132240367Y-121189554D01*
X132242833Y-121177541D01*
X132249405Y-121115012D01*
X132276418Y-121049356D01*
X132334640Y-121008726D01*
X132405585Y-121006023D01*
X132466729Y-121042105D01*
X132474967Y-121053222D01*
X132475464Y-121052841D01*
X132571718Y-121178282D01*
X132697159Y-121274536D01*
X132843238Y-121335044D01*
X133000000Y-121355682D01*
X133008188Y-121354604D01*
X133016446Y-121354604D01*
X133016446Y-121357269D01*
X133073553Y-121366178D01*
X133126648Y-121413309D01*
X133145834Y-121481665D01*
X133145396Y-121487788D01*
X133145396Y-121491812D01*
X133144318Y-121500000D01*
X133164956Y-121656762D01*
X133225464Y-121802841D01*
X133321718Y-121928282D01*
X133447159Y-122024536D01*
X133593238Y-122085044D01*
X133750000Y-122105682D01*
X133758188Y-122104604D01*
X133898574Y-122086122D01*
X133906762Y-122085044D01*
X134052841Y-122024536D01*
X134178282Y-121928282D01*
X134274536Y-121802841D01*
X134335044Y-121656762D01*
X134355682Y-121500000D01*
X134335044Y-121343238D01*
X134274536Y-121197159D01*
X134228324Y-121136934D01*
X134202724Y-121070713D01*
X134204695Y-121061105D01*
X144549031Y-121061105D01*
X144550805Y-121068492D01*
X144550805Y-121068496D01*
X144551579Y-121071718D01*
X144588612Y-121225968D01*
X144592093Y-121232712D01*
X144592094Y-121232715D01*
X144660314Y-121364889D01*
X144666375Y-121376631D01*
X144671367Y-121382353D01*
X144671368Y-121382355D01*
X144698371Y-121413309D01*
X144777831Y-121504396D01*
X144784045Y-121508763D01*
X144910330Y-121597518D01*
X144910332Y-121597519D01*
X144916547Y-121601887D01*
X145074513Y-121663476D01*
X145082046Y-121664468D01*
X145082047Y-121664468D01*
X145199739Y-121679962D01*
X145203826Y-121680500D01*
X146792516Y-121680500D01*
X146918320Y-121665276D01*
X147076923Y-121605345D01*
X147088311Y-121597518D01*
X147210392Y-121513614D01*
X147210393Y-121513613D01*
X147216651Y-121509312D01*
X147232243Y-121491812D01*
X147324388Y-121388392D01*
X147324390Y-121388388D01*
X147329440Y-121382721D01*
X147336238Y-121369883D01*
X147386721Y-121274536D01*
X147408776Y-121232881D01*
X147450081Y-121068441D01*
X147450969Y-120898895D01*
X147411388Y-120734032D01*
X147407243Y-120726000D01*
X147337108Y-120590117D01*
X147337108Y-120590116D01*
X147333625Y-120583369D01*
X147328313Y-120577279D01*
X147227163Y-120461329D01*
X147222169Y-120455604D01*
X147155653Y-120408856D01*
X147089670Y-120362482D01*
X147089668Y-120362481D01*
X147083453Y-120358113D01*
X146925487Y-120296524D01*
X146917954Y-120295532D01*
X146917953Y-120295532D01*
X146800261Y-120280038D01*
X146800260Y-120280038D01*
X146796174Y-120279500D01*
X145207484Y-120279500D01*
X145081680Y-120294724D01*
X144923077Y-120354655D01*
X144916819Y-120358956D01*
X144829416Y-120419027D01*
X144783349Y-120450688D01*
X144778297Y-120456358D01*
X144778296Y-120456359D01*
X144675612Y-120571608D01*
X144675610Y-120571612D01*
X144670560Y-120577279D01*
X144667008Y-120583988D01*
X144667007Y-120583989D01*
X144647118Y-120621554D01*
X144591224Y-120727119D01*
X144549919Y-120891559D01*
X144549031Y-121061105D01*
X134204695Y-121061105D01*
X134216989Y-121001165D01*
X134239192Y-120971135D01*
X134250298Y-120960029D01*
X134250300Y-120960026D01*
X135398402Y-119811925D01*
X135460714Y-119777899D01*
X135487497Y-119775020D01*
X138302205Y-119775020D01*
X138313187Y-119775500D01*
X138339735Y-119777823D01*
X138339737Y-119777823D01*
X138350722Y-119778784D01*
X138387130Y-119769028D01*
X138397857Y-119766650D01*
X138401216Y-119766058D01*
X138434960Y-119760108D01*
X138444505Y-119754597D01*
X138447781Y-119753405D01*
X138450949Y-119751928D01*
X138461599Y-119749074D01*
X138492459Y-119727465D01*
X138501730Y-119721559D01*
X138524821Y-119708227D01*
X138534370Y-119702714D01*
X138558594Y-119673845D01*
X138566021Y-119665740D01*
X139261016Y-118970746D01*
X139710657Y-118521105D01*
X144549031Y-118521105D01*
X144588612Y-118685968D01*
X144592093Y-118692712D01*
X144592094Y-118692715D01*
X144662892Y-118829883D01*
X144666375Y-118836631D01*
X144671367Y-118842353D01*
X144671368Y-118842355D01*
X144729883Y-118909432D01*
X144777831Y-118964396D01*
X144800880Y-118980595D01*
X144910330Y-119057518D01*
X144910332Y-119057519D01*
X144916547Y-119061887D01*
X145074513Y-119123476D01*
X145082046Y-119124468D01*
X145082047Y-119124468D01*
X145199739Y-119139962D01*
X145203826Y-119140500D01*
X146792516Y-119140500D01*
X146918320Y-119125276D01*
X147076923Y-119065345D01*
X147088311Y-119057518D01*
X147210392Y-118973614D01*
X147210393Y-118973613D01*
X147216651Y-118969312D01*
X147226132Y-118958671D01*
X147324388Y-118848392D01*
X147324390Y-118848388D01*
X147329440Y-118842721D01*
X147336238Y-118829883D01*
X147405224Y-118699589D01*
X147408776Y-118692881D01*
X147450081Y-118528441D01*
X147450969Y-118358895D01*
X147447439Y-118344188D01*
X147413161Y-118201417D01*
X147411388Y-118194032D01*
X147396354Y-118164903D01*
X147337108Y-118050117D01*
X147337108Y-118050116D01*
X147333625Y-118043369D01*
X147328313Y-118037279D01*
X147227163Y-117921329D01*
X147222169Y-117915604D01*
X147146759Y-117862605D01*
X147089670Y-117822482D01*
X147089668Y-117822481D01*
X147083453Y-117818113D01*
X146925487Y-117756524D01*
X146917954Y-117755532D01*
X146917953Y-117755532D01*
X146800261Y-117740038D01*
X146800260Y-117740038D01*
X146796174Y-117739500D01*
X145207484Y-117739500D01*
X145081680Y-117754724D01*
X144923077Y-117814655D01*
X144916819Y-117818956D01*
X144858455Y-117859069D01*
X144783349Y-117910688D01*
X144778297Y-117916358D01*
X144778296Y-117916359D01*
X144675612Y-118031608D01*
X144675610Y-118031612D01*
X144670560Y-118037279D01*
X144667008Y-118043988D01*
X144667007Y-118043989D01*
X144661091Y-118055163D01*
X144591224Y-118187119D01*
X144549919Y-118351559D01*
X144549031Y-118521105D01*
X139710657Y-118521105D01*
X140365268Y-117866495D01*
X140373372Y-117859069D01*
X140393789Y-117841937D01*
X140402234Y-117834851D01*
X140421079Y-117802211D01*
X140426983Y-117792943D01*
X140442271Y-117771109D01*
X140448593Y-117762080D01*
X140451446Y-117751434D01*
X140452923Y-117748266D01*
X140454116Y-117744989D01*
X140459628Y-117735441D01*
X140466172Y-117698327D01*
X140468552Y-117687592D01*
X140475450Y-117661850D01*
X140478303Y-117651203D01*
X140475019Y-117613665D01*
X140474540Y-117602684D01*
X140474540Y-117073278D01*
X140494542Y-117005157D01*
X140548198Y-116958664D01*
X140618472Y-116948560D01*
X140648757Y-116956869D01*
X140716778Y-116985044D01*
X140873540Y-117005682D01*
X140940383Y-116996882D01*
X141010530Y-117007821D01*
X141045923Y-117032709D01*
X141229429Y-117216215D01*
X141236856Y-117224319D01*
X141261085Y-117253194D01*
X141270634Y-117258707D01*
X141293725Y-117272039D01*
X141302996Y-117277945D01*
X141333856Y-117299554D01*
X141344507Y-117302408D01*
X141347680Y-117303888D01*
X141350952Y-117305079D01*
X141360495Y-117310588D01*
X141397616Y-117317134D01*
X141408323Y-117319508D01*
X141444733Y-117329263D01*
X141455708Y-117328303D01*
X141455710Y-117328303D01*
X141482271Y-117325979D01*
X141493252Y-117325500D01*
X146905214Y-117325500D01*
X146973335Y-117345502D01*
X147005177Y-117374796D01*
X147046218Y-117428282D01*
X147171659Y-117524536D01*
X147317738Y-117585044D01*
X147474500Y-117605682D01*
X147482688Y-117604604D01*
X147540037Y-117597054D01*
X147631262Y-117585044D01*
X147777341Y-117524536D01*
X147902782Y-117428282D01*
X147999036Y-117302841D01*
X148059544Y-117156762D01*
X148080182Y-117000000D01*
X148059544Y-116843238D01*
X147999036Y-116697159D01*
X147902782Y-116571718D01*
X147777341Y-116475464D01*
X147748578Y-116463550D01*
X147693297Y-116419003D01*
X147670875Y-116351640D01*
X147680640Y-116298315D01*
X147685556Y-116286620D01*
X147721250Y-116171308D01*
X147721456Y-116157205D01*
X147714701Y-116154000D01*
X144292076Y-116154000D01*
X144278545Y-116157973D01*
X144277425Y-116165768D01*
X144309138Y-116273521D01*
X144313731Y-116284889D01*
X144399607Y-116449154D01*
X144406325Y-116459421D01*
X144414468Y-116469549D01*
X144441564Y-116535172D01*
X144428880Y-116605026D01*
X144380444Y-116656934D01*
X144316271Y-116674500D01*
X141660556Y-116674500D01*
X141592435Y-116654498D01*
X141571461Y-116637595D01*
X141506249Y-116572383D01*
X141472223Y-116510071D01*
X141470422Y-116466842D01*
X141470856Y-116463550D01*
X141479222Y-116400000D01*
X141458584Y-116243238D01*
X141398076Y-116097159D01*
X141301822Y-115971718D01*
X141176381Y-115875464D01*
X141030302Y-115814956D01*
X140873540Y-115794318D01*
X140716778Y-115814956D01*
X140709149Y-115818116D01*
X140648758Y-115843131D01*
X140578169Y-115850720D01*
X140514682Y-115818941D01*
X140478454Y-115757883D01*
X140474540Y-115726722D01*
X140474540Y-115642795D01*
X144278544Y-115642795D01*
X144285299Y-115646000D01*
X145727885Y-115646000D01*
X145743124Y-115641525D01*
X145744329Y-115640135D01*
X145746000Y-115632452D01*
X145746000Y-115627885D01*
X146254000Y-115627885D01*
X146258475Y-115643124D01*
X146259865Y-115644329D01*
X146267548Y-115646000D01*
X147707924Y-115646000D01*
X147721455Y-115642027D01*
X147722575Y-115634232D01*
X147690862Y-115526479D01*
X147686269Y-115515111D01*
X147600393Y-115350846D01*
X147593679Y-115340585D01*
X147477532Y-115196127D01*
X147468954Y-115187368D01*
X147326961Y-115068222D01*
X147316841Y-115061292D01*
X147154415Y-114971998D01*
X147143142Y-114967166D01*
X146966462Y-114911120D01*
X146954468Y-114908570D01*
X146810239Y-114892393D01*
X146803215Y-114892000D01*
X146272115Y-114892000D01*
X146256876Y-114896475D01*
X146255671Y-114897865D01*
X146254000Y-114905548D01*
X146254000Y-115627885D01*
X145746000Y-115627885D01*
X145746000Y-114910115D01*
X145741525Y-114894876D01*
X145740135Y-114893671D01*
X145732452Y-114892000D01*
X145203343Y-114892000D01*
X145197195Y-114892301D01*
X145059397Y-114905812D01*
X145047362Y-114908195D01*
X144869924Y-114961767D01*
X144858584Y-114966441D01*
X144694923Y-115053460D01*
X144684706Y-115060249D01*
X144541067Y-115177397D01*
X144532363Y-115186041D01*
X144414216Y-115328856D01*
X144407356Y-115339027D01*
X144319196Y-115502076D01*
X144314444Y-115513381D01*
X144278750Y-115628692D01*
X144278544Y-115642795D01*
X140474540Y-115642795D01*
X140474540Y-114122258D01*
X140475020Y-114111276D01*
X140477343Y-114084728D01*
X140477343Y-114084726D01*
X140478304Y-114073741D01*
X140468548Y-114037333D01*
X140466170Y-114026606D01*
X140462922Y-114008188D01*
X140459628Y-113989503D01*
X140454117Y-113979958D01*
X140452925Y-113976682D01*
X140451448Y-113973514D01*
X140448594Y-113962864D01*
X140442271Y-113953834D01*
X161549500Y-113953834D01*
X161549778Y-113956773D01*
X161549778Y-113956777D01*
X161551660Y-113976682D01*
X161552481Y-113985369D01*
X161597366Y-114113184D01*
X161602958Y-114120754D01*
X161602959Y-114120757D01*
X161635188Y-114164391D01*
X161677850Y-114222150D01*
X161685421Y-114227742D01*
X161779243Y-114297041D01*
X161779246Y-114297042D01*
X161786816Y-114302634D01*
X161914631Y-114347519D01*
X161922277Y-114348242D01*
X161922278Y-114348242D01*
X161928248Y-114348806D01*
X161946166Y-114350500D01*
X162553834Y-114350500D01*
X162571752Y-114348806D01*
X162577722Y-114348242D01*
X162577723Y-114348242D01*
X162585369Y-114347519D01*
X162713184Y-114302634D01*
X162720754Y-114297042D01*
X162720757Y-114297041D01*
X162814579Y-114227742D01*
X162822150Y-114222150D01*
X162864812Y-114164391D01*
X162897041Y-114120757D01*
X162897042Y-114120754D01*
X162902634Y-114113184D01*
X162947519Y-113985369D01*
X162948340Y-113976682D01*
X162950222Y-113956777D01*
X162950222Y-113956773D01*
X162950500Y-113953834D01*
X163549500Y-113953834D01*
X163549778Y-113956773D01*
X163549778Y-113956777D01*
X163551660Y-113976682D01*
X163552481Y-113985369D01*
X163597366Y-114113184D01*
X163602958Y-114120754D01*
X163602959Y-114120757D01*
X163635188Y-114164391D01*
X163677850Y-114222150D01*
X163685421Y-114227742D01*
X163779243Y-114297041D01*
X163779246Y-114297042D01*
X163786816Y-114302634D01*
X163914631Y-114347519D01*
X163922277Y-114348242D01*
X163922278Y-114348242D01*
X163928248Y-114348806D01*
X163946166Y-114350500D01*
X164553834Y-114350500D01*
X164571752Y-114348806D01*
X164577722Y-114348242D01*
X164577723Y-114348242D01*
X164585369Y-114347519D01*
X164713184Y-114302634D01*
X164720754Y-114297042D01*
X164720757Y-114297041D01*
X164814579Y-114227742D01*
X164822150Y-114222150D01*
X164864812Y-114164391D01*
X164897041Y-114120757D01*
X164897042Y-114120754D01*
X164902634Y-114113184D01*
X164947519Y-113985369D01*
X164948340Y-113976682D01*
X164950222Y-113956777D01*
X164950222Y-113956773D01*
X164950500Y-113953834D01*
X165549500Y-113953834D01*
X165549778Y-113956773D01*
X165549778Y-113956777D01*
X165551660Y-113976682D01*
X165552481Y-113985369D01*
X165597366Y-114113184D01*
X165602958Y-114120754D01*
X165602959Y-114120757D01*
X165635188Y-114164391D01*
X165677850Y-114222150D01*
X165685421Y-114227742D01*
X165779243Y-114297041D01*
X165779246Y-114297042D01*
X165786816Y-114302634D01*
X165914631Y-114347519D01*
X165922277Y-114348242D01*
X165922278Y-114348242D01*
X165928248Y-114348806D01*
X165946166Y-114350500D01*
X166553834Y-114350500D01*
X166571752Y-114348806D01*
X166577722Y-114348242D01*
X166577723Y-114348242D01*
X166585369Y-114347519D01*
X166713184Y-114302634D01*
X166720754Y-114297042D01*
X166720757Y-114297041D01*
X166814579Y-114227742D01*
X166822150Y-114222150D01*
X166864812Y-114164391D01*
X166897041Y-114120757D01*
X166897042Y-114120754D01*
X166902634Y-114113184D01*
X166947519Y-113985369D01*
X166948340Y-113976682D01*
X166950222Y-113956777D01*
X166950222Y-113956773D01*
X166950500Y-113953834D01*
X166950500Y-113947095D01*
X167242001Y-113947095D01*
X167242338Y-113953614D01*
X167252257Y-114049206D01*
X167255149Y-114062600D01*
X167306588Y-114216784D01*
X167312761Y-114229962D01*
X167398063Y-114367807D01*
X167407099Y-114379208D01*
X167521829Y-114493739D01*
X167533240Y-114502751D01*
X167671243Y-114587816D01*
X167684424Y-114593963D01*
X167838710Y-114645138D01*
X167852086Y-114648005D01*
X167946438Y-114657672D01*
X167952854Y-114658000D01*
X167977885Y-114658000D01*
X167993124Y-114653525D01*
X167994329Y-114652135D01*
X167996000Y-114644452D01*
X167996000Y-114639884D01*
X168504000Y-114639884D01*
X168508475Y-114655123D01*
X168509865Y-114656328D01*
X168517548Y-114657999D01*
X168547095Y-114657999D01*
X168553614Y-114657662D01*
X168649206Y-114647743D01*
X168662600Y-114644851D01*
X168816784Y-114593412D01*
X168829962Y-114587239D01*
X168967807Y-114501937D01*
X168979208Y-114492901D01*
X169093739Y-114378171D01*
X169102751Y-114366760D01*
X169187816Y-114228757D01*
X169193963Y-114215576D01*
X169245138Y-114061290D01*
X169248005Y-114047914D01*
X169257644Y-113953834D01*
X169549500Y-113953834D01*
X169549778Y-113956773D01*
X169549778Y-113956777D01*
X169551660Y-113976682D01*
X169552481Y-113985369D01*
X169597366Y-114113184D01*
X169602958Y-114120754D01*
X169602959Y-114120757D01*
X169635188Y-114164391D01*
X169677850Y-114222150D01*
X169685421Y-114227742D01*
X169779243Y-114297041D01*
X169779246Y-114297042D01*
X169786816Y-114302634D01*
X169914631Y-114347519D01*
X169922277Y-114348242D01*
X169922278Y-114348242D01*
X169928248Y-114348806D01*
X169946166Y-114350500D01*
X170553834Y-114350500D01*
X170571752Y-114348806D01*
X170577722Y-114348242D01*
X170577723Y-114348242D01*
X170585369Y-114347519D01*
X170713184Y-114302634D01*
X170720754Y-114297042D01*
X170720757Y-114297041D01*
X170814579Y-114227742D01*
X170822150Y-114222150D01*
X170864812Y-114164391D01*
X170897041Y-114120757D01*
X170897042Y-114120754D01*
X170902634Y-114113184D01*
X170947519Y-113985369D01*
X170948340Y-113976682D01*
X170950222Y-113956777D01*
X170950222Y-113956773D01*
X170950500Y-113953834D01*
X170950500Y-113947095D01*
X171242001Y-113947095D01*
X171242338Y-113953614D01*
X171252257Y-114049206D01*
X171255149Y-114062600D01*
X171306588Y-114216784D01*
X171312761Y-114229962D01*
X171398063Y-114367807D01*
X171407099Y-114379208D01*
X171521829Y-114493739D01*
X171533240Y-114502751D01*
X171671243Y-114587816D01*
X171684424Y-114593963D01*
X171838710Y-114645138D01*
X171852086Y-114648005D01*
X171946438Y-114657672D01*
X171952854Y-114658000D01*
X171977885Y-114658000D01*
X171993124Y-114653525D01*
X171994329Y-114652135D01*
X171996000Y-114644452D01*
X171996000Y-113522115D01*
X171991525Y-113506876D01*
X171990135Y-113505671D01*
X171982452Y-113504000D01*
X171260116Y-113504000D01*
X171244877Y-113508475D01*
X171243672Y-113509865D01*
X171242001Y-113517548D01*
X171242001Y-113947095D01*
X170950500Y-113947095D01*
X170950500Y-112977885D01*
X171242000Y-112977885D01*
X171246475Y-112993124D01*
X171247865Y-112994329D01*
X171255548Y-112996000D01*
X171977885Y-112996000D01*
X171993124Y-112991525D01*
X171994329Y-112990135D01*
X171996000Y-112982452D01*
X171996000Y-111860116D01*
X171991525Y-111844877D01*
X171990135Y-111843672D01*
X171982452Y-111842001D01*
X171952905Y-111842001D01*
X171946386Y-111842338D01*
X171850794Y-111852257D01*
X171837400Y-111855149D01*
X171683216Y-111906588D01*
X171670038Y-111912761D01*
X171532193Y-111998063D01*
X171520792Y-112007099D01*
X171406261Y-112121829D01*
X171397249Y-112133240D01*
X171312184Y-112271243D01*
X171306037Y-112284424D01*
X171254862Y-112438710D01*
X171251995Y-112452086D01*
X171242328Y-112546438D01*
X171242000Y-112552855D01*
X171242000Y-112977885D01*
X170950500Y-112977885D01*
X170950500Y-112546166D01*
X170947519Y-112514631D01*
X170902634Y-112386816D01*
X170897042Y-112379246D01*
X170897041Y-112379243D01*
X170827742Y-112285421D01*
X170822150Y-112277850D01*
X170805206Y-112265335D01*
X170720757Y-112202959D01*
X170720754Y-112202958D01*
X170713184Y-112197366D01*
X170585369Y-112152481D01*
X170577723Y-112151758D01*
X170577722Y-112151758D01*
X170571752Y-112151194D01*
X170553834Y-112149500D01*
X169946166Y-112149500D01*
X169928248Y-112151194D01*
X169922278Y-112151758D01*
X169922277Y-112151758D01*
X169914631Y-112152481D01*
X169786816Y-112197366D01*
X169779246Y-112202958D01*
X169779243Y-112202959D01*
X169694794Y-112265335D01*
X169677850Y-112277850D01*
X169672258Y-112285421D01*
X169602959Y-112379243D01*
X169602958Y-112379246D01*
X169597366Y-112386816D01*
X169552481Y-112514631D01*
X169549500Y-112546166D01*
X169549500Y-113953834D01*
X169257644Y-113953834D01*
X169257672Y-113953562D01*
X169258000Y-113947146D01*
X169258000Y-113522115D01*
X169253525Y-113506876D01*
X169252135Y-113505671D01*
X169244452Y-113504000D01*
X168522115Y-113504000D01*
X168506876Y-113508475D01*
X168505671Y-113509865D01*
X168504000Y-113517548D01*
X168504000Y-114639884D01*
X167996000Y-114639884D01*
X167996000Y-113522115D01*
X167991525Y-113506876D01*
X167990135Y-113505671D01*
X167982452Y-113504000D01*
X167260116Y-113504000D01*
X167244877Y-113508475D01*
X167243672Y-113509865D01*
X167242001Y-113517548D01*
X167242001Y-113947095D01*
X166950500Y-113947095D01*
X166950500Y-112977885D01*
X167242000Y-112977885D01*
X167246475Y-112993124D01*
X167247865Y-112994329D01*
X167255548Y-112996000D01*
X167977885Y-112996000D01*
X167993124Y-112991525D01*
X167994329Y-112990135D01*
X167996000Y-112982452D01*
X167996000Y-112977885D01*
X168504000Y-112977885D01*
X168508475Y-112993124D01*
X168509865Y-112994329D01*
X168517548Y-112996000D01*
X169239884Y-112996000D01*
X169255123Y-112991525D01*
X169256328Y-112990135D01*
X169257999Y-112982452D01*
X169257999Y-112552905D01*
X169257662Y-112546386D01*
X169247743Y-112450794D01*
X169244851Y-112437400D01*
X169193412Y-112283216D01*
X169187239Y-112270038D01*
X169101937Y-112132193D01*
X169092901Y-112120792D01*
X168978171Y-112006261D01*
X168966760Y-111997249D01*
X168828757Y-111912184D01*
X168815576Y-111906037D01*
X168661290Y-111854862D01*
X168647914Y-111851995D01*
X168553562Y-111842328D01*
X168547145Y-111842000D01*
X168522115Y-111842000D01*
X168506876Y-111846475D01*
X168505671Y-111847865D01*
X168504000Y-111855548D01*
X168504000Y-112977885D01*
X167996000Y-112977885D01*
X167996000Y-111860116D01*
X167991525Y-111844877D01*
X167990135Y-111843672D01*
X167982452Y-111842001D01*
X167952905Y-111842001D01*
X167946386Y-111842338D01*
X167850794Y-111852257D01*
X167837400Y-111855149D01*
X167683216Y-111906588D01*
X167670038Y-111912761D01*
X167532193Y-111998063D01*
X167520792Y-112007099D01*
X167406261Y-112121829D01*
X167397249Y-112133240D01*
X167312184Y-112271243D01*
X167306037Y-112284424D01*
X167254862Y-112438710D01*
X167251995Y-112452086D01*
X167242328Y-112546438D01*
X167242000Y-112552855D01*
X167242000Y-112977885D01*
X166950500Y-112977885D01*
X166950500Y-112546166D01*
X166947519Y-112514631D01*
X166902634Y-112386816D01*
X166897042Y-112379246D01*
X166897041Y-112379243D01*
X166827742Y-112285421D01*
X166822150Y-112277850D01*
X166805206Y-112265335D01*
X166720757Y-112202959D01*
X166720754Y-112202958D01*
X166713184Y-112197366D01*
X166585369Y-112152481D01*
X166577723Y-112151758D01*
X166577722Y-112151758D01*
X166571752Y-112151194D01*
X166553834Y-112149500D01*
X165946166Y-112149500D01*
X165928248Y-112151194D01*
X165922278Y-112151758D01*
X165922277Y-112151758D01*
X165914631Y-112152481D01*
X165786816Y-112197366D01*
X165779246Y-112202958D01*
X165779243Y-112202959D01*
X165694794Y-112265335D01*
X165677850Y-112277850D01*
X165672258Y-112285421D01*
X165602959Y-112379243D01*
X165602958Y-112379246D01*
X165597366Y-112386816D01*
X165552481Y-112514631D01*
X165549500Y-112546166D01*
X165549500Y-113953834D01*
X164950500Y-113953834D01*
X164950500Y-112546166D01*
X164947519Y-112514631D01*
X164902634Y-112386816D01*
X164897042Y-112379246D01*
X164897041Y-112379243D01*
X164827742Y-112285421D01*
X164822150Y-112277850D01*
X164805206Y-112265335D01*
X164720757Y-112202959D01*
X164720754Y-112202958D01*
X164713184Y-112197366D01*
X164585369Y-112152481D01*
X164577723Y-112151758D01*
X164577722Y-112151758D01*
X164571752Y-112151194D01*
X164553834Y-112149500D01*
X163946166Y-112149500D01*
X163928248Y-112151194D01*
X163922278Y-112151758D01*
X163922277Y-112151758D01*
X163914631Y-112152481D01*
X163786816Y-112197366D01*
X163779246Y-112202958D01*
X163779243Y-112202959D01*
X163694794Y-112265335D01*
X163677850Y-112277850D01*
X163672258Y-112285421D01*
X163602959Y-112379243D01*
X163602958Y-112379246D01*
X163597366Y-112386816D01*
X163552481Y-112514631D01*
X163549500Y-112546166D01*
X163549500Y-113953834D01*
X162950500Y-113953834D01*
X162950500Y-112546166D01*
X162947519Y-112514631D01*
X162902634Y-112386816D01*
X162897042Y-112379246D01*
X162897041Y-112379243D01*
X162827742Y-112285421D01*
X162822150Y-112277850D01*
X162805206Y-112265335D01*
X162720757Y-112202959D01*
X162720754Y-112202958D01*
X162713184Y-112197366D01*
X162585369Y-112152481D01*
X162577723Y-112151758D01*
X162577722Y-112151758D01*
X162571752Y-112151194D01*
X162553834Y-112149500D01*
X161946166Y-112149500D01*
X161928248Y-112151194D01*
X161922278Y-112151758D01*
X161922277Y-112151758D01*
X161914631Y-112152481D01*
X161786816Y-112197366D01*
X161779246Y-112202958D01*
X161779243Y-112202959D01*
X161694794Y-112265335D01*
X161677850Y-112277850D01*
X161672258Y-112285421D01*
X161602959Y-112379243D01*
X161602958Y-112379246D01*
X161597366Y-112386816D01*
X161552481Y-112514631D01*
X161549500Y-112546166D01*
X161549500Y-113953834D01*
X140442271Y-113953834D01*
X140426985Y-113932004D01*
X140421079Y-113922733D01*
X140407747Y-113899642D01*
X140402234Y-113890093D01*
X140373357Y-113865863D01*
X140365255Y-113858437D01*
X138485112Y-111978294D01*
X138477685Y-111970190D01*
X138460542Y-111949760D01*
X138460543Y-111949760D01*
X138453456Y-111941315D01*
X138443907Y-111935802D01*
X138420816Y-111922470D01*
X138411545Y-111916564D01*
X138389716Y-111901279D01*
X138380685Y-111894955D01*
X138370035Y-111892101D01*
X138366867Y-111890624D01*
X138363591Y-111889432D01*
X138354046Y-111883921D01*
X138320302Y-111877971D01*
X138316943Y-111877379D01*
X138306216Y-111875001D01*
X138269808Y-111865245D01*
X138258823Y-111866206D01*
X138258821Y-111866206D01*
X138232273Y-111868529D01*
X138221291Y-111869009D01*
X137145786Y-111869009D01*
X137077665Y-111849007D01*
X137045823Y-111819713D01*
X137009805Y-111772773D01*
X137004782Y-111766227D01*
X136879341Y-111669973D01*
X136733262Y-111609465D01*
X136576500Y-111588827D01*
X136419738Y-111609465D01*
X136273659Y-111669973D01*
X136148218Y-111766227D01*
X136051964Y-111891668D01*
X135991456Y-112037747D01*
X135970818Y-112194509D01*
X135991456Y-112351271D01*
X136051964Y-112497350D01*
X136148218Y-112622791D01*
X136273659Y-112719045D01*
X136419738Y-112779553D01*
X136576500Y-112800191D01*
X136580133Y-112799713D01*
X136646211Y-112819115D01*
X136692704Y-112872771D01*
X136703012Y-112941559D01*
X136695318Y-113000000D01*
X136715956Y-113156762D01*
X136776464Y-113302841D01*
X136872718Y-113428282D01*
X136998159Y-113524536D01*
X137144238Y-113585044D01*
X137301000Y-113605682D01*
X137309188Y-113604604D01*
X137309191Y-113604604D01*
X137336205Y-113601048D01*
X137406353Y-113611988D01*
X137459451Y-113659117D01*
X137478640Y-113727471D01*
X137469057Y-113774189D01*
X137443617Y-113835605D01*
X137443616Y-113835610D01*
X137440456Y-113843238D01*
X137419818Y-114000000D01*
X137440456Y-114156762D01*
X137500964Y-114302841D01*
X137597218Y-114428282D01*
X137722659Y-114524536D01*
X137868738Y-114585044D01*
X137868041Y-114586727D01*
X137919924Y-114618347D01*
X137950948Y-114682206D01*
X137943103Y-114751325D01*
X137915407Y-114818189D01*
X137894769Y-114974951D01*
X137895847Y-114983139D01*
X137903569Y-115041793D01*
X137892630Y-115111941D01*
X137867742Y-115147334D01*
X137477481Y-115537595D01*
X137415169Y-115571621D01*
X137388386Y-115574500D01*
X131947098Y-115574500D01*
X131878977Y-115554498D01*
X131843203Y-115515163D01*
X131841379Y-115516402D01*
X131837108Y-115510117D01*
X131833625Y-115503369D01*
X131828313Y-115497279D01*
X131727163Y-115381329D01*
X131722169Y-115375604D01*
X131655653Y-115328856D01*
X131589670Y-115282482D01*
X131589668Y-115282481D01*
X131583453Y-115278113D01*
X131425487Y-115216524D01*
X131417954Y-115215532D01*
X131417953Y-115215532D01*
X131300261Y-115200038D01*
X131300260Y-115200038D01*
X131296174Y-115199500D01*
X129707484Y-115199500D01*
X129581680Y-115214724D01*
X129423077Y-115274655D01*
X129416819Y-115278956D01*
X129329416Y-115339027D01*
X129283349Y-115370688D01*
X129278297Y-115376358D01*
X129278296Y-115376359D01*
X129175612Y-115491608D01*
X129175610Y-115491612D01*
X129170560Y-115497279D01*
X129091224Y-115647119D01*
X129049919Y-115811559D01*
X129049031Y-115981105D01*
X129050805Y-115988492D01*
X129050805Y-115988496D01*
X129081469Y-116116215D01*
X129088612Y-116145968D01*
X129092093Y-116152712D01*
X129092094Y-116152715D01*
X129162892Y-116289883D01*
X129166375Y-116296631D01*
X129171367Y-116302353D01*
X129171368Y-116302355D01*
X129214362Y-116351640D01*
X129277831Y-116424396D01*
X129284045Y-116428763D01*
X129410330Y-116517518D01*
X129410332Y-116517519D01*
X129416547Y-116521887D01*
X129574513Y-116583476D01*
X129582046Y-116584468D01*
X129582047Y-116584468D01*
X129699739Y-116599962D01*
X129703826Y-116600500D01*
X131292516Y-116600500D01*
X131418320Y-116585276D01*
X131576923Y-116525345D01*
X131666835Y-116463550D01*
X131710392Y-116433614D01*
X131710393Y-116433613D01*
X131716651Y-116429312D01*
X131735472Y-116408188D01*
X131824388Y-116308392D01*
X131824390Y-116308388D01*
X131829440Y-116302721D01*
X131834830Y-116292541D01*
X131836833Y-116290486D01*
X131837332Y-116289768D01*
X131837452Y-116289851D01*
X131884383Y-116241698D01*
X131946185Y-116225500D01*
X137555692Y-116225500D01*
X137566674Y-116225980D01*
X137593222Y-116228303D01*
X137593224Y-116228303D01*
X137604209Y-116229264D01*
X137640617Y-116219508D01*
X137651344Y-116217130D01*
X137654703Y-116216538D01*
X137688447Y-116210588D01*
X137697992Y-116205077D01*
X137701268Y-116203885D01*
X137704436Y-116202408D01*
X137715086Y-116199554D01*
X137745946Y-116177945D01*
X137755217Y-116172039D01*
X137778308Y-116158707D01*
X137787857Y-116153194D01*
X137812087Y-116124317D01*
X137819513Y-116116215D01*
X138328068Y-115607660D01*
X138390380Y-115573634D01*
X138433608Y-115571833D01*
X138500451Y-115580633D01*
X138508639Y-115579555D01*
X138649025Y-115561073D01*
X138657213Y-115559995D01*
X138750284Y-115521444D01*
X138820871Y-115513855D01*
X138884358Y-115545634D01*
X138920586Y-115606692D01*
X138924500Y-115637853D01*
X138924500Y-117062984D01*
X138904498Y-117131105D01*
X138887595Y-117152079D01*
X137962079Y-118077595D01*
X137899767Y-118111621D01*
X137872984Y-118114500D01*
X131947098Y-118114500D01*
X131878977Y-118094498D01*
X131843203Y-118055163D01*
X131841379Y-118056402D01*
X131837108Y-118050117D01*
X131833625Y-118043369D01*
X131828313Y-118037279D01*
X131727163Y-117921329D01*
X131722169Y-117915604D01*
X131646759Y-117862605D01*
X131589670Y-117822482D01*
X131589668Y-117822481D01*
X131583453Y-117818113D01*
X131425487Y-117756524D01*
X131417954Y-117755532D01*
X131417953Y-117755532D01*
X131300261Y-117740038D01*
X131300260Y-117740038D01*
X131296174Y-117739500D01*
X129829208Y-117739500D01*
X129761087Y-117719498D01*
X129714594Y-117665842D01*
X129704286Y-117597054D01*
X129709445Y-117557867D01*
X129710523Y-117549679D01*
X129689885Y-117392917D01*
X129629377Y-117246838D01*
X129533123Y-117121397D01*
X129407682Y-117025143D01*
X129261603Y-116964635D01*
X129104841Y-116943997D01*
X128948079Y-116964635D01*
X128802000Y-117025143D01*
X128676559Y-117121397D01*
X128580305Y-117246838D01*
X128519797Y-117392917D01*
X128499159Y-117549679D01*
X123575000Y-117549679D01*
X123575000Y-99025000D01*
X129934318Y-99025000D01*
X129954956Y-99181762D01*
X130015464Y-99327841D01*
X130111718Y-99453282D01*
X130237159Y-99549536D01*
X130327805Y-99587083D01*
X130346718Y-99594917D01*
X130401999Y-99639465D01*
X130424500Y-99711326D01*
X130424500Y-102405214D01*
X130404498Y-102473335D01*
X130375204Y-102505177D01*
X130321718Y-102546218D01*
X130225464Y-102671659D01*
X130164956Y-102817738D01*
X130144318Y-102974500D01*
X130164956Y-103131262D01*
X130225464Y-103277341D01*
X130321718Y-103402782D01*
X130447159Y-103499036D01*
X130593238Y-103559544D01*
X130750000Y-103580182D01*
X130758188Y-103579104D01*
X130898574Y-103560622D01*
X130906762Y-103559544D01*
X131052841Y-103499036D01*
X131178282Y-103402782D01*
X131274536Y-103277341D01*
X131335044Y-103131262D01*
X131355682Y-102974500D01*
X131335044Y-102817738D01*
X131274536Y-102671659D01*
X131178282Y-102546218D01*
X131124796Y-102505177D01*
X131082929Y-102447839D01*
X131075500Y-102405214D01*
X131075500Y-99326435D01*
X131085091Y-99278217D01*
X131121884Y-99189391D01*
X131125044Y-99181762D01*
X131145682Y-99025000D01*
X131125044Y-98868238D01*
X131064536Y-98722159D01*
X130968282Y-98596718D01*
X130842841Y-98500464D01*
X130696762Y-98439956D01*
X130540000Y-98419318D01*
X130383238Y-98439956D01*
X130237159Y-98500464D01*
X130111718Y-98596718D01*
X130015464Y-98722159D01*
X129954956Y-98868238D01*
X129934318Y-99025000D01*
X123575000Y-99025000D01*
X123575000Y-95500000D01*
X149644318Y-95500000D01*
X149664956Y-95656762D01*
X149725464Y-95802841D01*
X149821718Y-95928282D01*
X149828264Y-95933305D01*
X149857918Y-95956059D01*
X149947159Y-96024536D01*
X150093238Y-96085044D01*
X150250000Y-96105682D01*
X150258188Y-96104604D01*
X150398574Y-96086122D01*
X150406762Y-96085044D01*
X150552841Y-96024536D01*
X150642082Y-95956059D01*
X150671736Y-95933305D01*
X150678282Y-95928282D01*
X150774536Y-95802841D01*
X150786068Y-95775000D01*
X159624318Y-95775000D01*
X159644956Y-95931762D01*
X159705464Y-96077841D01*
X159801718Y-96203282D01*
X159927159Y-96299536D01*
X160073238Y-96360044D01*
X160230000Y-96380682D01*
X160238188Y-96379604D01*
X160378574Y-96361122D01*
X160386762Y-96360044D01*
X160532841Y-96299536D01*
X160658282Y-96203282D01*
X160754536Y-96077841D01*
X160815044Y-95931762D01*
X160835682Y-95775000D01*
X160815044Y-95618238D01*
X160754536Y-95472159D01*
X160658282Y-95346718D01*
X160651732Y-95341692D01*
X160651729Y-95341689D01*
X160624796Y-95321023D01*
X160582928Y-95263685D01*
X160575500Y-95221061D01*
X160575500Y-93344786D01*
X160595502Y-93276665D01*
X160624796Y-93244823D01*
X160671736Y-93208805D01*
X160678282Y-93203782D01*
X160774536Y-93078341D01*
X160835044Y-92932262D01*
X160855682Y-92775500D01*
X160835044Y-92618738D01*
X160774536Y-92472659D01*
X160678282Y-92347218D01*
X160552841Y-92250964D01*
X160406762Y-92190456D01*
X160250000Y-92169818D01*
X160093238Y-92190456D01*
X159947159Y-92250964D01*
X159821718Y-92347218D01*
X159725464Y-92472659D01*
X159664956Y-92618738D01*
X159644318Y-92775500D01*
X159664956Y-92932262D01*
X159725464Y-93078341D01*
X159821718Y-93203782D01*
X159828264Y-93208805D01*
X159875204Y-93244823D01*
X159917071Y-93302161D01*
X159924500Y-93344786D01*
X159924500Y-95190368D01*
X159904498Y-95258489D01*
X159875204Y-95290330D01*
X159808271Y-95341689D01*
X159808268Y-95341692D01*
X159801718Y-95346718D01*
X159705464Y-95472159D01*
X159644956Y-95618238D01*
X159624318Y-95775000D01*
X150786068Y-95775000D01*
X150835044Y-95656762D01*
X150855682Y-95500000D01*
X150835044Y-95343238D01*
X150774536Y-95197159D01*
X150678282Y-95071718D01*
X150552841Y-94975464D01*
X150406762Y-94914956D01*
X150250000Y-94894318D01*
X150093238Y-94914956D01*
X149947159Y-94975464D01*
X149821718Y-95071718D01*
X149725464Y-95197159D01*
X149664956Y-95343238D01*
X149644318Y-95500000D01*
X123575000Y-95500000D01*
X123575000Y-89653834D01*
X131799500Y-89653834D01*
X131802481Y-89685369D01*
X131847366Y-89813184D01*
X131852958Y-89820754D01*
X131852959Y-89820757D01*
X131915335Y-89905206D01*
X131927850Y-89922150D01*
X131935421Y-89927742D01*
X132029243Y-89997041D01*
X132029246Y-89997042D01*
X132036816Y-90002634D01*
X132164631Y-90047519D01*
X132172277Y-90048242D01*
X132172278Y-90048242D01*
X132178248Y-90048806D01*
X132196166Y-90050500D01*
X132803834Y-90050500D01*
X132821752Y-90048806D01*
X132827722Y-90048242D01*
X132827723Y-90048242D01*
X132835369Y-90047519D01*
X132963184Y-90002634D01*
X132970754Y-89997042D01*
X132970757Y-89997041D01*
X133064579Y-89927742D01*
X133072150Y-89922150D01*
X133084665Y-89905206D01*
X133147041Y-89820757D01*
X133147042Y-89820754D01*
X133152634Y-89813184D01*
X133197519Y-89685369D01*
X133200500Y-89653834D01*
X133799500Y-89653834D01*
X133802481Y-89685369D01*
X133847366Y-89813184D01*
X133852958Y-89820754D01*
X133852959Y-89820757D01*
X133915335Y-89905206D01*
X133927850Y-89922150D01*
X133935421Y-89927742D01*
X134029243Y-89997041D01*
X134029246Y-89997042D01*
X134036816Y-90002634D01*
X134164631Y-90047519D01*
X134172277Y-90048242D01*
X134172278Y-90048242D01*
X134178248Y-90048806D01*
X134196166Y-90050500D01*
X134803834Y-90050500D01*
X134821752Y-90048806D01*
X134827722Y-90048242D01*
X134827723Y-90048242D01*
X134835369Y-90047519D01*
X134963184Y-90002634D01*
X134970754Y-89997042D01*
X134970757Y-89997041D01*
X135064579Y-89927742D01*
X135072150Y-89922150D01*
X135084665Y-89905206D01*
X135147041Y-89820757D01*
X135147042Y-89820754D01*
X135152634Y-89813184D01*
X135197519Y-89685369D01*
X135200500Y-89653834D01*
X135799500Y-89653834D01*
X135802481Y-89685369D01*
X135847366Y-89813184D01*
X135852958Y-89820754D01*
X135852959Y-89820757D01*
X135915335Y-89905206D01*
X135927850Y-89922150D01*
X135935421Y-89927742D01*
X136029243Y-89997041D01*
X136029246Y-89997042D01*
X136036816Y-90002634D01*
X136164631Y-90047519D01*
X136172277Y-90048242D01*
X136172278Y-90048242D01*
X136178248Y-90048806D01*
X136196166Y-90050500D01*
X136803834Y-90050500D01*
X136821752Y-90048806D01*
X136827722Y-90048242D01*
X136827723Y-90048242D01*
X136835369Y-90047519D01*
X136963184Y-90002634D01*
X136970754Y-89997042D01*
X136970757Y-89997041D01*
X137064579Y-89927742D01*
X137072150Y-89922150D01*
X137084665Y-89905206D01*
X137147041Y-89820757D01*
X137147042Y-89820754D01*
X137152634Y-89813184D01*
X137197519Y-89685369D01*
X137200500Y-89653834D01*
X137799500Y-89653834D01*
X137802481Y-89685369D01*
X137847366Y-89813184D01*
X137852958Y-89820754D01*
X137852959Y-89820757D01*
X137915335Y-89905206D01*
X137927850Y-89922150D01*
X137935421Y-89927742D01*
X138029243Y-89997041D01*
X138029246Y-89997042D01*
X138036816Y-90002634D01*
X138164631Y-90047519D01*
X138172277Y-90048242D01*
X138172278Y-90048242D01*
X138178248Y-90048806D01*
X138196166Y-90050500D01*
X138803834Y-90050500D01*
X138821752Y-90048806D01*
X138827722Y-90048242D01*
X138827723Y-90048242D01*
X138835369Y-90047519D01*
X138963184Y-90002634D01*
X138970754Y-89997042D01*
X138970757Y-89997041D01*
X139064579Y-89927742D01*
X139072150Y-89922150D01*
X139084665Y-89905206D01*
X139147041Y-89820757D01*
X139147042Y-89820754D01*
X139152634Y-89813184D01*
X139197519Y-89685369D01*
X139200500Y-89653834D01*
X139200500Y-89403834D01*
X157799500Y-89403834D01*
X157802481Y-89435369D01*
X157847366Y-89563184D01*
X157852958Y-89570754D01*
X157852959Y-89570757D01*
X157912133Y-89650871D01*
X157927850Y-89672150D01*
X157935421Y-89677742D01*
X158029243Y-89747041D01*
X158029246Y-89747042D01*
X158036816Y-89752634D01*
X158164631Y-89797519D01*
X158172277Y-89798242D01*
X158172278Y-89798242D01*
X158178248Y-89798806D01*
X158196166Y-89800500D01*
X158803834Y-89800500D01*
X158821752Y-89798806D01*
X158827722Y-89798242D01*
X158827723Y-89798242D01*
X158835369Y-89797519D01*
X158963184Y-89752634D01*
X158970754Y-89747042D01*
X158970757Y-89747041D01*
X159064579Y-89677742D01*
X159072150Y-89672150D01*
X159087867Y-89650871D01*
X159147041Y-89570757D01*
X159147042Y-89570754D01*
X159152634Y-89563184D01*
X159197519Y-89435369D01*
X159200500Y-89403834D01*
X159799500Y-89403834D01*
X159802481Y-89435369D01*
X159847366Y-89563184D01*
X159852958Y-89570754D01*
X159852959Y-89570757D01*
X159912133Y-89650871D01*
X159927850Y-89672150D01*
X159935421Y-89677742D01*
X160029243Y-89747041D01*
X160029246Y-89747042D01*
X160036816Y-89752634D01*
X160164631Y-89797519D01*
X160172277Y-89798242D01*
X160172278Y-89798242D01*
X160178248Y-89798806D01*
X160196166Y-89800500D01*
X160803834Y-89800500D01*
X160821752Y-89798806D01*
X160827722Y-89798242D01*
X160827723Y-89798242D01*
X160835369Y-89797519D01*
X160963184Y-89752634D01*
X160970754Y-89747042D01*
X160970757Y-89747041D01*
X161064579Y-89677742D01*
X161072150Y-89672150D01*
X161087867Y-89650871D01*
X161147041Y-89570757D01*
X161147042Y-89570754D01*
X161152634Y-89563184D01*
X161197519Y-89435369D01*
X161200500Y-89403834D01*
X161799500Y-89403834D01*
X161802481Y-89435369D01*
X161847366Y-89563184D01*
X161852958Y-89570754D01*
X161852959Y-89570757D01*
X161912133Y-89650871D01*
X161927850Y-89672150D01*
X161935421Y-89677742D01*
X162029243Y-89747041D01*
X162029246Y-89747042D01*
X162036816Y-89752634D01*
X162164631Y-89797519D01*
X162172277Y-89798242D01*
X162172278Y-89798242D01*
X162178248Y-89798806D01*
X162196166Y-89800500D01*
X162803834Y-89800500D01*
X162821752Y-89798806D01*
X162827722Y-89798242D01*
X162827723Y-89798242D01*
X162835369Y-89797519D01*
X162963184Y-89752634D01*
X162970754Y-89747042D01*
X162970757Y-89747041D01*
X163064579Y-89677742D01*
X163072150Y-89672150D01*
X163087867Y-89650871D01*
X163147041Y-89570757D01*
X163147042Y-89570754D01*
X163152634Y-89563184D01*
X163197519Y-89435369D01*
X163200500Y-89403834D01*
X163799500Y-89403834D01*
X163802481Y-89435369D01*
X163847366Y-89563184D01*
X163852958Y-89570754D01*
X163852959Y-89570757D01*
X163912133Y-89650871D01*
X163927850Y-89672150D01*
X163935421Y-89677742D01*
X164029243Y-89747041D01*
X164029246Y-89747042D01*
X164036816Y-89752634D01*
X164164631Y-89797519D01*
X164172277Y-89798242D01*
X164172278Y-89798242D01*
X164178248Y-89798806D01*
X164196166Y-89800500D01*
X164803834Y-89800500D01*
X164821752Y-89798806D01*
X164827722Y-89798242D01*
X164827723Y-89798242D01*
X164835369Y-89797519D01*
X164963184Y-89752634D01*
X164970754Y-89747042D01*
X164970757Y-89747041D01*
X165064579Y-89677742D01*
X165072150Y-89672150D01*
X165087867Y-89650871D01*
X165147041Y-89570757D01*
X165147042Y-89570754D01*
X165152634Y-89563184D01*
X165197519Y-89435369D01*
X165200500Y-89403834D01*
X165200500Y-86296166D01*
X165197519Y-86264631D01*
X165152634Y-86136816D01*
X165147042Y-86129246D01*
X165147041Y-86129243D01*
X165077742Y-86035421D01*
X165072150Y-86027850D01*
X165054107Y-86014523D01*
X164970757Y-85952959D01*
X164970754Y-85952958D01*
X164963184Y-85947366D01*
X164835369Y-85902481D01*
X164827723Y-85901758D01*
X164827722Y-85901758D01*
X164821752Y-85901194D01*
X164803834Y-85899500D01*
X164196166Y-85899500D01*
X164178248Y-85901194D01*
X164172278Y-85901758D01*
X164172277Y-85901758D01*
X164164631Y-85902481D01*
X164036816Y-85947366D01*
X164029246Y-85952958D01*
X164029243Y-85952959D01*
X163945893Y-86014523D01*
X163927850Y-86027850D01*
X163922258Y-86035421D01*
X163852959Y-86129243D01*
X163852958Y-86129246D01*
X163847366Y-86136816D01*
X163802481Y-86264631D01*
X163799500Y-86296166D01*
X163799500Y-89403834D01*
X163200500Y-89403834D01*
X163200500Y-86296166D01*
X163197519Y-86264631D01*
X163152634Y-86136816D01*
X163147042Y-86129246D01*
X163147041Y-86129243D01*
X163077742Y-86035421D01*
X163072150Y-86027850D01*
X163054107Y-86014523D01*
X162970757Y-85952959D01*
X162970754Y-85952958D01*
X162963184Y-85947366D01*
X162835369Y-85902481D01*
X162827723Y-85901758D01*
X162827722Y-85901758D01*
X162821752Y-85901194D01*
X162803834Y-85899500D01*
X162196166Y-85899500D01*
X162178248Y-85901194D01*
X162172278Y-85901758D01*
X162172277Y-85901758D01*
X162164631Y-85902481D01*
X162036816Y-85947366D01*
X162029246Y-85952958D01*
X162029243Y-85952959D01*
X161945893Y-86014523D01*
X161927850Y-86027850D01*
X161922258Y-86035421D01*
X161852959Y-86129243D01*
X161852958Y-86129246D01*
X161847366Y-86136816D01*
X161802481Y-86264631D01*
X161799500Y-86296166D01*
X161799500Y-89403834D01*
X161200500Y-89403834D01*
X161200500Y-86296166D01*
X161197519Y-86264631D01*
X161152634Y-86136816D01*
X161147042Y-86129246D01*
X161147041Y-86129243D01*
X161077742Y-86035421D01*
X161072150Y-86027850D01*
X161054107Y-86014523D01*
X160970757Y-85952959D01*
X160970754Y-85952958D01*
X160963184Y-85947366D01*
X160835369Y-85902481D01*
X160827723Y-85901758D01*
X160827722Y-85901758D01*
X160821752Y-85901194D01*
X160803834Y-85899500D01*
X160196166Y-85899500D01*
X160178248Y-85901194D01*
X160172278Y-85901758D01*
X160172277Y-85901758D01*
X160164631Y-85902481D01*
X160036816Y-85947366D01*
X160029246Y-85952958D01*
X160029243Y-85952959D01*
X159945893Y-86014523D01*
X159927850Y-86027850D01*
X159922258Y-86035421D01*
X159852959Y-86129243D01*
X159852958Y-86129246D01*
X159847366Y-86136816D01*
X159802481Y-86264631D01*
X159799500Y-86296166D01*
X159799500Y-89403834D01*
X159200500Y-89403834D01*
X159200500Y-86296166D01*
X159197519Y-86264631D01*
X159152634Y-86136816D01*
X159147042Y-86129246D01*
X159147041Y-86129243D01*
X159077742Y-86035421D01*
X159072150Y-86027850D01*
X159054107Y-86014523D01*
X158970757Y-85952959D01*
X158970754Y-85952958D01*
X158963184Y-85947366D01*
X158835369Y-85902481D01*
X158827723Y-85901758D01*
X158827722Y-85901758D01*
X158821752Y-85901194D01*
X158803834Y-85899500D01*
X158196166Y-85899500D01*
X158178248Y-85901194D01*
X158172278Y-85901758D01*
X158172277Y-85901758D01*
X158164631Y-85902481D01*
X158036816Y-85947366D01*
X158029246Y-85952958D01*
X158029243Y-85952959D01*
X157945893Y-86014523D01*
X157927850Y-86027850D01*
X157922258Y-86035421D01*
X157852959Y-86129243D01*
X157852958Y-86129246D01*
X157847366Y-86136816D01*
X157802481Y-86264631D01*
X157799500Y-86296166D01*
X157799500Y-89403834D01*
X139200500Y-89403834D01*
X139200500Y-87497363D01*
X143454500Y-87497363D01*
X143469152Y-87623037D01*
X143526875Y-87782061D01*
X143619633Y-87923540D01*
X143742450Y-88039885D01*
X143888738Y-88124856D01*
X143895740Y-88126977D01*
X143895743Y-88126978D01*
X143954879Y-88144888D01*
X144050650Y-88173895D01*
X144057959Y-88174348D01*
X144057962Y-88174349D01*
X144129338Y-88178777D01*
X144219501Y-88184370D01*
X144226717Y-88183130D01*
X144226719Y-88183130D01*
X144377062Y-88157296D01*
X144447586Y-88165473D01*
X144502494Y-88210480D01*
X144516382Y-88237246D01*
X144546676Y-88318054D01*
X144555214Y-88333649D01*
X144631715Y-88435724D01*
X144644276Y-88448285D01*
X144746351Y-88524786D01*
X144761946Y-88533324D01*
X144882394Y-88578478D01*
X144897649Y-88582105D01*
X144948514Y-88587631D01*
X144955328Y-88588000D01*
X145027885Y-88588000D01*
X145043124Y-88583525D01*
X145044329Y-88582135D01*
X145046000Y-88574452D01*
X145046000Y-87377000D01*
X145066002Y-87308879D01*
X145119658Y-87262386D01*
X145172000Y-87251000D01*
X145428000Y-87251000D01*
X145496121Y-87271002D01*
X145542614Y-87324658D01*
X145554000Y-87377000D01*
X145554000Y-88569884D01*
X145558475Y-88585123D01*
X145559865Y-88586328D01*
X145567548Y-88587999D01*
X145644669Y-88587999D01*
X145651490Y-88587629D01*
X145702352Y-88582105D01*
X145717604Y-88578479D01*
X145838054Y-88533324D01*
X145853649Y-88524786D01*
X145955724Y-88448285D01*
X145968285Y-88435724D01*
X146046820Y-88330935D01*
X146103679Y-88288420D01*
X146147646Y-88280500D01*
X146419748Y-88280500D01*
X146475421Y-88269426D01*
X146524579Y-88269426D01*
X146580252Y-88280500D01*
X146919748Y-88280500D01*
X146975421Y-88269426D01*
X147024579Y-88269426D01*
X147080252Y-88280500D01*
X147419748Y-88280500D01*
X147475421Y-88269426D01*
X147524579Y-88269426D01*
X147580252Y-88280500D01*
X147919748Y-88280500D01*
X147975421Y-88269426D01*
X148024579Y-88269426D01*
X148080252Y-88280500D01*
X148419748Y-88280500D01*
X148475421Y-88269426D01*
X148524579Y-88269426D01*
X148580252Y-88280500D01*
X148919748Y-88280500D01*
X148975421Y-88269426D01*
X149024579Y-88269426D01*
X149080252Y-88280500D01*
X149419748Y-88280500D01*
X149475421Y-88269426D01*
X149524579Y-88269426D01*
X149580252Y-88280500D01*
X149919748Y-88280500D01*
X149975421Y-88269426D01*
X150024579Y-88269426D01*
X150080252Y-88280500D01*
X150419748Y-88280500D01*
X150475421Y-88269426D01*
X150524579Y-88269426D01*
X150580252Y-88280500D01*
X150852354Y-88280500D01*
X150920475Y-88300502D01*
X150953180Y-88330935D01*
X151031715Y-88435724D01*
X151044276Y-88448285D01*
X151146351Y-88524786D01*
X151161946Y-88533324D01*
X151282394Y-88578478D01*
X151297649Y-88582105D01*
X151348514Y-88587631D01*
X151355328Y-88588000D01*
X151427885Y-88588000D01*
X151443124Y-88583525D01*
X151444329Y-88582135D01*
X151446000Y-88574452D01*
X151446000Y-87377000D01*
X151466002Y-87308879D01*
X151519658Y-87262386D01*
X151572000Y-87251000D01*
X151828000Y-87251000D01*
X151896121Y-87271002D01*
X151942614Y-87324658D01*
X151954000Y-87377000D01*
X151954000Y-88569884D01*
X151958475Y-88585123D01*
X151959865Y-88586328D01*
X151967548Y-88587999D01*
X152044669Y-88587999D01*
X152051490Y-88587629D01*
X152102352Y-88582105D01*
X152117604Y-88578479D01*
X152238054Y-88533324D01*
X152253649Y-88524786D01*
X152355724Y-88448285D01*
X152368285Y-88435724D01*
X152444786Y-88333649D01*
X152453324Y-88318054D01*
X152484594Y-88234642D01*
X152527236Y-88177878D01*
X152593797Y-88153178D01*
X152639099Y-88158282D01*
X152683636Y-88171771D01*
X152683639Y-88171772D01*
X152690650Y-88173895D01*
X152697959Y-88174348D01*
X152697962Y-88174349D01*
X152769338Y-88178777D01*
X152859501Y-88184370D01*
X152866717Y-88183130D01*
X152866719Y-88183130D01*
X153019017Y-88156960D01*
X153026233Y-88155720D01*
X153181902Y-88089482D01*
X153228277Y-88055354D01*
X153312264Y-87993547D01*
X153312267Y-87993545D01*
X153318158Y-87989209D01*
X153427692Y-87860280D01*
X153504627Y-87709611D01*
X153544838Y-87545283D01*
X153545500Y-87534612D01*
X153545500Y-86362637D01*
X153530848Y-86236963D01*
X153521405Y-86210946D01*
X153475622Y-86084818D01*
X153473125Y-86077939D01*
X153380367Y-85936460D01*
X153257550Y-85820115D01*
X153111262Y-85735144D01*
X153104260Y-85733023D01*
X153104257Y-85733022D01*
X153009358Y-85704280D01*
X152949350Y-85686105D01*
X152942041Y-85685652D01*
X152942038Y-85685651D01*
X152870662Y-85681223D01*
X152780499Y-85675630D01*
X152773283Y-85676870D01*
X152773281Y-85676870D01*
X152620983Y-85703040D01*
X152613767Y-85704280D01*
X152458098Y-85770518D01*
X152452205Y-85774855D01*
X152327736Y-85866453D01*
X152327733Y-85866455D01*
X152321842Y-85870791D01*
X152317105Y-85876367D01*
X152252035Y-85952959D01*
X152212308Y-85999720D01*
X152208982Y-86006234D01*
X152142304Y-86136816D01*
X152135373Y-86150389D01*
X152134260Y-86154937D01*
X152092416Y-86210946D01*
X152025919Y-86235819D01*
X151956531Y-86220794D01*
X151906281Y-86170639D01*
X151900405Y-86158374D01*
X151892698Y-86139767D01*
X151800451Y-86019549D01*
X151680233Y-85927302D01*
X151540236Y-85869313D01*
X151427720Y-85854500D01*
X151352280Y-85854500D01*
X151239764Y-85869313D01*
X151099767Y-85927302D01*
X150979549Y-86019549D01*
X150887302Y-86139767D01*
X150829313Y-86279764D01*
X150809534Y-86430000D01*
X150810612Y-86438188D01*
X150829313Y-86580236D01*
X150827697Y-86580449D01*
X150826236Y-86641863D01*
X150786443Y-86700660D01*
X150721179Y-86728609D01*
X150706218Y-86729500D01*
X150580252Y-86729500D01*
X150524579Y-86740574D01*
X150475421Y-86740574D01*
X150419748Y-86729500D01*
X150080252Y-86729500D01*
X150024579Y-86740574D01*
X149975421Y-86740574D01*
X149919748Y-86729500D01*
X149580252Y-86729500D01*
X149524579Y-86740574D01*
X149475421Y-86740574D01*
X149419748Y-86729500D01*
X149080252Y-86729500D01*
X149024579Y-86740574D01*
X148975421Y-86740574D01*
X148919748Y-86729500D01*
X148580252Y-86729500D01*
X148524579Y-86740574D01*
X148475421Y-86740574D01*
X148419748Y-86729500D01*
X148080252Y-86729500D01*
X148024579Y-86740574D01*
X147975421Y-86740574D01*
X147919748Y-86729500D01*
X147580252Y-86729500D01*
X147524579Y-86740574D01*
X147475421Y-86740574D01*
X147419748Y-86729500D01*
X147080252Y-86729500D01*
X147024579Y-86740574D01*
X146975421Y-86740574D01*
X146919748Y-86729500D01*
X146580252Y-86729500D01*
X146524579Y-86740574D01*
X146475421Y-86740574D01*
X146419748Y-86729500D01*
X146293782Y-86729500D01*
X146225661Y-86709498D01*
X146179168Y-86655842D01*
X146169064Y-86585568D01*
X146169639Y-86582766D01*
X146170687Y-86580236D01*
X146174783Y-86549129D01*
X146189388Y-86438188D01*
X146190466Y-86430000D01*
X146170687Y-86279764D01*
X146112698Y-86139767D01*
X146020451Y-86019549D01*
X145900233Y-85927302D01*
X145760236Y-85869313D01*
X145647720Y-85854500D01*
X145572280Y-85854500D01*
X145459764Y-85869313D01*
X145319767Y-85927302D01*
X145199549Y-86019549D01*
X145107302Y-86139767D01*
X145099456Y-86158709D01*
X145097291Y-86163936D01*
X145052743Y-86219217D01*
X144985380Y-86241638D01*
X144916588Y-86224080D01*
X144868210Y-86172118D01*
X144862443Y-86158709D01*
X144855568Y-86139767D01*
X144833125Y-86077939D01*
X144740367Y-85936460D01*
X144617550Y-85820115D01*
X144471262Y-85735144D01*
X144464260Y-85733023D01*
X144464257Y-85733022D01*
X144369358Y-85704280D01*
X144309350Y-85686105D01*
X144302041Y-85685652D01*
X144302038Y-85685651D01*
X144230662Y-85681223D01*
X144140499Y-85675630D01*
X144133283Y-85676870D01*
X144133281Y-85676870D01*
X143980983Y-85703040D01*
X143973767Y-85704280D01*
X143818098Y-85770518D01*
X143812205Y-85774855D01*
X143687736Y-85866453D01*
X143687733Y-85866455D01*
X143681842Y-85870791D01*
X143677105Y-85876367D01*
X143612035Y-85952959D01*
X143572308Y-85999720D01*
X143495373Y-86150389D01*
X143493633Y-86157498D01*
X143493632Y-86157502D01*
X143478531Y-86219217D01*
X143455162Y-86314717D01*
X143454500Y-86325388D01*
X143454500Y-87497363D01*
X139200500Y-87497363D01*
X139200500Y-86546166D01*
X139197519Y-86514631D01*
X139152634Y-86386816D01*
X139147042Y-86379246D01*
X139147041Y-86379243D01*
X139077742Y-86285421D01*
X139072150Y-86277850D01*
X139054253Y-86264631D01*
X138970757Y-86202959D01*
X138970754Y-86202958D01*
X138963184Y-86197366D01*
X138835369Y-86152481D01*
X138827723Y-86151758D01*
X138827722Y-86151758D01*
X138821752Y-86151194D01*
X138803834Y-86149500D01*
X138196166Y-86149500D01*
X138178248Y-86151194D01*
X138172278Y-86151758D01*
X138172277Y-86151758D01*
X138164631Y-86152481D01*
X138036816Y-86197366D01*
X138029246Y-86202958D01*
X138029243Y-86202959D01*
X137945747Y-86264631D01*
X137927850Y-86277850D01*
X137922258Y-86285421D01*
X137852959Y-86379243D01*
X137852958Y-86379246D01*
X137847366Y-86386816D01*
X137802481Y-86514631D01*
X137799500Y-86546166D01*
X137799500Y-89653834D01*
X137200500Y-89653834D01*
X137200500Y-86546166D01*
X137197519Y-86514631D01*
X137152634Y-86386816D01*
X137147042Y-86379246D01*
X137147041Y-86379243D01*
X137077742Y-86285421D01*
X137072150Y-86277850D01*
X137054253Y-86264631D01*
X136970757Y-86202959D01*
X136970754Y-86202958D01*
X136963184Y-86197366D01*
X136835369Y-86152481D01*
X136827723Y-86151758D01*
X136827722Y-86151758D01*
X136821752Y-86151194D01*
X136803834Y-86149500D01*
X136196166Y-86149500D01*
X136178248Y-86151194D01*
X136172278Y-86151758D01*
X136172277Y-86151758D01*
X136164631Y-86152481D01*
X136036816Y-86197366D01*
X136029246Y-86202958D01*
X136029243Y-86202959D01*
X135945747Y-86264631D01*
X135927850Y-86277850D01*
X135922258Y-86285421D01*
X135852959Y-86379243D01*
X135852958Y-86379246D01*
X135847366Y-86386816D01*
X135802481Y-86514631D01*
X135799500Y-86546166D01*
X135799500Y-89653834D01*
X135200500Y-89653834D01*
X135200500Y-86546166D01*
X135197519Y-86514631D01*
X135152634Y-86386816D01*
X135147042Y-86379246D01*
X135147041Y-86379243D01*
X135077742Y-86285421D01*
X135072150Y-86277850D01*
X135054253Y-86264631D01*
X134970757Y-86202959D01*
X134970754Y-86202958D01*
X134963184Y-86197366D01*
X134835369Y-86152481D01*
X134827723Y-86151758D01*
X134827722Y-86151758D01*
X134821752Y-86151194D01*
X134803834Y-86149500D01*
X134196166Y-86149500D01*
X134178248Y-86151194D01*
X134172278Y-86151758D01*
X134172277Y-86151758D01*
X134164631Y-86152481D01*
X134036816Y-86197366D01*
X134029246Y-86202958D01*
X134029243Y-86202959D01*
X133945747Y-86264631D01*
X133927850Y-86277850D01*
X133922258Y-86285421D01*
X133852959Y-86379243D01*
X133852958Y-86379246D01*
X133847366Y-86386816D01*
X133802481Y-86514631D01*
X133799500Y-86546166D01*
X133799500Y-89653834D01*
X133200500Y-89653834D01*
X133200500Y-86546166D01*
X133197519Y-86514631D01*
X133152634Y-86386816D01*
X133147042Y-86379246D01*
X133147041Y-86379243D01*
X133077742Y-86285421D01*
X133072150Y-86277850D01*
X133054253Y-86264631D01*
X132970757Y-86202959D01*
X132970754Y-86202958D01*
X132963184Y-86197366D01*
X132835369Y-86152481D01*
X132827723Y-86151758D01*
X132827722Y-86151758D01*
X132821752Y-86151194D01*
X132803834Y-86149500D01*
X132196166Y-86149500D01*
X132178248Y-86151194D01*
X132172278Y-86151758D01*
X132172277Y-86151758D01*
X132164631Y-86152481D01*
X132036816Y-86197366D01*
X132029246Y-86202958D01*
X132029243Y-86202959D01*
X131945747Y-86264631D01*
X131927850Y-86277850D01*
X131922258Y-86285421D01*
X131852959Y-86379243D01*
X131852958Y-86379246D01*
X131847366Y-86386816D01*
X131802481Y-86514631D01*
X131799500Y-86546166D01*
X131799500Y-89653834D01*
X123575000Y-89653834D01*
X123575000Y-85126000D01*
X123595002Y-85057879D01*
X123648658Y-85011386D01*
X123701000Y-85000000D01*
X128500000Y-85000000D01*
X128500000Y-80846167D01*
X129199500Y-80846167D01*
X129199501Y-83853832D01*
X129202481Y-83885368D01*
X129205024Y-83892609D01*
X129205024Y-83892610D01*
X129242912Y-84000499D01*
X129247366Y-84013183D01*
X129327850Y-84122150D01*
X129436817Y-84202634D01*
X129445704Y-84205755D01*
X129445706Y-84205756D01*
X129544000Y-84240274D01*
X129564632Y-84247519D01*
X129572278Y-84248242D01*
X129572279Y-84248242D01*
X129578249Y-84248806D01*
X129596167Y-84250500D01*
X130149719Y-84250500D01*
X130703832Y-84250499D01*
X130706782Y-84250220D01*
X130706787Y-84250220D01*
X130717406Y-84249216D01*
X130735368Y-84247519D01*
X130742609Y-84244976D01*
X130742610Y-84244976D01*
X130854294Y-84205756D01*
X130854296Y-84205755D01*
X130863183Y-84202634D01*
X130972150Y-84122150D01*
X131052634Y-84013183D01*
X131057089Y-84000499D01*
X131094974Y-83892615D01*
X131097519Y-83885368D01*
X131098769Y-83872150D01*
X131098806Y-83871751D01*
X131100500Y-83853833D01*
X131100499Y-80846168D01*
X131100499Y-80846167D01*
X139899500Y-80846167D01*
X139899501Y-83853832D01*
X139902481Y-83885368D01*
X139905024Y-83892609D01*
X139905024Y-83892610D01*
X139942912Y-84000499D01*
X139947366Y-84013183D01*
X140027850Y-84122150D01*
X140136817Y-84202634D01*
X140145704Y-84205755D01*
X140145706Y-84205756D01*
X140244000Y-84240274D01*
X140264632Y-84247519D01*
X140272278Y-84248242D01*
X140272279Y-84248242D01*
X140278249Y-84248806D01*
X140296167Y-84250500D01*
X140849719Y-84250500D01*
X141403832Y-84250499D01*
X141406782Y-84250220D01*
X141406787Y-84250220D01*
X141417406Y-84249216D01*
X141435368Y-84247519D01*
X141442609Y-84244976D01*
X141442610Y-84244976D01*
X141554294Y-84205756D01*
X141554296Y-84205755D01*
X141563183Y-84202634D01*
X141672150Y-84122150D01*
X141752634Y-84013183D01*
X141757089Y-84000499D01*
X141794974Y-83892615D01*
X141797519Y-83885368D01*
X141798769Y-83872150D01*
X141798806Y-83871751D01*
X141800500Y-83853833D01*
X141800500Y-83292516D01*
X143479500Y-83292516D01*
X143494724Y-83418320D01*
X143554655Y-83576923D01*
X143650688Y-83716651D01*
X143656358Y-83721703D01*
X143656359Y-83721704D01*
X143771608Y-83824388D01*
X143771612Y-83824390D01*
X143777279Y-83829440D01*
X143783988Y-83832992D01*
X143783989Y-83832993D01*
X143823349Y-83853833D01*
X143927119Y-83908776D01*
X144091559Y-83950081D01*
X144099157Y-83950121D01*
X144099159Y-83950121D01*
X144176332Y-83950525D01*
X144261105Y-83950969D01*
X144268492Y-83949195D01*
X144268496Y-83949195D01*
X144418583Y-83913161D01*
X144425968Y-83911388D01*
X144432712Y-83907907D01*
X144432715Y-83907906D01*
X144569883Y-83837108D01*
X144569884Y-83837108D01*
X144576631Y-83833625D01*
X144704396Y-83722169D01*
X144787564Y-83603833D01*
X144797518Y-83589670D01*
X144797519Y-83589668D01*
X144801887Y-83583453D01*
X144863476Y-83425487D01*
X144880500Y-83296174D01*
X144880500Y-83292516D01*
X152119500Y-83292516D01*
X152134724Y-83418320D01*
X152194655Y-83576923D01*
X152290688Y-83716651D01*
X152296358Y-83721703D01*
X152296359Y-83721704D01*
X152411608Y-83824388D01*
X152411612Y-83824390D01*
X152417279Y-83829440D01*
X152423988Y-83832992D01*
X152423989Y-83832993D01*
X152463349Y-83853833D01*
X152567119Y-83908776D01*
X152731559Y-83950081D01*
X152739157Y-83950121D01*
X152739159Y-83950121D01*
X152816332Y-83950525D01*
X152901105Y-83950969D01*
X152908492Y-83949195D01*
X152908496Y-83949195D01*
X153058583Y-83913161D01*
X153065968Y-83911388D01*
X153072712Y-83907907D01*
X153072715Y-83907906D01*
X153209883Y-83837108D01*
X153209884Y-83837108D01*
X153216631Y-83833625D01*
X153344396Y-83722169D01*
X153427564Y-83603833D01*
X153437518Y-83589670D01*
X153437519Y-83589668D01*
X153441887Y-83583453D01*
X153503476Y-83425487D01*
X153520500Y-83296174D01*
X153520500Y-82207484D01*
X153505276Y-82081680D01*
X153445345Y-81923077D01*
X153349312Y-81783349D01*
X153337514Y-81772837D01*
X153228392Y-81675612D01*
X153228388Y-81675610D01*
X153222721Y-81670560D01*
X153072881Y-81591224D01*
X152908441Y-81549919D01*
X152900843Y-81549879D01*
X152900841Y-81549879D01*
X152823668Y-81549475D01*
X152738895Y-81549031D01*
X152731508Y-81550805D01*
X152731504Y-81550805D01*
X152588162Y-81585220D01*
X152574032Y-81588612D01*
X152567288Y-81592093D01*
X152567285Y-81592094D01*
X152562089Y-81594776D01*
X152423369Y-81666375D01*
X152295604Y-81777831D01*
X152198113Y-81916547D01*
X152136524Y-82074513D01*
X152119500Y-82203826D01*
X152119500Y-83292516D01*
X144880500Y-83292516D01*
X144880500Y-82207484D01*
X144865276Y-82081680D01*
X144805345Y-81923077D01*
X144709312Y-81783349D01*
X144697514Y-81772837D01*
X144588392Y-81675612D01*
X144588388Y-81675610D01*
X144582721Y-81670560D01*
X144432881Y-81591224D01*
X144268441Y-81549919D01*
X144260843Y-81549879D01*
X144260841Y-81549879D01*
X144183668Y-81549475D01*
X144098895Y-81549031D01*
X144091508Y-81550805D01*
X144091504Y-81550805D01*
X143948162Y-81585220D01*
X143934032Y-81588612D01*
X143927288Y-81592093D01*
X143927285Y-81592094D01*
X143922089Y-81594776D01*
X143783369Y-81666375D01*
X143655604Y-81777831D01*
X143558113Y-81916547D01*
X143496524Y-82074513D01*
X143479500Y-82203826D01*
X143479500Y-83292516D01*
X141800500Y-83292516D01*
X141800499Y-80846168D01*
X141797519Y-80814632D01*
X141752634Y-80686817D01*
X141672150Y-80577850D01*
X141563183Y-80497366D01*
X141554296Y-80494245D01*
X141554294Y-80494244D01*
X141442615Y-80455026D01*
X141435368Y-80452481D01*
X141427722Y-80451758D01*
X141427721Y-80451758D01*
X141421751Y-80451194D01*
X141403833Y-80449500D01*
X140850281Y-80449500D01*
X140296168Y-80449501D01*
X140293218Y-80449780D01*
X140293213Y-80449780D01*
X140282594Y-80450784D01*
X140264632Y-80452481D01*
X140257391Y-80455024D01*
X140257390Y-80455024D01*
X140145706Y-80494244D01*
X140145704Y-80494245D01*
X140136817Y-80497366D01*
X140027850Y-80577850D01*
X139947366Y-80686817D01*
X139902481Y-80814632D01*
X139899500Y-80846167D01*
X131100499Y-80846167D01*
X131097519Y-80814632D01*
X131052634Y-80686817D01*
X130972150Y-80577850D01*
X130863183Y-80497366D01*
X130854296Y-80494245D01*
X130854294Y-80494244D01*
X130742615Y-80455026D01*
X130735368Y-80452481D01*
X130727722Y-80451758D01*
X130727721Y-80451758D01*
X130721751Y-80451194D01*
X130703833Y-80449500D01*
X130150281Y-80449500D01*
X129596168Y-80449501D01*
X129593218Y-80449780D01*
X129593213Y-80449780D01*
X129582594Y-80450784D01*
X129564632Y-80452481D01*
X129557391Y-80455024D01*
X129557390Y-80455024D01*
X129445706Y-80494244D01*
X129445704Y-80494245D01*
X129436817Y-80497366D01*
X129327850Y-80577850D01*
X129247366Y-80686817D01*
X129202481Y-80814632D01*
X129199500Y-80846167D01*
X128500000Y-80846167D01*
X128500000Y-80201000D01*
X128520002Y-80132879D01*
X128573658Y-80086386D01*
X128626000Y-80075000D01*
X155287514Y-80075000D01*
X155355635Y-80095002D01*
G37*
%TD.AperFunction*%
%TD*%
M02*
