%TF.GenerationSoftware,KiCad,Pcbnew,(6.0.1)*%
%TF.CreationDate,2022-02-28T23:17:01+05:30*%
%TF.ProjectId,ProIMU_V1,50726f49-4d55-45f5-9631-2e6b69636164,rev?*%
%TF.SameCoordinates,Original*%
%TF.FileFunction,Paste,Top*%
%TF.FilePolarity,Positive*%
%FSLAX46Y46*%
G04 Gerber Fmt 4.6, Leading zero omitted, Abs format (unit mm)*
G04 Created by KiCad (PCBNEW (6.0.1)) date 2022-02-28 23:17:01*
%MOMM*%
%LPD*%
G01*
G04 APERTURE LIST*
G04 Aperture macros list*
%AMRoundRect*
0 Rectangle with rounded corners*
0 $1 Rounding radius*
0 $2 $3 $4 $5 $6 $7 $8 $9 X,Y pos of 4 corners*
0 Add a 4 corners polygon primitive as box body*
4,1,4,$2,$3,$4,$5,$6,$7,$8,$9,$2,$3,0*
0 Add four circle primitives for the rounded corners*
1,1,$1+$1,$2,$3*
1,1,$1+$1,$4,$5*
1,1,$1+$1,$6,$7*
1,1,$1+$1,$8,$9*
0 Add four rect primitives between the rounded corners*
20,1,$1+$1,$2,$3,$4,$5,0*
20,1,$1+$1,$4,$5,$6,$7,0*
20,1,$1+$1,$6,$7,$8,$9,0*
20,1,$1+$1,$8,$9,$2,$3,0*%
G04 Aperture macros list end*
%ADD10C,0.000100*%
%ADD11RoundRect,0.155000X-0.212500X-0.155000X0.212500X-0.155000X0.212500X0.155000X-0.212500X0.155000X0*%
%ADD12RoundRect,0.006600X-0.313400X-0.103400X0.313400X-0.103400X0.313400X0.103400X-0.313400X0.103400X0*%
%ADD13RoundRect,0.006600X0.103400X-0.313400X0.103400X0.313400X-0.103400X0.313400X-0.103400X-0.313400X0*%
%ADD14RoundRect,0.006600X0.313400X0.103400X-0.313400X0.103400X-0.313400X-0.103400X0.313400X-0.103400X0*%
%ADD15RoundRect,0.006600X-0.103400X0.313400X-0.103400X-0.313400X0.103400X-0.313400X0.103400X0.313400X0*%
%ADD16R,0.600000X1.150000*%
%ADD17R,0.300000X1.150000*%
%ADD18R,2.000000X1.500000*%
%ADD19R,2.000000X3.800000*%
%ADD20RoundRect,0.160000X-0.197500X-0.160000X0.197500X-0.160000X0.197500X0.160000X-0.197500X0.160000X0*%
%ADD21RoundRect,0.250000X-0.337500X-0.475000X0.337500X-0.475000X0.337500X0.475000X-0.337500X0.475000X0*%
%ADD22RoundRect,0.250000X0.250000X1.500000X-0.250000X1.500000X-0.250000X-1.500000X0.250000X-1.500000X0*%
%ADD23RoundRect,0.250001X0.499999X1.449999X-0.499999X1.449999X-0.499999X-1.449999X0.499999X-1.449999X0*%
%ADD24RoundRect,0.250000X-0.250000X0.650000X-0.250000X-0.650000X0.250000X-0.650000X0.250000X0.650000X0*%
%ADD25RoundRect,0.130000X-0.920000X-0.370000X0.920000X-0.370000X0.920000X0.370000X-0.920000X0.370000X0*%
%ADD26R,1.400000X0.300000*%
%ADD27R,0.355600X0.355600*%
%ADD28RoundRect,0.150000X-0.587500X-0.150000X0.587500X-0.150000X0.587500X0.150000X-0.587500X0.150000X0*%
G04 APERTURE END LIST*
D10*
%TO.C,U9*%
X130250000Y-117940000D02*
X131150000Y-117940000D01*
X131150000Y-117940000D02*
X131202000Y-117943000D01*
X131202000Y-117943000D02*
X131254000Y-117951000D01*
X131254000Y-117951000D02*
X131305000Y-117964000D01*
X131305000Y-117964000D02*
X131353000Y-117983000D01*
X131353000Y-117983000D02*
X131400000Y-118007000D01*
X131400000Y-118007000D02*
X131444000Y-118035000D01*
X131444000Y-118035000D02*
X131485000Y-118068000D01*
X131485000Y-118068000D02*
X131522000Y-118105000D01*
X131522000Y-118105000D02*
X131555000Y-118146000D01*
X131555000Y-118146000D02*
X131583000Y-118190000D01*
X131583000Y-118190000D02*
X131607000Y-118237000D01*
X131607000Y-118237000D02*
X131626000Y-118285000D01*
X131626000Y-118285000D02*
X131639000Y-118336000D01*
X131639000Y-118336000D02*
X131647000Y-118388000D01*
X131647000Y-118388000D02*
X131650000Y-118440000D01*
X131650000Y-118440000D02*
X131647000Y-118492000D01*
X131647000Y-118492000D02*
X131639000Y-118544000D01*
X131639000Y-118544000D02*
X131626000Y-118595000D01*
X131626000Y-118595000D02*
X131607000Y-118643000D01*
X131607000Y-118643000D02*
X131583000Y-118690000D01*
X131583000Y-118690000D02*
X131555000Y-118734000D01*
X131555000Y-118734000D02*
X131522000Y-118775000D01*
X131522000Y-118775000D02*
X131485000Y-118812000D01*
X131485000Y-118812000D02*
X131444000Y-118845000D01*
X131444000Y-118845000D02*
X131400000Y-118873000D01*
X131400000Y-118873000D02*
X131353000Y-118897000D01*
X131353000Y-118897000D02*
X131305000Y-118916000D01*
X131305000Y-118916000D02*
X131254000Y-118929000D01*
X131254000Y-118929000D02*
X131202000Y-118937000D01*
X131202000Y-118937000D02*
X131150000Y-118940000D01*
X131150000Y-118940000D02*
X129350000Y-118940000D01*
X129350000Y-118940000D02*
X129298000Y-118937000D01*
X129298000Y-118937000D02*
X129246000Y-118929000D01*
X129246000Y-118929000D02*
X129195000Y-118916000D01*
X129195000Y-118916000D02*
X129147000Y-118897000D01*
X129147000Y-118897000D02*
X129100000Y-118873000D01*
X129100000Y-118873000D02*
X129056000Y-118845000D01*
X129056000Y-118845000D02*
X129015000Y-118812000D01*
X129015000Y-118812000D02*
X128978000Y-118775000D01*
X128978000Y-118775000D02*
X128945000Y-118734000D01*
X128945000Y-118734000D02*
X128917000Y-118690000D01*
X128917000Y-118690000D02*
X128893000Y-118643000D01*
X128893000Y-118643000D02*
X128874000Y-118595000D01*
X128874000Y-118595000D02*
X128861000Y-118544000D01*
X128861000Y-118544000D02*
X128853000Y-118492000D01*
X128853000Y-118492000D02*
X128850000Y-118440000D01*
X128850000Y-118440000D02*
X128853000Y-118388000D01*
X128853000Y-118388000D02*
X128861000Y-118336000D01*
X128861000Y-118336000D02*
X128874000Y-118285000D01*
X128874000Y-118285000D02*
X128893000Y-118237000D01*
X128893000Y-118237000D02*
X128917000Y-118190000D01*
X128917000Y-118190000D02*
X128945000Y-118146000D01*
X128945000Y-118146000D02*
X128978000Y-118105000D01*
X128978000Y-118105000D02*
X129015000Y-118068000D01*
X129015000Y-118068000D02*
X129056000Y-118035000D01*
X129056000Y-118035000D02*
X129100000Y-118007000D01*
X129100000Y-118007000D02*
X129147000Y-117983000D01*
X129147000Y-117983000D02*
X129195000Y-117964000D01*
X129195000Y-117964000D02*
X129246000Y-117951000D01*
X129246000Y-117951000D02*
X129298000Y-117943000D01*
X129298000Y-117943000D02*
X129350000Y-117940000D01*
X129350000Y-117940000D02*
X130250000Y-117940000D01*
X130250000Y-117940000D02*
X130250000Y-117940000D01*
G36*
X131202000Y-117943000D02*
G01*
X131254000Y-117951000D01*
X131305000Y-117964000D01*
X131353000Y-117983000D01*
X131400000Y-118007000D01*
X131444000Y-118035000D01*
X131485000Y-118068000D01*
X131522000Y-118105000D01*
X131555000Y-118146000D01*
X131583000Y-118190000D01*
X131607000Y-118237000D01*
X131626000Y-118285000D01*
X131639000Y-118336000D01*
X131647000Y-118388000D01*
X131650000Y-118440000D01*
X131647000Y-118492000D01*
X131639000Y-118544000D01*
X131626000Y-118595000D01*
X131607000Y-118643000D01*
X131583000Y-118690000D01*
X131555000Y-118734000D01*
X131522000Y-118775000D01*
X131485000Y-118812000D01*
X131444000Y-118845000D01*
X131400000Y-118873000D01*
X131353000Y-118897000D01*
X131305000Y-118916000D01*
X131254000Y-118929000D01*
X131202000Y-118937000D01*
X131150000Y-118940000D01*
X129350000Y-118940000D01*
X129298000Y-118937000D01*
X129246000Y-118929000D01*
X129195000Y-118916000D01*
X129147000Y-118897000D01*
X129100000Y-118873000D01*
X129056000Y-118845000D01*
X129015000Y-118812000D01*
X128978000Y-118775000D01*
X128945000Y-118734000D01*
X128917000Y-118690000D01*
X128893000Y-118643000D01*
X128874000Y-118595000D01*
X128861000Y-118544000D01*
X128853000Y-118492000D01*
X128850000Y-118440000D01*
X128853000Y-118388000D01*
X128861000Y-118336000D01*
X128874000Y-118285000D01*
X128893000Y-118237000D01*
X128917000Y-118190000D01*
X128945000Y-118146000D01*
X128978000Y-118105000D01*
X129015000Y-118068000D01*
X129056000Y-118035000D01*
X129100000Y-118007000D01*
X129147000Y-117983000D01*
X129195000Y-117964000D01*
X129246000Y-117951000D01*
X129298000Y-117943000D01*
X129350000Y-117940000D01*
X131150000Y-117940000D01*
X131202000Y-117943000D01*
G37*
X131202000Y-117943000D02*
X131254000Y-117951000D01*
X131305000Y-117964000D01*
X131353000Y-117983000D01*
X131400000Y-118007000D01*
X131444000Y-118035000D01*
X131485000Y-118068000D01*
X131522000Y-118105000D01*
X131555000Y-118146000D01*
X131583000Y-118190000D01*
X131607000Y-118237000D01*
X131626000Y-118285000D01*
X131639000Y-118336000D01*
X131647000Y-118388000D01*
X131650000Y-118440000D01*
X131647000Y-118492000D01*
X131639000Y-118544000D01*
X131626000Y-118595000D01*
X131607000Y-118643000D01*
X131583000Y-118690000D01*
X131555000Y-118734000D01*
X131522000Y-118775000D01*
X131485000Y-118812000D01*
X131444000Y-118845000D01*
X131400000Y-118873000D01*
X131353000Y-118897000D01*
X131305000Y-118916000D01*
X131254000Y-118929000D01*
X131202000Y-118937000D01*
X131150000Y-118940000D01*
X129350000Y-118940000D01*
X129298000Y-118937000D01*
X129246000Y-118929000D01*
X129195000Y-118916000D01*
X129147000Y-118897000D01*
X129100000Y-118873000D01*
X129056000Y-118845000D01*
X129015000Y-118812000D01*
X128978000Y-118775000D01*
X128945000Y-118734000D01*
X128917000Y-118690000D01*
X128893000Y-118643000D01*
X128874000Y-118595000D01*
X128861000Y-118544000D01*
X128853000Y-118492000D01*
X128850000Y-118440000D01*
X128853000Y-118388000D01*
X128861000Y-118336000D01*
X128874000Y-118285000D01*
X128893000Y-118237000D01*
X128917000Y-118190000D01*
X128945000Y-118146000D01*
X128978000Y-118105000D01*
X129015000Y-118068000D01*
X129056000Y-118035000D01*
X129100000Y-118007000D01*
X129147000Y-117983000D01*
X129195000Y-117964000D01*
X129246000Y-117951000D01*
X129298000Y-117943000D01*
X129350000Y-117940000D01*
X131150000Y-117940000D01*
X131202000Y-117943000D01*
X130250000Y-128100000D02*
X131150000Y-128100000D01*
X131150000Y-128100000D02*
X131202000Y-128103000D01*
X131202000Y-128103000D02*
X131254000Y-128111000D01*
X131254000Y-128111000D02*
X131305000Y-128124000D01*
X131305000Y-128124000D02*
X131353000Y-128143000D01*
X131353000Y-128143000D02*
X131400000Y-128167000D01*
X131400000Y-128167000D02*
X131444000Y-128195000D01*
X131444000Y-128195000D02*
X131485000Y-128228000D01*
X131485000Y-128228000D02*
X131522000Y-128265000D01*
X131522000Y-128265000D02*
X131555000Y-128306000D01*
X131555000Y-128306000D02*
X131583000Y-128350000D01*
X131583000Y-128350000D02*
X131607000Y-128397000D01*
X131607000Y-128397000D02*
X131626000Y-128445000D01*
X131626000Y-128445000D02*
X131639000Y-128496000D01*
X131639000Y-128496000D02*
X131647000Y-128548000D01*
X131647000Y-128548000D02*
X131650000Y-128600000D01*
X131650000Y-128600000D02*
X131647000Y-128652000D01*
X131647000Y-128652000D02*
X131639000Y-128704000D01*
X131639000Y-128704000D02*
X131626000Y-128755000D01*
X131626000Y-128755000D02*
X131607000Y-128803000D01*
X131607000Y-128803000D02*
X131583000Y-128850000D01*
X131583000Y-128850000D02*
X131555000Y-128894000D01*
X131555000Y-128894000D02*
X131522000Y-128935000D01*
X131522000Y-128935000D02*
X131485000Y-128972000D01*
X131485000Y-128972000D02*
X131444000Y-129005000D01*
X131444000Y-129005000D02*
X131400000Y-129033000D01*
X131400000Y-129033000D02*
X131353000Y-129057000D01*
X131353000Y-129057000D02*
X131305000Y-129076000D01*
X131305000Y-129076000D02*
X131254000Y-129089000D01*
X131254000Y-129089000D02*
X131202000Y-129097000D01*
X131202000Y-129097000D02*
X131150000Y-129100000D01*
X131150000Y-129100000D02*
X129350000Y-129100000D01*
X129350000Y-129100000D02*
X129298000Y-129097000D01*
X129298000Y-129097000D02*
X129246000Y-129089000D01*
X129246000Y-129089000D02*
X129195000Y-129076000D01*
X129195000Y-129076000D02*
X129147000Y-129057000D01*
X129147000Y-129057000D02*
X129100000Y-129033000D01*
X129100000Y-129033000D02*
X129056000Y-129005000D01*
X129056000Y-129005000D02*
X129015000Y-128972000D01*
X129015000Y-128972000D02*
X128978000Y-128935000D01*
X128978000Y-128935000D02*
X128945000Y-128894000D01*
X128945000Y-128894000D02*
X128917000Y-128850000D01*
X128917000Y-128850000D02*
X128893000Y-128803000D01*
X128893000Y-128803000D02*
X128874000Y-128755000D01*
X128874000Y-128755000D02*
X128861000Y-128704000D01*
X128861000Y-128704000D02*
X128853000Y-128652000D01*
X128853000Y-128652000D02*
X128850000Y-128600000D01*
X128850000Y-128600000D02*
X128853000Y-128548000D01*
X128853000Y-128548000D02*
X128861000Y-128496000D01*
X128861000Y-128496000D02*
X128874000Y-128445000D01*
X128874000Y-128445000D02*
X128893000Y-128397000D01*
X128893000Y-128397000D02*
X128917000Y-128350000D01*
X128917000Y-128350000D02*
X128945000Y-128306000D01*
X128945000Y-128306000D02*
X128978000Y-128265000D01*
X128978000Y-128265000D02*
X129015000Y-128228000D01*
X129015000Y-128228000D02*
X129056000Y-128195000D01*
X129056000Y-128195000D02*
X129100000Y-128167000D01*
X129100000Y-128167000D02*
X129147000Y-128143000D01*
X129147000Y-128143000D02*
X129195000Y-128124000D01*
X129195000Y-128124000D02*
X129246000Y-128111000D01*
X129246000Y-128111000D02*
X129298000Y-128103000D01*
X129298000Y-128103000D02*
X129350000Y-128100000D01*
X129350000Y-128100000D02*
X130250000Y-128100000D01*
X130250000Y-128100000D02*
X130250000Y-128100000D01*
G36*
X131202000Y-128103000D02*
G01*
X131254000Y-128111000D01*
X131305000Y-128124000D01*
X131353000Y-128143000D01*
X131400000Y-128167000D01*
X131444000Y-128195000D01*
X131485000Y-128228000D01*
X131522000Y-128265000D01*
X131555000Y-128306000D01*
X131583000Y-128350000D01*
X131607000Y-128397000D01*
X131626000Y-128445000D01*
X131639000Y-128496000D01*
X131647000Y-128548000D01*
X131650000Y-128600000D01*
X131647000Y-128652000D01*
X131639000Y-128704000D01*
X131626000Y-128755000D01*
X131607000Y-128803000D01*
X131583000Y-128850000D01*
X131555000Y-128894000D01*
X131522000Y-128935000D01*
X131485000Y-128972000D01*
X131444000Y-129005000D01*
X131400000Y-129033000D01*
X131353000Y-129057000D01*
X131305000Y-129076000D01*
X131254000Y-129089000D01*
X131202000Y-129097000D01*
X131150000Y-129100000D01*
X129350000Y-129100000D01*
X129298000Y-129097000D01*
X129246000Y-129089000D01*
X129195000Y-129076000D01*
X129147000Y-129057000D01*
X129100000Y-129033000D01*
X129056000Y-129005000D01*
X129015000Y-128972000D01*
X128978000Y-128935000D01*
X128945000Y-128894000D01*
X128917000Y-128850000D01*
X128893000Y-128803000D01*
X128874000Y-128755000D01*
X128861000Y-128704000D01*
X128853000Y-128652000D01*
X128850000Y-128600000D01*
X128853000Y-128548000D01*
X128861000Y-128496000D01*
X128874000Y-128445000D01*
X128893000Y-128397000D01*
X128917000Y-128350000D01*
X128945000Y-128306000D01*
X128978000Y-128265000D01*
X129015000Y-128228000D01*
X129056000Y-128195000D01*
X129100000Y-128167000D01*
X129147000Y-128143000D01*
X129195000Y-128124000D01*
X129246000Y-128111000D01*
X129298000Y-128103000D01*
X129350000Y-128100000D01*
X131150000Y-128100000D01*
X131202000Y-128103000D01*
G37*
X131202000Y-128103000D02*
X131254000Y-128111000D01*
X131305000Y-128124000D01*
X131353000Y-128143000D01*
X131400000Y-128167000D01*
X131444000Y-128195000D01*
X131485000Y-128228000D01*
X131522000Y-128265000D01*
X131555000Y-128306000D01*
X131583000Y-128350000D01*
X131607000Y-128397000D01*
X131626000Y-128445000D01*
X131639000Y-128496000D01*
X131647000Y-128548000D01*
X131650000Y-128600000D01*
X131647000Y-128652000D01*
X131639000Y-128704000D01*
X131626000Y-128755000D01*
X131607000Y-128803000D01*
X131583000Y-128850000D01*
X131555000Y-128894000D01*
X131522000Y-128935000D01*
X131485000Y-128972000D01*
X131444000Y-129005000D01*
X131400000Y-129033000D01*
X131353000Y-129057000D01*
X131305000Y-129076000D01*
X131254000Y-129089000D01*
X131202000Y-129097000D01*
X131150000Y-129100000D01*
X129350000Y-129100000D01*
X129298000Y-129097000D01*
X129246000Y-129089000D01*
X129195000Y-129076000D01*
X129147000Y-129057000D01*
X129100000Y-129033000D01*
X129056000Y-129005000D01*
X129015000Y-128972000D01*
X128978000Y-128935000D01*
X128945000Y-128894000D01*
X128917000Y-128850000D01*
X128893000Y-128803000D01*
X128874000Y-128755000D01*
X128861000Y-128704000D01*
X128853000Y-128652000D01*
X128850000Y-128600000D01*
X128853000Y-128548000D01*
X128861000Y-128496000D01*
X128874000Y-128445000D01*
X128893000Y-128397000D01*
X128917000Y-128350000D01*
X128945000Y-128306000D01*
X128978000Y-128265000D01*
X129015000Y-128228000D01*
X129056000Y-128195000D01*
X129100000Y-128167000D01*
X129147000Y-128143000D01*
X129195000Y-128124000D01*
X129246000Y-128111000D01*
X129298000Y-128103000D01*
X129350000Y-128100000D01*
X131150000Y-128100000D01*
X131202000Y-128103000D01*
X146250000Y-128100000D02*
X147150000Y-128100000D01*
X147150000Y-128100000D02*
X147202000Y-128103000D01*
X147202000Y-128103000D02*
X147254000Y-128111000D01*
X147254000Y-128111000D02*
X147305000Y-128124000D01*
X147305000Y-128124000D02*
X147353000Y-128143000D01*
X147353000Y-128143000D02*
X147400000Y-128167000D01*
X147400000Y-128167000D02*
X147444000Y-128195000D01*
X147444000Y-128195000D02*
X147485000Y-128228000D01*
X147485000Y-128228000D02*
X147522000Y-128265000D01*
X147522000Y-128265000D02*
X147555000Y-128306000D01*
X147555000Y-128306000D02*
X147583000Y-128350000D01*
X147583000Y-128350000D02*
X147607000Y-128397000D01*
X147607000Y-128397000D02*
X147626000Y-128445000D01*
X147626000Y-128445000D02*
X147639000Y-128496000D01*
X147639000Y-128496000D02*
X147647000Y-128548000D01*
X147647000Y-128548000D02*
X147650000Y-128600000D01*
X147650000Y-128600000D02*
X147647000Y-128652000D01*
X147647000Y-128652000D02*
X147639000Y-128704000D01*
X147639000Y-128704000D02*
X147626000Y-128755000D01*
X147626000Y-128755000D02*
X147607000Y-128803000D01*
X147607000Y-128803000D02*
X147583000Y-128850000D01*
X147583000Y-128850000D02*
X147555000Y-128894000D01*
X147555000Y-128894000D02*
X147522000Y-128935000D01*
X147522000Y-128935000D02*
X147485000Y-128972000D01*
X147485000Y-128972000D02*
X147444000Y-129005000D01*
X147444000Y-129005000D02*
X147400000Y-129033000D01*
X147400000Y-129033000D02*
X147353000Y-129057000D01*
X147353000Y-129057000D02*
X147305000Y-129076000D01*
X147305000Y-129076000D02*
X147254000Y-129089000D01*
X147254000Y-129089000D02*
X147202000Y-129097000D01*
X147202000Y-129097000D02*
X147150000Y-129100000D01*
X147150000Y-129100000D02*
X145350000Y-129100000D01*
X145350000Y-129100000D02*
X145298000Y-129097000D01*
X145298000Y-129097000D02*
X145246000Y-129089000D01*
X145246000Y-129089000D02*
X145195000Y-129076000D01*
X145195000Y-129076000D02*
X145147000Y-129057000D01*
X145147000Y-129057000D02*
X145100000Y-129033000D01*
X145100000Y-129033000D02*
X145056000Y-129005000D01*
X145056000Y-129005000D02*
X145015000Y-128972000D01*
X145015000Y-128972000D02*
X144978000Y-128935000D01*
X144978000Y-128935000D02*
X144945000Y-128894000D01*
X144945000Y-128894000D02*
X144917000Y-128850000D01*
X144917000Y-128850000D02*
X144893000Y-128803000D01*
X144893000Y-128803000D02*
X144874000Y-128755000D01*
X144874000Y-128755000D02*
X144861000Y-128704000D01*
X144861000Y-128704000D02*
X144853000Y-128652000D01*
X144853000Y-128652000D02*
X144850000Y-128600000D01*
X144850000Y-128600000D02*
X144853000Y-128548000D01*
X144853000Y-128548000D02*
X144861000Y-128496000D01*
X144861000Y-128496000D02*
X144874000Y-128445000D01*
X144874000Y-128445000D02*
X144893000Y-128397000D01*
X144893000Y-128397000D02*
X144917000Y-128350000D01*
X144917000Y-128350000D02*
X144945000Y-128306000D01*
X144945000Y-128306000D02*
X144978000Y-128265000D01*
X144978000Y-128265000D02*
X145015000Y-128228000D01*
X145015000Y-128228000D02*
X145056000Y-128195000D01*
X145056000Y-128195000D02*
X145100000Y-128167000D01*
X145100000Y-128167000D02*
X145147000Y-128143000D01*
X145147000Y-128143000D02*
X145195000Y-128124000D01*
X145195000Y-128124000D02*
X145246000Y-128111000D01*
X145246000Y-128111000D02*
X145298000Y-128103000D01*
X145298000Y-128103000D02*
X145350000Y-128100000D01*
X145350000Y-128100000D02*
X146250000Y-128100000D01*
X146250000Y-128100000D02*
X146250000Y-128100000D01*
G36*
X147202000Y-128103000D02*
G01*
X147254000Y-128111000D01*
X147305000Y-128124000D01*
X147353000Y-128143000D01*
X147400000Y-128167000D01*
X147444000Y-128195000D01*
X147485000Y-128228000D01*
X147522000Y-128265000D01*
X147555000Y-128306000D01*
X147583000Y-128350000D01*
X147607000Y-128397000D01*
X147626000Y-128445000D01*
X147639000Y-128496000D01*
X147647000Y-128548000D01*
X147650000Y-128600000D01*
X147647000Y-128652000D01*
X147639000Y-128704000D01*
X147626000Y-128755000D01*
X147607000Y-128803000D01*
X147583000Y-128850000D01*
X147555000Y-128894000D01*
X147522000Y-128935000D01*
X147485000Y-128972000D01*
X147444000Y-129005000D01*
X147400000Y-129033000D01*
X147353000Y-129057000D01*
X147305000Y-129076000D01*
X147254000Y-129089000D01*
X147202000Y-129097000D01*
X147150000Y-129100000D01*
X145350000Y-129100000D01*
X145298000Y-129097000D01*
X145246000Y-129089000D01*
X145195000Y-129076000D01*
X145147000Y-129057000D01*
X145100000Y-129033000D01*
X145056000Y-129005000D01*
X145015000Y-128972000D01*
X144978000Y-128935000D01*
X144945000Y-128894000D01*
X144917000Y-128850000D01*
X144893000Y-128803000D01*
X144874000Y-128755000D01*
X144861000Y-128704000D01*
X144853000Y-128652000D01*
X144850000Y-128600000D01*
X144853000Y-128548000D01*
X144861000Y-128496000D01*
X144874000Y-128445000D01*
X144893000Y-128397000D01*
X144917000Y-128350000D01*
X144945000Y-128306000D01*
X144978000Y-128265000D01*
X145015000Y-128228000D01*
X145056000Y-128195000D01*
X145100000Y-128167000D01*
X145147000Y-128143000D01*
X145195000Y-128124000D01*
X145246000Y-128111000D01*
X145298000Y-128103000D01*
X145350000Y-128100000D01*
X147150000Y-128100000D01*
X147202000Y-128103000D01*
G37*
X147202000Y-128103000D02*
X147254000Y-128111000D01*
X147305000Y-128124000D01*
X147353000Y-128143000D01*
X147400000Y-128167000D01*
X147444000Y-128195000D01*
X147485000Y-128228000D01*
X147522000Y-128265000D01*
X147555000Y-128306000D01*
X147583000Y-128350000D01*
X147607000Y-128397000D01*
X147626000Y-128445000D01*
X147639000Y-128496000D01*
X147647000Y-128548000D01*
X147650000Y-128600000D01*
X147647000Y-128652000D01*
X147639000Y-128704000D01*
X147626000Y-128755000D01*
X147607000Y-128803000D01*
X147583000Y-128850000D01*
X147555000Y-128894000D01*
X147522000Y-128935000D01*
X147485000Y-128972000D01*
X147444000Y-129005000D01*
X147400000Y-129033000D01*
X147353000Y-129057000D01*
X147305000Y-129076000D01*
X147254000Y-129089000D01*
X147202000Y-129097000D01*
X147150000Y-129100000D01*
X145350000Y-129100000D01*
X145298000Y-129097000D01*
X145246000Y-129089000D01*
X145195000Y-129076000D01*
X145147000Y-129057000D01*
X145100000Y-129033000D01*
X145056000Y-129005000D01*
X145015000Y-128972000D01*
X144978000Y-128935000D01*
X144945000Y-128894000D01*
X144917000Y-128850000D01*
X144893000Y-128803000D01*
X144874000Y-128755000D01*
X144861000Y-128704000D01*
X144853000Y-128652000D01*
X144850000Y-128600000D01*
X144853000Y-128548000D01*
X144861000Y-128496000D01*
X144874000Y-128445000D01*
X144893000Y-128397000D01*
X144917000Y-128350000D01*
X144945000Y-128306000D01*
X144978000Y-128265000D01*
X145015000Y-128228000D01*
X145056000Y-128195000D01*
X145100000Y-128167000D01*
X145147000Y-128143000D01*
X145195000Y-128124000D01*
X145246000Y-128111000D01*
X145298000Y-128103000D01*
X145350000Y-128100000D01*
X147150000Y-128100000D01*
X147202000Y-128103000D01*
X146250000Y-120480000D02*
X147150000Y-120480000D01*
X147150000Y-120480000D02*
X147202000Y-120483000D01*
X147202000Y-120483000D02*
X147254000Y-120491000D01*
X147254000Y-120491000D02*
X147305000Y-120504000D01*
X147305000Y-120504000D02*
X147353000Y-120523000D01*
X147353000Y-120523000D02*
X147400000Y-120547000D01*
X147400000Y-120547000D02*
X147444000Y-120575000D01*
X147444000Y-120575000D02*
X147485000Y-120608000D01*
X147485000Y-120608000D02*
X147522000Y-120645000D01*
X147522000Y-120645000D02*
X147555000Y-120686000D01*
X147555000Y-120686000D02*
X147583000Y-120730000D01*
X147583000Y-120730000D02*
X147607000Y-120777000D01*
X147607000Y-120777000D02*
X147626000Y-120825000D01*
X147626000Y-120825000D02*
X147639000Y-120876000D01*
X147639000Y-120876000D02*
X147647000Y-120928000D01*
X147647000Y-120928000D02*
X147650000Y-120980000D01*
X147650000Y-120980000D02*
X147647000Y-121032000D01*
X147647000Y-121032000D02*
X147639000Y-121084000D01*
X147639000Y-121084000D02*
X147626000Y-121135000D01*
X147626000Y-121135000D02*
X147607000Y-121183000D01*
X147607000Y-121183000D02*
X147583000Y-121230000D01*
X147583000Y-121230000D02*
X147555000Y-121274000D01*
X147555000Y-121274000D02*
X147522000Y-121315000D01*
X147522000Y-121315000D02*
X147485000Y-121352000D01*
X147485000Y-121352000D02*
X147444000Y-121385000D01*
X147444000Y-121385000D02*
X147400000Y-121413000D01*
X147400000Y-121413000D02*
X147353000Y-121437000D01*
X147353000Y-121437000D02*
X147305000Y-121456000D01*
X147305000Y-121456000D02*
X147254000Y-121469000D01*
X147254000Y-121469000D02*
X147202000Y-121477000D01*
X147202000Y-121477000D02*
X147150000Y-121480000D01*
X147150000Y-121480000D02*
X145350000Y-121480000D01*
X145350000Y-121480000D02*
X145298000Y-121477000D01*
X145298000Y-121477000D02*
X145246000Y-121469000D01*
X145246000Y-121469000D02*
X145195000Y-121456000D01*
X145195000Y-121456000D02*
X145147000Y-121437000D01*
X145147000Y-121437000D02*
X145100000Y-121413000D01*
X145100000Y-121413000D02*
X145056000Y-121385000D01*
X145056000Y-121385000D02*
X145015000Y-121352000D01*
X145015000Y-121352000D02*
X144978000Y-121315000D01*
X144978000Y-121315000D02*
X144945000Y-121274000D01*
X144945000Y-121274000D02*
X144917000Y-121230000D01*
X144917000Y-121230000D02*
X144893000Y-121183000D01*
X144893000Y-121183000D02*
X144874000Y-121135000D01*
X144874000Y-121135000D02*
X144861000Y-121084000D01*
X144861000Y-121084000D02*
X144853000Y-121032000D01*
X144853000Y-121032000D02*
X144850000Y-120980000D01*
X144850000Y-120980000D02*
X144853000Y-120928000D01*
X144853000Y-120928000D02*
X144861000Y-120876000D01*
X144861000Y-120876000D02*
X144874000Y-120825000D01*
X144874000Y-120825000D02*
X144893000Y-120777000D01*
X144893000Y-120777000D02*
X144917000Y-120730000D01*
X144917000Y-120730000D02*
X144945000Y-120686000D01*
X144945000Y-120686000D02*
X144978000Y-120645000D01*
X144978000Y-120645000D02*
X145015000Y-120608000D01*
X145015000Y-120608000D02*
X145056000Y-120575000D01*
X145056000Y-120575000D02*
X145100000Y-120547000D01*
X145100000Y-120547000D02*
X145147000Y-120523000D01*
X145147000Y-120523000D02*
X145195000Y-120504000D01*
X145195000Y-120504000D02*
X145246000Y-120491000D01*
X145246000Y-120491000D02*
X145298000Y-120483000D01*
X145298000Y-120483000D02*
X145350000Y-120480000D01*
X145350000Y-120480000D02*
X146250000Y-120480000D01*
X146250000Y-120480000D02*
X146250000Y-120480000D01*
G36*
X147202000Y-120483000D02*
G01*
X147254000Y-120491000D01*
X147305000Y-120504000D01*
X147353000Y-120523000D01*
X147400000Y-120547000D01*
X147444000Y-120575000D01*
X147485000Y-120608000D01*
X147522000Y-120645000D01*
X147555000Y-120686000D01*
X147583000Y-120730000D01*
X147607000Y-120777000D01*
X147626000Y-120825000D01*
X147639000Y-120876000D01*
X147647000Y-120928000D01*
X147650000Y-120980000D01*
X147647000Y-121032000D01*
X147639000Y-121084000D01*
X147626000Y-121135000D01*
X147607000Y-121183000D01*
X147583000Y-121230000D01*
X147555000Y-121274000D01*
X147522000Y-121315000D01*
X147485000Y-121352000D01*
X147444000Y-121385000D01*
X147400000Y-121413000D01*
X147353000Y-121437000D01*
X147305000Y-121456000D01*
X147254000Y-121469000D01*
X147202000Y-121477000D01*
X147150000Y-121480000D01*
X145350000Y-121480000D01*
X145298000Y-121477000D01*
X145246000Y-121469000D01*
X145195000Y-121456000D01*
X145147000Y-121437000D01*
X145100000Y-121413000D01*
X145056000Y-121385000D01*
X145015000Y-121352000D01*
X144978000Y-121315000D01*
X144945000Y-121274000D01*
X144917000Y-121230000D01*
X144893000Y-121183000D01*
X144874000Y-121135000D01*
X144861000Y-121084000D01*
X144853000Y-121032000D01*
X144850000Y-120980000D01*
X144853000Y-120928000D01*
X144861000Y-120876000D01*
X144874000Y-120825000D01*
X144893000Y-120777000D01*
X144917000Y-120730000D01*
X144945000Y-120686000D01*
X144978000Y-120645000D01*
X145015000Y-120608000D01*
X145056000Y-120575000D01*
X145100000Y-120547000D01*
X145147000Y-120523000D01*
X145195000Y-120504000D01*
X145246000Y-120491000D01*
X145298000Y-120483000D01*
X145350000Y-120480000D01*
X147150000Y-120480000D01*
X147202000Y-120483000D01*
G37*
X147202000Y-120483000D02*
X147254000Y-120491000D01*
X147305000Y-120504000D01*
X147353000Y-120523000D01*
X147400000Y-120547000D01*
X147444000Y-120575000D01*
X147485000Y-120608000D01*
X147522000Y-120645000D01*
X147555000Y-120686000D01*
X147583000Y-120730000D01*
X147607000Y-120777000D01*
X147626000Y-120825000D01*
X147639000Y-120876000D01*
X147647000Y-120928000D01*
X147650000Y-120980000D01*
X147647000Y-121032000D01*
X147639000Y-121084000D01*
X147626000Y-121135000D01*
X147607000Y-121183000D01*
X147583000Y-121230000D01*
X147555000Y-121274000D01*
X147522000Y-121315000D01*
X147485000Y-121352000D01*
X147444000Y-121385000D01*
X147400000Y-121413000D01*
X147353000Y-121437000D01*
X147305000Y-121456000D01*
X147254000Y-121469000D01*
X147202000Y-121477000D01*
X147150000Y-121480000D01*
X145350000Y-121480000D01*
X145298000Y-121477000D01*
X145246000Y-121469000D01*
X145195000Y-121456000D01*
X145147000Y-121437000D01*
X145100000Y-121413000D01*
X145056000Y-121385000D01*
X145015000Y-121352000D01*
X144978000Y-121315000D01*
X144945000Y-121274000D01*
X144917000Y-121230000D01*
X144893000Y-121183000D01*
X144874000Y-121135000D01*
X144861000Y-121084000D01*
X144853000Y-121032000D01*
X144850000Y-120980000D01*
X144853000Y-120928000D01*
X144861000Y-120876000D01*
X144874000Y-120825000D01*
X144893000Y-120777000D01*
X144917000Y-120730000D01*
X144945000Y-120686000D01*
X144978000Y-120645000D01*
X145015000Y-120608000D01*
X145056000Y-120575000D01*
X145100000Y-120547000D01*
X145147000Y-120523000D01*
X145195000Y-120504000D01*
X145246000Y-120491000D01*
X145298000Y-120483000D01*
X145350000Y-120480000D01*
X147150000Y-120480000D01*
X147202000Y-120483000D01*
X146250000Y-125560000D02*
X147150000Y-125560000D01*
X147150000Y-125560000D02*
X147202000Y-125563000D01*
X147202000Y-125563000D02*
X147254000Y-125571000D01*
X147254000Y-125571000D02*
X147305000Y-125584000D01*
X147305000Y-125584000D02*
X147353000Y-125603000D01*
X147353000Y-125603000D02*
X147400000Y-125627000D01*
X147400000Y-125627000D02*
X147444000Y-125655000D01*
X147444000Y-125655000D02*
X147485000Y-125688000D01*
X147485000Y-125688000D02*
X147522000Y-125725000D01*
X147522000Y-125725000D02*
X147555000Y-125766000D01*
X147555000Y-125766000D02*
X147583000Y-125810000D01*
X147583000Y-125810000D02*
X147607000Y-125857000D01*
X147607000Y-125857000D02*
X147626000Y-125905000D01*
X147626000Y-125905000D02*
X147639000Y-125956000D01*
X147639000Y-125956000D02*
X147647000Y-126008000D01*
X147647000Y-126008000D02*
X147650000Y-126060000D01*
X147650000Y-126060000D02*
X147647000Y-126112000D01*
X147647000Y-126112000D02*
X147639000Y-126164000D01*
X147639000Y-126164000D02*
X147626000Y-126215000D01*
X147626000Y-126215000D02*
X147607000Y-126263000D01*
X147607000Y-126263000D02*
X147583000Y-126310000D01*
X147583000Y-126310000D02*
X147555000Y-126354000D01*
X147555000Y-126354000D02*
X147522000Y-126395000D01*
X147522000Y-126395000D02*
X147485000Y-126432000D01*
X147485000Y-126432000D02*
X147444000Y-126465000D01*
X147444000Y-126465000D02*
X147400000Y-126493000D01*
X147400000Y-126493000D02*
X147353000Y-126517000D01*
X147353000Y-126517000D02*
X147305000Y-126536000D01*
X147305000Y-126536000D02*
X147254000Y-126549000D01*
X147254000Y-126549000D02*
X147202000Y-126557000D01*
X147202000Y-126557000D02*
X147150000Y-126560000D01*
X147150000Y-126560000D02*
X145350000Y-126560000D01*
X145350000Y-126560000D02*
X145298000Y-126557000D01*
X145298000Y-126557000D02*
X145246000Y-126549000D01*
X145246000Y-126549000D02*
X145195000Y-126536000D01*
X145195000Y-126536000D02*
X145147000Y-126517000D01*
X145147000Y-126517000D02*
X145100000Y-126493000D01*
X145100000Y-126493000D02*
X145056000Y-126465000D01*
X145056000Y-126465000D02*
X145015000Y-126432000D01*
X145015000Y-126432000D02*
X144978000Y-126395000D01*
X144978000Y-126395000D02*
X144945000Y-126354000D01*
X144945000Y-126354000D02*
X144917000Y-126310000D01*
X144917000Y-126310000D02*
X144893000Y-126263000D01*
X144893000Y-126263000D02*
X144874000Y-126215000D01*
X144874000Y-126215000D02*
X144861000Y-126164000D01*
X144861000Y-126164000D02*
X144853000Y-126112000D01*
X144853000Y-126112000D02*
X144850000Y-126060000D01*
X144850000Y-126060000D02*
X144853000Y-126008000D01*
X144853000Y-126008000D02*
X144861000Y-125956000D01*
X144861000Y-125956000D02*
X144874000Y-125905000D01*
X144874000Y-125905000D02*
X144893000Y-125857000D01*
X144893000Y-125857000D02*
X144917000Y-125810000D01*
X144917000Y-125810000D02*
X144945000Y-125766000D01*
X144945000Y-125766000D02*
X144978000Y-125725000D01*
X144978000Y-125725000D02*
X145015000Y-125688000D01*
X145015000Y-125688000D02*
X145056000Y-125655000D01*
X145056000Y-125655000D02*
X145100000Y-125627000D01*
X145100000Y-125627000D02*
X145147000Y-125603000D01*
X145147000Y-125603000D02*
X145195000Y-125584000D01*
X145195000Y-125584000D02*
X145246000Y-125571000D01*
X145246000Y-125571000D02*
X145298000Y-125563000D01*
X145298000Y-125563000D02*
X145350000Y-125560000D01*
X145350000Y-125560000D02*
X146250000Y-125560000D01*
X146250000Y-125560000D02*
X146250000Y-125560000D01*
G36*
X147202000Y-125563000D02*
G01*
X147254000Y-125571000D01*
X147305000Y-125584000D01*
X147353000Y-125603000D01*
X147400000Y-125627000D01*
X147444000Y-125655000D01*
X147485000Y-125688000D01*
X147522000Y-125725000D01*
X147555000Y-125766000D01*
X147583000Y-125810000D01*
X147607000Y-125857000D01*
X147626000Y-125905000D01*
X147639000Y-125956000D01*
X147647000Y-126008000D01*
X147650000Y-126060000D01*
X147647000Y-126112000D01*
X147639000Y-126164000D01*
X147626000Y-126215000D01*
X147607000Y-126263000D01*
X147583000Y-126310000D01*
X147555000Y-126354000D01*
X147522000Y-126395000D01*
X147485000Y-126432000D01*
X147444000Y-126465000D01*
X147400000Y-126493000D01*
X147353000Y-126517000D01*
X147305000Y-126536000D01*
X147254000Y-126549000D01*
X147202000Y-126557000D01*
X147150000Y-126560000D01*
X145350000Y-126560000D01*
X145298000Y-126557000D01*
X145246000Y-126549000D01*
X145195000Y-126536000D01*
X145147000Y-126517000D01*
X145100000Y-126493000D01*
X145056000Y-126465000D01*
X145015000Y-126432000D01*
X144978000Y-126395000D01*
X144945000Y-126354000D01*
X144917000Y-126310000D01*
X144893000Y-126263000D01*
X144874000Y-126215000D01*
X144861000Y-126164000D01*
X144853000Y-126112000D01*
X144850000Y-126060000D01*
X144853000Y-126008000D01*
X144861000Y-125956000D01*
X144874000Y-125905000D01*
X144893000Y-125857000D01*
X144917000Y-125810000D01*
X144945000Y-125766000D01*
X144978000Y-125725000D01*
X145015000Y-125688000D01*
X145056000Y-125655000D01*
X145100000Y-125627000D01*
X145147000Y-125603000D01*
X145195000Y-125584000D01*
X145246000Y-125571000D01*
X145298000Y-125563000D01*
X145350000Y-125560000D01*
X147150000Y-125560000D01*
X147202000Y-125563000D01*
G37*
X147202000Y-125563000D02*
X147254000Y-125571000D01*
X147305000Y-125584000D01*
X147353000Y-125603000D01*
X147400000Y-125627000D01*
X147444000Y-125655000D01*
X147485000Y-125688000D01*
X147522000Y-125725000D01*
X147555000Y-125766000D01*
X147583000Y-125810000D01*
X147607000Y-125857000D01*
X147626000Y-125905000D01*
X147639000Y-125956000D01*
X147647000Y-126008000D01*
X147650000Y-126060000D01*
X147647000Y-126112000D01*
X147639000Y-126164000D01*
X147626000Y-126215000D01*
X147607000Y-126263000D01*
X147583000Y-126310000D01*
X147555000Y-126354000D01*
X147522000Y-126395000D01*
X147485000Y-126432000D01*
X147444000Y-126465000D01*
X147400000Y-126493000D01*
X147353000Y-126517000D01*
X147305000Y-126536000D01*
X147254000Y-126549000D01*
X147202000Y-126557000D01*
X147150000Y-126560000D01*
X145350000Y-126560000D01*
X145298000Y-126557000D01*
X145246000Y-126549000D01*
X145195000Y-126536000D01*
X145147000Y-126517000D01*
X145100000Y-126493000D01*
X145056000Y-126465000D01*
X145015000Y-126432000D01*
X144978000Y-126395000D01*
X144945000Y-126354000D01*
X144917000Y-126310000D01*
X144893000Y-126263000D01*
X144874000Y-126215000D01*
X144861000Y-126164000D01*
X144853000Y-126112000D01*
X144850000Y-126060000D01*
X144853000Y-126008000D01*
X144861000Y-125956000D01*
X144874000Y-125905000D01*
X144893000Y-125857000D01*
X144917000Y-125810000D01*
X144945000Y-125766000D01*
X144978000Y-125725000D01*
X145015000Y-125688000D01*
X145056000Y-125655000D01*
X145100000Y-125627000D01*
X145147000Y-125603000D01*
X145195000Y-125584000D01*
X145246000Y-125571000D01*
X145298000Y-125563000D01*
X145350000Y-125560000D01*
X147150000Y-125560000D01*
X147202000Y-125563000D01*
X130250000Y-115400000D02*
X131150000Y-115400000D01*
X131150000Y-115400000D02*
X131202000Y-115403000D01*
X131202000Y-115403000D02*
X131254000Y-115411000D01*
X131254000Y-115411000D02*
X131305000Y-115424000D01*
X131305000Y-115424000D02*
X131353000Y-115443000D01*
X131353000Y-115443000D02*
X131400000Y-115467000D01*
X131400000Y-115467000D02*
X131444000Y-115495000D01*
X131444000Y-115495000D02*
X131485000Y-115528000D01*
X131485000Y-115528000D02*
X131522000Y-115565000D01*
X131522000Y-115565000D02*
X131555000Y-115606000D01*
X131555000Y-115606000D02*
X131583000Y-115650000D01*
X131583000Y-115650000D02*
X131607000Y-115697000D01*
X131607000Y-115697000D02*
X131626000Y-115745000D01*
X131626000Y-115745000D02*
X131639000Y-115796000D01*
X131639000Y-115796000D02*
X131647000Y-115848000D01*
X131647000Y-115848000D02*
X131650000Y-115900000D01*
X131650000Y-115900000D02*
X131647000Y-115952000D01*
X131647000Y-115952000D02*
X131639000Y-116004000D01*
X131639000Y-116004000D02*
X131626000Y-116055000D01*
X131626000Y-116055000D02*
X131607000Y-116103000D01*
X131607000Y-116103000D02*
X131583000Y-116150000D01*
X131583000Y-116150000D02*
X131555000Y-116194000D01*
X131555000Y-116194000D02*
X131522000Y-116235000D01*
X131522000Y-116235000D02*
X131485000Y-116272000D01*
X131485000Y-116272000D02*
X131444000Y-116305000D01*
X131444000Y-116305000D02*
X131400000Y-116333000D01*
X131400000Y-116333000D02*
X131353000Y-116357000D01*
X131353000Y-116357000D02*
X131305000Y-116376000D01*
X131305000Y-116376000D02*
X131254000Y-116389000D01*
X131254000Y-116389000D02*
X131202000Y-116397000D01*
X131202000Y-116397000D02*
X131150000Y-116400000D01*
X131150000Y-116400000D02*
X129350000Y-116400000D01*
X129350000Y-116400000D02*
X129298000Y-116397000D01*
X129298000Y-116397000D02*
X129246000Y-116389000D01*
X129246000Y-116389000D02*
X129195000Y-116376000D01*
X129195000Y-116376000D02*
X129147000Y-116357000D01*
X129147000Y-116357000D02*
X129100000Y-116333000D01*
X129100000Y-116333000D02*
X129056000Y-116305000D01*
X129056000Y-116305000D02*
X129015000Y-116272000D01*
X129015000Y-116272000D02*
X128978000Y-116235000D01*
X128978000Y-116235000D02*
X128945000Y-116194000D01*
X128945000Y-116194000D02*
X128917000Y-116150000D01*
X128917000Y-116150000D02*
X128893000Y-116103000D01*
X128893000Y-116103000D02*
X128874000Y-116055000D01*
X128874000Y-116055000D02*
X128861000Y-116004000D01*
X128861000Y-116004000D02*
X128853000Y-115952000D01*
X128853000Y-115952000D02*
X128850000Y-115900000D01*
X128850000Y-115900000D02*
X128853000Y-115848000D01*
X128853000Y-115848000D02*
X128861000Y-115796000D01*
X128861000Y-115796000D02*
X128874000Y-115745000D01*
X128874000Y-115745000D02*
X128893000Y-115697000D01*
X128893000Y-115697000D02*
X128917000Y-115650000D01*
X128917000Y-115650000D02*
X128945000Y-115606000D01*
X128945000Y-115606000D02*
X128978000Y-115565000D01*
X128978000Y-115565000D02*
X129015000Y-115528000D01*
X129015000Y-115528000D02*
X129056000Y-115495000D01*
X129056000Y-115495000D02*
X129100000Y-115467000D01*
X129100000Y-115467000D02*
X129147000Y-115443000D01*
X129147000Y-115443000D02*
X129195000Y-115424000D01*
X129195000Y-115424000D02*
X129246000Y-115411000D01*
X129246000Y-115411000D02*
X129298000Y-115403000D01*
X129298000Y-115403000D02*
X129350000Y-115400000D01*
X129350000Y-115400000D02*
X130250000Y-115400000D01*
X130250000Y-115400000D02*
X130250000Y-115400000D01*
G36*
X131202000Y-115403000D02*
G01*
X131254000Y-115411000D01*
X131305000Y-115424000D01*
X131353000Y-115443000D01*
X131400000Y-115467000D01*
X131444000Y-115495000D01*
X131485000Y-115528000D01*
X131522000Y-115565000D01*
X131555000Y-115606000D01*
X131583000Y-115650000D01*
X131607000Y-115697000D01*
X131626000Y-115745000D01*
X131639000Y-115796000D01*
X131647000Y-115848000D01*
X131650000Y-115900000D01*
X131647000Y-115952000D01*
X131639000Y-116004000D01*
X131626000Y-116055000D01*
X131607000Y-116103000D01*
X131583000Y-116150000D01*
X131555000Y-116194000D01*
X131522000Y-116235000D01*
X131485000Y-116272000D01*
X131444000Y-116305000D01*
X131400000Y-116333000D01*
X131353000Y-116357000D01*
X131305000Y-116376000D01*
X131254000Y-116389000D01*
X131202000Y-116397000D01*
X131150000Y-116400000D01*
X129350000Y-116400000D01*
X129298000Y-116397000D01*
X129246000Y-116389000D01*
X129195000Y-116376000D01*
X129147000Y-116357000D01*
X129100000Y-116333000D01*
X129056000Y-116305000D01*
X129015000Y-116272000D01*
X128978000Y-116235000D01*
X128945000Y-116194000D01*
X128917000Y-116150000D01*
X128893000Y-116103000D01*
X128874000Y-116055000D01*
X128861000Y-116004000D01*
X128853000Y-115952000D01*
X128850000Y-115900000D01*
X128853000Y-115848000D01*
X128861000Y-115796000D01*
X128874000Y-115745000D01*
X128893000Y-115697000D01*
X128917000Y-115650000D01*
X128945000Y-115606000D01*
X128978000Y-115565000D01*
X129015000Y-115528000D01*
X129056000Y-115495000D01*
X129100000Y-115467000D01*
X129147000Y-115443000D01*
X129195000Y-115424000D01*
X129246000Y-115411000D01*
X129298000Y-115403000D01*
X129350000Y-115400000D01*
X131150000Y-115400000D01*
X131202000Y-115403000D01*
G37*
X131202000Y-115403000D02*
X131254000Y-115411000D01*
X131305000Y-115424000D01*
X131353000Y-115443000D01*
X131400000Y-115467000D01*
X131444000Y-115495000D01*
X131485000Y-115528000D01*
X131522000Y-115565000D01*
X131555000Y-115606000D01*
X131583000Y-115650000D01*
X131607000Y-115697000D01*
X131626000Y-115745000D01*
X131639000Y-115796000D01*
X131647000Y-115848000D01*
X131650000Y-115900000D01*
X131647000Y-115952000D01*
X131639000Y-116004000D01*
X131626000Y-116055000D01*
X131607000Y-116103000D01*
X131583000Y-116150000D01*
X131555000Y-116194000D01*
X131522000Y-116235000D01*
X131485000Y-116272000D01*
X131444000Y-116305000D01*
X131400000Y-116333000D01*
X131353000Y-116357000D01*
X131305000Y-116376000D01*
X131254000Y-116389000D01*
X131202000Y-116397000D01*
X131150000Y-116400000D01*
X129350000Y-116400000D01*
X129298000Y-116397000D01*
X129246000Y-116389000D01*
X129195000Y-116376000D01*
X129147000Y-116357000D01*
X129100000Y-116333000D01*
X129056000Y-116305000D01*
X129015000Y-116272000D01*
X128978000Y-116235000D01*
X128945000Y-116194000D01*
X128917000Y-116150000D01*
X128893000Y-116103000D01*
X128874000Y-116055000D01*
X128861000Y-116004000D01*
X128853000Y-115952000D01*
X128850000Y-115900000D01*
X128853000Y-115848000D01*
X128861000Y-115796000D01*
X128874000Y-115745000D01*
X128893000Y-115697000D01*
X128917000Y-115650000D01*
X128945000Y-115606000D01*
X128978000Y-115565000D01*
X129015000Y-115528000D01*
X129056000Y-115495000D01*
X129100000Y-115467000D01*
X129147000Y-115443000D01*
X129195000Y-115424000D01*
X129246000Y-115411000D01*
X129298000Y-115403000D01*
X129350000Y-115400000D01*
X131150000Y-115400000D01*
X131202000Y-115403000D01*
X130250000Y-123020000D02*
X131150000Y-123020000D01*
X131150000Y-123020000D02*
X131202000Y-123023000D01*
X131202000Y-123023000D02*
X131254000Y-123031000D01*
X131254000Y-123031000D02*
X131305000Y-123044000D01*
X131305000Y-123044000D02*
X131353000Y-123063000D01*
X131353000Y-123063000D02*
X131400000Y-123087000D01*
X131400000Y-123087000D02*
X131444000Y-123115000D01*
X131444000Y-123115000D02*
X131485000Y-123148000D01*
X131485000Y-123148000D02*
X131522000Y-123185000D01*
X131522000Y-123185000D02*
X131555000Y-123226000D01*
X131555000Y-123226000D02*
X131583000Y-123270000D01*
X131583000Y-123270000D02*
X131607000Y-123317000D01*
X131607000Y-123317000D02*
X131626000Y-123365000D01*
X131626000Y-123365000D02*
X131639000Y-123416000D01*
X131639000Y-123416000D02*
X131647000Y-123468000D01*
X131647000Y-123468000D02*
X131650000Y-123520000D01*
X131650000Y-123520000D02*
X131647000Y-123572000D01*
X131647000Y-123572000D02*
X131639000Y-123624000D01*
X131639000Y-123624000D02*
X131626000Y-123675000D01*
X131626000Y-123675000D02*
X131607000Y-123723000D01*
X131607000Y-123723000D02*
X131583000Y-123770000D01*
X131583000Y-123770000D02*
X131555000Y-123814000D01*
X131555000Y-123814000D02*
X131522000Y-123855000D01*
X131522000Y-123855000D02*
X131485000Y-123892000D01*
X131485000Y-123892000D02*
X131444000Y-123925000D01*
X131444000Y-123925000D02*
X131400000Y-123953000D01*
X131400000Y-123953000D02*
X131353000Y-123977000D01*
X131353000Y-123977000D02*
X131305000Y-123996000D01*
X131305000Y-123996000D02*
X131254000Y-124009000D01*
X131254000Y-124009000D02*
X131202000Y-124017000D01*
X131202000Y-124017000D02*
X131150000Y-124020000D01*
X131150000Y-124020000D02*
X129350000Y-124020000D01*
X129350000Y-124020000D02*
X129298000Y-124017000D01*
X129298000Y-124017000D02*
X129246000Y-124009000D01*
X129246000Y-124009000D02*
X129195000Y-123996000D01*
X129195000Y-123996000D02*
X129147000Y-123977000D01*
X129147000Y-123977000D02*
X129100000Y-123953000D01*
X129100000Y-123953000D02*
X129056000Y-123925000D01*
X129056000Y-123925000D02*
X129015000Y-123892000D01*
X129015000Y-123892000D02*
X128978000Y-123855000D01*
X128978000Y-123855000D02*
X128945000Y-123814000D01*
X128945000Y-123814000D02*
X128917000Y-123770000D01*
X128917000Y-123770000D02*
X128893000Y-123723000D01*
X128893000Y-123723000D02*
X128874000Y-123675000D01*
X128874000Y-123675000D02*
X128861000Y-123624000D01*
X128861000Y-123624000D02*
X128853000Y-123572000D01*
X128853000Y-123572000D02*
X128850000Y-123520000D01*
X128850000Y-123520000D02*
X128853000Y-123468000D01*
X128853000Y-123468000D02*
X128861000Y-123416000D01*
X128861000Y-123416000D02*
X128874000Y-123365000D01*
X128874000Y-123365000D02*
X128893000Y-123317000D01*
X128893000Y-123317000D02*
X128917000Y-123270000D01*
X128917000Y-123270000D02*
X128945000Y-123226000D01*
X128945000Y-123226000D02*
X128978000Y-123185000D01*
X128978000Y-123185000D02*
X129015000Y-123148000D01*
X129015000Y-123148000D02*
X129056000Y-123115000D01*
X129056000Y-123115000D02*
X129100000Y-123087000D01*
X129100000Y-123087000D02*
X129147000Y-123063000D01*
X129147000Y-123063000D02*
X129195000Y-123044000D01*
X129195000Y-123044000D02*
X129246000Y-123031000D01*
X129246000Y-123031000D02*
X129298000Y-123023000D01*
X129298000Y-123023000D02*
X129350000Y-123020000D01*
X129350000Y-123020000D02*
X130250000Y-123020000D01*
X130250000Y-123020000D02*
X130250000Y-123020000D01*
G36*
X131202000Y-123023000D02*
G01*
X131254000Y-123031000D01*
X131305000Y-123044000D01*
X131353000Y-123063000D01*
X131400000Y-123087000D01*
X131444000Y-123115000D01*
X131485000Y-123148000D01*
X131522000Y-123185000D01*
X131555000Y-123226000D01*
X131583000Y-123270000D01*
X131607000Y-123317000D01*
X131626000Y-123365000D01*
X131639000Y-123416000D01*
X131647000Y-123468000D01*
X131650000Y-123520000D01*
X131647000Y-123572000D01*
X131639000Y-123624000D01*
X131626000Y-123675000D01*
X131607000Y-123723000D01*
X131583000Y-123770000D01*
X131555000Y-123814000D01*
X131522000Y-123855000D01*
X131485000Y-123892000D01*
X131444000Y-123925000D01*
X131400000Y-123953000D01*
X131353000Y-123977000D01*
X131305000Y-123996000D01*
X131254000Y-124009000D01*
X131202000Y-124017000D01*
X131150000Y-124020000D01*
X129350000Y-124020000D01*
X129298000Y-124017000D01*
X129246000Y-124009000D01*
X129195000Y-123996000D01*
X129147000Y-123977000D01*
X129100000Y-123953000D01*
X129056000Y-123925000D01*
X129015000Y-123892000D01*
X128978000Y-123855000D01*
X128945000Y-123814000D01*
X128917000Y-123770000D01*
X128893000Y-123723000D01*
X128874000Y-123675000D01*
X128861000Y-123624000D01*
X128853000Y-123572000D01*
X128850000Y-123520000D01*
X128853000Y-123468000D01*
X128861000Y-123416000D01*
X128874000Y-123365000D01*
X128893000Y-123317000D01*
X128917000Y-123270000D01*
X128945000Y-123226000D01*
X128978000Y-123185000D01*
X129015000Y-123148000D01*
X129056000Y-123115000D01*
X129100000Y-123087000D01*
X129147000Y-123063000D01*
X129195000Y-123044000D01*
X129246000Y-123031000D01*
X129298000Y-123023000D01*
X129350000Y-123020000D01*
X131150000Y-123020000D01*
X131202000Y-123023000D01*
G37*
X131202000Y-123023000D02*
X131254000Y-123031000D01*
X131305000Y-123044000D01*
X131353000Y-123063000D01*
X131400000Y-123087000D01*
X131444000Y-123115000D01*
X131485000Y-123148000D01*
X131522000Y-123185000D01*
X131555000Y-123226000D01*
X131583000Y-123270000D01*
X131607000Y-123317000D01*
X131626000Y-123365000D01*
X131639000Y-123416000D01*
X131647000Y-123468000D01*
X131650000Y-123520000D01*
X131647000Y-123572000D01*
X131639000Y-123624000D01*
X131626000Y-123675000D01*
X131607000Y-123723000D01*
X131583000Y-123770000D01*
X131555000Y-123814000D01*
X131522000Y-123855000D01*
X131485000Y-123892000D01*
X131444000Y-123925000D01*
X131400000Y-123953000D01*
X131353000Y-123977000D01*
X131305000Y-123996000D01*
X131254000Y-124009000D01*
X131202000Y-124017000D01*
X131150000Y-124020000D01*
X129350000Y-124020000D01*
X129298000Y-124017000D01*
X129246000Y-124009000D01*
X129195000Y-123996000D01*
X129147000Y-123977000D01*
X129100000Y-123953000D01*
X129056000Y-123925000D01*
X129015000Y-123892000D01*
X128978000Y-123855000D01*
X128945000Y-123814000D01*
X128917000Y-123770000D01*
X128893000Y-123723000D01*
X128874000Y-123675000D01*
X128861000Y-123624000D01*
X128853000Y-123572000D01*
X128850000Y-123520000D01*
X128853000Y-123468000D01*
X128861000Y-123416000D01*
X128874000Y-123365000D01*
X128893000Y-123317000D01*
X128917000Y-123270000D01*
X128945000Y-123226000D01*
X128978000Y-123185000D01*
X129015000Y-123148000D01*
X129056000Y-123115000D01*
X129100000Y-123087000D01*
X129147000Y-123063000D01*
X129195000Y-123044000D01*
X129246000Y-123031000D01*
X129298000Y-123023000D01*
X129350000Y-123020000D01*
X131150000Y-123020000D01*
X131202000Y-123023000D01*
X130250000Y-125560000D02*
X131150000Y-125560000D01*
X131150000Y-125560000D02*
X131202000Y-125563000D01*
X131202000Y-125563000D02*
X131254000Y-125571000D01*
X131254000Y-125571000D02*
X131305000Y-125584000D01*
X131305000Y-125584000D02*
X131353000Y-125603000D01*
X131353000Y-125603000D02*
X131400000Y-125627000D01*
X131400000Y-125627000D02*
X131444000Y-125655000D01*
X131444000Y-125655000D02*
X131485000Y-125688000D01*
X131485000Y-125688000D02*
X131522000Y-125725000D01*
X131522000Y-125725000D02*
X131555000Y-125766000D01*
X131555000Y-125766000D02*
X131583000Y-125810000D01*
X131583000Y-125810000D02*
X131607000Y-125857000D01*
X131607000Y-125857000D02*
X131626000Y-125905000D01*
X131626000Y-125905000D02*
X131639000Y-125956000D01*
X131639000Y-125956000D02*
X131647000Y-126008000D01*
X131647000Y-126008000D02*
X131650000Y-126060000D01*
X131650000Y-126060000D02*
X131647000Y-126112000D01*
X131647000Y-126112000D02*
X131639000Y-126164000D01*
X131639000Y-126164000D02*
X131626000Y-126215000D01*
X131626000Y-126215000D02*
X131607000Y-126263000D01*
X131607000Y-126263000D02*
X131583000Y-126310000D01*
X131583000Y-126310000D02*
X131555000Y-126354000D01*
X131555000Y-126354000D02*
X131522000Y-126395000D01*
X131522000Y-126395000D02*
X131485000Y-126432000D01*
X131485000Y-126432000D02*
X131444000Y-126465000D01*
X131444000Y-126465000D02*
X131400000Y-126493000D01*
X131400000Y-126493000D02*
X131353000Y-126517000D01*
X131353000Y-126517000D02*
X131305000Y-126536000D01*
X131305000Y-126536000D02*
X131254000Y-126549000D01*
X131254000Y-126549000D02*
X131202000Y-126557000D01*
X131202000Y-126557000D02*
X131150000Y-126560000D01*
X131150000Y-126560000D02*
X129350000Y-126560000D01*
X129350000Y-126560000D02*
X129298000Y-126557000D01*
X129298000Y-126557000D02*
X129246000Y-126549000D01*
X129246000Y-126549000D02*
X129195000Y-126536000D01*
X129195000Y-126536000D02*
X129147000Y-126517000D01*
X129147000Y-126517000D02*
X129100000Y-126493000D01*
X129100000Y-126493000D02*
X129056000Y-126465000D01*
X129056000Y-126465000D02*
X129015000Y-126432000D01*
X129015000Y-126432000D02*
X128978000Y-126395000D01*
X128978000Y-126395000D02*
X128945000Y-126354000D01*
X128945000Y-126354000D02*
X128917000Y-126310000D01*
X128917000Y-126310000D02*
X128893000Y-126263000D01*
X128893000Y-126263000D02*
X128874000Y-126215000D01*
X128874000Y-126215000D02*
X128861000Y-126164000D01*
X128861000Y-126164000D02*
X128853000Y-126112000D01*
X128853000Y-126112000D02*
X128850000Y-126060000D01*
X128850000Y-126060000D02*
X128853000Y-126008000D01*
X128853000Y-126008000D02*
X128861000Y-125956000D01*
X128861000Y-125956000D02*
X128874000Y-125905000D01*
X128874000Y-125905000D02*
X128893000Y-125857000D01*
X128893000Y-125857000D02*
X128917000Y-125810000D01*
X128917000Y-125810000D02*
X128945000Y-125766000D01*
X128945000Y-125766000D02*
X128978000Y-125725000D01*
X128978000Y-125725000D02*
X129015000Y-125688000D01*
X129015000Y-125688000D02*
X129056000Y-125655000D01*
X129056000Y-125655000D02*
X129100000Y-125627000D01*
X129100000Y-125627000D02*
X129147000Y-125603000D01*
X129147000Y-125603000D02*
X129195000Y-125584000D01*
X129195000Y-125584000D02*
X129246000Y-125571000D01*
X129246000Y-125571000D02*
X129298000Y-125563000D01*
X129298000Y-125563000D02*
X129350000Y-125560000D01*
X129350000Y-125560000D02*
X130250000Y-125560000D01*
X130250000Y-125560000D02*
X130250000Y-125560000D01*
G36*
X131202000Y-125563000D02*
G01*
X131254000Y-125571000D01*
X131305000Y-125584000D01*
X131353000Y-125603000D01*
X131400000Y-125627000D01*
X131444000Y-125655000D01*
X131485000Y-125688000D01*
X131522000Y-125725000D01*
X131555000Y-125766000D01*
X131583000Y-125810000D01*
X131607000Y-125857000D01*
X131626000Y-125905000D01*
X131639000Y-125956000D01*
X131647000Y-126008000D01*
X131650000Y-126060000D01*
X131647000Y-126112000D01*
X131639000Y-126164000D01*
X131626000Y-126215000D01*
X131607000Y-126263000D01*
X131583000Y-126310000D01*
X131555000Y-126354000D01*
X131522000Y-126395000D01*
X131485000Y-126432000D01*
X131444000Y-126465000D01*
X131400000Y-126493000D01*
X131353000Y-126517000D01*
X131305000Y-126536000D01*
X131254000Y-126549000D01*
X131202000Y-126557000D01*
X131150000Y-126560000D01*
X129350000Y-126560000D01*
X129298000Y-126557000D01*
X129246000Y-126549000D01*
X129195000Y-126536000D01*
X129147000Y-126517000D01*
X129100000Y-126493000D01*
X129056000Y-126465000D01*
X129015000Y-126432000D01*
X128978000Y-126395000D01*
X128945000Y-126354000D01*
X128917000Y-126310000D01*
X128893000Y-126263000D01*
X128874000Y-126215000D01*
X128861000Y-126164000D01*
X128853000Y-126112000D01*
X128850000Y-126060000D01*
X128853000Y-126008000D01*
X128861000Y-125956000D01*
X128874000Y-125905000D01*
X128893000Y-125857000D01*
X128917000Y-125810000D01*
X128945000Y-125766000D01*
X128978000Y-125725000D01*
X129015000Y-125688000D01*
X129056000Y-125655000D01*
X129100000Y-125627000D01*
X129147000Y-125603000D01*
X129195000Y-125584000D01*
X129246000Y-125571000D01*
X129298000Y-125563000D01*
X129350000Y-125560000D01*
X131150000Y-125560000D01*
X131202000Y-125563000D01*
G37*
X131202000Y-125563000D02*
X131254000Y-125571000D01*
X131305000Y-125584000D01*
X131353000Y-125603000D01*
X131400000Y-125627000D01*
X131444000Y-125655000D01*
X131485000Y-125688000D01*
X131522000Y-125725000D01*
X131555000Y-125766000D01*
X131583000Y-125810000D01*
X131607000Y-125857000D01*
X131626000Y-125905000D01*
X131639000Y-125956000D01*
X131647000Y-126008000D01*
X131650000Y-126060000D01*
X131647000Y-126112000D01*
X131639000Y-126164000D01*
X131626000Y-126215000D01*
X131607000Y-126263000D01*
X131583000Y-126310000D01*
X131555000Y-126354000D01*
X131522000Y-126395000D01*
X131485000Y-126432000D01*
X131444000Y-126465000D01*
X131400000Y-126493000D01*
X131353000Y-126517000D01*
X131305000Y-126536000D01*
X131254000Y-126549000D01*
X131202000Y-126557000D01*
X131150000Y-126560000D01*
X129350000Y-126560000D01*
X129298000Y-126557000D01*
X129246000Y-126549000D01*
X129195000Y-126536000D01*
X129147000Y-126517000D01*
X129100000Y-126493000D01*
X129056000Y-126465000D01*
X129015000Y-126432000D01*
X128978000Y-126395000D01*
X128945000Y-126354000D01*
X128917000Y-126310000D01*
X128893000Y-126263000D01*
X128874000Y-126215000D01*
X128861000Y-126164000D01*
X128853000Y-126112000D01*
X128850000Y-126060000D01*
X128853000Y-126008000D01*
X128861000Y-125956000D01*
X128874000Y-125905000D01*
X128893000Y-125857000D01*
X128917000Y-125810000D01*
X128945000Y-125766000D01*
X128978000Y-125725000D01*
X129015000Y-125688000D01*
X129056000Y-125655000D01*
X129100000Y-125627000D01*
X129147000Y-125603000D01*
X129195000Y-125584000D01*
X129246000Y-125571000D01*
X129298000Y-125563000D01*
X129350000Y-125560000D01*
X131150000Y-125560000D01*
X131202000Y-125563000D01*
X146250000Y-115400000D02*
X147150000Y-115400000D01*
X147150000Y-115400000D02*
X147202000Y-115403000D01*
X147202000Y-115403000D02*
X147254000Y-115411000D01*
X147254000Y-115411000D02*
X147305000Y-115424000D01*
X147305000Y-115424000D02*
X147353000Y-115443000D01*
X147353000Y-115443000D02*
X147400000Y-115467000D01*
X147400000Y-115467000D02*
X147444000Y-115495000D01*
X147444000Y-115495000D02*
X147485000Y-115528000D01*
X147485000Y-115528000D02*
X147522000Y-115565000D01*
X147522000Y-115565000D02*
X147555000Y-115606000D01*
X147555000Y-115606000D02*
X147583000Y-115650000D01*
X147583000Y-115650000D02*
X147607000Y-115697000D01*
X147607000Y-115697000D02*
X147626000Y-115745000D01*
X147626000Y-115745000D02*
X147639000Y-115796000D01*
X147639000Y-115796000D02*
X147647000Y-115848000D01*
X147647000Y-115848000D02*
X147650000Y-115900000D01*
X147650000Y-115900000D02*
X147647000Y-115952000D01*
X147647000Y-115952000D02*
X147639000Y-116004000D01*
X147639000Y-116004000D02*
X147626000Y-116055000D01*
X147626000Y-116055000D02*
X147607000Y-116103000D01*
X147607000Y-116103000D02*
X147583000Y-116150000D01*
X147583000Y-116150000D02*
X147555000Y-116194000D01*
X147555000Y-116194000D02*
X147522000Y-116235000D01*
X147522000Y-116235000D02*
X147485000Y-116272000D01*
X147485000Y-116272000D02*
X147444000Y-116305000D01*
X147444000Y-116305000D02*
X147400000Y-116333000D01*
X147400000Y-116333000D02*
X147353000Y-116357000D01*
X147353000Y-116357000D02*
X147305000Y-116376000D01*
X147305000Y-116376000D02*
X147254000Y-116389000D01*
X147254000Y-116389000D02*
X147202000Y-116397000D01*
X147202000Y-116397000D02*
X147150000Y-116400000D01*
X147150000Y-116400000D02*
X145350000Y-116400000D01*
X145350000Y-116400000D02*
X145298000Y-116397000D01*
X145298000Y-116397000D02*
X145246000Y-116389000D01*
X145246000Y-116389000D02*
X145195000Y-116376000D01*
X145195000Y-116376000D02*
X145147000Y-116357000D01*
X145147000Y-116357000D02*
X145100000Y-116333000D01*
X145100000Y-116333000D02*
X145056000Y-116305000D01*
X145056000Y-116305000D02*
X145015000Y-116272000D01*
X145015000Y-116272000D02*
X144978000Y-116235000D01*
X144978000Y-116235000D02*
X144945000Y-116194000D01*
X144945000Y-116194000D02*
X144917000Y-116150000D01*
X144917000Y-116150000D02*
X144893000Y-116103000D01*
X144893000Y-116103000D02*
X144874000Y-116055000D01*
X144874000Y-116055000D02*
X144861000Y-116004000D01*
X144861000Y-116004000D02*
X144853000Y-115952000D01*
X144853000Y-115952000D02*
X144850000Y-115900000D01*
X144850000Y-115900000D02*
X144853000Y-115848000D01*
X144853000Y-115848000D02*
X144861000Y-115796000D01*
X144861000Y-115796000D02*
X144874000Y-115745000D01*
X144874000Y-115745000D02*
X144893000Y-115697000D01*
X144893000Y-115697000D02*
X144917000Y-115650000D01*
X144917000Y-115650000D02*
X144945000Y-115606000D01*
X144945000Y-115606000D02*
X144978000Y-115565000D01*
X144978000Y-115565000D02*
X145015000Y-115528000D01*
X145015000Y-115528000D02*
X145056000Y-115495000D01*
X145056000Y-115495000D02*
X145100000Y-115467000D01*
X145100000Y-115467000D02*
X145147000Y-115443000D01*
X145147000Y-115443000D02*
X145195000Y-115424000D01*
X145195000Y-115424000D02*
X145246000Y-115411000D01*
X145246000Y-115411000D02*
X145298000Y-115403000D01*
X145298000Y-115403000D02*
X145350000Y-115400000D01*
X145350000Y-115400000D02*
X146250000Y-115400000D01*
X146250000Y-115400000D02*
X146250000Y-115400000D01*
G36*
X147202000Y-115403000D02*
G01*
X147254000Y-115411000D01*
X147305000Y-115424000D01*
X147353000Y-115443000D01*
X147400000Y-115467000D01*
X147444000Y-115495000D01*
X147485000Y-115528000D01*
X147522000Y-115565000D01*
X147555000Y-115606000D01*
X147583000Y-115650000D01*
X147607000Y-115697000D01*
X147626000Y-115745000D01*
X147639000Y-115796000D01*
X147647000Y-115848000D01*
X147650000Y-115900000D01*
X147647000Y-115952000D01*
X147639000Y-116004000D01*
X147626000Y-116055000D01*
X147607000Y-116103000D01*
X147583000Y-116150000D01*
X147555000Y-116194000D01*
X147522000Y-116235000D01*
X147485000Y-116272000D01*
X147444000Y-116305000D01*
X147400000Y-116333000D01*
X147353000Y-116357000D01*
X147305000Y-116376000D01*
X147254000Y-116389000D01*
X147202000Y-116397000D01*
X147150000Y-116400000D01*
X145350000Y-116400000D01*
X145298000Y-116397000D01*
X145246000Y-116389000D01*
X145195000Y-116376000D01*
X145147000Y-116357000D01*
X145100000Y-116333000D01*
X145056000Y-116305000D01*
X145015000Y-116272000D01*
X144978000Y-116235000D01*
X144945000Y-116194000D01*
X144917000Y-116150000D01*
X144893000Y-116103000D01*
X144874000Y-116055000D01*
X144861000Y-116004000D01*
X144853000Y-115952000D01*
X144850000Y-115900000D01*
X144853000Y-115848000D01*
X144861000Y-115796000D01*
X144874000Y-115745000D01*
X144893000Y-115697000D01*
X144917000Y-115650000D01*
X144945000Y-115606000D01*
X144978000Y-115565000D01*
X145015000Y-115528000D01*
X145056000Y-115495000D01*
X145100000Y-115467000D01*
X145147000Y-115443000D01*
X145195000Y-115424000D01*
X145246000Y-115411000D01*
X145298000Y-115403000D01*
X145350000Y-115400000D01*
X147150000Y-115400000D01*
X147202000Y-115403000D01*
G37*
X147202000Y-115403000D02*
X147254000Y-115411000D01*
X147305000Y-115424000D01*
X147353000Y-115443000D01*
X147400000Y-115467000D01*
X147444000Y-115495000D01*
X147485000Y-115528000D01*
X147522000Y-115565000D01*
X147555000Y-115606000D01*
X147583000Y-115650000D01*
X147607000Y-115697000D01*
X147626000Y-115745000D01*
X147639000Y-115796000D01*
X147647000Y-115848000D01*
X147650000Y-115900000D01*
X147647000Y-115952000D01*
X147639000Y-116004000D01*
X147626000Y-116055000D01*
X147607000Y-116103000D01*
X147583000Y-116150000D01*
X147555000Y-116194000D01*
X147522000Y-116235000D01*
X147485000Y-116272000D01*
X147444000Y-116305000D01*
X147400000Y-116333000D01*
X147353000Y-116357000D01*
X147305000Y-116376000D01*
X147254000Y-116389000D01*
X147202000Y-116397000D01*
X147150000Y-116400000D01*
X145350000Y-116400000D01*
X145298000Y-116397000D01*
X145246000Y-116389000D01*
X145195000Y-116376000D01*
X145147000Y-116357000D01*
X145100000Y-116333000D01*
X145056000Y-116305000D01*
X145015000Y-116272000D01*
X144978000Y-116235000D01*
X144945000Y-116194000D01*
X144917000Y-116150000D01*
X144893000Y-116103000D01*
X144874000Y-116055000D01*
X144861000Y-116004000D01*
X144853000Y-115952000D01*
X144850000Y-115900000D01*
X144853000Y-115848000D01*
X144861000Y-115796000D01*
X144874000Y-115745000D01*
X144893000Y-115697000D01*
X144917000Y-115650000D01*
X144945000Y-115606000D01*
X144978000Y-115565000D01*
X145015000Y-115528000D01*
X145056000Y-115495000D01*
X145100000Y-115467000D01*
X145147000Y-115443000D01*
X145195000Y-115424000D01*
X145246000Y-115411000D01*
X145298000Y-115403000D01*
X145350000Y-115400000D01*
X147150000Y-115400000D01*
X147202000Y-115403000D01*
X146250000Y-123020000D02*
X147150000Y-123020000D01*
X147150000Y-123020000D02*
X147202000Y-123023000D01*
X147202000Y-123023000D02*
X147254000Y-123031000D01*
X147254000Y-123031000D02*
X147305000Y-123044000D01*
X147305000Y-123044000D02*
X147353000Y-123063000D01*
X147353000Y-123063000D02*
X147400000Y-123087000D01*
X147400000Y-123087000D02*
X147444000Y-123115000D01*
X147444000Y-123115000D02*
X147485000Y-123148000D01*
X147485000Y-123148000D02*
X147522000Y-123185000D01*
X147522000Y-123185000D02*
X147555000Y-123226000D01*
X147555000Y-123226000D02*
X147583000Y-123270000D01*
X147583000Y-123270000D02*
X147607000Y-123317000D01*
X147607000Y-123317000D02*
X147626000Y-123365000D01*
X147626000Y-123365000D02*
X147639000Y-123416000D01*
X147639000Y-123416000D02*
X147647000Y-123468000D01*
X147647000Y-123468000D02*
X147650000Y-123520000D01*
X147650000Y-123520000D02*
X147647000Y-123572000D01*
X147647000Y-123572000D02*
X147639000Y-123624000D01*
X147639000Y-123624000D02*
X147626000Y-123675000D01*
X147626000Y-123675000D02*
X147607000Y-123723000D01*
X147607000Y-123723000D02*
X147583000Y-123770000D01*
X147583000Y-123770000D02*
X147555000Y-123814000D01*
X147555000Y-123814000D02*
X147522000Y-123855000D01*
X147522000Y-123855000D02*
X147485000Y-123892000D01*
X147485000Y-123892000D02*
X147444000Y-123925000D01*
X147444000Y-123925000D02*
X147400000Y-123953000D01*
X147400000Y-123953000D02*
X147353000Y-123977000D01*
X147353000Y-123977000D02*
X147305000Y-123996000D01*
X147305000Y-123996000D02*
X147254000Y-124009000D01*
X147254000Y-124009000D02*
X147202000Y-124017000D01*
X147202000Y-124017000D02*
X147150000Y-124020000D01*
X147150000Y-124020000D02*
X145350000Y-124020000D01*
X145350000Y-124020000D02*
X145298000Y-124017000D01*
X145298000Y-124017000D02*
X145246000Y-124009000D01*
X145246000Y-124009000D02*
X145195000Y-123996000D01*
X145195000Y-123996000D02*
X145147000Y-123977000D01*
X145147000Y-123977000D02*
X145100000Y-123953000D01*
X145100000Y-123953000D02*
X145056000Y-123925000D01*
X145056000Y-123925000D02*
X145015000Y-123892000D01*
X145015000Y-123892000D02*
X144978000Y-123855000D01*
X144978000Y-123855000D02*
X144945000Y-123814000D01*
X144945000Y-123814000D02*
X144917000Y-123770000D01*
X144917000Y-123770000D02*
X144893000Y-123723000D01*
X144893000Y-123723000D02*
X144874000Y-123675000D01*
X144874000Y-123675000D02*
X144861000Y-123624000D01*
X144861000Y-123624000D02*
X144853000Y-123572000D01*
X144853000Y-123572000D02*
X144850000Y-123520000D01*
X144850000Y-123520000D02*
X144853000Y-123468000D01*
X144853000Y-123468000D02*
X144861000Y-123416000D01*
X144861000Y-123416000D02*
X144874000Y-123365000D01*
X144874000Y-123365000D02*
X144893000Y-123317000D01*
X144893000Y-123317000D02*
X144917000Y-123270000D01*
X144917000Y-123270000D02*
X144945000Y-123226000D01*
X144945000Y-123226000D02*
X144978000Y-123185000D01*
X144978000Y-123185000D02*
X145015000Y-123148000D01*
X145015000Y-123148000D02*
X145056000Y-123115000D01*
X145056000Y-123115000D02*
X145100000Y-123087000D01*
X145100000Y-123087000D02*
X145147000Y-123063000D01*
X145147000Y-123063000D02*
X145195000Y-123044000D01*
X145195000Y-123044000D02*
X145246000Y-123031000D01*
X145246000Y-123031000D02*
X145298000Y-123023000D01*
X145298000Y-123023000D02*
X145350000Y-123020000D01*
X145350000Y-123020000D02*
X146250000Y-123020000D01*
X146250000Y-123020000D02*
X146250000Y-123020000D01*
G36*
X147202000Y-123023000D02*
G01*
X147254000Y-123031000D01*
X147305000Y-123044000D01*
X147353000Y-123063000D01*
X147400000Y-123087000D01*
X147444000Y-123115000D01*
X147485000Y-123148000D01*
X147522000Y-123185000D01*
X147555000Y-123226000D01*
X147583000Y-123270000D01*
X147607000Y-123317000D01*
X147626000Y-123365000D01*
X147639000Y-123416000D01*
X147647000Y-123468000D01*
X147650000Y-123520000D01*
X147647000Y-123572000D01*
X147639000Y-123624000D01*
X147626000Y-123675000D01*
X147607000Y-123723000D01*
X147583000Y-123770000D01*
X147555000Y-123814000D01*
X147522000Y-123855000D01*
X147485000Y-123892000D01*
X147444000Y-123925000D01*
X147400000Y-123953000D01*
X147353000Y-123977000D01*
X147305000Y-123996000D01*
X147254000Y-124009000D01*
X147202000Y-124017000D01*
X147150000Y-124020000D01*
X145350000Y-124020000D01*
X145298000Y-124017000D01*
X145246000Y-124009000D01*
X145195000Y-123996000D01*
X145147000Y-123977000D01*
X145100000Y-123953000D01*
X145056000Y-123925000D01*
X145015000Y-123892000D01*
X144978000Y-123855000D01*
X144945000Y-123814000D01*
X144917000Y-123770000D01*
X144893000Y-123723000D01*
X144874000Y-123675000D01*
X144861000Y-123624000D01*
X144853000Y-123572000D01*
X144850000Y-123520000D01*
X144853000Y-123468000D01*
X144861000Y-123416000D01*
X144874000Y-123365000D01*
X144893000Y-123317000D01*
X144917000Y-123270000D01*
X144945000Y-123226000D01*
X144978000Y-123185000D01*
X145015000Y-123148000D01*
X145056000Y-123115000D01*
X145100000Y-123087000D01*
X145147000Y-123063000D01*
X145195000Y-123044000D01*
X145246000Y-123031000D01*
X145298000Y-123023000D01*
X145350000Y-123020000D01*
X147150000Y-123020000D01*
X147202000Y-123023000D01*
G37*
X147202000Y-123023000D02*
X147254000Y-123031000D01*
X147305000Y-123044000D01*
X147353000Y-123063000D01*
X147400000Y-123087000D01*
X147444000Y-123115000D01*
X147485000Y-123148000D01*
X147522000Y-123185000D01*
X147555000Y-123226000D01*
X147583000Y-123270000D01*
X147607000Y-123317000D01*
X147626000Y-123365000D01*
X147639000Y-123416000D01*
X147647000Y-123468000D01*
X147650000Y-123520000D01*
X147647000Y-123572000D01*
X147639000Y-123624000D01*
X147626000Y-123675000D01*
X147607000Y-123723000D01*
X147583000Y-123770000D01*
X147555000Y-123814000D01*
X147522000Y-123855000D01*
X147485000Y-123892000D01*
X147444000Y-123925000D01*
X147400000Y-123953000D01*
X147353000Y-123977000D01*
X147305000Y-123996000D01*
X147254000Y-124009000D01*
X147202000Y-124017000D01*
X147150000Y-124020000D01*
X145350000Y-124020000D01*
X145298000Y-124017000D01*
X145246000Y-124009000D01*
X145195000Y-123996000D01*
X145147000Y-123977000D01*
X145100000Y-123953000D01*
X145056000Y-123925000D01*
X145015000Y-123892000D01*
X144978000Y-123855000D01*
X144945000Y-123814000D01*
X144917000Y-123770000D01*
X144893000Y-123723000D01*
X144874000Y-123675000D01*
X144861000Y-123624000D01*
X144853000Y-123572000D01*
X144850000Y-123520000D01*
X144853000Y-123468000D01*
X144861000Y-123416000D01*
X144874000Y-123365000D01*
X144893000Y-123317000D01*
X144917000Y-123270000D01*
X144945000Y-123226000D01*
X144978000Y-123185000D01*
X145015000Y-123148000D01*
X145056000Y-123115000D01*
X145100000Y-123087000D01*
X145147000Y-123063000D01*
X145195000Y-123044000D01*
X145246000Y-123031000D01*
X145298000Y-123023000D01*
X145350000Y-123020000D01*
X147150000Y-123020000D01*
X147202000Y-123023000D01*
X146250000Y-117940000D02*
X147150000Y-117940000D01*
X147150000Y-117940000D02*
X147202000Y-117943000D01*
X147202000Y-117943000D02*
X147254000Y-117951000D01*
X147254000Y-117951000D02*
X147305000Y-117964000D01*
X147305000Y-117964000D02*
X147353000Y-117983000D01*
X147353000Y-117983000D02*
X147400000Y-118007000D01*
X147400000Y-118007000D02*
X147444000Y-118035000D01*
X147444000Y-118035000D02*
X147485000Y-118068000D01*
X147485000Y-118068000D02*
X147522000Y-118105000D01*
X147522000Y-118105000D02*
X147555000Y-118146000D01*
X147555000Y-118146000D02*
X147583000Y-118190000D01*
X147583000Y-118190000D02*
X147607000Y-118237000D01*
X147607000Y-118237000D02*
X147626000Y-118285000D01*
X147626000Y-118285000D02*
X147639000Y-118336000D01*
X147639000Y-118336000D02*
X147647000Y-118388000D01*
X147647000Y-118388000D02*
X147650000Y-118440000D01*
X147650000Y-118440000D02*
X147647000Y-118492000D01*
X147647000Y-118492000D02*
X147639000Y-118544000D01*
X147639000Y-118544000D02*
X147626000Y-118595000D01*
X147626000Y-118595000D02*
X147607000Y-118643000D01*
X147607000Y-118643000D02*
X147583000Y-118690000D01*
X147583000Y-118690000D02*
X147555000Y-118734000D01*
X147555000Y-118734000D02*
X147522000Y-118775000D01*
X147522000Y-118775000D02*
X147485000Y-118812000D01*
X147485000Y-118812000D02*
X147444000Y-118845000D01*
X147444000Y-118845000D02*
X147400000Y-118873000D01*
X147400000Y-118873000D02*
X147353000Y-118897000D01*
X147353000Y-118897000D02*
X147305000Y-118916000D01*
X147305000Y-118916000D02*
X147254000Y-118929000D01*
X147254000Y-118929000D02*
X147202000Y-118937000D01*
X147202000Y-118937000D02*
X147150000Y-118940000D01*
X147150000Y-118940000D02*
X145350000Y-118940000D01*
X145350000Y-118940000D02*
X145298000Y-118937000D01*
X145298000Y-118937000D02*
X145246000Y-118929000D01*
X145246000Y-118929000D02*
X145195000Y-118916000D01*
X145195000Y-118916000D02*
X145147000Y-118897000D01*
X145147000Y-118897000D02*
X145100000Y-118873000D01*
X145100000Y-118873000D02*
X145056000Y-118845000D01*
X145056000Y-118845000D02*
X145015000Y-118812000D01*
X145015000Y-118812000D02*
X144978000Y-118775000D01*
X144978000Y-118775000D02*
X144945000Y-118734000D01*
X144945000Y-118734000D02*
X144917000Y-118690000D01*
X144917000Y-118690000D02*
X144893000Y-118643000D01*
X144893000Y-118643000D02*
X144874000Y-118595000D01*
X144874000Y-118595000D02*
X144861000Y-118544000D01*
X144861000Y-118544000D02*
X144853000Y-118492000D01*
X144853000Y-118492000D02*
X144850000Y-118440000D01*
X144850000Y-118440000D02*
X144853000Y-118388000D01*
X144853000Y-118388000D02*
X144861000Y-118336000D01*
X144861000Y-118336000D02*
X144874000Y-118285000D01*
X144874000Y-118285000D02*
X144893000Y-118237000D01*
X144893000Y-118237000D02*
X144917000Y-118190000D01*
X144917000Y-118190000D02*
X144945000Y-118146000D01*
X144945000Y-118146000D02*
X144978000Y-118105000D01*
X144978000Y-118105000D02*
X145015000Y-118068000D01*
X145015000Y-118068000D02*
X145056000Y-118035000D01*
X145056000Y-118035000D02*
X145100000Y-118007000D01*
X145100000Y-118007000D02*
X145147000Y-117983000D01*
X145147000Y-117983000D02*
X145195000Y-117964000D01*
X145195000Y-117964000D02*
X145246000Y-117951000D01*
X145246000Y-117951000D02*
X145298000Y-117943000D01*
X145298000Y-117943000D02*
X145350000Y-117940000D01*
X145350000Y-117940000D02*
X146250000Y-117940000D01*
X146250000Y-117940000D02*
X146250000Y-117940000D01*
G36*
X147202000Y-117943000D02*
G01*
X147254000Y-117951000D01*
X147305000Y-117964000D01*
X147353000Y-117983000D01*
X147400000Y-118007000D01*
X147444000Y-118035000D01*
X147485000Y-118068000D01*
X147522000Y-118105000D01*
X147555000Y-118146000D01*
X147583000Y-118190000D01*
X147607000Y-118237000D01*
X147626000Y-118285000D01*
X147639000Y-118336000D01*
X147647000Y-118388000D01*
X147650000Y-118440000D01*
X147647000Y-118492000D01*
X147639000Y-118544000D01*
X147626000Y-118595000D01*
X147607000Y-118643000D01*
X147583000Y-118690000D01*
X147555000Y-118734000D01*
X147522000Y-118775000D01*
X147485000Y-118812000D01*
X147444000Y-118845000D01*
X147400000Y-118873000D01*
X147353000Y-118897000D01*
X147305000Y-118916000D01*
X147254000Y-118929000D01*
X147202000Y-118937000D01*
X147150000Y-118940000D01*
X145350000Y-118940000D01*
X145298000Y-118937000D01*
X145246000Y-118929000D01*
X145195000Y-118916000D01*
X145147000Y-118897000D01*
X145100000Y-118873000D01*
X145056000Y-118845000D01*
X145015000Y-118812000D01*
X144978000Y-118775000D01*
X144945000Y-118734000D01*
X144917000Y-118690000D01*
X144893000Y-118643000D01*
X144874000Y-118595000D01*
X144861000Y-118544000D01*
X144853000Y-118492000D01*
X144850000Y-118440000D01*
X144853000Y-118388000D01*
X144861000Y-118336000D01*
X144874000Y-118285000D01*
X144893000Y-118237000D01*
X144917000Y-118190000D01*
X144945000Y-118146000D01*
X144978000Y-118105000D01*
X145015000Y-118068000D01*
X145056000Y-118035000D01*
X145100000Y-118007000D01*
X145147000Y-117983000D01*
X145195000Y-117964000D01*
X145246000Y-117951000D01*
X145298000Y-117943000D01*
X145350000Y-117940000D01*
X147150000Y-117940000D01*
X147202000Y-117943000D01*
G37*
X147202000Y-117943000D02*
X147254000Y-117951000D01*
X147305000Y-117964000D01*
X147353000Y-117983000D01*
X147400000Y-118007000D01*
X147444000Y-118035000D01*
X147485000Y-118068000D01*
X147522000Y-118105000D01*
X147555000Y-118146000D01*
X147583000Y-118190000D01*
X147607000Y-118237000D01*
X147626000Y-118285000D01*
X147639000Y-118336000D01*
X147647000Y-118388000D01*
X147650000Y-118440000D01*
X147647000Y-118492000D01*
X147639000Y-118544000D01*
X147626000Y-118595000D01*
X147607000Y-118643000D01*
X147583000Y-118690000D01*
X147555000Y-118734000D01*
X147522000Y-118775000D01*
X147485000Y-118812000D01*
X147444000Y-118845000D01*
X147400000Y-118873000D01*
X147353000Y-118897000D01*
X147305000Y-118916000D01*
X147254000Y-118929000D01*
X147202000Y-118937000D01*
X147150000Y-118940000D01*
X145350000Y-118940000D01*
X145298000Y-118937000D01*
X145246000Y-118929000D01*
X145195000Y-118916000D01*
X145147000Y-118897000D01*
X145100000Y-118873000D01*
X145056000Y-118845000D01*
X145015000Y-118812000D01*
X144978000Y-118775000D01*
X144945000Y-118734000D01*
X144917000Y-118690000D01*
X144893000Y-118643000D01*
X144874000Y-118595000D01*
X144861000Y-118544000D01*
X144853000Y-118492000D01*
X144850000Y-118440000D01*
X144853000Y-118388000D01*
X144861000Y-118336000D01*
X144874000Y-118285000D01*
X144893000Y-118237000D01*
X144917000Y-118190000D01*
X144945000Y-118146000D01*
X144978000Y-118105000D01*
X145015000Y-118068000D01*
X145056000Y-118035000D01*
X145100000Y-118007000D01*
X145147000Y-117983000D01*
X145195000Y-117964000D01*
X145246000Y-117951000D01*
X145298000Y-117943000D01*
X145350000Y-117940000D01*
X147150000Y-117940000D01*
X147202000Y-117943000D01*
X130250000Y-120480000D02*
X131150000Y-120480000D01*
X131150000Y-120480000D02*
X131202000Y-120483000D01*
X131202000Y-120483000D02*
X131254000Y-120491000D01*
X131254000Y-120491000D02*
X131305000Y-120504000D01*
X131305000Y-120504000D02*
X131353000Y-120523000D01*
X131353000Y-120523000D02*
X131400000Y-120547000D01*
X131400000Y-120547000D02*
X131444000Y-120575000D01*
X131444000Y-120575000D02*
X131485000Y-120608000D01*
X131485000Y-120608000D02*
X131522000Y-120645000D01*
X131522000Y-120645000D02*
X131555000Y-120686000D01*
X131555000Y-120686000D02*
X131583000Y-120730000D01*
X131583000Y-120730000D02*
X131607000Y-120777000D01*
X131607000Y-120777000D02*
X131626000Y-120825000D01*
X131626000Y-120825000D02*
X131639000Y-120876000D01*
X131639000Y-120876000D02*
X131647000Y-120928000D01*
X131647000Y-120928000D02*
X131650000Y-120980000D01*
X131650000Y-120980000D02*
X131647000Y-121032000D01*
X131647000Y-121032000D02*
X131639000Y-121084000D01*
X131639000Y-121084000D02*
X131626000Y-121135000D01*
X131626000Y-121135000D02*
X131607000Y-121183000D01*
X131607000Y-121183000D02*
X131583000Y-121230000D01*
X131583000Y-121230000D02*
X131555000Y-121274000D01*
X131555000Y-121274000D02*
X131522000Y-121315000D01*
X131522000Y-121315000D02*
X131485000Y-121352000D01*
X131485000Y-121352000D02*
X131444000Y-121385000D01*
X131444000Y-121385000D02*
X131400000Y-121413000D01*
X131400000Y-121413000D02*
X131353000Y-121437000D01*
X131353000Y-121437000D02*
X131305000Y-121456000D01*
X131305000Y-121456000D02*
X131254000Y-121469000D01*
X131254000Y-121469000D02*
X131202000Y-121477000D01*
X131202000Y-121477000D02*
X131150000Y-121480000D01*
X131150000Y-121480000D02*
X129350000Y-121480000D01*
X129350000Y-121480000D02*
X129298000Y-121477000D01*
X129298000Y-121477000D02*
X129246000Y-121469000D01*
X129246000Y-121469000D02*
X129195000Y-121456000D01*
X129195000Y-121456000D02*
X129147000Y-121437000D01*
X129147000Y-121437000D02*
X129100000Y-121413000D01*
X129100000Y-121413000D02*
X129056000Y-121385000D01*
X129056000Y-121385000D02*
X129015000Y-121352000D01*
X129015000Y-121352000D02*
X128978000Y-121315000D01*
X128978000Y-121315000D02*
X128945000Y-121274000D01*
X128945000Y-121274000D02*
X128917000Y-121230000D01*
X128917000Y-121230000D02*
X128893000Y-121183000D01*
X128893000Y-121183000D02*
X128874000Y-121135000D01*
X128874000Y-121135000D02*
X128861000Y-121084000D01*
X128861000Y-121084000D02*
X128853000Y-121032000D01*
X128853000Y-121032000D02*
X128850000Y-120980000D01*
X128850000Y-120980000D02*
X128853000Y-120928000D01*
X128853000Y-120928000D02*
X128861000Y-120876000D01*
X128861000Y-120876000D02*
X128874000Y-120825000D01*
X128874000Y-120825000D02*
X128893000Y-120777000D01*
X128893000Y-120777000D02*
X128917000Y-120730000D01*
X128917000Y-120730000D02*
X128945000Y-120686000D01*
X128945000Y-120686000D02*
X128978000Y-120645000D01*
X128978000Y-120645000D02*
X129015000Y-120608000D01*
X129015000Y-120608000D02*
X129056000Y-120575000D01*
X129056000Y-120575000D02*
X129100000Y-120547000D01*
X129100000Y-120547000D02*
X129147000Y-120523000D01*
X129147000Y-120523000D02*
X129195000Y-120504000D01*
X129195000Y-120504000D02*
X129246000Y-120491000D01*
X129246000Y-120491000D02*
X129298000Y-120483000D01*
X129298000Y-120483000D02*
X129350000Y-120480000D01*
X129350000Y-120480000D02*
X130250000Y-120480000D01*
X130250000Y-120480000D02*
X130250000Y-120480000D01*
G36*
X131202000Y-120483000D02*
G01*
X131254000Y-120491000D01*
X131305000Y-120504000D01*
X131353000Y-120523000D01*
X131400000Y-120547000D01*
X131444000Y-120575000D01*
X131485000Y-120608000D01*
X131522000Y-120645000D01*
X131555000Y-120686000D01*
X131583000Y-120730000D01*
X131607000Y-120777000D01*
X131626000Y-120825000D01*
X131639000Y-120876000D01*
X131647000Y-120928000D01*
X131650000Y-120980000D01*
X131647000Y-121032000D01*
X131639000Y-121084000D01*
X131626000Y-121135000D01*
X131607000Y-121183000D01*
X131583000Y-121230000D01*
X131555000Y-121274000D01*
X131522000Y-121315000D01*
X131485000Y-121352000D01*
X131444000Y-121385000D01*
X131400000Y-121413000D01*
X131353000Y-121437000D01*
X131305000Y-121456000D01*
X131254000Y-121469000D01*
X131202000Y-121477000D01*
X131150000Y-121480000D01*
X129350000Y-121480000D01*
X129298000Y-121477000D01*
X129246000Y-121469000D01*
X129195000Y-121456000D01*
X129147000Y-121437000D01*
X129100000Y-121413000D01*
X129056000Y-121385000D01*
X129015000Y-121352000D01*
X128978000Y-121315000D01*
X128945000Y-121274000D01*
X128917000Y-121230000D01*
X128893000Y-121183000D01*
X128874000Y-121135000D01*
X128861000Y-121084000D01*
X128853000Y-121032000D01*
X128850000Y-120980000D01*
X128853000Y-120928000D01*
X128861000Y-120876000D01*
X128874000Y-120825000D01*
X128893000Y-120777000D01*
X128917000Y-120730000D01*
X128945000Y-120686000D01*
X128978000Y-120645000D01*
X129015000Y-120608000D01*
X129056000Y-120575000D01*
X129100000Y-120547000D01*
X129147000Y-120523000D01*
X129195000Y-120504000D01*
X129246000Y-120491000D01*
X129298000Y-120483000D01*
X129350000Y-120480000D01*
X131150000Y-120480000D01*
X131202000Y-120483000D01*
G37*
X131202000Y-120483000D02*
X131254000Y-120491000D01*
X131305000Y-120504000D01*
X131353000Y-120523000D01*
X131400000Y-120547000D01*
X131444000Y-120575000D01*
X131485000Y-120608000D01*
X131522000Y-120645000D01*
X131555000Y-120686000D01*
X131583000Y-120730000D01*
X131607000Y-120777000D01*
X131626000Y-120825000D01*
X131639000Y-120876000D01*
X131647000Y-120928000D01*
X131650000Y-120980000D01*
X131647000Y-121032000D01*
X131639000Y-121084000D01*
X131626000Y-121135000D01*
X131607000Y-121183000D01*
X131583000Y-121230000D01*
X131555000Y-121274000D01*
X131522000Y-121315000D01*
X131485000Y-121352000D01*
X131444000Y-121385000D01*
X131400000Y-121413000D01*
X131353000Y-121437000D01*
X131305000Y-121456000D01*
X131254000Y-121469000D01*
X131202000Y-121477000D01*
X131150000Y-121480000D01*
X129350000Y-121480000D01*
X129298000Y-121477000D01*
X129246000Y-121469000D01*
X129195000Y-121456000D01*
X129147000Y-121437000D01*
X129100000Y-121413000D01*
X129056000Y-121385000D01*
X129015000Y-121352000D01*
X128978000Y-121315000D01*
X128945000Y-121274000D01*
X128917000Y-121230000D01*
X128893000Y-121183000D01*
X128874000Y-121135000D01*
X128861000Y-121084000D01*
X128853000Y-121032000D01*
X128850000Y-120980000D01*
X128853000Y-120928000D01*
X128861000Y-120876000D01*
X128874000Y-120825000D01*
X128893000Y-120777000D01*
X128917000Y-120730000D01*
X128945000Y-120686000D01*
X128978000Y-120645000D01*
X129015000Y-120608000D01*
X129056000Y-120575000D01*
X129100000Y-120547000D01*
X129147000Y-120523000D01*
X129195000Y-120504000D01*
X129246000Y-120491000D01*
X129298000Y-120483000D01*
X129350000Y-120480000D01*
X131150000Y-120480000D01*
X131202000Y-120483000D01*
%TD*%
D11*
%TO.C,C10*%
X52912500Y-48780000D03*
X54047500Y-48780000D03*
%TD*%
%TO.C,C6*%
X63242500Y-35110000D03*
X64377500Y-35110000D03*
%TD*%
D12*
%TO.C,U6*%
X43550000Y-49440000D03*
X43550000Y-49840000D03*
X43550000Y-50240000D03*
X43550000Y-50640000D03*
X43550000Y-51040000D03*
X43550000Y-51440000D03*
D13*
X44095000Y-51985000D03*
X44495000Y-51985000D03*
X44895000Y-51985000D03*
X45295000Y-51985000D03*
X45695000Y-51985000D03*
X46095000Y-51985000D03*
D14*
X46640000Y-51440000D03*
X46640000Y-51040000D03*
X46640000Y-50640000D03*
X46640000Y-50240000D03*
X46640000Y-49840000D03*
X46640000Y-49440000D03*
D15*
X46095000Y-48895000D03*
X45695000Y-48895000D03*
X45295000Y-48895000D03*
X44895000Y-48895000D03*
X44495000Y-48895000D03*
X44095000Y-48895000D03*
%TD*%
D16*
%TO.C,USB1*%
X151700000Y-87505000D03*
X150900000Y-87505000D03*
D17*
X149750000Y-87505000D03*
X148750000Y-87505000D03*
X148250000Y-87505000D03*
X147250000Y-87505000D03*
D16*
X145300000Y-87505000D03*
X146100000Y-87505000D03*
D17*
X146750000Y-87505000D03*
X147750000Y-87505000D03*
X149250000Y-87505000D03*
X150250000Y-87505000D03*
%TD*%
D18*
%TO.C,U7*%
X106800000Y-18750000D03*
D19*
X113100000Y-21050000D03*
D18*
X106800000Y-21050000D03*
X106800000Y-23350000D03*
%TD*%
D11*
%TO.C,C2*%
X43032500Y-56060000D03*
X44167500Y-56060000D03*
%TD*%
%TO.C,C21*%
X60862500Y-39050000D03*
X61997500Y-39050000D03*
%TD*%
D20*
%TO.C,R6*%
X43022500Y-54080000D03*
X44217500Y-54080000D03*
%TD*%
%TO.C,R5*%
X56772500Y-35120000D03*
X57967500Y-35120000D03*
%TD*%
D21*
%TO.C,C15*%
X96292500Y-33180000D03*
X98367500Y-33180000D03*
%TD*%
D22*
%TO.C,CAN1*%
X164500000Y-87850000D03*
X162500000Y-87850000D03*
X160500000Y-87850000D03*
X158500000Y-87850000D03*
D23*
X156150000Y-82100000D03*
X166850000Y-82100000D03*
%TD*%
D20*
%TO.C,R12*%
X18852500Y-55350000D03*
X20047500Y-55350000D03*
%TD*%
D11*
%TO.C,C9*%
X83832500Y-17910000D03*
X84967500Y-17910000D03*
%TD*%
D24*
%TO.C,U4*%
X172250000Y-113250000D03*
X170250000Y-113250000D03*
X168250000Y-113250000D03*
X166250000Y-113250000D03*
X164250000Y-113250000D03*
X162250000Y-113250000D03*
X162250000Y-123250000D03*
X164250000Y-123250000D03*
X166250000Y-123250000D03*
X168250000Y-123250000D03*
X170250000Y-123250000D03*
X172250000Y-123250000D03*
%TD*%
D11*
%TO.C,C11*%
X60862500Y-37080000D03*
X61997500Y-37080000D03*
%TD*%
%TO.C,C22*%
X54912500Y-43480000D03*
X56047500Y-43480000D03*
%TD*%
%TO.C,C7*%
X60032500Y-35110000D03*
X61167500Y-35110000D03*
%TD*%
D22*
%TO.C,RS232*%
X138500000Y-88100000D03*
X136500000Y-88100000D03*
X134500000Y-88100000D03*
X132500000Y-88100000D03*
D23*
X130150000Y-82350000D03*
X140850000Y-82350000D03*
%TD*%
D20*
%TO.C,R13*%
X25352500Y-56550000D03*
X26547500Y-56550000D03*
%TD*%
D21*
%TO.C,C13*%
X106392500Y-26680000D03*
X108467500Y-26680000D03*
%TD*%
D11*
%TO.C,C4*%
X54912500Y-45450000D03*
X56047500Y-45450000D03*
%TD*%
D25*
%TO.C,PS1*%
X93100000Y-20490000D03*
X93100000Y-23030000D03*
X93100000Y-25570000D03*
X93100000Y-28110000D03*
X103200000Y-28110000D03*
X103200000Y-25570000D03*
X103200000Y-23030000D03*
X103200000Y-20490000D03*
%TD*%
D26*
%TO.C,U1*%
X130550000Y-71500000D03*
X130550000Y-72000000D03*
X130550000Y-72500000D03*
X130550000Y-73000000D03*
X130550000Y-73500000D03*
X134950000Y-73500000D03*
X134950000Y-73000000D03*
X134950000Y-72500000D03*
X134950000Y-72000000D03*
X134950000Y-71500000D03*
%TD*%
D21*
%TO.C,C12*%
X96292500Y-36190000D03*
X98367500Y-36190000D03*
%TD*%
D27*
%TO.C,U5*%
X48837200Y-48903100D03*
X49484399Y-48905899D03*
X50134401Y-48905899D03*
X50781600Y-48903100D03*
X50781600Y-50353100D03*
X50134401Y-50350301D03*
X49484399Y-50350301D03*
X48837200Y-50353100D03*
%TD*%
D21*
%TO.C,C14*%
X101102500Y-33180000D03*
X103177500Y-33180000D03*
%TD*%
D28*
%TO.C,D1*%
X69152500Y-31500000D03*
X69152500Y-33400000D03*
X71027500Y-32450000D03*
%TD*%
D11*
%TO.C,C8*%
X46282500Y-54070000D03*
X47417500Y-54070000D03*
%TD*%
M02*
