M48
; DRILL file {KiCad (6.0.1)} date Mon Feb 28 23:17:04 2022
; FORMAT={-:-/ absolute / inch / decimal}
; #@! TF.CreationDate,2022-02-28T23:17:04+05:30
; #@! TF.GenerationSoftware,Kicad,Pcbnew,(6.0.1)
; #@! TF.FileFunction,Plated,1,2,PTH
FMAT,2
INCH
; #@! TA.AperFunction,Plated,PTH,ViaDrill
T1C0.0157
; #@! TA.AperFunction,Plated,PTH,ComponentDrill
T2C0.0236
; #@! TA.AperFunction,Plated,PTH,ComponentDrill
T3C0.0394
%
G90
G05
T1
X5.0787Y-4.7146
X5.0829Y-4.6279
X5.1394Y-3.8986
X5.1476Y-4.0541
X5.2362Y-4.7539
X5.2657Y-4.7835
X5.377Y-4.4171
X5.4056Y-4.4488
X5.4341Y-4.4882
X5.4528Y-4.5266
X5.5462Y-4.5827
X5.5512Y-3.9889
X5.7061Y-4.43
X5.7382Y-4.5276
X5.748Y-4.763
X5.8061Y-4.6063
X5.9154Y-3.7598
X6.0066Y-4.4291
X6.0335Y-3.8484
X6.0827Y-3.8976
X6.2106Y-3.7697
X6.3083Y-3.7707
X6.3091Y-3.6526
X6.4665Y-3.8583
T3
X3.6457Y-1.3386
X3.6457Y-1.4386
T2
G00X5.6764Y-3.2736
M15
G01X5.6764Y-3.2421
M16
G05
G00X5.6764Y-3.4441
M15
G01X5.6764Y-3.4008
M16
G05
G00X6.0165Y-3.2736
M15
G01X6.0165Y-3.2421
M16
G05
G00X6.0165Y-3.4441
M15
G01X6.0165Y-3.4008
M16
G05
T0
M30
