%TF.GenerationSoftware,KiCad,Pcbnew,(6.0.1)*%
%TF.CreationDate,2022-02-28T23:17:01+05:30*%
%TF.ProjectId,ProIMU_V1,50726f49-4d55-45f5-9631-2e6b69636164,rev?*%
%TF.SameCoordinates,Original*%
%TF.FileFunction,Legend,Top*%
%TF.FilePolarity,Positive*%
%FSLAX46Y46*%
G04 Gerber Fmt 4.6, Leading zero omitted, Abs format (unit mm)*
G04 Created by KiCad (PCBNEW (6.0.1)) date 2022-02-28 23:17:01*
%MOMM*%
%LPD*%
G01*
G04 APERTURE LIST*
%ADD10C,0.150000*%
%ADD11C,0.120000*%
%ADD12C,0.127000*%
%ADD13C,0.200000*%
G04 APERTURE END LIST*
D10*
%TO.C,C10*%
X52837142Y-47977142D02*
X52789523Y-48024761D01*
X52646666Y-48072380D01*
X52551428Y-48072380D01*
X52408571Y-48024761D01*
X52313333Y-47929523D01*
X52265714Y-47834285D01*
X52218095Y-47643809D01*
X52218095Y-47500952D01*
X52265714Y-47310476D01*
X52313333Y-47215238D01*
X52408571Y-47120000D01*
X52551428Y-47072380D01*
X52646666Y-47072380D01*
X52789523Y-47120000D01*
X52837142Y-47167619D01*
X53789523Y-48072380D02*
X53218095Y-48072380D01*
X53503809Y-48072380D02*
X53503809Y-47072380D01*
X53408571Y-47215238D01*
X53313333Y-47310476D01*
X53218095Y-47358095D01*
X54408571Y-47072380D02*
X54503809Y-47072380D01*
X54599047Y-47120000D01*
X54646666Y-47167619D01*
X54694285Y-47262857D01*
X54741904Y-47453333D01*
X54741904Y-47691428D01*
X54694285Y-47881904D01*
X54646666Y-47977142D01*
X54599047Y-48024761D01*
X54503809Y-48072380D01*
X54408571Y-48072380D01*
X54313333Y-48024761D01*
X54265714Y-47977142D01*
X54218095Y-47881904D01*
X54170476Y-47691428D01*
X54170476Y-47453333D01*
X54218095Y-47262857D01*
X54265714Y-47167619D01*
X54313333Y-47120000D01*
X54408571Y-47072380D01*
%TO.C,C6*%
X63643333Y-34307142D02*
X63595714Y-34354761D01*
X63452857Y-34402380D01*
X63357619Y-34402380D01*
X63214761Y-34354761D01*
X63119523Y-34259523D01*
X63071904Y-34164285D01*
X63024285Y-33973809D01*
X63024285Y-33830952D01*
X63071904Y-33640476D01*
X63119523Y-33545238D01*
X63214761Y-33450000D01*
X63357619Y-33402380D01*
X63452857Y-33402380D01*
X63595714Y-33450000D01*
X63643333Y-33497619D01*
X64500476Y-33402380D02*
X64310000Y-33402380D01*
X64214761Y-33450000D01*
X64167142Y-33497619D01*
X64071904Y-33640476D01*
X64024285Y-33830952D01*
X64024285Y-34211904D01*
X64071904Y-34307142D01*
X64119523Y-34354761D01*
X64214761Y-34402380D01*
X64405238Y-34402380D01*
X64500476Y-34354761D01*
X64548095Y-34307142D01*
X64595714Y-34211904D01*
X64595714Y-33973809D01*
X64548095Y-33878571D01*
X64500476Y-33830952D01*
X64405238Y-33783333D01*
X64214761Y-33783333D01*
X64119523Y-33830952D01*
X64071904Y-33878571D01*
X64024285Y-33973809D01*
%TO.C,H3*%
X170238095Y-86202380D02*
X170238095Y-85202380D01*
X170238095Y-85678571D02*
X170809523Y-85678571D01*
X170809523Y-86202380D02*
X170809523Y-85202380D01*
X171190476Y-85202380D02*
X171809523Y-85202380D01*
X171476190Y-85583333D01*
X171619047Y-85583333D01*
X171714285Y-85630952D01*
X171761904Y-85678571D01*
X171809523Y-85773809D01*
X171809523Y-86011904D01*
X171761904Y-86107142D01*
X171714285Y-86154761D01*
X171619047Y-86202380D01*
X171333333Y-86202380D01*
X171238095Y-86154761D01*
X171190476Y-86107142D01*
%TO.C,U6*%
X44967884Y-46710913D02*
X44967884Y-47521845D01*
X45015586Y-47617249D01*
X45063288Y-47664951D01*
X45158692Y-47712653D01*
X45349499Y-47712653D01*
X45444903Y-47664951D01*
X45492605Y-47617249D01*
X45540307Y-47521845D01*
X45540307Y-46710913D01*
X46446643Y-46710913D02*
X46255835Y-46710913D01*
X46160432Y-46758615D01*
X46112730Y-46806316D01*
X46017326Y-46949422D01*
X45969624Y-47140230D01*
X45969624Y-47521845D01*
X46017326Y-47617249D01*
X46065028Y-47664951D01*
X46160432Y-47712653D01*
X46351239Y-47712653D01*
X46446643Y-47664951D01*
X46494345Y-47617249D01*
X46542047Y-47521845D01*
X46542047Y-47283335D01*
X46494345Y-47187932D01*
X46446643Y-47140230D01*
X46351239Y-47092528D01*
X46160432Y-47092528D01*
X46065028Y-47140230D01*
X46017326Y-47187932D01*
X45969624Y-47283335D01*
%TO.C,USB1*%
X148586904Y-90337380D02*
X148586904Y-91146904D01*
X148634523Y-91242142D01*
X148682142Y-91289761D01*
X148777380Y-91337380D01*
X148967857Y-91337380D01*
X149063095Y-91289761D01*
X149110714Y-91242142D01*
X149158333Y-91146904D01*
X149158333Y-90337380D01*
X149586904Y-91289761D02*
X149729761Y-91337380D01*
X149967857Y-91337380D01*
X150063095Y-91289761D01*
X150110714Y-91242142D01*
X150158333Y-91146904D01*
X150158333Y-91051666D01*
X150110714Y-90956428D01*
X150063095Y-90908809D01*
X149967857Y-90861190D01*
X149777380Y-90813571D01*
X149682142Y-90765952D01*
X149634523Y-90718333D01*
X149586904Y-90623095D01*
X149586904Y-90527857D01*
X149634523Y-90432619D01*
X149682142Y-90385000D01*
X149777380Y-90337380D01*
X150015476Y-90337380D01*
X150158333Y-90385000D01*
X150920238Y-90813571D02*
X151063095Y-90861190D01*
X151110714Y-90908809D01*
X151158333Y-91004047D01*
X151158333Y-91146904D01*
X151110714Y-91242142D01*
X151063095Y-91289761D01*
X150967857Y-91337380D01*
X150586904Y-91337380D01*
X150586904Y-90337380D01*
X150920238Y-90337380D01*
X151015476Y-90385000D01*
X151063095Y-90432619D01*
X151110714Y-90527857D01*
X151110714Y-90623095D01*
X151063095Y-90718333D01*
X151015476Y-90765952D01*
X150920238Y-90813571D01*
X150586904Y-90813571D01*
X152110714Y-91337380D02*
X151539285Y-91337380D01*
X151825000Y-91337380D02*
X151825000Y-90337380D01*
X151729761Y-90480238D01*
X151634523Y-90575476D01*
X151539285Y-90623095D01*
%TO.C,H1*%
X125238095Y-86202380D02*
X125238095Y-85202380D01*
X125238095Y-85678571D02*
X125809523Y-85678571D01*
X125809523Y-86202380D02*
X125809523Y-85202380D01*
X126809523Y-86202380D02*
X126238095Y-86202380D01*
X126523809Y-86202380D02*
X126523809Y-85202380D01*
X126428571Y-85345238D01*
X126333333Y-85440476D01*
X126238095Y-85488095D01*
%TO.C,U7*%
X109188095Y-16002380D02*
X109188095Y-16811904D01*
X109235714Y-16907142D01*
X109283333Y-16954761D01*
X109378571Y-17002380D01*
X109569047Y-17002380D01*
X109664285Y-16954761D01*
X109711904Y-16907142D01*
X109759523Y-16811904D01*
X109759523Y-16002380D01*
X110140476Y-16002380D02*
X110807142Y-16002380D01*
X110378571Y-17002380D01*
%TO.C,H2*%
X125238095Y-124752380D02*
X125238095Y-123752380D01*
X125238095Y-124228571D02*
X125809523Y-124228571D01*
X125809523Y-124752380D02*
X125809523Y-123752380D01*
X126238095Y-123847619D02*
X126285714Y-123800000D01*
X126380952Y-123752380D01*
X126619047Y-123752380D01*
X126714285Y-123800000D01*
X126761904Y-123847619D01*
X126809523Y-123942857D01*
X126809523Y-124038095D01*
X126761904Y-124180952D01*
X126190476Y-124752380D01*
X126809523Y-124752380D01*
%TO.C,C2*%
X43433333Y-55257142D02*
X43385714Y-55304761D01*
X43242857Y-55352380D01*
X43147619Y-55352380D01*
X43004761Y-55304761D01*
X42909523Y-55209523D01*
X42861904Y-55114285D01*
X42814285Y-54923809D01*
X42814285Y-54780952D01*
X42861904Y-54590476D01*
X42909523Y-54495238D01*
X43004761Y-54400000D01*
X43147619Y-54352380D01*
X43242857Y-54352380D01*
X43385714Y-54400000D01*
X43433333Y-54447619D01*
X43814285Y-54447619D02*
X43861904Y-54400000D01*
X43957142Y-54352380D01*
X44195238Y-54352380D01*
X44290476Y-54400000D01*
X44338095Y-54447619D01*
X44385714Y-54542857D01*
X44385714Y-54638095D01*
X44338095Y-54780952D01*
X43766666Y-55352380D01*
X44385714Y-55352380D01*
%TO.C,C21*%
X60787142Y-38247142D02*
X60739523Y-38294761D01*
X60596666Y-38342380D01*
X60501428Y-38342380D01*
X60358571Y-38294761D01*
X60263333Y-38199523D01*
X60215714Y-38104285D01*
X60168095Y-37913809D01*
X60168095Y-37770952D01*
X60215714Y-37580476D01*
X60263333Y-37485238D01*
X60358571Y-37390000D01*
X60501428Y-37342380D01*
X60596666Y-37342380D01*
X60739523Y-37390000D01*
X60787142Y-37437619D01*
X61168095Y-37437619D02*
X61215714Y-37390000D01*
X61310952Y-37342380D01*
X61549047Y-37342380D01*
X61644285Y-37390000D01*
X61691904Y-37437619D01*
X61739523Y-37532857D01*
X61739523Y-37628095D01*
X61691904Y-37770952D01*
X61120476Y-38342380D01*
X61739523Y-38342380D01*
X62691904Y-38342380D02*
X62120476Y-38342380D01*
X62406190Y-38342380D02*
X62406190Y-37342380D01*
X62310952Y-37485238D01*
X62215714Y-37580476D01*
X62120476Y-37628095D01*
%TO.C,R6*%
X43453333Y-53362380D02*
X43120000Y-52886190D01*
X42881904Y-53362380D02*
X42881904Y-52362380D01*
X43262857Y-52362380D01*
X43358095Y-52410000D01*
X43405714Y-52457619D01*
X43453333Y-52552857D01*
X43453333Y-52695714D01*
X43405714Y-52790952D01*
X43358095Y-52838571D01*
X43262857Y-52886190D01*
X42881904Y-52886190D01*
X44310476Y-52362380D02*
X44120000Y-52362380D01*
X44024761Y-52410000D01*
X43977142Y-52457619D01*
X43881904Y-52600476D01*
X43834285Y-52790952D01*
X43834285Y-53171904D01*
X43881904Y-53267142D01*
X43929523Y-53314761D01*
X44024761Y-53362380D01*
X44215238Y-53362380D01*
X44310476Y-53314761D01*
X44358095Y-53267142D01*
X44405714Y-53171904D01*
X44405714Y-52933809D01*
X44358095Y-52838571D01*
X44310476Y-52790952D01*
X44215238Y-52743333D01*
X44024761Y-52743333D01*
X43929523Y-52790952D01*
X43881904Y-52838571D01*
X43834285Y-52933809D01*
%TO.C,R5*%
X57203333Y-34402380D02*
X56870000Y-33926190D01*
X56631904Y-34402380D02*
X56631904Y-33402380D01*
X57012857Y-33402380D01*
X57108095Y-33450000D01*
X57155714Y-33497619D01*
X57203333Y-33592857D01*
X57203333Y-33735714D01*
X57155714Y-33830952D01*
X57108095Y-33878571D01*
X57012857Y-33926190D01*
X56631904Y-33926190D01*
X58108095Y-33402380D02*
X57631904Y-33402380D01*
X57584285Y-33878571D01*
X57631904Y-33830952D01*
X57727142Y-33783333D01*
X57965238Y-33783333D01*
X58060476Y-33830952D01*
X58108095Y-33878571D01*
X58155714Y-33973809D01*
X58155714Y-34211904D01*
X58108095Y-34307142D01*
X58060476Y-34354761D01*
X57965238Y-34402380D01*
X57727142Y-34402380D01*
X57631904Y-34354761D01*
X57584285Y-34307142D01*
%TO.C,C15*%
X96687142Y-31857142D02*
X96639523Y-31904761D01*
X96496666Y-31952380D01*
X96401428Y-31952380D01*
X96258571Y-31904761D01*
X96163333Y-31809523D01*
X96115714Y-31714285D01*
X96068095Y-31523809D01*
X96068095Y-31380952D01*
X96115714Y-31190476D01*
X96163333Y-31095238D01*
X96258571Y-31000000D01*
X96401428Y-30952380D01*
X96496666Y-30952380D01*
X96639523Y-31000000D01*
X96687142Y-31047619D01*
X97639523Y-31952380D02*
X97068095Y-31952380D01*
X97353809Y-31952380D02*
X97353809Y-30952380D01*
X97258571Y-31095238D01*
X97163333Y-31190476D01*
X97068095Y-31238095D01*
X98544285Y-30952380D02*
X98068095Y-30952380D01*
X98020476Y-31428571D01*
X98068095Y-31380952D01*
X98163333Y-31333333D01*
X98401428Y-31333333D01*
X98496666Y-31380952D01*
X98544285Y-31428571D01*
X98591904Y-31523809D01*
X98591904Y-31761904D01*
X98544285Y-31857142D01*
X98496666Y-31904761D01*
X98401428Y-31952380D01*
X98163333Y-31952380D01*
X98068095Y-31904761D01*
X98020476Y-31857142D01*
%TO.C,CAN1*%
X160380952Y-91157142D02*
X160333333Y-91204761D01*
X160190476Y-91252380D01*
X160095238Y-91252380D01*
X159952380Y-91204761D01*
X159857142Y-91109523D01*
X159809523Y-91014285D01*
X159761904Y-90823809D01*
X159761904Y-90680952D01*
X159809523Y-90490476D01*
X159857142Y-90395238D01*
X159952380Y-90300000D01*
X160095238Y-90252380D01*
X160190476Y-90252380D01*
X160333333Y-90300000D01*
X160380952Y-90347619D01*
X160761904Y-90966666D02*
X161238095Y-90966666D01*
X160666666Y-91252380D02*
X161000000Y-90252380D01*
X161333333Y-91252380D01*
X161666666Y-91252380D02*
X161666666Y-90252380D01*
X162238095Y-91252380D01*
X162238095Y-90252380D01*
X163238095Y-91252380D02*
X162666666Y-91252380D01*
X162952380Y-91252380D02*
X162952380Y-90252380D01*
X162857142Y-90395238D01*
X162761904Y-90490476D01*
X162666666Y-90538095D01*
%TO.C,R12*%
X18807142Y-54632380D02*
X18473809Y-54156190D01*
X18235714Y-54632380D02*
X18235714Y-53632380D01*
X18616666Y-53632380D01*
X18711904Y-53680000D01*
X18759523Y-53727619D01*
X18807142Y-53822857D01*
X18807142Y-53965714D01*
X18759523Y-54060952D01*
X18711904Y-54108571D01*
X18616666Y-54156190D01*
X18235714Y-54156190D01*
X19759523Y-54632380D02*
X19188095Y-54632380D01*
X19473809Y-54632380D02*
X19473809Y-53632380D01*
X19378571Y-53775238D01*
X19283333Y-53870476D01*
X19188095Y-53918095D01*
X20140476Y-53727619D02*
X20188095Y-53680000D01*
X20283333Y-53632380D01*
X20521428Y-53632380D01*
X20616666Y-53680000D01*
X20664285Y-53727619D01*
X20711904Y-53822857D01*
X20711904Y-53918095D01*
X20664285Y-54060952D01*
X20092857Y-54632380D01*
X20711904Y-54632380D01*
%TO.C,C9*%
X84233333Y-17107142D02*
X84185714Y-17154761D01*
X84042857Y-17202380D01*
X83947619Y-17202380D01*
X83804761Y-17154761D01*
X83709523Y-17059523D01*
X83661904Y-16964285D01*
X83614285Y-16773809D01*
X83614285Y-16630952D01*
X83661904Y-16440476D01*
X83709523Y-16345238D01*
X83804761Y-16250000D01*
X83947619Y-16202380D01*
X84042857Y-16202380D01*
X84185714Y-16250000D01*
X84233333Y-16297619D01*
X84709523Y-17202380D02*
X84900000Y-17202380D01*
X84995238Y-17154761D01*
X85042857Y-17107142D01*
X85138095Y-16964285D01*
X85185714Y-16773809D01*
X85185714Y-16392857D01*
X85138095Y-16297619D01*
X85090476Y-16250000D01*
X84995238Y-16202380D01*
X84804761Y-16202380D01*
X84709523Y-16250000D01*
X84661904Y-16297619D01*
X84614285Y-16392857D01*
X84614285Y-16630952D01*
X84661904Y-16726190D01*
X84709523Y-16773809D01*
X84804761Y-16821428D01*
X84995238Y-16821428D01*
X85090476Y-16773809D01*
X85138095Y-16726190D01*
X85185714Y-16630952D01*
%TO.C,U4*%
X166952380Y-119011904D02*
X167761904Y-119011904D01*
X167857142Y-118964285D01*
X167904761Y-118916666D01*
X167952380Y-118821428D01*
X167952380Y-118630952D01*
X167904761Y-118535714D01*
X167857142Y-118488095D01*
X167761904Y-118440476D01*
X166952380Y-118440476D01*
X167285714Y-117535714D02*
X167952380Y-117535714D01*
X166904761Y-117773809D02*
X167619047Y-118011904D01*
X167619047Y-117392857D01*
%TO.C,C11*%
X60787142Y-36277142D02*
X60739523Y-36324761D01*
X60596666Y-36372380D01*
X60501428Y-36372380D01*
X60358571Y-36324761D01*
X60263333Y-36229523D01*
X60215714Y-36134285D01*
X60168095Y-35943809D01*
X60168095Y-35800952D01*
X60215714Y-35610476D01*
X60263333Y-35515238D01*
X60358571Y-35420000D01*
X60501428Y-35372380D01*
X60596666Y-35372380D01*
X60739523Y-35420000D01*
X60787142Y-35467619D01*
X61739523Y-36372380D02*
X61168095Y-36372380D01*
X61453809Y-36372380D02*
X61453809Y-35372380D01*
X61358571Y-35515238D01*
X61263333Y-35610476D01*
X61168095Y-35658095D01*
X62691904Y-36372380D02*
X62120476Y-36372380D01*
X62406190Y-36372380D02*
X62406190Y-35372380D01*
X62310952Y-35515238D01*
X62215714Y-35610476D01*
X62120476Y-35658095D01*
%TO.C,U9*%
X130503095Y-109317380D02*
X130503095Y-110126904D01*
X130550714Y-110222142D01*
X130598333Y-110269761D01*
X130693571Y-110317380D01*
X130884047Y-110317380D01*
X130979285Y-110269761D01*
X131026904Y-110222142D01*
X131074523Y-110126904D01*
X131074523Y-109317380D01*
X131598333Y-110317380D02*
X131788809Y-110317380D01*
X131884047Y-110269761D01*
X131931666Y-110222142D01*
X132026904Y-110079285D01*
X132074523Y-109888809D01*
X132074523Y-109507857D01*
X132026904Y-109412619D01*
X131979285Y-109365000D01*
X131884047Y-109317380D01*
X131693571Y-109317380D01*
X131598333Y-109365000D01*
X131550714Y-109412619D01*
X131503095Y-109507857D01*
X131503095Y-109745952D01*
X131550714Y-109841190D01*
X131598333Y-109888809D01*
X131693571Y-109936428D01*
X131884047Y-109936428D01*
X131979285Y-109888809D01*
X132026904Y-109841190D01*
X132074523Y-109745952D01*
%TO.C,C22*%
X54837142Y-42677142D02*
X54789523Y-42724761D01*
X54646666Y-42772380D01*
X54551428Y-42772380D01*
X54408571Y-42724761D01*
X54313333Y-42629523D01*
X54265714Y-42534285D01*
X54218095Y-42343809D01*
X54218095Y-42200952D01*
X54265714Y-42010476D01*
X54313333Y-41915238D01*
X54408571Y-41820000D01*
X54551428Y-41772380D01*
X54646666Y-41772380D01*
X54789523Y-41820000D01*
X54837142Y-41867619D01*
X55218095Y-41867619D02*
X55265714Y-41820000D01*
X55360952Y-41772380D01*
X55599047Y-41772380D01*
X55694285Y-41820000D01*
X55741904Y-41867619D01*
X55789523Y-41962857D01*
X55789523Y-42058095D01*
X55741904Y-42200952D01*
X55170476Y-42772380D01*
X55789523Y-42772380D01*
X56170476Y-41867619D02*
X56218095Y-41820000D01*
X56313333Y-41772380D01*
X56551428Y-41772380D01*
X56646666Y-41820000D01*
X56694285Y-41867619D01*
X56741904Y-41962857D01*
X56741904Y-42058095D01*
X56694285Y-42200952D01*
X56122857Y-42772380D01*
X56741904Y-42772380D01*
%TO.C,C7*%
X60433333Y-34307142D02*
X60385714Y-34354761D01*
X60242857Y-34402380D01*
X60147619Y-34402380D01*
X60004761Y-34354761D01*
X59909523Y-34259523D01*
X59861904Y-34164285D01*
X59814285Y-33973809D01*
X59814285Y-33830952D01*
X59861904Y-33640476D01*
X59909523Y-33545238D01*
X60004761Y-33450000D01*
X60147619Y-33402380D01*
X60242857Y-33402380D01*
X60385714Y-33450000D01*
X60433333Y-33497619D01*
X60766666Y-33402380D02*
X61433333Y-33402380D01*
X61004761Y-34402380D01*
%TO.C,RS232*%
X133904761Y-91502380D02*
X133571428Y-91026190D01*
X133333333Y-91502380D02*
X133333333Y-90502380D01*
X133714285Y-90502380D01*
X133809523Y-90550000D01*
X133857142Y-90597619D01*
X133904761Y-90692857D01*
X133904761Y-90835714D01*
X133857142Y-90930952D01*
X133809523Y-90978571D01*
X133714285Y-91026190D01*
X133333333Y-91026190D01*
X134285714Y-91454761D02*
X134428571Y-91502380D01*
X134666666Y-91502380D01*
X134761904Y-91454761D01*
X134809523Y-91407142D01*
X134857142Y-91311904D01*
X134857142Y-91216666D01*
X134809523Y-91121428D01*
X134761904Y-91073809D01*
X134666666Y-91026190D01*
X134476190Y-90978571D01*
X134380952Y-90930952D01*
X134333333Y-90883333D01*
X134285714Y-90788095D01*
X134285714Y-90692857D01*
X134333333Y-90597619D01*
X134380952Y-90550000D01*
X134476190Y-90502380D01*
X134714285Y-90502380D01*
X134857142Y-90550000D01*
X135238095Y-90597619D02*
X135285714Y-90550000D01*
X135380952Y-90502380D01*
X135619047Y-90502380D01*
X135714285Y-90550000D01*
X135761904Y-90597619D01*
X135809523Y-90692857D01*
X135809523Y-90788095D01*
X135761904Y-90930952D01*
X135190476Y-91502380D01*
X135809523Y-91502380D01*
X136142857Y-90502380D02*
X136761904Y-90502380D01*
X136428571Y-90883333D01*
X136571428Y-90883333D01*
X136666666Y-90930952D01*
X136714285Y-90978571D01*
X136761904Y-91073809D01*
X136761904Y-91311904D01*
X136714285Y-91407142D01*
X136666666Y-91454761D01*
X136571428Y-91502380D01*
X136285714Y-91502380D01*
X136190476Y-91454761D01*
X136142857Y-91407142D01*
X137142857Y-90597619D02*
X137190476Y-90550000D01*
X137285714Y-90502380D01*
X137523809Y-90502380D01*
X137619047Y-90550000D01*
X137666666Y-90597619D01*
X137714285Y-90692857D01*
X137714285Y-90788095D01*
X137666666Y-90930952D01*
X137095238Y-91502380D01*
X137714285Y-91502380D01*
%TO.C,H4*%
X168252380Y-128261904D02*
X167252380Y-128261904D01*
X167728571Y-128261904D02*
X167728571Y-127690476D01*
X168252380Y-127690476D02*
X167252380Y-127690476D01*
X167585714Y-126785714D02*
X168252380Y-126785714D01*
X167204761Y-127023809D02*
X167919047Y-127261904D01*
X167919047Y-126642857D01*
%TO.C,R13*%
X25307142Y-55832380D02*
X24973809Y-55356190D01*
X24735714Y-55832380D02*
X24735714Y-54832380D01*
X25116666Y-54832380D01*
X25211904Y-54880000D01*
X25259523Y-54927619D01*
X25307142Y-55022857D01*
X25307142Y-55165714D01*
X25259523Y-55260952D01*
X25211904Y-55308571D01*
X25116666Y-55356190D01*
X24735714Y-55356190D01*
X26259523Y-55832380D02*
X25688095Y-55832380D01*
X25973809Y-55832380D02*
X25973809Y-54832380D01*
X25878571Y-54975238D01*
X25783333Y-55070476D01*
X25688095Y-55118095D01*
X26592857Y-54832380D02*
X27211904Y-54832380D01*
X26878571Y-55213333D01*
X27021428Y-55213333D01*
X27116666Y-55260952D01*
X27164285Y-55308571D01*
X27211904Y-55403809D01*
X27211904Y-55641904D01*
X27164285Y-55737142D01*
X27116666Y-55784761D01*
X27021428Y-55832380D01*
X26735714Y-55832380D01*
X26640476Y-55784761D01*
X26592857Y-55737142D01*
%TO.C,C13*%
X106787142Y-25357142D02*
X106739523Y-25404761D01*
X106596666Y-25452380D01*
X106501428Y-25452380D01*
X106358571Y-25404761D01*
X106263333Y-25309523D01*
X106215714Y-25214285D01*
X106168095Y-25023809D01*
X106168095Y-24880952D01*
X106215714Y-24690476D01*
X106263333Y-24595238D01*
X106358571Y-24500000D01*
X106501428Y-24452380D01*
X106596666Y-24452380D01*
X106739523Y-24500000D01*
X106787142Y-24547619D01*
X107739523Y-25452380D02*
X107168095Y-25452380D01*
X107453809Y-25452380D02*
X107453809Y-24452380D01*
X107358571Y-24595238D01*
X107263333Y-24690476D01*
X107168095Y-24738095D01*
X108072857Y-24452380D02*
X108691904Y-24452380D01*
X108358571Y-24833333D01*
X108501428Y-24833333D01*
X108596666Y-24880952D01*
X108644285Y-24928571D01*
X108691904Y-25023809D01*
X108691904Y-25261904D01*
X108644285Y-25357142D01*
X108596666Y-25404761D01*
X108501428Y-25452380D01*
X108215714Y-25452380D01*
X108120476Y-25404761D01*
X108072857Y-25357142D01*
%TO.C,C4*%
X55313333Y-44647142D02*
X55265714Y-44694761D01*
X55122857Y-44742380D01*
X55027619Y-44742380D01*
X54884761Y-44694761D01*
X54789523Y-44599523D01*
X54741904Y-44504285D01*
X54694285Y-44313809D01*
X54694285Y-44170952D01*
X54741904Y-43980476D01*
X54789523Y-43885238D01*
X54884761Y-43790000D01*
X55027619Y-43742380D01*
X55122857Y-43742380D01*
X55265714Y-43790000D01*
X55313333Y-43837619D01*
X56170476Y-44075714D02*
X56170476Y-44742380D01*
X55932380Y-43694761D02*
X55694285Y-44409047D01*
X56313333Y-44409047D01*
%TO.C,PS1*%
X93920714Y-17217380D02*
X93920714Y-16217380D01*
X94301666Y-16217380D01*
X94396904Y-16265000D01*
X94444523Y-16312619D01*
X94492142Y-16407857D01*
X94492142Y-16550714D01*
X94444523Y-16645952D01*
X94396904Y-16693571D01*
X94301666Y-16741190D01*
X93920714Y-16741190D01*
X94873095Y-17169761D02*
X95015952Y-17217380D01*
X95254047Y-17217380D01*
X95349285Y-17169761D01*
X95396904Y-17122142D01*
X95444523Y-17026904D01*
X95444523Y-16931666D01*
X95396904Y-16836428D01*
X95349285Y-16788809D01*
X95254047Y-16741190D01*
X95063571Y-16693571D01*
X94968333Y-16645952D01*
X94920714Y-16598333D01*
X94873095Y-16503095D01*
X94873095Y-16407857D01*
X94920714Y-16312619D01*
X94968333Y-16265000D01*
X95063571Y-16217380D01*
X95301666Y-16217380D01*
X95444523Y-16265000D01*
X96396904Y-17217380D02*
X95825476Y-17217380D01*
X96111190Y-17217380D02*
X96111190Y-16217380D01*
X96015952Y-16360238D01*
X95920714Y-16455476D01*
X95825476Y-16503095D01*
%TO.C,U1*%
X131988095Y-69352380D02*
X131988095Y-70161904D01*
X132035714Y-70257142D01*
X132083333Y-70304761D01*
X132178571Y-70352380D01*
X132369047Y-70352380D01*
X132464285Y-70304761D01*
X132511904Y-70257142D01*
X132559523Y-70161904D01*
X132559523Y-69352380D01*
X133559523Y-70352380D02*
X132988095Y-70352380D01*
X133273809Y-70352380D02*
X133273809Y-69352380D01*
X133178571Y-69495238D01*
X133083333Y-69590476D01*
X132988095Y-69638095D01*
%TO.C,BAT1*%
X91385714Y-31598571D02*
X91528571Y-31646190D01*
X91576190Y-31693809D01*
X91623809Y-31789047D01*
X91623809Y-31931904D01*
X91576190Y-32027142D01*
X91528571Y-32074761D01*
X91433333Y-32122380D01*
X91052380Y-32122380D01*
X91052380Y-31122380D01*
X91385714Y-31122380D01*
X91480952Y-31170000D01*
X91528571Y-31217619D01*
X91576190Y-31312857D01*
X91576190Y-31408095D01*
X91528571Y-31503333D01*
X91480952Y-31550952D01*
X91385714Y-31598571D01*
X91052380Y-31598571D01*
X92004761Y-31836666D02*
X92480952Y-31836666D01*
X91909523Y-32122380D02*
X92242857Y-31122380D01*
X92576190Y-32122380D01*
X92766666Y-31122380D02*
X93338095Y-31122380D01*
X93052380Y-32122380D02*
X93052380Y-31122380D01*
X94195238Y-32122380D02*
X93623809Y-32122380D01*
X93909523Y-32122380D02*
X93909523Y-31122380D01*
X93814285Y-31265238D01*
X93719047Y-31360476D01*
X93623809Y-31408095D01*
%TO.C,C12*%
X96687142Y-34867142D02*
X96639523Y-34914761D01*
X96496666Y-34962380D01*
X96401428Y-34962380D01*
X96258571Y-34914761D01*
X96163333Y-34819523D01*
X96115714Y-34724285D01*
X96068095Y-34533809D01*
X96068095Y-34390952D01*
X96115714Y-34200476D01*
X96163333Y-34105238D01*
X96258571Y-34010000D01*
X96401428Y-33962380D01*
X96496666Y-33962380D01*
X96639523Y-34010000D01*
X96687142Y-34057619D01*
X97639523Y-34962380D02*
X97068095Y-34962380D01*
X97353809Y-34962380D02*
X97353809Y-33962380D01*
X97258571Y-34105238D01*
X97163333Y-34200476D01*
X97068095Y-34248095D01*
X98020476Y-34057619D02*
X98068095Y-34010000D01*
X98163333Y-33962380D01*
X98401428Y-33962380D01*
X98496666Y-34010000D01*
X98544285Y-34057619D01*
X98591904Y-34152857D01*
X98591904Y-34248095D01*
X98544285Y-34390952D01*
X97972857Y-34962380D01*
X98591904Y-34962380D01*
%TO.C,U5*%
X49047495Y-43780480D02*
X49047495Y-44590004D01*
X49095114Y-44685242D01*
X49142733Y-44732861D01*
X49237971Y-44780480D01*
X49428447Y-44780480D01*
X49523685Y-44732861D01*
X49571304Y-44685242D01*
X49618923Y-44590004D01*
X49618923Y-43780480D01*
X50571304Y-43780480D02*
X50095114Y-43780480D01*
X50047495Y-44256671D01*
X50095114Y-44209052D01*
X50190352Y-44161433D01*
X50428447Y-44161433D01*
X50523685Y-44209052D01*
X50571304Y-44256671D01*
X50618923Y-44351909D01*
X50618923Y-44590004D01*
X50571304Y-44685242D01*
X50523685Y-44732861D01*
X50428447Y-44780480D01*
X50190352Y-44780480D01*
X50095114Y-44732861D01*
X50047495Y-44685242D01*
X47380828Y-46256671D02*
X47523685Y-46304290D01*
X47571304Y-46351909D01*
X47618923Y-46447147D01*
X47618923Y-46590004D01*
X47571304Y-46685242D01*
X47523685Y-46732861D01*
X47428447Y-46780480D01*
X47047495Y-46780480D01*
X47047495Y-45780480D01*
X47380828Y-45780480D01*
X47476066Y-45828100D01*
X47523685Y-45875719D01*
X47571304Y-45970957D01*
X47571304Y-46066195D01*
X47523685Y-46161433D01*
X47476066Y-46209052D01*
X47380828Y-46256671D01*
X47047495Y-46256671D01*
X48047495Y-46780480D02*
X48047495Y-45780480D01*
X48380828Y-46494766D01*
X48714161Y-45780480D01*
X48714161Y-46780480D01*
X49190352Y-46780480D02*
X49190352Y-45780480D01*
X49571304Y-45780480D01*
X49666542Y-45828100D01*
X49714161Y-45875719D01*
X49761780Y-45970957D01*
X49761780Y-46113814D01*
X49714161Y-46209052D01*
X49666542Y-46256671D01*
X49571304Y-46304290D01*
X49190352Y-46304290D01*
X50142733Y-45875719D02*
X50190352Y-45828100D01*
X50285590Y-45780480D01*
X50523685Y-45780480D01*
X50618923Y-45828100D01*
X50666542Y-45875719D01*
X50714161Y-45970957D01*
X50714161Y-46066195D01*
X50666542Y-46209052D01*
X50095114Y-46780480D01*
X50714161Y-46780480D01*
X51285590Y-46209052D02*
X51190352Y-46161433D01*
X51142733Y-46113814D01*
X51095114Y-46018576D01*
X51095114Y-45970957D01*
X51142733Y-45875719D01*
X51190352Y-45828100D01*
X51285590Y-45780480D01*
X51476066Y-45780480D01*
X51571304Y-45828100D01*
X51618923Y-45875719D01*
X51666542Y-45970957D01*
X51666542Y-46018576D01*
X51618923Y-46113814D01*
X51571304Y-46161433D01*
X51476066Y-46209052D01*
X51285590Y-46209052D01*
X51190352Y-46256671D01*
X51142733Y-46304290D01*
X51095114Y-46399528D01*
X51095114Y-46590004D01*
X51142733Y-46685242D01*
X51190352Y-46732861D01*
X51285590Y-46780480D01*
X51476066Y-46780480D01*
X51571304Y-46732861D01*
X51618923Y-46685242D01*
X51666542Y-46590004D01*
X51666542Y-46399528D01*
X51618923Y-46304290D01*
X51571304Y-46256671D01*
X51476066Y-46209052D01*
X52285590Y-45780480D02*
X52380828Y-45780480D01*
X52476066Y-45828100D01*
X52523685Y-45875719D01*
X52571304Y-45970957D01*
X52618923Y-46161433D01*
X52618923Y-46399528D01*
X52571304Y-46590004D01*
X52523685Y-46685242D01*
X52476066Y-46732861D01*
X52380828Y-46780480D01*
X52285590Y-46780480D01*
X52190352Y-46732861D01*
X52142733Y-46685242D01*
X52095114Y-46590004D01*
X52047495Y-46399528D01*
X52047495Y-46161433D01*
X52095114Y-45970957D01*
X52142733Y-45875719D01*
X52190352Y-45828100D01*
X52285590Y-45780480D01*
X48024400Y-47249480D02*
X48024400Y-47487576D01*
X47786304Y-47392338D02*
X48024400Y-47487576D01*
X48262495Y-47392338D01*
X47881542Y-47678052D02*
X48024400Y-47487576D01*
X48167257Y-47678052D01*
X48024400Y-47249480D02*
X48024400Y-47487576D01*
X47786304Y-47392338D02*
X48024400Y-47487576D01*
X48262495Y-47392338D01*
X47881542Y-47678052D02*
X48024400Y-47487576D01*
X48167257Y-47678052D01*
%TO.C,C14*%
X101497142Y-31857142D02*
X101449523Y-31904761D01*
X101306666Y-31952380D01*
X101211428Y-31952380D01*
X101068571Y-31904761D01*
X100973333Y-31809523D01*
X100925714Y-31714285D01*
X100878095Y-31523809D01*
X100878095Y-31380952D01*
X100925714Y-31190476D01*
X100973333Y-31095238D01*
X101068571Y-31000000D01*
X101211428Y-30952380D01*
X101306666Y-30952380D01*
X101449523Y-31000000D01*
X101497142Y-31047619D01*
X102449523Y-31952380D02*
X101878095Y-31952380D01*
X102163809Y-31952380D02*
X102163809Y-30952380D01*
X102068571Y-31095238D01*
X101973333Y-31190476D01*
X101878095Y-31238095D01*
X103306666Y-31285714D02*
X103306666Y-31952380D01*
X103068571Y-30904761D02*
X102830476Y-31619047D01*
X103449523Y-31619047D01*
%TO.C,D1*%
X69351904Y-30502380D02*
X69351904Y-29502380D01*
X69590000Y-29502380D01*
X69732857Y-29550000D01*
X69828095Y-29645238D01*
X69875714Y-29740476D01*
X69923333Y-29930952D01*
X69923333Y-30073809D01*
X69875714Y-30264285D01*
X69828095Y-30359523D01*
X69732857Y-30454761D01*
X69590000Y-30502380D01*
X69351904Y-30502380D01*
X70875714Y-30502380D02*
X70304285Y-30502380D01*
X70590000Y-30502380D02*
X70590000Y-29502380D01*
X70494761Y-29645238D01*
X70399523Y-29740476D01*
X70304285Y-29788095D01*
%TO.C,C8*%
X46683333Y-53267142D02*
X46635714Y-53314761D01*
X46492857Y-53362380D01*
X46397619Y-53362380D01*
X46254761Y-53314761D01*
X46159523Y-53219523D01*
X46111904Y-53124285D01*
X46064285Y-52933809D01*
X46064285Y-52790952D01*
X46111904Y-52600476D01*
X46159523Y-52505238D01*
X46254761Y-52410000D01*
X46397619Y-52362380D01*
X46492857Y-52362380D01*
X46635714Y-52410000D01*
X46683333Y-52457619D01*
X47254761Y-52790952D02*
X47159523Y-52743333D01*
X47111904Y-52695714D01*
X47064285Y-52600476D01*
X47064285Y-52552857D01*
X47111904Y-52457619D01*
X47159523Y-52410000D01*
X47254761Y-52362380D01*
X47445238Y-52362380D01*
X47540476Y-52410000D01*
X47588095Y-52457619D01*
X47635714Y-52552857D01*
X47635714Y-52600476D01*
X47588095Y-52695714D01*
X47540476Y-52743333D01*
X47445238Y-52790952D01*
X47254761Y-52790952D01*
X47159523Y-52838571D01*
X47111904Y-52886190D01*
X47064285Y-52981428D01*
X47064285Y-53171904D01*
X47111904Y-53267142D01*
X47159523Y-53314761D01*
X47254761Y-53362380D01*
X47445238Y-53362380D01*
X47540476Y-53314761D01*
X47588095Y-53267142D01*
X47635714Y-53171904D01*
X47635714Y-52981428D01*
X47588095Y-52886190D01*
X47540476Y-52838571D01*
X47445238Y-52790952D01*
D11*
%TO.C,C10*%
X53364165Y-48420000D02*
X53595835Y-48420000D01*
X53364165Y-49140000D02*
X53595835Y-49140000D01*
%TO.C,C6*%
X63694165Y-35470000D02*
X63925835Y-35470000D01*
X63694165Y-34750000D02*
X63925835Y-34750000D01*
D12*
%TO.C,U6*%
X46645000Y-51740000D02*
X46645000Y-51990000D01*
X43795000Y-48890000D02*
X43545000Y-48890000D01*
X46645000Y-48890000D02*
X46645000Y-49140000D01*
X43545000Y-48890000D02*
X43545000Y-49140000D01*
X46395000Y-48890000D02*
X46645000Y-48890000D01*
X46645000Y-51990000D02*
X46395000Y-51990000D01*
X43545000Y-51740000D02*
X43545000Y-51990000D01*
X43545000Y-51990000D02*
X43795000Y-51990000D01*
D13*
X42795000Y-49440000D02*
G75*
G03*
X42795000Y-49440000I-100000J0D01*
G01*
%TO.C,USB1*%
X153290000Y-81430000D02*
X153290000Y-80150000D01*
X143710000Y-80150000D02*
X143710000Y-81430000D01*
X143710000Y-85400000D02*
X143710000Y-84150000D01*
X153290000Y-80150000D02*
X143710000Y-80150000D01*
X153290000Y-85400000D02*
X153290000Y-84150000D01*
D11*
%TO.C,U7*%
X105850000Y-17640000D02*
X111860000Y-17640000D01*
X111860000Y-24460000D02*
X111860000Y-23200000D01*
X111860000Y-17640000D02*
X111860000Y-18900000D01*
X108100000Y-24460000D02*
X111860000Y-24460000D01*
%TO.C,C2*%
X43484165Y-55700000D02*
X43715835Y-55700000D01*
X43484165Y-56420000D02*
X43715835Y-56420000D01*
%TO.C,C21*%
X61314165Y-38690000D02*
X61545835Y-38690000D01*
X61314165Y-39410000D02*
X61545835Y-39410000D01*
%TO.C,R6*%
X43452379Y-53700000D02*
X43787621Y-53700000D01*
X43452379Y-54460000D02*
X43787621Y-54460000D01*
%TO.C,R5*%
X57202379Y-34740000D02*
X57537621Y-34740000D01*
X57202379Y-35500000D02*
X57537621Y-35500000D01*
%TO.C,C15*%
X97068748Y-33915000D02*
X97591252Y-33915000D01*
X97068748Y-32445000D02*
X97591252Y-32445000D01*
%TO.C,CAN1*%
X166540000Y-86710000D02*
X165260000Y-86710000D01*
X156460000Y-88310000D02*
X156460000Y-86710000D01*
X155440000Y-84060000D02*
X155440000Y-88310000D01*
X156460000Y-86710000D02*
X157740000Y-86710000D01*
X167560000Y-84060000D02*
X167560000Y-88310000D01*
X166540000Y-88310000D02*
X166540000Y-86710000D01*
X165260000Y-86710000D02*
X165260000Y-89600000D01*
X165840000Y-80490000D02*
X157160000Y-80490000D01*
X155440000Y-88310000D02*
X156460000Y-88310000D01*
X167560000Y-88310000D02*
X166540000Y-88310000D01*
%TO.C,R12*%
X19282379Y-54970000D02*
X19617621Y-54970000D01*
X19282379Y-55730000D02*
X19617621Y-55730000D01*
%TO.C,C9*%
X84284165Y-18270000D02*
X84515835Y-18270000D01*
X84284165Y-17550000D02*
X84515835Y-17550000D01*
D10*
%TO.C,U4*%
X161100000Y-123250000D02*
X161600000Y-123250000D01*
X173250000Y-113250000D02*
X172900000Y-113250000D01*
X161100000Y-113250000D02*
X161100000Y-123250000D01*
X172900000Y-113250000D02*
X172900000Y-112450000D01*
X173250000Y-123250000D02*
X172900000Y-123250000D01*
X161100000Y-113250000D02*
X161600000Y-113250000D01*
X173250000Y-113250000D02*
X173250000Y-123250000D01*
D11*
%TO.C,C11*%
X61314165Y-37440000D02*
X61545835Y-37440000D01*
X61314165Y-36720000D02*
X61545835Y-36720000D01*
D12*
%TO.C,U9*%
X130175000Y-113675000D02*
X130175000Y-114850000D01*
X146325000Y-113675000D02*
X146325000Y-114850000D01*
X130175000Y-113675000D02*
X146325000Y-113675000D01*
X130175000Y-129825000D02*
X130175000Y-129650000D01*
X146325000Y-129825000D02*
X146325000Y-129650000D01*
X146325000Y-129825000D02*
X130175000Y-129825000D01*
D13*
X128950000Y-114750000D02*
G75*
G03*
X128950000Y-114750000I-100000J0D01*
G01*
D11*
%TO.C,C22*%
X55364165Y-43120000D02*
X55595835Y-43120000D01*
X55364165Y-43840000D02*
X55595835Y-43840000D01*
%TO.C,C7*%
X60484165Y-35470000D02*
X60715835Y-35470000D01*
X60484165Y-34750000D02*
X60715835Y-34750000D01*
%TO.C,RS232*%
X140540000Y-88560000D02*
X140540000Y-86960000D01*
X129440000Y-88560000D02*
X130460000Y-88560000D01*
X139260000Y-86960000D02*
X139260000Y-89850000D01*
X139840000Y-80740000D02*
X131160000Y-80740000D01*
X130460000Y-86960000D02*
X131740000Y-86960000D01*
X141560000Y-84310000D02*
X141560000Y-88560000D01*
X140540000Y-86960000D02*
X139260000Y-86960000D01*
X130460000Y-88560000D02*
X130460000Y-86960000D01*
X129440000Y-84310000D02*
X129440000Y-88560000D01*
X141560000Y-88560000D02*
X140540000Y-88560000D01*
%TO.C,R13*%
X25782379Y-56930000D02*
X26117621Y-56930000D01*
X25782379Y-56170000D02*
X26117621Y-56170000D01*
%TO.C,C13*%
X107168748Y-25945000D02*
X107691252Y-25945000D01*
X107168748Y-27415000D02*
X107691252Y-27415000D01*
%TO.C,C4*%
X55364165Y-45090000D02*
X55595835Y-45090000D01*
X55364165Y-45810000D02*
X55595835Y-45810000D01*
D12*
%TO.C,PS1*%
X93900000Y-28930000D02*
X93900000Y-30900000D01*
X93900000Y-17700000D02*
X93900000Y-19670000D01*
X93900000Y-30900000D02*
X102400000Y-30900000D01*
X102400000Y-17700000D02*
X102400000Y-19670000D01*
X102400000Y-28930000D02*
X102400000Y-30900000D01*
X93900000Y-17700000D02*
X102400000Y-17700000D01*
D13*
X91075000Y-19720000D02*
G75*
G03*
X91075000Y-19720000I-100000J0D01*
G01*
D10*
%TO.C,U1*%
X131075000Y-74175000D02*
X131075000Y-73875000D01*
X134425000Y-70825000D02*
X134425000Y-71125000D01*
X134425000Y-74175000D02*
X134425000Y-73875000D01*
X131075000Y-70825000D02*
X131075000Y-71050000D01*
X131075000Y-70825000D02*
X134425000Y-70825000D01*
X131075000Y-74175000D02*
X134425000Y-74175000D01*
X131075000Y-71050000D02*
X129850000Y-71050000D01*
D11*
%TO.C,BAT1*%
X91270000Y-34000000D02*
X91270000Y-32670000D01*
X91270000Y-32670000D02*
X92600000Y-32670000D01*
X91270000Y-35270000D02*
X91270000Y-37870000D01*
X91270000Y-37870000D02*
X93930000Y-37870000D01*
X91270000Y-35270000D02*
X93930000Y-35270000D01*
X93930000Y-35270000D02*
X93930000Y-37870000D01*
%TO.C,C12*%
X97068748Y-35455000D02*
X97591252Y-35455000D01*
X97068748Y-36925000D02*
X97591252Y-36925000D01*
%TO.C,U5*%
X48387000Y-49271987D02*
X48387000Y-49984213D01*
X51231800Y-49984213D02*
X51231800Y-49271987D01*
%TO.C,C14*%
X101878748Y-32445000D02*
X102401252Y-32445000D01*
X101878748Y-33915000D02*
X102401252Y-33915000D01*
%TO.C,D1*%
X70090000Y-30890000D02*
X68415000Y-30890000D01*
X70090000Y-34010000D02*
X70740000Y-34010000D01*
X70090000Y-34010000D02*
X69440000Y-34010000D01*
X70090000Y-30890000D02*
X70740000Y-30890000D01*
%TO.C,C8*%
X46734165Y-54430000D02*
X46965835Y-54430000D01*
X46734165Y-53710000D02*
X46965835Y-53710000D01*
%TD*%
M02*
